<?xml version="1.0" encoding="UTF-8"?>
<svg xmlns="http://www.w3.org/2000/svg" xmlns:xlink="http://www.w3.org/1999/xlink" viewBox="0 0 1158.14 760">
  <defs>
    <style>
      .cls-1 {
        fill: #89740c;
      }

      .cls-1, .cls-2, .cls-3, .cls-4, .cls-5, .cls-6, .cls-7, .cls-8, .cls-9, .cls-10, .cls-11, .cls-12, .cls-13, .cls-14, .cls-15, .cls-16, .cls-17, .cls-18, .cls-19, .cls-20, .cls-21, .cls-22, .cls-23, .cls-24, .cls-25, .cls-26, .cls-27, .cls-28, .cls-29, .cls-30, .cls-31, .cls-32, .cls-33, .cls-34, .cls-35, .cls-36, .cls-37, .cls-38, .cls-39, .cls-40, .cls-41, .cls-42, .cls-43, .cls-44, .cls-45, .cls-46, .cls-47, .cls-48, .cls-49, .cls-50, .cls-51, .cls-52, .cls-53, .cls-54, .cls-55, .cls-56, .cls-57, .cls-58, .cls-59, .cls-60, .cls-61, .cls-62, .cls-63 {
        stroke-width: 0px;
      }

      .cls-2 {
        fill: #8b7c00;
      }

      .cls-3 {
        fill: #ffe7e1;
      }

      .cls-4 {
        fill: #b29a0b;
      }

      .cls-5 {
        fill: #ede65f;
      }

      .cls-6 {
        fill: #b29a9a;
      }

      .cls-7 {
        fill: #f2c7b6;
      }

      .cls-8 {
        fill: #b73d4f;
      }

      .cls-9 {
        fill: #63394c;
      }

      .cls-10 {
        fill: #ddbea6;
      }

      .cls-11 {
        fill: #7a485a;
      }

      .cls-12 {
        fill: #561a3c;
      }

      .cls-13 {
        fill: #9b8181;
      }

      .cls-14 {
        fill: url(#linear-gradient);
      }

      .cls-15 {
        fill: #872533;
      }

      .cls-16 {
        fill: #5d4e65;
      }

      .cls-17 {
        fill: #ddb2a2;
      }

      .cls-18 {
        fill: #eac2b0;
      }

      .cls-19 {
        fill: #fcb18b;
      }

      .cls-20 {
        fill: #c99e8d;
      }

      .cls-21 {
        fill: #fff;
        opacity: .25;
      }

      .cls-21, .cls-64, .cls-65, .cls-66 {
        mix-blend-mode: lighten;
      }

      .cls-22 {
        fill: #b29b0f;
      }

      .cls-23 {
        fill: #9e890d;
      }

      .cls-24 {
        fill: #fc9112;
      }

      .cls-67, .cls-57, .cls-61 {
        mix-blend-mode: multiply;
      }

      .cls-25 {
        fill: #dd5878;
      }

      .cls-26 {
        fill: #a3313c;
      }

      .cls-27 {
        fill: #cca597;
      }

      .cls-28 {
        fill: #997676;
      }

      .cls-29 {
        fill: #ceb0af;
      }

      .cls-30 {
        fill: #543141;
      }

      .cls-31 {
        fill: #ddb99f;
      }

      .cls-32 {
        fill: #ffebd9;
      }

      .cls-33 {
        fill: #ffddba;
      }

      .cls-34 {
        fill: #ffc688;
      }

      .cls-35 {
        fill: #b8d6f4;
      }

      .cls-36 {
        fill: #efcece;
      }

      .cls-37 {
        fill: #d6b2a5;
      }

      .cls-38 {
        fill: #efcdaf;
      }

      .cls-39, .cls-57 {
        fill: #bc9c9c;
      }

      .cls-40 {
        fill: #f9e1e1;
      }

      .cls-41 {
        fill: #5e5167;
      }

      .cls-65 {
        opacity: .85;
      }

      .cls-66 {
        opacity: .75;
      }

      .cls-42 {
        fill: #aa8b83;
      }

      .cls-43 {
        fill: #663b4d;
      }

      .cls-44 {
        fill: #6b5500;
      }

      .cls-45 {
        fill: #a2c4ed;
      }

      .cls-46 {
        fill: #776603;
      }

      .cls-47 {
        fill: #42112f;
      }

      .cls-48 {
        fill: url(#linear-gradient-4);
      }

      .cls-49 {
        fill: url(#linear-gradient-2);
      }

      .cls-50 {
        fill: url(#linear-gradient-3);
      }

      .cls-51 {
        fill: url(#linear-gradient-8);
      }

      .cls-52 {
        fill: url(#linear-gradient-9);
      }

      .cls-53 {
        fill: url(#linear-gradient-7);
      }

      .cls-54 {
        fill: url(#linear-gradient-5);
      }

      .cls-55 {
        fill: url(#linear-gradient-6);
      }

      .cls-56 {
        fill: #e7dff6;
      }

      .cls-68 {
        isolation: isolate;
      }

      .cls-58 {
        fill: #cfc6e5;
      }

      .cls-59 {
        fill: #c9aa95;
      }

      .cls-60 {
        fill: #f7f4fd;
      }

      .cls-61 {
        fill: #b24f67;
        opacity: .5;
      }

      .cls-62 {
        fill: #9d850e;
      }

      .cls-63 {
        fill: #ccb409;
      }
    </style>
    <linearGradient id="linear-gradient" x1="565.79" y1="436.59" x2="565.79" y2="-171.15" gradientUnits="userSpaceOnUse">
      <stop offset="0" stop-color="#e1feff"/>
      <stop offset=".17" stop-color="#daf7fe"/>
      <stop offset=".42" stop-color="#c6e5fe"/>
      <stop offset=".71" stop-color="#a7c7fd"/>
      <stop offset=".99" stop-color="#82a4fc"/>
    </linearGradient>
    <linearGradient id="linear-gradient-2" x1="-14.46" y1="487.98" x2="1146.18" y2="487.98" gradientUnits="userSpaceOnUse">
      <stop offset="0" stop-color="#d6d634"/>
      <stop offset=".49" stop-color="#e7ea4c"/>
      <stop offset=".71" stop-color="#e2e445"/>
      <stop offset=".99" stop-color="#d6d634"/>
    </linearGradient>
    <linearGradient id="linear-gradient-3" x1="447.75" y1="192.26" x2="491.83" y2="192.26" gradientUnits="userSpaceOnUse">
      <stop offset="0" stop-color="#f49d3d"/>
      <stop offset="1" stop-color="#ef8126"/>
    </linearGradient>
    <linearGradient id="linear-gradient-4" x1="434.73" y1="388.34" x2="637.44" y2="388.34" xlink:href="#linear-gradient-3"/>
    <linearGradient id="linear-gradient-5" x1="682.45" y1="300" x2="914.33" y2="300" gradientUnits="userSpaceOnUse">
      <stop offset="0" stop-color="#ffaf50"/>
      <stop offset="1" stop-color="#ff9f43"/>
    </linearGradient>
    <linearGradient id="linear-gradient-6" x1="819.88" y1="265.07" x2="819.88" y2="163.58" xlink:href="#linear-gradient-5"/>
    <linearGradient id="linear-gradient-7" x1="563.28" y1="315.35" x2="563.28" y2="134.92" xlink:href="#linear-gradient-5"/>
    <linearGradient id="linear-gradient-8" x1="775.79" y1="388.34" x2="973.62" y2="388.34" xlink:href="#linear-gradient-5"/>
    <linearGradient id="linear-gradient-9" x1="709.45" y1="476.05" x2="709.45" y2="254.27" xlink:href="#linear-gradient-5"/>
  </defs>
  <g class="cls-68">
    <g id="Layer_1" data-name="Layer 1">
      <g>
        <rect class="cls-14" x="-13.28" y="-168.64" width="1158.14" height="696.08"/>
        <g>
          <g>
            <path class="cls-60" d="M1104.92,230.3s-8.98,7.76-9.72,7.76h-126.07s-12.94-.32-9.93-9.63c3.01-9.29,15.62-16.36,18.65-14.14-.17-.33-2.87-5.68-5.01-11.84-1.76-5.05-3.16-10.63-2.49-14.47.19-1.11.89-2.62,1.98-4.4,1.37-2.21,3.33-4.85,5.7-7.69,10.62-12.75,29.24-29.62,36.55-30.3,10.23-.96,41.22,28.9,42.72,35.64,1.48,6.61-4.27,19.68-4.5,20.22.67-.4,25.44-15.33,38.5-10.59,5.42,1.98,9.43,7.46,12.23,13.6,2.47,5.41,4,11.35,4.74,15.89.61,3.73-.65,7.5-3.34,9.95Z"/>
            <path class="cls-56" d="M1104.93,230.3s-8.99,7.77-9.72,7.77h-126.08s-12.94-.31-9.93-9.63c3.01-9.3,15.62-16.37,18.65-14.14-.17-.34-2.87-5.69-5.02-11.85,4.64,3.14,9.79,5.4,15.17,6.58-7.34-6.67-12.73-15.64-15.67-25.44,1.36-2.2,3.33-4.84,5.7-7.68,13.36,21.78,36.4,36.87,60.82,38.61-5.82-7.7-8.66-17.9-7.71-27.74,7.58,17.1,22.91,30.08,40.25,34.07-7.16-4.66-11.84-13.41-11.94-22.37,7.35,11.16,21.74,16.38,33.94,12.32,4.11-1.37,7.33-3.57,10.13-6.33,2.47,5.41,4.01,11.36,4.74,15.9.6,3.72-.65,7.49-3.33,9.94Z"/>
          </g>
          <path class="cls-58" d="M1092.88,238.06h-121.53c41.02-10.13,93.16-4.47,121.53,0Z"/>
        </g>
        <g>
          <g>
            <path class="cls-60" d="M697.76,188.61h-348.08c-3.47,0-6.73-1.94-8.55-5.11l-.05-.1c-2.11-3.69-1.35-8.49,1.81-11.23l11.5-10.02c3.72-3.24,8.81-3.95,13.18-1.86l10.48,5-10.77-25.62c-3.07-7.33-1.81-15.93,3.27-21.86.1-.12.19-.23.29-.36,4.45-5.17,10.2-11.73,16.37-18.28.72-.78,1.46-1.53,2.18-2.3,12.39-12.93,25.97-25.23,33.55-26.13,16.39-1.96,63.72,33.02,63.72,44.04,0,9.12-2.92,30.71-3.92,37.83-.2,1.46-.33,2.31-.33,2.31,0,0,1.78-3.87,4.66-9.31,6.52-12.25,18.63-32.47,28.71-34.73,14.55-3.23,66.13,27.85,65.53,36.92-.42,6.43-4.51,18.69-6.85,25.29-.91,2.58-1.56,4.29-1.63,4.48.68-.41,23.79-14.21,32.75-12.29l6.07,3.88s-10.08-10.76-8.34-21.66c.26-1.64.79-3.28,1.67-4.89,6.67-12.31,26.7-33.66,42.48-33.66s54,25.9,58.85,45.97c.51,2.13.97,4.2,1.37,6.18,1,4.69,1.7,8.93,2.2,12.58,1.08,7.88-4.68,14.92-12.13,14.92Z"/>
            <path class="cls-56" d="M700.42,188.29c-.86.21-1.74.31-2.66.31h-348.08c-3.47,0-6.73-1.94-8.55-5.11l-.05-.1c-2.11-3.69-1.35-8.49,1.81-11.23l11.5-10.02c3.72-3.24,8.81-3.95,13.18-1.86l10.48,5-10.77-25.62c-3.07-7.33-1.81-15.93,3.27-21.86.1-.12.19-.23.29-.36,7.78,17.2,21.75,31.27,38.54,37.98-16.42-12.36-24.99-35.17-22.16-56.26.72-.78,1.46-1.53,2.18-2.3.68,5.87,3.11,11.58,6.48,16.34,4.97,7.03,11.81,12.26,18.74,17.05,12.95,8.94,26.65,16.65,40.87,23.02,5.92,2.65,12.29,5.13,18.63,4.1,3.22-.53,6.38-2.28,8.63-4.77-.2,1.46-.33,2.31-.33,2.31,0,0,1.78-3.87,4.66-9.31,3.09,5.65,6.18,11.28,9.26,16.93,6.28-4.84,10.34-12.78,10.75-21.03,11.67,12.29,25.97,21.77,41.47,27.5,8.28,3.05,17.28,5,25.9,4.09-.91,2.58-1.56,4.29-1.63,4.48.68-.41,23.79-14.21,32.75-12.29l6.07,3.88s-10.08-10.76-8.34-21.66c4.95,13.41,16.72,23.97,30.14,26.17-2.75-7.27-5.51-14.55-8.25-21.82,12.67,14.55,28.61,27.67,47.16,29.16,8.75.7,17.78-2.12,24.97-7.41,3.6-2.64,6.84-5.91,9.25-9.79.4-.64.76-1.6,1.1-2.72,1,4.69,1.7,8.93,2.2,12.58.95,6.9-3.37,13.17-9.47,14.6Z"/>
          </g>
          <path class="cls-58" d="M700.42,188.29c-.86.21-1.74.31-2.66.31h-340.19c83.81-15.26,268.49-5.24,342.86-.31Z"/>
        </g>
        <path class="cls-35" d="M1144.86,422.35l-10.18.64v-59.71l-15.8-.9-9.4,6.37v50.14l-6.83-.92-.86-83.85-19.64-2.73-5.98,9.12v73.83h-16.49l-2.29-90.24-10.25-16.41-10.25,16.41v89.94l-27.34-37.98h-24.76l-15.37,60.16s108.47,28.25,111.04,26.43c1.38-.97,34.26-5.1,64.41-8.73v-31.56Z"/>
        <polygon class="cls-35" points="258.38 400.44 293.61 385.4 314.75 392.92 322.44 401.8 324.36 438.72 262.97 434.23 258.38 400.44"/>
        <polygon class="cls-35" points="241.09 431.79 241.7 344.76 251.42 344.76 261.75 357.77 262.97 434.23 267.83 432.61 266 328.49 273.91 325.24 286.67 335 288.49 433.42 253.24 442.37 241.09 431.79"/>
        <polygon class="cls-35" points="246 442.59 243.86 397.49 228.06 396.64 229.77 325.4 222.94 306.01 218.78 276.47 218.67 273.97 214.4 304.32 207.57 323.71 210.13 396.22 193.05 397.06 191.34 440.91 211.06 440.91 210.98 442.59 246 442.59"/>
        <polygon class="cls-45" points="195.61 408.41 227.64 414.79 248.99 401.12 269.06 413.43 297.24 411.6 309.63 432.11 189.63 436.67 195.61 408.41"/>
        <polygon class="cls-45" points="168.22 382.16 168.97 315.55 152.38 314.73 153.89 290.36 143.75 268.5 121.07 268.5 110.92 290.36 112.43 314.73 95.84 315.55 96.6 382.16 64.93 385.41 67.19 447.15 132.41 442.18 200.73 448.29 199.88 385.41 168.22 382.16"/>
        <polygon class="cls-45" points="-13.28 381.02 -13.28 452.82 73.9 444.87 71.34 228.85 44.44 216.54 25.86 224.06 34.19 377.88 31.62 379.24 25.22 253.46 3.44 253.46 -3.61 265.08 4.72 379.93 -13.28 381.02"/>
        <path class="cls-49" d="M300.92,426.39c-19.63.4-38.8.84-57.47,1.33-12.94.33-25.65.69-38.09,1.07-18.54.56-36.5,1.18-53.84,1.82-10.7.4-21.17.81-31.37,1.23-19.46.81-37.99,1.67-55.47,2.58-9.56.48-18.79.99-27.7,1.51-10.22.58-20,1.18-29.34,1.79-7.33.48-14.34.02-20.94-.06v113.98h1158.14v-105.59c-276.25-21.63-595.67-24.63-843.93-19.66Z"/>
        <g>
          <path class="cls-5" d="M36.99,435.93c-10.22.58-20,1.18-29.34,1.79-7.33.48-14.34.02-20.94-.06v4.52c21.81,5.51,68.29,19.13,111.85,44.09l16.53-1.18s-7-17.07-78.11-49.16Z"/>
          <path class="cls-5" d="M186.73,475.68l-16.53,1.18c-39.7-22.76-81.85-36.09-105.51-42.44,17.48-.91,36.01-1.76,55.47-2.58,60.35,28.65,66.58,43.84,66.58,43.84Z"/>
          <path class="cls-5" d="M266.09,469.8l-16.53,1.18c-35.8-20.51-73.59-33.37-98.02-40.37,17.33-.65,35.29-1.26,53.83-1.82,54.91,26.83,60.73,41.01,60.73,41.01Z"/>
          <path class="cls-5" d="M364.17,468.63l-16.53,1.18c-38.97-22.34-80.3-35.59-104.19-42.08,18.67-.49,37.85-.93,57.47-1.33,57.25,27.62,63.25,42.24,63.25,42.24Z"/>
        </g>
        <g>
          <g>
            <g>
              <polygon class="cls-3" points="-13.28 456.66 -13.28 458.7 344.26 425.05 346.13 420.77 -13.28 456.66"/>
              <polygon class="cls-7" points="-13.28 458.79 -13.28 460.83 345.11 427.1 346.98 422.82 -13.28 458.79"/>
            </g>
            <g>
              <polygon class="cls-3" points="-13.28 468.35 -13.28 470.37 347.7 443.27 349.64 439.03 -13.28 468.35"/>
              <polygon class="cls-7" points="-13.28 470.48 -13.28 472.5 348.52 445.34 350.46 441.1 -13.28 470.48"/>
            </g>
          </g>
          <g>
            <g>
              <polygon class="cls-3" points="273.7 466.18 267.29 465.5 263.14 423.11 268.91 420.72 273.39 421.06 273.39 421.28 273.7 466.18"/>
              <polygon class="cls-7" points="273.7 466.18 269.83 465.77 267.29 465.5 263.14 423.11 267.78 424.14 273.39 421.28 273.7 466.18"/>
              <path class="cls-17" d="M273.7,466.18l-3.87-.41c-.35-9.97-2.05-41.63-2.05-41.63l5.61-2.86.31,44.9Z"/>
            </g>
            <g>
              <polygon class="cls-3" points="168.16 477.78 163.08 477.36 157.83 435.21 162.26 432.57 165.81 432.73 165.82 432.95 168.16 477.78"/>
              <polygon class="cls-7" points="168.16 477.78 165.09 477.53 163.08 477.36 157.83 435.21 161.54 436.04 165.82 432.95 168.16 477.78"/>
              <path class="cls-17" d="M168.16,477.78l-3.07-.25c-.74-9.94-3.55-41.5-3.55-41.5l4.29-3.09,2.33,44.83Z"/>
            </g>
            <g>
              <polygon class="cls-3" points="8.17 490.73 3.73 490.4 -1.58 451.26 2.24 448.76 5.33 448.85 5.35 449.06 8.17 490.73"/>
              <polygon class="cls-7" points="8.17 490.73 5.49 490.53 3.73 490.4 -1.58 451.26 1.66 451.98 5.35 449.06 8.17 490.73"/>
              <path class="cls-17" d="M8.17,490.73l-2.68-.19c-.82-9.24-3.83-38.55-3.83-38.55l3.68-2.93,2.82,41.67Z"/>
            </g>
            <g>
              <polygon class="cls-3" points="72.87 484.91 68.43 484.59 63.12 445.45 66.93 442.95 70.03 443.04 70.04 443.25 72.87 484.91"/>
              <polygon class="cls-7" points="72.87 484.91 70.19 484.72 68.43 484.59 63.12 445.45 66.36 446.17 70.04 443.25 72.87 484.91"/>
              <path class="cls-17" d="M72.87,484.91l-2.68-.19c-.82-9.24-3.83-38.55-3.83-38.55l3.68-2.93,2.82,41.67Z"/>
            </g>
          </g>
        </g>
        <g>
          <path class="cls-1" d="M322.84,405.82c2.56-22.35,6.79-45.28.66-67.01,5.87,14.57,11.73,29.13,17.6,43.7,6.3,15.65,12.63,31.38,16.26,47.77,1.98,8.95,3.07,18.57-.72,26.99-3.05,6.77-10.28,12.53-18.31,12.93-8.57.43-10.34-5.61-12.71-12.58-5.64-16.65-4.74-34.66-2.78-51.8Z"/>
          <path class="cls-23" d="M389.06,465.53l-58.32,6.54s-1.45-8.01-2.39-18.29c-1.38-14.91-1.71-34.61,5-41.39,4.87-4.92,9.4-15.12,12.59-26.26,1.45-5.08,2.62-10.36,3.41-15.42,1.51-9.66,1.63-18.53-.33-23.75-5.16-13.72,1.43-81.52,1.23-83.02.72,1.28,8.48,48.88,17.92,60.95,1.98,2.55,3.89,5.05,5.67,7.6,6.79,9.74,11.56,20.03,10.86,34.92-.86,18.8-6.96,45.79-3.47,62.15,3.47,16.35,7.83,35.97,7.83,35.97Z"/>
          <path class="cls-1" d="M389.06,465.53l-58.32,6.54s-1.45-8.01-2.39-18.29c2.73-3.63,5.42-7.3,7.69-11.21,9.88-17.04,11.05-36.78,9.9-56.44,1.45-5.08,2.62-10.36,3.41-15.42,2.06,3.26,2.61,7.87,2.74,11.85.2,6.21,2.04,14.06,8.54,15.12,6.53,1.07,11.18-5.95,12.53-12.04,2.7-11.98.6-24.38-.04-36.62-.18-3.46-.2-10.12.72-16.51,6.79,9.73,11.56,20.02,10.86,34.91-.86,18.8-6.96,45.79-3.47,62.15,3.47,16.35,7.83,35.97,7.83,35.97Z"/>
        </g>
        <g>
          <path class="cls-2" d="M443.41,389.5l-1.55,77.77-.27,13.72-40.38-5.31s-2.24-11.73-4.75-26.49c-3.38-19.94-7.27-45.41-6.77-54.9.38-7.24-.39-28.76-1.38-50.66-.58-12.81-1.23-25.76-1.77-36.05-.64-12.29-1.12-20.79-1.12-20.79l7.24-48.8.63-4.29,1.03-6.93,17.61-13.15,12.95,23.73,6.97,52.85,2.81,21.37,2.96,26.32,5.8,51.61Z"/>
          <path class="cls-46" d="M433.28,433.52c2.9,11.16,6.13,22.37,8.58,33.75l-.27,13.72-40.38-5.31s-2.24-11.73-4.75-26.49c.18-.7.37-1.4.56-2.08,2.7-9.55,6.45-18.8,6.82-29.22.44-11.98-3.59-23.46-6.74-34.79-3.55-12.79-6.1-26.2-8.8-39.48-.58-12.81-1.23-25.76-1.77-36.05,5.03,4.73,9.83,9.68,12.13,17.32,3.91,13-1.29,27.75.93,41.44.8,4.92,3.67,10.37,7.04,9.26,2.43-.79,3.64-4.59,4.26-8.04,3.04-16.95-.25-35.12-3.54-52.34-4.9-25.75-9.81-51.5-14.7-77.24l.63-4.29c5.52,19.91,11.05,39.83,16.58,59.74,1.34,4.84,3.03,10.2,6.41,12.14,4.47,2.57,9.08-2.37,11.97-7.62,1.37-2.5,2.57-5.09,3.6-7.77l2.81,21.37,2.96,26.32c-3.53,9.53-7.72,18.66-9.93,29.03-4.55,21.45-.01,45.09,5.6,66.61Z"/>
        </g>
        <g>
          <path class="cls-1" d="M1009.23,411.56s-3.94-27.67-1.75-38.7c2.19-11.03,2.08-39.3,2.08-39.3,0,0,10.29,26.05,12.34,36,2.05,9.95-.81,38.8-.81,38.8l-11.86,3.2Z"/>
          <g>
            <path class="cls-23" d="M1059.67,412.33c.25,7.28-.38,63.87-.38,63.87l-49.18-13.6s-7-33.38-4.35-50.04c.2-1.32.48-2.55.81-3.63,4.62-14.78,21.88-60.13,17.59-85.51-4.21-24.91,20.93-58.86,21.86-60.09-.51,1.09-9.5,19.93-7.33,34.9.57,3.95,1.55,8.59,2.79,13.53.43,1.79.92,3.62,1.42,5.47,3.48,12.89,8.13,26.87,11.22,35.68.04.12.09.24.13.35,4.73,13.5,5.18,51.79,5.43,59.07Z"/>
            <path class="cls-1" d="M1059.67,412.33c.25,7.28-.38,63.87-.38,63.87l-49.18-13.6s-7-33.38-4.35-50.04c2.91,6.47,6.47,12.62,10.59,18.3,2.23,3.09,4.92,6.21,8.49,6.93,4.88.97,9.66-3.13,11.45-8.07,1.78-4.94,1.27-10.45.54-15.69-2.66-19.05-7.94-37.75-8.39-57.01-.38-16.12,3.34-33.33,13.04-45.27.43,1.79.92,3.62,1.42,5.47-8.07,22.25-10.35,46.88-6.34,70.36,8.8-10.81,14.25-22.39,17.56-34.68.04.12.09.24.13.35,4.73,13.5,5.18,51.79,5.43,59.07Z"/>
          </g>
        </g>
        <g>
          <path class="cls-2" d="M999.32,330.03l-12.81,133.99-31.59-6.39s-1.01-3.88-2.55-9.97c-4.95-19.57-15.39-61.88-15.39-70.24,0-1.24.04-3.83.09-7.45.31-16.87,1.29-56.32,2.84-87.72,1.05-21.45,2.37-39.13,3.89-43.38,4.27-11.84,15.37-44.65,15.37-44.65l31.61,75.65,8.52,60.04v.12Z"/>
          <path class="cls-46" d="M999.32,330.03l-12.81,133.99-31.59-6.39s-1.01-3.88-2.55-9.97c1.47-6.22,3.42-12.36,4.45-18.69,2.9-17.9-1.97-37.05-12.95-50.93-2.17-2.72-4.59-5.33-6.79-8.07-2.81-3.5-5.25-7.21-6.32-11.62-1.2-4.98-.46-10.21.28-15.29,2.96-20.26,5.92-40.55,8.88-60.82.29-1.98.58-3.94.86-5.89,3.38,26.63,6.78,53.28,10.16,79.92.59,4.63,1.27,9.5,3.96,13.19,2.69,3.68,8.11,5.52,11.53,2.61,2.43-2.06,3.06-5.69,3.34-8.98,3.28-38.64-17.99-76.95-11.13-115.05,4.24,24.1,10.38,47.83,18.33,70.85,1.47,4.27,3.07,8.64,6.06,11.88,2.99,3.25,7.71,5.11,11.63,3.3,1.84-.86,3.37-2.31,4.65-4.17v.12Z"/>
        </g>
        <g>
          <path class="cls-22" d="M1092.56,468.96l-142.65-10.47s-16.02-20.61-12.78-27.12c.47-.94,1.13-2.01,1.95-3.14,4.9-6.82,15.1-16.11,17.89-13.31,2.21,2.21,5.75,8.74,7.03,13.6.13-.6.28-1.23.45-1.89,2-7.7,6.6-18.84,13.02-19.56.5-.05,1-.09,1.54-.12,4.28-.26,9.72.29,14.82,2.02,9.93,3.37,15.02,14.96,11.78,25.35-.16.53-.35,1.07-.56,1.59l-.44,1.12c.96-2.04,4.99-9.58,13.86-13.37,4.07-1.73,9.17-2.67,15.47-1.92,21.88,2.63,7.57,24.89,7.15,25.52.17-.11,1.49-1.05,3.53-2.23,3.2-1.86,8.12-4.3,12.87-5.04,4.39-.69,8.65.1,11.27,4.18,5.44,8.49,1.68,13.71-.65,15.86,1.11-.82,2.8-2.02,4.82-3.32,3.72-2.38,8.62-5.07,13.3-6.32,4.05-1.1,7.95-1.1,10.77,1.11,9.32,7.33-4.43,17.45-4.43,17.45Z"/>
          <path class="cls-62" d="M1092.56,468.96l-142.65-10.47s-16.02-20.61-12.78-27.12c.47-.94,1.13-2.01,1.95-3.14,1.03,4.71,3.18,9.49,7.62,11.1,10.62,3.84,15.95-7.34,17.24-10.56.04-.1.05-.14.07-.19.16-.41.24-.64.24-.64l.2-1.3c2-7.7,6.6-18.84,13.02-19.56.5-.05,1-.09,1.54-.12-4.14,5.98-7.89,14.83-1.97,22.72,9.68,12.92,27.1,5.33,28.57,4.65-.16.53-.35,1.07-.56,1.59l-.44,1.12c.96-2.04,4.99-9.58,13.86-13.37-3.41,11.74-5.72,27.2,4.16,30.67,14.89,5.25,18.65-7.25,18.65-7.25l3.34-2.05c3.2-1.86,8.12-4.3,12.87-5.04-3.89,5.91-7.08,13.13-3.84,17.88,4.11,5.99,9.81,4.7,13.34,3.02.09-.04.15-.08.2-.1,1.83-.9,3.02-1.85,3.02-1.85l2.72-2.23c3.72-2.38,8.62-5.07,13.3-6.32-1.79,5.44-1.75,12.58,6.34,18.56Z"/>
          <path class="cls-22" d="M959.83,448.1s3.04-10.5,11.25-9.92c8.21.58,23.4,11.54,23.78,18.48,0,0-5.52-4.37-11.96-6.92-6.45-2.55-22.51-3.58-23.07-1.64Z"/>
        </g>
        <g>
          <path class="cls-22" d="M459.88,455.51l-152.69,13.73s-8.69-7.46-8.17-14.05c.19-2.33,1.52-4.57,4.8-6.32,12.18-6.53,20.73,1.94,21.24,2.44-.37-.9-11.04-27.53,5.94-28.29,11.96-.54,19.79,3.36,22.95,8.79.08.13.15.25.23.39,0-.03.01-.06,0-.08,1.15-6.51,4.84-14.41,14.12-16.48,3.09-.7,5.9-.91,8.4-.71,9.92.78,15.04,8.05,14.07,17.57.16-.21.34-.44.53-.65,3.11-3.68,8.08-6.69,15.58-5.92,4.13.43,7.94,2.57,10.43,5.88,3.14-7.78,10.73-15.5,25.93-13.16,1.24.19,2.4.43,3.49.69,26.36,6.58,13.14,36.19,13.14,36.19Z"/>
          <path class="cls-62" d="M459.88,455.51l-152.69,13.73s-8.69-7.46-8.17-14.05c.43.2.87.4,1.33.61,45.36,21.3,52.67-17.18,53.61-24,.09-.65.11-1,.11-1,.02.45.06.89.13,1.31,0,.05,0,.11.02.16.21,1.35.64,2.53,1.19,3.55,2.51,4.68,7.66,6.21,7.66,6.21,17.68,3.72,15.65-16.95,13.65-27.11,9.92.78,15.04,8.05,14.07,17.57.16-.21.34-.44.53-.65-.03.1-.07.18-.1.26-.21.57-.42,1.14-.6,1.68-.61,1.86-1.04,3.54-1.32,5.11-2.27,12.38,4.71,17.32,14.31,15.2,6.65-1.46,10.14-6.77,11.97-11.84,1.59-4.41,1.93-8.65,2-10.12.01-.34.02-.53.02-.53,20.59,17.48,27.21-2.46,29.16-12.26,26.36,6.58,13.14,36.19,13.14,36.19Z"/>
        </g>
        <g class="cls-64">
          <path class="cls-60" d="M292.04,245.14s-6.95,6.01-7.53,6.01h-97.61s-10.02-.25-7.69-7.46c2.33-7.19,12.09-12.67,14.44-10.95-.13-.26-2.22-4.4-3.88-9.17-1.37-3.91-2.45-8.23-1.93-11.2.15-.86.69-2.03,1.54-3.41,1.06-1.71,2.58-3.75,4.41-5.96,8.23-9.87,22.64-22.93,28.3-23.46,7.92-.75,31.91,22.38,33.07,27.59,1.14,5.12-3.3,15.24-3.48,15.65.52-.31,19.69-11.87,29.81-8.2,4.2,1.53,7.3,5.77,9.47,10.53,1.91,4.19,3.1,8.79,3.67,12.3.47,2.89-.5,5.81-2.59,7.7Z"/>
          <path class="cls-56" d="M292.04,245.14s-6.95,6.01-7.53,6.01h-97.61s-10.02-.25-7.69-7.46c2.33-7.19,12.09-12.67,14.44-10.95-.13-.26-2.22-4.4-3.88-9.17,3.58,2.43,7.58,4.18,11.74,5.09-5.68-5.17-9.86-12.11-12.13-19.7,1.06-1.71,2.58-3.75,4.41-5.96,10.35,16.87,28.19,28.55,47.1,29.9-4.51-5.97-6.71-13.86-5.97-21.48,5.87,13.25,17.73,23.3,31.16,26.38-5.55-3.61-9.16-10.38-9.24-17.31,5.69,8.63,16.84,12.68,26.27,9.54,3.18-1.06,5.67-2.77,7.85-4.9,1.91,4.19,3.1,8.79,3.67,12.3.47,2.89-.5,5.81-2.59,7.7Z"/>
        </g>
        <path class="cls-63" d="M483.3,449.31c-215.91,16.63-399.61,28.46-496.58,34.42v67.9h1158.14v-86.27c-160.67-13.93-444.44-32.79-661.56-16.06Z"/>
        <path class="cls-4" d="M1040.48,505.95c-4.55-.05-9-1.48-12.83-4.12l-44.11-30.46-179.28-1.56-25.59,30.11c-6.62,7.79-16.04,12.2-25.89,12.15l-113.9-.62c-9.79-.05-19.09-4.5-25.63-12.26l-22.79-27.03-113.14-3.14-17.1,16.8c-12.62,12.4-29.16,19.24-46.32,19.18l-427.18-1.45v30.56l1158.14-.76v-26.27l-104.37-1.13Z"/>
        <polygon class="cls-39" points="1008.48 479.59 1008.34 481.55 738.17 480.25 403.02 478.62 402.66 476.68 438.01 450.98 979.14 451.57 1008.48 479.59"/>
        <path class="cls-28" d="M1008.48,479.59l-.13,1.96s-270.18-1.31-270.18-1.31l-335.15-1.62-.36-1.94,605.82,2.91Z"/>
        <path class="cls-29" d="M607.3,527.44h-153.05l9.06-11.56.93-1.18,7.73-9.86s.66-.82.66-.82l14.22-18.14.91-1.18,13.32-17h74.19l9.11,17,.63,1.18,15.45,28.82.08.14.55,1.04,6.2,11.56Z"/>
        <polygon class="cls-29" points="1006.33 527.44 786.43 527.44 791.75 515.29 791.88 514.99 792.27 514.11 812.65 467.71 945.71 467.45 981.95 503.31 1006.33 527.44"/>
        <g>
          <rect class="cls-6" x="467.77" y="512.73" width="128.94" height="1.32"/>
          <rect class="cls-6" x="796.19" y="512.73" width="190.98" height="1.32"/>
        </g>
        <rect class="cls-6" x="807.58" y="484.7" width="153.19" height="1.18"/>
        <polygon class="cls-6" points="585.02 485.88 486.85 485.88 487.76 484.7 584.39 484.7 585.02 485.88"/>
        <polygon class="cls-36" points="945.94 467.7 941.58 467.79 999.34 527.44 1006.32 527.44 945.94 467.7"/>
        <path class="cls-36" d="M505.24,467.71h-4.15l-29.11,37.13s-17.72,22.59-17.72,22.59h5.51l45.47-59.73Z"/>
        <path class="cls-56" d="M505.42,111.83c.26,1.01.46,2.02.58,3.05-.24-1.01-.43-2.02-.58-3.05Z"/>
        <path class="cls-44" d="M411.07,382.22c.03.14.06.28.09.41-.02-.05-.04-.08-.07-.13-.04-.08-.02-.19-.02-.28Z"/>
        <polygon class="cls-29" points="466.95 528.2 462.02 528.2 -13.28 529.27 -13.28 591.36 1144.86 591.36 1144.86 526.67 466.95 528.2"/>
        <polygon class="cls-36" points="816.95 467.74 812.65 467.71 788.11 523.6 605.1 523.33 575.28 467.71 570.85 467.71 601.95 528.76 793.3 528.91 816.95 467.74"/>
        <g>
          <polygon class="cls-50" points="447.75 189.12 447.75 211.86 491.83 212.65 486.69 171.87 447.75 189.12"/>
          <rect class="cls-31" x="446.46" y="185.99" width="5.69" height="27.64"/>
          <rect class="cls-57" x="446.46" y="188.79" width="32.88" height="4.55"/>
          <polygon class="cls-30" points="522.32 156.2 522.2 168.02 521.96 190.69 444.07 191.48 448.23 167.48 450.32 155.41 522.32 156.2"/>
          <path class="cls-9" d="M522.87,157.67l-.12,11.82c-13.63-.09-60.96-.44-73.97-.54l2.09-12.07,72,.79Z"/>
          <path class="cls-11" d="M520.12,173.54l-.12,11.82c-13.63-.09-60.96-.44-73.97-.54l2.09-12.07,72,.79Z"/>
          <g>
            <polygon class="cls-26" points="648.19 154.37 647.73 158.5 647.59 159.7 646.51 169.23 645.46 178.53 644.37 188.21 626.99 175.51 624.87 173.94 624.53 171.72 622.74 159.98 622.48 158.23 621.49 151.7 648.19 154.37"/>
            <rect class="cls-15" x="628.74" y="168.7" width="10.13" height="4.54" transform="translate(1267.61 341.95) rotate(180)"/>
            <rect class="cls-15" x="632.93" y="174.85" width="10.13" height="4.54" transform="translate(1275.98 354.24) rotate(180)"/>
            <rect class="cls-15" x="634.84" y="163.53" width="10.13" height="4.54" transform="translate(1279.81 331.61) rotate(180)"/>
            <polygon class="cls-61" points="647.73 158.5 647.59 159.7 646.51 169.23 645.46 178.53 624.53 171.72 622.74 159.98 647.73 158.5"/>
            <polygon class="cls-8" points="653.9 148.7 651.42 160.95 619.19 159.98 616.49 147.17 653.9 148.7"/>
            <rect class="cls-26" x="620.16" y="149.44" width="10.13" height="4.54" transform="translate(1250.44 303.42) rotate(180)"/>
            <rect class="cls-26" x="626.49" y="154.41" width="10.13" height="4.54" transform="translate(1263.1 313.36) rotate(180)"/>
            <rect class="cls-26" x="640.63" y="150.22" width="10.13" height="4.54" transform="translate(1291.39 304.98) rotate(180)"/>
            <polygon class="cls-25" points="619.19 159.98 616.49 147.17 653.9 148.7 617.83 148.55 619.19 159.98"/>
          </g>
          <polygon class="cls-48" points="637.44 308.15 637.44 468.53 443.77 468.53 441.51 428.44 437.51 357.64 437 348.39 434.73 308.15 637.44 308.15"/>
          <g>
            <polygon class="cls-57" points="500.59 360.38 501.63 361.86 501.29 417.31 479.71 417.22 477.65 415.98 500.59 360.38"/>
            <g>
              <polygon class="cls-38" points="500.1 415.83 477.65 415.98 475.72 360.07 500.59 360.38 500.1 415.83"/>
              <polygon class="cls-47" points="497.86 362.02 497.65 393.09 497.52 413.39 480.03 413.5 478.48 361.69 497.86 362.02"/>
              <rect class="cls-38" x="487.65" y="360.7" width="1.1" height="54.51" transform="translate(-2.56 3.24) rotate(-.38)"/>
              <rect class="cls-38" x="477.33" y="372.56" width="22.01" height="1.17" transform="translate(-2.44 3.21) rotate(-.38)"/>
              <polygon class="cls-21" points="497.65 393.09 497.52 413.39 482.42 413.48 483.82 404.51 497.65 393.09"/>
            </g>
          </g>
          <g>
            <polygon class="cls-57" points="599.44 360.38 600.47 361.86 600.13 417.31 578.56 417.22 576.5 415.98 599.44 360.38"/>
            <g>
              <polygon class="cls-38" points="598.95 415.83 576.5 415.98 574.56 360.07 599.44 360.38 598.95 415.83"/>
              <polygon class="cls-47" points="596.7 362.02 596.49 393.09 596.36 413.39 578.87 413.5 577.32 361.69 596.7 362.02"/>
              <rect class="cls-38" x="586.5" y="360.7" width="1.1" height="54.51" transform="translate(-2.55 3.89) rotate(-.38)"/>
              <rect class="cls-38" x="576.18" y="372.56" width="22.01" height="1.17" transform="translate(-2.43 3.86) rotate(-.38)"/>
              <polygon class="cls-21" points="596.49 393.09 596.36 413.39 581.27 413.48 582.66 404.51 596.49 393.09"/>
            </g>
          </g>
          <polygon class="cls-38" points="556.78 428.75 518.99 428.75 516.61 358.58 559.75 358.27 556.78 428.75"/>
          <polygon class="cls-47" points="551.39 361.87 550.84 375.5 549.57 406.98 526.43 406.98 524.97 362.08 551.39 361.87"/>
          <polygon class="cls-21" points="550.84 375.5 549.57 406.98 530.57 406.98 533.04 390.85 550.84 375.5"/>
          <g>
            <rect class="cls-38" x="537.3" y="360.93" width="1.54" height="50.98"/>
            <rect class="cls-38" x="522.44" y="373.97" width="31.7" height="1.53"/>
            <rect class="cls-38" x="522.44" y="391.71" width="31.7" height="1.53"/>
          </g>
          <rect class="cls-54" x="682.45" y="290.6" width="231.88" height="18.8"/>
          <rect class="cls-38" x="906.26" y="290.6" width="8.07" height="18.8"/>
          <rect class="cls-33" x="906.26" y="290.6" width="1.61" height="18.8"/>
          <rect class="cls-57" x="682.45" y="290.6" width="231.88" height="3.6"/>
          <polygon class="cls-30" points="932.53 291.23 674.81 291.23 673.74 282.06 673.73 281.93 673.38 279.07 671.86 266.04 671.33 261.59 669.81 248.56 669.47 245.69 667.95 232.66 667.71 230.6 666.18 217.57 664.31 201.64 664.24 201.02 889.67 201.02 889.98 201.68 896.17 214.7 897.53 217.56 903.72 230.59 904.7 232.67 910.9 245.69 912.25 248.56 918.45 261.59 920.1 265.07 920.56 266.04 926.76 279.07 932.53 291.23"/>
          <g>
            <g>
              <g>
                <polygon class="cls-9" points="896.17 214.7 805.88 214.7 801.82 201.68 889.98 201.68 896.17 214.7"/>
                <polygon class="cls-11" points="802.7 214.7 667.13 214.7 664.77 201.67 798.68 201.67 802.7 214.7"/>
                <polygon class="cls-41" points="663.3 214.7 527.72 214.7 527.09 201.67 660.99 201.67 663.3 214.7"/>
              </g>
              <g>
                <g>
                  <polygon class="cls-9" points="896.05 230.6 758.44 230.6 755.02 217.56 890.96 217.56 896.05 230.6"/>
                  <polygon class="cls-9" points="755.22 230.6 617.61 230.6 615.9 217.56 751.84 217.56 755.22 230.6"/>
                  <polygon class="cls-41" points="613.73 230.6 476.12 230.6 476.12 217.56 612.06 217.56 613.73 230.6"/>
                </g>
                <polygon class="cls-9" points="903.72 230.59 899.38 230.59 894.25 217.56 897.53 217.56 903.72 230.59"/>
              </g>
            </g>
            <g>
              <g>
                <polygon class="cls-9" points="910.9 245.69 837.13 245.69 832.82 232.67 904.7 232.67 910.9 245.69"/>
                <polygon class="cls-11" points="833.86 245.7 694.32 245.7 691.71 232.66 829.59 232.66 833.86 245.7"/>
                <polygon class="cls-41" points="690.38 245.7 550.84 245.7 549.95 232.66 687.82 232.66 690.38 245.7"/>
              </g>
              <g>
                <polygon class="cls-9" points="918.45 261.59 788.5 261.59 784.82 248.56 912.25 248.56 918.45 261.59"/>
                <polygon class="cls-9" points="785.18 261.59 643.61 261.59 641.64 248.56 781.55 248.56 785.18 261.59"/>
                <polygon class="cls-41" points="639.61 261.59 498.04 261.59 497.78 248.56 637.69 248.56 639.61 261.59"/>
              </g>
            </g>
            <g>
              <g>
                <polygon class="cls-9" points="926.76 279.07 873.92 279.07 869.31 266.04 920.56 266.04 926.76 279.07"/>
                <polygon class="cls-11" points="870.54 279.07 726.74 279.07 723.84 266.04 865.98 266.04 870.54 279.07"/>
                <polygon class="cls-41" points="722.68 279.07 578.87 279.07 577.68 266.04 719.82 266.04 722.68 279.07"/>
              </g>
              <g>
                <polygon class="cls-9" points="928.03 281.93 820.04 281.93 822.87 291.24 931.75 291.24 928.03 281.93"/>
                <polygon class="cls-9" points="674.13 291.24 672.51 281.93 816.66 281.93 819.47 291.24 674.13 291.24"/>
                <polygon class="cls-41" points="668.43 281.93 670.02 291.24 596.36 291.24 593.68 281.93 668.43 281.93"/>
              </g>
            </g>
          </g>
          <polygon class="cls-61" points="892.61 224.19 850.04 265.07 848.44 201.02 867.23 201.02 892.61 224.19"/>
          <g>
            <g>
              <polygon class="cls-55" points="850.04 205.25 850.04 265.07 789.72 265.07 789.72 205.25 793.31 200.47 821.05 163.58 846.71 200.47 850.04 205.25"/>
              <g>
                <polygon class="cls-16" points="789.81 205.24 821.15 164.05 849.94 205.28 856.54 205.24 821.15 157 781.91 205.24 789.81 205.24"/>
                <polygon class="cls-38" points="795 205.24 820.86 170.94 844.67 205.24 850.05 205.28 821.15 164.05 789.81 205.24 795 205.24"/>
              </g>
            </g>
            <polygon class="cls-38" points="795.01 200.47 795.01 265.07 789.72 265.07 789.72 205.25 793.54 200.35 795.01 200.47"/>
            <polygon class="cls-38" points="850.04 205.25 850.04 265.07 844.62 265.07 844.62 200.47 846.71 200.47 850.04 205.25"/>
          </g>
          <polygon class="cls-57" points="836.69 258.11 810.71 258.96 808.15 257.12 807.19 208.48 836.25 204.42 838.89 206.34 836.69 258.11"/>
          <polygon class="cls-38" points="834.05 256.23 808.07 257.09 804.55 206.6 836.25 204.46 834.05 256.23"/>
          <polygon class="cls-12" points="832.55 208.48 831.37 236.54 830.69 252.57 811.33 253.21 809.5 227.01 808.32 210.12 832.55 208.48"/>
          <polygon class="cls-57" points="795 205.24 820.86 170.94 844.67 205.24 820.29 184.02 795 205.24"/>
          <path class="cls-21" d="M832.55,208.48l-1.18,28.06c-7.47-3.29-15.64-6.86-21.87-9.53l-1.18-16.9,24.23-1.64Z"/>
          <polygon class="cls-47" points="811.34 253.22 808.33 210.11 832.56 208.47 810.6 211.74 811.34 253.22"/>
          <rect class="cls-38" x="819.56" y="206.89" width="1.76" height="48.79"/>
          <polygon class="cls-57" points="789.72 205.25 821.15 164.05 850.04 205.25 821.06 167.1 789.72 205.25"/>
          <polygon class="cls-53" points="685.67 315.35 440.88 315.35 432.07 221.37 562.4 134.92 694.48 221.37 685.67 315.35"/>
          <polygon class="cls-38" points="432.26 223.37 439.85 304.54 446.88 304.46 441.76 223.25 432.26 223.37"/>
          <polygon class="cls-33" points="526.39 405.72 526.43 406.98 549.57 406.98 549.62 405.72 526.39 405.72"/>
          <polygon class="cls-38" points="437.23 352.24 441.42 428.68 446.69 428.68 443.4 352.24 437.23 352.24"/>
          <polygon class="cls-57" points="441.76 430.47 437 348.39 650.45 347.3 649.13 436.58 638.56 437.99 632.4 372.68 470.38 372.68 459.05 429.29 441.76 430.47"/>
          <polygon class="cls-51" points="973.62 308.15 967.01 428.44 964.81 468.53 775.79 468.53 775.79 308.15 973.62 308.15"/>
          <polygon class="cls-7" points="971.21 352 967.01 428.44 961.75 428.44 965.03 352 971.21 352"/>
          <polygon class="cls-33" points="965.03 352 961.75 428.44 962.48 428.44 965.77 352 965.03 352"/>
          <polygon class="cls-57" points="971.42 348.39 970.91 357.64 757.53 357.64 757.53 348.39 971.42 348.39"/>
          <g>
            <polygon class="cls-10" points="463.77 429.06 459.05 429.29 454.09 429.53 449.19 357.41 448.5 348.96 448.36 347.3 461.13 348.71 461.13 348.96 461.17 350.05 461.41 357.41 463.77 429.06"/>
            <polygon class="cls-10" points="617.43 347.3 617.29 348.96 617.15 350.67 616.6 357.41 613.47 429.68 610 429.42 605.24 429.06 604.38 357.41 604.66 348.96 604.66 348.71 617.43 347.3"/>
          </g>
          <polygon class="cls-59" points="463.77 429.06 459.05 429.29 457.33 359.46 457.12 351 457.1 350.76 461.17 350.05 461.41 357.41 463.77 429.06"/>
          <polygon class="cls-59" points="617.15 350.67 616.6 357.41 613.47 429.68 610 429.42 611.21 360.01 611.5 351.55 611.5 351.29 617.15 350.67"/>
          <g class="cls-67">
            <g>
              <g class="cls-67">
                <polygon class="cls-39" points="461.41 357.41 449.19 357.41 448.5 348.96 461.13 348.96 461.41 357.41"/>
              </g>
              <g class="cls-67">
                <polygon class="cls-39" points="617.29 348.96 616.6 357.41 604.38 357.41 604.66 348.96 617.29 348.96"/>
              </g>
            </g>
          </g>
          <rect class="cls-38" x="419.52" y="343.54" width="569.06" height="8.46"/>
          <rect class="cls-57" x="419.52" y="343.54" width="569.06" height="3.29"/>
          <polygon class="cls-30" points="991.81 344.48 918.46 344.29 916.33 344.29 825.33 344.05 822.76 344.05 750.54 343.86 750.31 335.48 749.37 302.51 970.54 300.09 974.92 308.7 980.98 321.53 982.3 324.35 987.57 335.48 988.38 337.19 991.81 344.48"/>
          <g>
            <g>
              <g>
                <polygon class="cls-9" points="976.03 313.74 885.73 313.74 881.68 302 969.83 302 976.03 313.74"/>
                <polygon class="cls-11" points="882.56 313.74 746.98 313.74 744.63 301.99 878.53 301.99 882.56 313.74"/>
                <polygon class="cls-41" points="742.33 309.52 742.33 313.74 743.15 313.74 742.33 309.52"/>
              </g>
              <g>
                <g>
                  <polygon class="cls-9" points="975.91 328.08 838.3 328.08 834.87 316.33 970.81 316.33 975.91 328.08"/>
                  <polygon class="cls-9" points="742.33 328.08 835.08 328.08 831.69 316.33 742.33 316.33 742.33 328.08"/>
                </g>
                <polygon class="cls-9" points="983.58 328.07 979.24 328.07 974.11 316.32 977.38 316.32 983.58 328.07"/>
              </g>
            </g>
            <g>
              <polygon class="cls-9" points="990.75 341.7 916.99 341.7 912.68 329.95 984.56 329.95 990.75 341.7"/>
              <polygon class="cls-11" points="913.72 341.7 774.18 341.7 771.57 329.95 909.44 329.95 913.72 341.7"/>
              <polygon class="cls-41" points="742.33 341.7 770.24 341.7 767.68 329.95 742.33 329.95 742.33 341.7"/>
            </g>
          </g>
          <polygon class="cls-30" points="436.18 304.39 416.52 344.48 657.79 343.86 658.96 302.51 436.18 304.39"/>
          <g>
            <g>
              <g>
                <polygon class="cls-9" points="432.12 315.98 522.41 315.98 526.47 304.59 438.01 304.78 432.12 315.98"/>
                <polygon class="cls-11" points="525.59 315.98 661.16 315.98 663.51 304.59 529.61 304.59 525.59 315.98"/>
                <polygon class="cls-41" points="665.82 311.88 665.82 315.98 664.99 315.98 665.82 311.88"/>
              </g>
              <g>
                <g>
                  <polygon class="cls-9" points="432.24 329.87 569.85 329.87 573.27 318.48 437.33 318.48 432.24 329.87"/>
                  <polygon class="cls-9" points="665.82 329.87 573.07 329.87 576.45 318.48 665.82 318.48 665.82 329.87"/>
                </g>
                <polygon class="cls-9" points="424.57 329.87 428.91 329.87 434.03 318.47 430.76 318.47 424.57 329.87"/>
              </g>
            </g>
            <g>
              <polygon class="cls-9" points="417.39 343.07 491.15 343.07 495.46 331.69 423.59 331.69 417.39 343.07"/>
              <polygon class="cls-11" points="494.42 343.07 633.97 343.07 636.57 331.68 498.7 331.68 494.42 343.07"/>
              <polygon class="cls-41" points="665.82 343.07 637.91 343.07 640.47 331.68 665.82 331.68 665.82 343.07"/>
            </g>
          </g>
          <polygon class="cls-61" points="687.93 291.24 694.48 221.37 664.31 201.64 664.24 201.02 690.98 201.02 718.7 223.72 768.1 291.24 793.98 326.63 686.27 308.92 687.93 291.24"/>
          <polygon class="cls-7" points="973.04 428.44 972 446.99 970.78 468.53 437.8 468.53 435.49 428.44 973.04 428.44"/>
          <path class="cls-43" d="M432.66,223.41l129.74-88.49c1.62,0,114.42,76.71,132.08,88.69l9.05-.04-140.25-97.11-140.18,97.11,9.56-.16Z"/>
          <polygon class="cls-57" points="972 446.99 970.78 468.53 949.95 468.53 951.31 427.96 953.23 361.4 963.35 428.44 968.34 428.44 972 446.99"/>
          <polygon class="cls-33" points="950.28 468.53 806.75 468.53 803.52 361.4 954.47 359.28 950.28 468.53"/>
          <polygon class="cls-18" points="947.64 367.04 947.17 384.67 947.13 386.06 946.85 396.49 946.81 397.9 946.53 408.31 946.5 409.72 946.22 420.13 946.18 421.54 945.9 431.96 945.86 433.37 945.6 443.78 945.55 445.19 945.28 455.6 945.23 457.03 944.93 468.53 812.09 468.53 811.75 457.03 811.7 455.6 811.4 445.19 811.37 443.78 811.05 433.37 811.01 431.96 810.7 421.54 810.66 420.13 810.34 409.72 810.31 408.31 810.01 397.9 809.96 396.49 809.66 386.06 809.62 384.67 809.09 367.04 947.64 367.04"/>
          <g>
            <polygon class="cls-20" points="947.17 384.67 947.13 386.06 809.66 386.06 809.62 384.67 947.17 384.67"/>
            <polygon class="cls-20" points="946.85 396.49 946.81 397.9 810.01 397.9 809.96 396.49 946.85 396.49"/>
            <polygon class="cls-20" points="946.53 408.31 946.5 409.72 810.34 409.72 810.31 408.31 946.53 408.31"/>
            <polygon class="cls-20" points="946.22 420.13 946.18 421.54 810.7 421.54 810.66 420.13 946.22 420.13"/>
            <polygon class="cls-20" points="945.9 431.96 945.86 433.37 811.05 433.37 811.01 431.96 945.9 431.96"/>
            <polygon class="cls-20" points="945.6 443.78 945.55 445.19 811.4 445.19 811.37 443.78 945.6 443.78"/>
            <polygon class="cls-20" points="945.28 455.6 945.23 457.03 811.75 457.03 811.7 455.6 945.28 455.6"/>
          </g>
          <polygon class="cls-57" points="821 468.53 783.86 468.53 792.22 324.43 811.16 367.04 821 468.53"/>
          <polygon class="cls-32" points="803.52 361.4 954.47 359.28 950.28 468.53 953.23 361.4 803.52 361.4"/>
          <polygon class="cls-33" points="941.34 371.42 939.88 382.52 938.7 391.47 824.68 391.77 819.22 391.79 817.18 371.42 941.34 371.42"/>
          <polygon class="cls-12" points="937.29 375.18 936.3 382.69 935.63 387.71 823.55 388.01 822.39 388.01 821.09 375.18 937.29 375.18"/>
          <polygon class="cls-47" points="822.39 388.02 821.09 375.18 937.28 375.18 936.76 379.12 822.76 377.69 823.48 388.01 822.39 388.02"/>
          <polygon class="cls-21" points="936.3 382.69 935.63 387.71 823.55 388.01 936.3 382.69"/>
          <rect class="cls-33" x="877.86" y="373.62" width="2.35" height="17.54"/>
          <g>
            <rect class="cls-33" x="840.36" y="373.62" width="2.35" height="17.54"/>
            <rect class="cls-33" x="915.36" y="373.62" width="2.35" height="17.54"/>
          </g>
          <polygon class="cls-57" points="812.09 468.53 809.1 367.04 947.64 367.04 947.42 374.44 819.23 376.43 816 468.53 812.09 468.53"/>
          <polygon class="cls-27" points="574.72 428.44 569.23 468.53 506.04 468.53 501.5 428.44 574.72 428.44"/>
          <polygon class="cls-42" points="536.08 428.44 533.5 468.53 506.04 468.53 501.5 428.44 536.08 428.44"/>
          <polygon class="cls-7" points="561.29 437.84 514.18 437.84 513.52 428.44 562.54 428.44 561.29 437.84"/>
          <polygon class="cls-7" points="564.6 447.24 510.88 447.24 509.86 437.84 565.48 437.84 564.6 447.24"/>
          <polygon class="cls-7" points="567.68 456.63 507.8 456.63 506.26 447.24 569.22 447.24 567.68 456.63"/>
          <polygon class="cls-7" points="569.22 466.03 506.26 466.03 505.45 456.63 569.88 456.63 569.22 466.03"/>
          <rect class="cls-7" x="500.54" y="466.03" width="74.19" height="2.5"/>
          <polygon class="cls-37" points="562.54 428.44 513.52 428.44 514.18 437.84 515.58 437.84 516.17 430.63 562.27 430.47 562.54 428.44"/>
          <polygon class="cls-37" points="565.48 437.84 509.86 437.84 510.88 447.24 512.42 447.24 511.76 439.28 565.3 439.76 566.03 437.84 565.48 437.84"/>
          <polygon class="cls-37" points="569.22 447.24 506.26 447.24 507.8 456.63 509.12 456.47 509.12 449.58 568.81 449.73 569.22 447.24"/>
          <polygon class="cls-37" points="569.88 456.63 505.45 456.63 506.26 466.03 508.68 465.95 508.46 459.13 569.88 459.13 569.88 456.63"/>
          <polygon class="cls-33" points="569.71 465.91 574.3 428.24 632.72 428.44 577.48 433.02 569.71 465.91"/>
          <polygon class="cls-38" points="432.26 223.4 441.76 223.25 563.28 141.26 684.79 223.57 694.48 223.49 562.4 134.92 432.26 223.4"/>
          <g>
            <g>
              <polygon class="cls-33" points="493.71 428.59 490.41 428.59 489.75 406.59 493.93 406.59 493.71 428.59"/>
              <polygon class="cls-10" points="493.2 406.59 492.98 428.59 493.71 428.59 493.93 406.59 493.2 406.59"/>
            </g>
            <g>
              <polygon class="cls-33" points="480.78 428.59 477.48 428.59 476.82 406.59 481 406.59 480.78 428.59"/>
              <polygon class="cls-10" points="480.26 406.59 480.04 428.59 480.78 428.59 481 406.59 480.26 406.59"/>
            </g>
            <g>
              <polygon class="cls-33" points="467.84 428.59 464.54 428.59 463.88 406.59 468.07 406.59 467.84 428.59"/>
              <polygon class="cls-10" points="467.33 406.59 467.11 428.59 467.84 428.59 468.07 406.59 467.33 406.59"/>
            </g>
            <g>
              <polygon class="cls-33" points="454.91 428.59 451.61 428.59 450.95 406.59 455.13 406.59 454.91 428.59"/>
              <polygon class="cls-10" points="454.4 406.59 454.18 428.59 454.91 428.59 455.13 406.59 454.4 406.59"/>
            </g>
            <g>
              <polygon class="cls-33" points="441.98 428.59 438.68 428.59 438.02 406.59 442.2 406.59 441.98 428.59"/>
              <polygon class="cls-19" points="441.46 406.59 441.24 428.59 441.98 428.59 442.2 406.59 441.46 406.59"/>
            </g>
          </g>
          <g>
            <g>
              <polygon class="cls-33" points="634.38 428.59 631.08 428.59 630.42 406.59 634.6 406.59 634.38 428.59"/>
              <polygon class="cls-19" points="633.87 406.59 633.65 428.59 634.38 428.59 634.6 406.59 633.87 406.59"/>
            </g>
            <g>
              <polygon class="cls-33" points="621.45 428.59 618.15 428.59 617.49 406.59 621.67 406.59 621.45 428.59"/>
              <polygon class="cls-10" points="620.93 406.59 620.71 428.59 621.45 428.59 621.67 406.59 620.93 406.59"/>
            </g>
            <g>
              <polygon class="cls-33" points="608.52 428.59 605.21 428.59 604.55 406.59 608.74 406.59 608.52 428.59"/>
              <polygon class="cls-10" points="608 406.59 607.78 428.59 608.52 428.59 608.74 406.59 608 406.59"/>
            </g>
            <g>
              <polygon class="cls-33" points="595.58 428.59 592.28 428.59 591.62 406.59 595.8 406.59 595.58 428.59"/>
              <polygon class="cls-10" points="595.07 406.59 594.85 428.59 595.58 428.59 595.8 406.59 595.07 406.59"/>
            </g>
            <g>
              <polygon class="cls-33" points="582.65 428.59 579.35 428.59 578.69 406.59 582.87 406.59 582.65 428.59"/>
              <polygon class="cls-10" points="582.13 406.59 581.91 428.59 582.65 428.59 582.87 406.59 582.13 406.59"/>
            </g>
          </g>
          <polygon class="cls-33" points="437.8 468.53 435.49 428.44 501.5 428.44 439.12 431.88 437.8 468.53"/>
          <rect class="cls-33" x="435.37" y="405.8" width="62.96" height="3.05"/>
          <rect class="cls-33" x="574.72" y="405.8" width="62.96" height="3.05"/>
          <polygon class="cls-38" points="694.48 223.49 686.7 304.54 679.67 304.46 684.79 223.57 694.48 223.49"/>
          <g>
            <g>
              <polygon class="cls-52" points="792.22 324.43 785.74 435.96 783.42 476.05 635.48 476.05 633.16 435.96 626.68 324.43 708.87 254.27 792.22 324.43"/>
              <polygon class="cls-33" points="789.87 435.96 787.42 476.05 631.48 476.05 629.02 435.96 789.87 435.96"/>
            </g>
            <polygon class="cls-32" points="631.48 476.05 629.02 435.96 789.87 435.96 789.61 440.36 639.3 440.96 635.48 476.05 631.48 476.05"/>
          </g>
          <polygon class="cls-57" points="441.76 223.25 563.28 141.26 684.79 223.57 563.37 150.5 441.76 223.25"/>
          <polygon class="cls-57" points="432.26 223.37 562.4 134.92 694.48 223.49 563.28 139.15 432.26 223.37"/>
          <polygon class="cls-33" points="708.87 254.27 626.68 324.43 633.16 435.96 640.77 435.96 633.5 326.54 708.95 258.96 786.53 325.4 778.43 435.96 785.74 435.96 792.22 324.43 708.87 254.27"/>
          <polygon class="cls-11" points="626.68 324.43 619.58 324.43 708.9 247.69 800.31 324.43 792.22 324.43 708.87 254.27 626.68 324.43"/>
          <polygon class="cls-57" points="633.28 326.6 708.95 259.08 786.31 325.46 709.23 265.13 633.28 326.6"/>
          <polygon class="cls-57" points="626.68 324.43 708.87 254.27 792.22 324.43 708.95 256.97 626.68 324.43"/>
          <g>
            <rect class="cls-24" x="758.11" y="375.18" width="14.75" height="5.8"/>
            <rect class="cls-24" x="750.19" y="381.99" width="14.75" height="5.8"/>
            <rect class="cls-24" x="765.82" y="381.99" width="14.75" height="5.8"/>
          </g>
          <g>
            <rect class="cls-24" x="591.69" y="188.64" width="14.75" height="5.8"/>
            <rect class="cls-24" x="583.76" y="195.45" width="14.75" height="5.8"/>
            <rect class="cls-24" x="599.39" y="195.45" width="14.75" height="5.8"/>
          </g>
          <rect class="cls-34" x="744.02" y="352.16" width="14.75" height="5.8"/>
          <rect class="cls-24" x="652" y="325.84" width="14.75" height="5.8"/>
          <rect class="cls-24" x="553.82" y="169.37" width="14.75" height="5.8"/>
          <rect class="cls-24" x="513.04" y="249.35" width="14.75" height="5.8"/>
          <rect class="cls-24" x="517.45" y="257" width="14.75" height="5.8"/>
          <rect class="cls-24" x="524.76" y="181.12" width="14.75" height="5.8"/>
          <rect class="cls-24" x="655.41" y="228.34" width="14.75" height="5.8"/>
          <rect class="cls-24" x="663.33" y="235.86" width="14.75" height="5.8"/>
          <rect class="cls-34" x="497.34" y="201.56" width="14.75" height="5.8"/>
          <rect class="cls-34" x="649.43" y="259.19" width="14.75" height="5.8"/>
          <rect class="cls-24" x="449.79" y="266.17" width="14.75" height="5.8"/>
          <rect class="cls-24" x="455.03" y="243.53" width="14.75" height="5.8"/>
          <rect class="cls-34" x="490.96" y="194.98" width="14.75" height="5.8"/>
          <rect class="cls-24" x="645.18" y="332.42" width="14.75" height="5.8"/>
          <rect class="cls-24" x="660.59" y="377.53" width="14.75" height="5.8"/>
          <rect class="cls-34" x="675.12" y="307.05" width="14.75" height="5.8"/>
          <rect class="cls-24" x="644.74" y="377.53" width="14.75" height="5.8"/>
          <rect class="cls-34" x="652.45" y="384.34" width="14.75" height="5.8"/>
          <rect class="cls-24" x="742.7" y="421.23" width="14.75" height="5.8"/>
          <rect class="cls-24" x="735" y="307.99" width="14.75" height="5.8"/>
          <ellipse class="cls-33" cx="709.22" cy="296.98" rx="14.79" ry="14.15"/>
          <path class="cls-12" d="M720.7,296.98c0,2.43-.83,4.68-2.23,6.5-2.09,2.72-5.46,4.48-9.26,4.48-6.34,0-11.47-4.92-11.47-10.99,0-.4.02-.79.07-1.18.61-5.52,5.48-9.82,11.41-9.82,6.35,0,11.48,4.93,11.48,11Z"/>
          <path class="cls-21" d="M720.7,296.98c0,2.43-.83,4.68-2.23,6.5l-20.66-7.68c.61-5.52,5.48-9.82,11.41-9.82,6.35,0,11.48,4.93,11.48,11Z"/>
          <path class="cls-47" d="M700.12,297.18c0-6.01,5.04-10.88,11.28-10.98-.71-.13-1.44-.21-2.19-.21-6.34,0-11.48,4.92-11.48,10.99s5.14,10.99,11.48,10.99c.07,0,.13,0,.2,0-5.29-.98-9.29-5.43-9.29-10.78Z"/>
          <g>
            <polygon class="cls-57" points="510.69 220.6 512.26 222.6 511.69 297.68 478.78 297.57 475.64 295.9 510.69 220.6"/>
            <g>
              <polygon class="cls-38" points="509.88 295.67 475.64 295.9 472.74 220.21 510.69 220.6 509.88 295.67"/>
              <polygon class="cls-47" points="506.51 222.82 506.16 264.88 505.94 292.36 479.27 292.54 476.95 222.4 506.51 222.82"/>
              <rect class="cls-38" x="490.92" y="221.04" width="1.68" height="73.79" transform="translate(-1.68 3.23) rotate(-.38)"/>
              <rect class="cls-38" x="475.19" y="237.1" width="33.58" height="1.59" transform="translate(-1.55 3.23) rotate(-.38)"/>
              <polygon class="cls-21" points="506.16 264.88 505.94 292.36 482.92 292.52 485.05 280.36 506.16 264.88"/>
            </g>
          </g>
          <g>
            <polygon class="cls-57" points="578.46 220.6 580.04 222.6 579.47 297.68 546.56 297.57 543.42 295.9 578.46 220.6"/>
            <g>
              <polygon class="cls-38" points="577.66 295.67 543.42 295.9 540.52 220.21 578.46 220.6 577.66 295.67"/>
              <polygon class="cls-47" points="574.29 222.82 573.94 264.88 573.72 292.36 547.04 292.54 544.73 222.4 574.29 222.82"/>
              <rect class="cls-38" x="558.7" y="221.04" width="1.68" height="73.79" transform="translate(-1.68 3.67) rotate(-.38)"/>
              <rect class="cls-38" x="542.97" y="237.1" width="33.58" height="1.59" transform="translate(-1.55 3.67) rotate(-.38)"/>
              <polygon class="cls-21" points="573.94 264.88 573.72 292.36 550.7 292.52 552.83 280.36 573.94 264.88"/>
            </g>
          </g>
          <g>
            <polygon class="cls-57" points="730.09 340.22 731.88 342.38 731.2 423.12 693.85 423.02 690.29 421.22 730.09 340.22"/>
            <g>
              <polygon class="cls-33" points="729.16 420.96 690.29 421.22 687.02 339.82 730.09 340.22 729.16 420.96"/>
              <polygon class="cls-47" points="725.35 342.61 724.94 387.85 724.68 417.41 694.4 417.61 691.8 342.17 725.35 342.61"/>
              <rect class="cls-33" x="707.64" y="340.71" width="1.91" height="79.36" transform="translate(-2.48 4.66) rotate(-.38)"/>
              <rect class="cls-33" x="689.79" y="357.98" width="38.12" height="1.71" transform="translate(-2.34 4.65) rotate(-.38)"/>
              <polygon class="cls-21" points="724.94 387.85 724.68 417.41 698.55 417.58 700.97 404.51 724.94 387.85"/>
            </g>
          </g>
          <g>
            <polygon class="cls-57" points="638.53 220.6 640.11 222.6 639.53 297.68 606.62 297.57 603.48 295.9 638.53 220.6"/>
            <g>
              <polygon class="cls-38" points="637.73 295.67 603.48 295.9 600.58 220.21 638.53 220.6 637.73 295.67"/>
              <polygon class="cls-47" points="634.35 222.82 634 264.88 633.78 292.36 607.11 292.54 604.8 222.4 634.35 222.82"/>
              <rect class="cls-38" x="618.76" y="221.04" width="1.68" height="73.79" transform="translate(-1.68 4.06) rotate(-.38)"/>
              <rect class="cls-38" x="603.03" y="237.1" width="33.58" height="1.59" transform="translate(-1.55 4.07) rotate(-.38)"/>
              <polygon class="cls-21" points="634 264.88 633.78 292.36 610.76 292.52 612.9 280.36 634 264.88"/>
            </g>
          </g>
        </g>
        <polygon class="cls-36" points="1144.86 519.81 994.38 520.18 995.67 523.91 1144.86 523.91 1144.86 519.81"/>
        <polygon class="cls-36" points="53.37 519.13 49.84 519.12 -13.28 518.85 -13.28 525.07 50.84 525.02 52.21 525.02 461.92 524.72 464.33 520.82 53.37 519.13"/>
        <polygon class="cls-6" points="462.02 524.59 461.92 524.72 -13.28 525.08 -13.28 530.39 462.26 531.55 466.95 524.59 504.62 468.48 462.02 524.59"/>
        <path class="cls-6" d="M571.3,468.48c-.22,1.7,30.1,66.01,30.1,66.01l192.87.29,22.36-66.26-23.33,60.38-191.35-.15-30.65-60.28Z"/>
        <polygon class="cls-6" points="1144.86 523.91 995.67 523.91 942.49 468.92 994.84 529.49 1144.86 529.79 1144.86 523.91"/>
        <g>
          <polygon class="cls-13" points="53.37 519.13 52.28 524.69 52.21 525.02 51.18 530.52 50.84 525.02 50.81 524.69 49.84 519.12 53.37 519.13"/>
          <polygon class="cls-40" points="53.37 519.13 52.21 525.02 51.18 530.52 51.73 524.86 53.37 519.13"/>
        </g>
        <g>
          <polygon class="cls-13" points="152.93 519.54 151.83 524.91 151.77 525.22 150.73 530.52 150.39 525.22 150.37 524.91 149.4 519.53 152.93 519.54"/>
          <polygon class="cls-40" points="152.93 519.54 151.77 525.22 150.73 530.52 151.28 525.07 152.93 519.54"/>
        </g>
        <g>
          <polygon class="cls-13" points="252.11 519.95 251.02 525.12 250.96 525.42 249.92 530.52 249.58 525.42 249.56 525.12 248.59 519.94 252.11 519.95"/>
          <polygon class="cls-40" points="252.11 519.95 250.96 525.42 249.92 530.52 250.47 525.27 252.11 519.95"/>
        </g>
        <g>
          <polygon class="cls-13" points="353.14 520.17 352.05 525.73 351.98 526.06 350.95 531.55 350.6 526.06 350.58 525.73 349.61 520.15 353.14 520.17"/>
          <polygon class="cls-40" points="353.14 520.17 351.98 526.06 350.95 531.55 351.5 525.9 353.14 520.17"/>
        </g>
        <g>
          <polygon class="cls-13" points="696.26 523.43 695.17 529.07 695.1 529.41 694.06 534.97 693.72 529.41 693.7 529.07 692.73 523.42 696.26 523.43"/>
          <polygon class="cls-40" points="696.26 523.43 695.1 529.41 694.06 534.97 694.62 529.24 696.26 523.43"/>
        </g>
        <g>
          <polygon class="cls-13" points="1107.8 519.91 1106.71 524.59 1106.64 524.87 1105.6 529.49 1105.26 524.87 1105.24 524.59 1104.27 519.9 1107.8 519.91"/>
          <polygon class="cls-40" points="1107.8 519.91 1106.64 524.87 1105.6 529.49 1106.16 524.73 1107.8 519.91"/>
        </g>
        <polygon class="cls-13" points="-13.28 528.45 -13.28 530.38 462.26 530.18 -13.28 528.45"/>
        <polygon class="cls-13" points="601.4 534.49 794.23 534.79 693.97 536.06 601.49 534.49 601.4 534.49"/>
        <polygon class="cls-13" points="1144.86 529.49 994.84 529.49 1144.86 531.8 1144.86 529.49"/>
        <polygon class="cls-63" points="607.73 481.86 608.84 475.68 610.76 478.62 612.69 470.39 613.8 478.33 616.55 472.74 616.28 478.33 619.86 475.39 619.31 481.86 607.73 481.86"/>
        <polygon class="cls-4" points="275.54 507.05 276.65 500.87 278.58 503.81 280.5 495.58 281.61 503.52 284.36 497.93 284.09 503.52 287.67 500.58 287.12 507.05 275.54 507.05"/>
        <polygon class="cls-63" points="109.52 479.94 110.41 473.73 112.44 476.59 114.08 468.28 115.46 476.17 118.02 470.48 117.93 476.07 121.41 472.99 121.09 479.48 109.52 479.94"/>
        <polygon class="cls-4" points="354.99 509.3 356.09 503.13 358.02 506.07 359.95 497.83 361.05 505.77 363.8 500.19 363.53 505.77 367.11 502.83 366.56 509.3 354.99 509.3"/>
        <polygon class="cls-4" points="981.99 483.23 983.09 477.06 985.02 480 986.95 471.76 988.05 479.7 990.8 474.11 990.53 479.7 994.11 476.76 993.56 483.23 981.99 483.23"/>
        <polygon class="cls-63" points="598.64 480.83 596.71 477.59 601.4 480.53 600.57 467.89 604.7 479.95 606.36 475.24 607.18 482.3 598.64 480.83"/>
        <polygon class="cls-63" points="747.98 483.03 748.53 478.62 751.28 481.27 756.52 468.92 755.14 482.15 759.55 477.45 759.82 481.56 767.54 476.27 767.81 483.03 747.98 483.03"/>
        <polygon class="cls-63" points="415.88 482.25 416.43 477.84 419.18 480.49 424.42 468.14 423.04 481.37 427.45 476.66 427.73 480.78 435.44 475.49 435.72 482.25 415.88 482.25"/>
        <polygon class="cls-63" points="679.92 478.33 682.95 480.68 684.05 474.21 686.53 480.39 689.56 471.86 689.56 481.27 694.8 473.62 692.87 483.03 680.2 484.5 679.92 478.33"/>
        <polygon class="cls-4" points="18.87 504.43 19.95 501.29 22.91 503.22 28.36 494.95 27.68 503.19 32.79 497.66 32.45 502.76 35.87 499.09 37.23 503.11 48.2 495.58 43.48 503.46 51.91 500.26 48.28 506.56 18.87 504.43"/>
        <polygon class="cls-4" points="-4.66 504.3 -5.76 499.6 -.99 502.34 -.25 494.89 2.32 502.34 6.36 498.03 5.99 504.7 -4.66 504.3"/>
        <polygon class="cls-4" points="640.43 513.32 638.96 506.66 641.53 509.01 643.74 502.74 644.47 510.97 648.51 505.87 648.14 511.75 651.82 507.44 652.55 510.58 656.96 504.3 657.7 509.4 661.37 507.83 662.47 510.18 666.51 507.44 666.88 512.14 674.23 505.87 671.66 516.46 640.43 513.32"/>
        <path class="cls-4" d="M1055.18,508.62l-2.2-5.88,4.41,3.14,1.84-7.06,1.84,6.67s5.51-13.33,5.14-12.15c-.37,1.18-1.47,10.98-1.47,10.98l5.14-4.7v5.1l5.14-2.74.37,3.14,4.41-2.74,1.1,3.53,4.78-6.27.73,5.49,8.45-7.84-1.1,8.63,5.14-5.1-.37,5.49,4.04-3.53-1.1,7.06-46.29-1.18Z"/>
        <polygon class="cls-6" points="827.05 513.62 823.47 524.79 828.98 512.73 827.05 513.62"/>
        <polygon class="cls-6" points="856.9 512.83 861.12 510.77 861.22 512.83 866.91 512.73 869.66 507.05 871.32 513.32 856.9 512.83"/>
        <polygon class="cls-6" points="893.91 485.09 897.77 492.93 896.48 484.95 893.91 485.09"/>
        <polygon class="cls-6" points="925.14 484.95 924.93 482.15 928.51 485.46 925.14 484.95"/>
        <polygon class="cls-6" points="793.3 528.91 788.11 523.6 792.06 528.91 793.3 528.91"/>
        <polygon class="cls-6" points="908.33 513.32 914.12 523.91 911.5 513.32 908.33 513.32"/>
        <polygon class="cls-6" points="999.07 520.28 995.67 523.91 994.66 523.02 999.07 520.28"/>
        <polygon class="cls-6" points="605.1 523.33 601.95 528.76 600.85 526.99 605.1 523.33"/>
        <polygon class="cls-6" points="459.43 520.89 462.19 525.08 459.92 525.23 459.43 520.89"/>
        <polygon class="cls-6" points="503.86 485.39 508.41 478.92 506.75 485.53 503.86 485.39"/>
        <path class="cls-6" d="M502.62,513.32l-1.1,4.56,2.07-3.38s.14,2.79.14,2.35,4.68-3.38,4.68-3.38l-5.79-.15Z"/>
        <polygon class="cls-6" points="545.6 485.24 546.84 490.68 547.95 484.8 545.6 485.24"/>
        <polygon class="cls-6" points="538.72 513.17 541.06 508.18 541.75 513.47 538.72 513.17"/>
        <polygon class="cls-6" points="513.92 513.32 519.15 503.91 516.67 513.47 513.92 513.32"/>
        <path class="cls-6" d="M566.59,504.5c0,.76-1.73,1.37-3.86,1.37s-3.86-.61-3.86-1.37,1.73-1.37,3.86-1.37,3.86.61,3.86,1.37Z"/>
        <path class="cls-6" d="M557.04,500.58c0,.36-.82.65-1.84.65s-1.84-.29-1.84-.65.82-.65,1.84-.65,1.84.29,1.84.65Z"/>
        <path class="cls-6" d="M514.42,475.94c0,.36-.82.65-1.84.65s-1.84-.29-1.84-.65.82-.65,1.84-.65,1.84.29,1.84.65Z"/>
        <path class="cls-6" d="M485.59,528.09c0,.36-.82.65-1.84.65s-1.84-.29-1.84-.65.82-.65,1.84-.65,1.84.29,1.84.65Z"/>
        <ellipse class="cls-6" cx="470.89" cy="539.79" rx="3.67" ry="1.31"/>
        <ellipse class="cls-6" cx="76.89" cy="543.51" rx="3.67" ry="1.31"/>
        <ellipse class="cls-6" cx="-3.19" cy="538.28" rx="3.67" ry="1.31"/>
        <ellipse class="cls-6" cx="418.91" cy="535.67" rx="3.67" ry="1.31"/>
        <ellipse class="cls-6" cx="304.29" cy="544.69" rx="3.31" ry="1.18"/>
        <path class="cls-6" d="M284.45,537.63c0,.65-1.48,1.18-3.31,1.18s-3.31-.53-3.31-1.18,1.48-1.18,3.31-1.18,3.31.53,3.31,1.18Z"/>
        <ellipse class="cls-6" cx="578.53" cy="523.91" rx="2.76" ry=".98"/>
        <ellipse class="cls-6" cx="653.2" cy="542.53" rx="2.76" ry=".98"/>
        <ellipse class="cls-6" cx="643.28" cy="545.67" rx="2.48" ry=".88"/>
        <path class="cls-6" d="M778.83,538.9c0,.87-1.97,1.57-4.41,1.57s-4.41-.7-4.41-1.57,1.97-1.57,4.41-1.57,4.41.7,4.41,1.57Z"/>
        <ellipse class="cls-6" cx="969.22" cy="518.03" rx="4.41" ry="1.57"/>
        <ellipse class="cls-6" cx="1041.96" cy="538.61" rx="4.41" ry="1.57"/>
        <ellipse class="cls-6" cx="1053.53" cy="540.96" rx="4.41" ry="1.57"/>
        <path class="cls-6" d="M963.71,522.73c0,.49-1.11.88-2.48.88s-2.48-.39-2.48-.88,1.11-.88,2.48-.88,2.48.39,2.48.88Z"/>
        <path class="cls-6" d="M882.16,538.61c0,.49-1.11.88-2.48.88s-2.48-.39-2.48-.88,1.11-.88,2.48-.88,2.48.39,2.48.88Z"/>
        <ellipse class="cls-6" cx="884.63" cy="541.55" rx="2.48" ry=".88"/>
        <path class="cls-6" d="M1106.71,538.9c0,.49-1.11.88-2.48.88s-2.48-.39-2.48-.88,1.11-.88,2.48-.88,2.48.39,2.48.88Z"/>
        <ellipse class="cls-6" cx="928.99" cy="478.62" rx="2.48" ry=".88"/>
        <path class="cls-6" d="M909.71,491.56c0,.49-1.11.88-2.48.88s-2.48-.39-2.48-.88,1.11-.88,2.48-.88,2.48.39,2.48.88Z"/>
        <ellipse class="cls-6" cx="817.68" cy="490.97" rx="3.31" ry="1.18"/>
        <path class="cls-6" d="M825.4,493.33c0,.22-.49.39-1.1.39s-1.1-.18-1.1-.39.49-.39,1.1-.39,1.1.18,1.1.39Z"/>
        <path class="cls-6" d="M837.24,474.7c0,.22-.49.39-1.1.39s-1.1-.18-1.1-.39.49-.39,1.1-.39,1.1.18,1.1.39Z"/>
        <path class="cls-6" d="M573.02,528.42c0,.32-.74.59-1.65.59s-1.65-.26-1.65-.59.74-.59,1.65-.59,1.65.26,1.65.59Z"/>
        <polygon class="cls-4" points="377.33 506.04 377.88 501.63 380.63 504.27 385.87 491.92 384.49 505.16 388.9 500.45 389.17 504.57 396.89 499.28 397.16 506.04 377.33 506.04"/>
        <g class="cls-66">
          <path class="cls-60" d="M273.72,139.53l-210.15,3.17c-14.27.22-27.41-7.45-33.79-19.71l-11.45-21.98c-6.63-12.74-4.58-27.65,4.3-38.2,2.42-2.87,5.34-5.42,8.73-7.53l18.84-11.67c5.93-3.67,12.88-5.54,19.94-5.35l29.03.78c12.78.34,24.86,6.15,32.4,16.07,5.55,7.3,8.52,16.71,1.91,27.29,0,0,29.37-7.76,38.92-4.94,9.55,2.82,17.62,18.34,17.62,18.34,0,0-.54,10.81-9.85,15.72,11.61-3.77,38.07-11.03,46.57-2.32,0,0,6.61,8.79,5.87,14.18-.01.13-.04.25-.07.37.14-.22.28-.45.43-.69,4.74-7.46,18.14-25.42,33.42-18.08,1.37.66,2.66,1.36,3.87,2.09,15.65,9.55,17.78,25.26,3.47,32.46Z"/>
          <path class="cls-56" d="M273.72,139.53l-210.15,3.17c-14.27.22-27.41-7.45-33.79-19.71l-11.45-21.98c-6.63-12.74-4.58-27.65,4.3-38.2.65,9.22,3.97,18.43,8.82,26.48,7.07,11.72,17.11,21.44,27.39,30.78-8.04-8.84-10.27-22.14-7.88-33.89,2.15-10.57,7.37-20.23,13.21-29.51-2.01,5.59-1.86,12.05-.08,17.79,2.73,8.79,8.65,16.31,14.45,23.6,6.66,8.38,14.37,17.39,25.21,19.08,8.5,1.33,17.33-2.45,23.11-8.58,5.77-6.14,8.76-14.32,9.78-22.54-1.02,11.02,5.35,22.34,15.51,27.56,8.99,4.62,20.46,4.22,29.21-.74-1.8,2.25-2.22,5.66-.66,8.15,2.27,3.63,7.67,4.8,11.66,3,3.99-1.81,6.44-6.06,6.61-10.3,1.91,7.14,8.32,12.98,15.85,14.43,6.26,1.21,13.03-.68,17.78-4.74.12-.11.25-.21.37-.32.82-.73,1.58-1.53,2.25-2.4,5.55,9.4,20.25,12.29,29.21,5.75,6.96-5.08,5.94-12.57,5.82-19.35,15.65,9.55,17.78,25.26,3.47,32.46Z"/>
        </g>
        <g class="cls-65">
          <path class="cls-60" d="M1125.17,80.71l-13.03,25.4-47.73.51-4.12.05-24.13.26-20.93-.22-7.43-.07-37.98-.4h-.99s-70.27-.74-70.27-.74l-25.61-.26-21.18-.22s-58.55-.61-58.55-.61c-2.35-2.79-3.23-6.92-1.6-10.77l2.21-5.24c1.75-4.15,5.18-7.22,9.33-8.33l4.26-1.14c5.78-1.53,11.85,1.03,15.07,6.38l5.41,9c2.76,4.57,8.32,6.15,12.84,3.65l3.45-1.92s.11-.06.32-.15c.39-.2,1.14-.58,2.14-1.06,2.08-.99,5.22-2.42,8.6-3.71,4.11-1.57,8.55-2.91,11.72-2.91,2.9,0,18.59,5.87,24.73,8.22,1.52.58,2.46.94,2.46.94l-7.39-17.11-2.4-5.55c-1.79-4.16-1.64-8.97.41-12.99.03-.06.06-.12.09-.18,1.11-2.16,2.41-4.67,3.8-7.25,4.48-8.38,9.7-17.47,11.33-17.46,3.03.03,47.01-6.78,53.05-4.3,4.63,1.91,16.19,26.74,21.31,38.18,1.62,3.62,1.76,7.77.41,11.51l-6.43,17.55s1.78-2.04,4.11-4.51c2.53-2.67,5.73-5.83,8.1-7.49,1.5-1.04,5.16-.41,9.42.9,8.77,2.69,20.04,8.3,20.04,8.3,0,0,.96-4.85,4.36-9.62,1.88-2.64,4.53-5.24,8.17-6.98.16-.08.32-.17.49-.24,8.79-3.92,23.65,6.57,28.56,10.34.9.7,1.48,1.17,1.6,1.26-.54-.68-10.37-13.31-7.32-24.29.05-.16.09-.33.15-.5.86-2.49,3.13-5.34,6.27-8.22.84-.77,1.73-1.55,2.69-2.33,11.68-9.46,31.23-18.55,40.36-16.73,8.39,1.67,20.56,14.75,27.99,23.63,2.27,2.71,3.49,6.13,3.6,9.6.08,2.67-.49,5.37-1.75,7.81Z"/>
          <path class="cls-56" d="M872.93,105.22l-21.18-.22s-58.55-.61-58.55-.61c-2.35-2.79-3.23-6.92-1.6-10.77l2.21-5.24c1.75-4.15,5.18-7.22,9.33-8.33l4.26-1.14c5.78-1.53,11.85,1.03,15.07,6.38l5.41,9c2.76,4.57,8.32,6.15,12.84,3.65l3.45-1.92s.11-.06.32-.15c2.34,2.93,4.67,5.85,7.02,8.78-1.95-3.18-3.62-6.47-4.87-9.84,2.08-.99,5.22-2.42,8.6-3.71,5.2,5.61,11.21,10.37,17.72,14.12Z"/>
          <path class="cls-56" d="M968.82,106.21l-70.27-.73c-2.51-2.84-4.8-5.86-6.88-9.07,1.52.58,2.46.94,2.46.94l-7.39-17.11c5.96,6.54,14.45,10.52,23.03,10.31-12.15-4.5-21.19-15.97-24.92-29.04,1.11-2.16,2.41-4.67,3.8-7.25,3.05,7.37,8.04,14.03,14,19.03,11.43,9.61,25.85,14.15,40.08,17.36,6.84,1.54,13.96,2.94,19.67,7.23,2.75,2.06,5.07,5.03,6.43,8.33Z"/>
          <path class="cls-56" d="M1007.78,106.63l-37.98-.4c.53-3.74,1.41-7.43,2.62-10.98,2.53-2.67,5.73-5.83,8.1-7.49,1.5-1.04,5.16-.41,9.42.9,5.34,6.63,11.33,12.67,17.83,17.98Z"/>
          <path class="cls-56" d="M1060.27,106.66l-24.13.26-20.93-.22c-.84-1.89-1.44-3.87-1.81-5.92-.82-4.47-.44-9.14.95-13.45,1.88-2.64,4.53-5.24,8.17-6.98,9.24,13.05,22.85,22.52,37.76,26.31Z"/>
          <path class="cls-56" d="M1125.17,80.71l-13.03,25.4-47.73.51c-4.87-4.8-9.18-10.24-12.83-16.16.9.7,1.48,1.17,1.6,1.26-.54-.68-10.37-13.31-7.32-24.29.05-.16.09-.33.15-.5,11.06,13.67,27.62,22.31,44.59,22.64-16.59-2.34-31.42-14.68-38.32-30.86.84-.77,1.73-1.55,2.69-2.33,8.48,10.26,19.91,17.76,32.38,21.01,7.42,1.94,15.18,2.35,22.75,1.34,5.92-.81,11.32-3.98,16.81-5.84.08,2.67-.49,5.37-1.75,7.81Z"/>
          <path class="cls-60" d="M1056.71,85.82s17.42,16.94,36.94,11.37c0,0-21.65,13.4-36.94-11.37Z"/>
        </g>
        <polygon class="cls-63" points="65.79 480.42 64.51 475.64 67.07 477.69 67.92 472.67 69.42 477.69 70.91 473.36 71.55 477.46 75.18 473.13 74.97 477 77.96 474.72 77.96 477 80.52 474.27 80.95 477.46 82.87 475.18 82.44 480.19 65.79 480.42"/>
        <polygon class="cls-63" points="-10.97 484.86 -10.97 480.42 -7.77 482.47 -7.45 479.4 -6.49 482.47 -3.93 476.32 -3.61 482.13 -1.69 479.05 -.4 481.79 1.84 478.71 2.8 481.45 5.68 478.03 6.32 482.81 9.84 479.05 9.84 485.21 -10.97 484.86"/>
        <polygon class="cls-63" points="20.09 482.64 20.73 479.57 21.7 480.76 22.66 474.95 23.3 480.59 24.9 475.81 24.9 480.08 27.14 476.66 26.66 480.08 29.54 477.69 28.58 480.42 31.46 477.69 31.14 482.3 20.09 482.64"/>
        <path class="cls-63" d="M134.8,475.76l-.04-4.79,2.58,2.37.92-5.48,1.32,4.77s2.19-5.83,2.2-4.81c0,1.03.35,4.1.35,4.1l2.52-4.81.36,4.78,2.84-5.15,1.64,5.11,2.86-2.42,1.3,2.72,4.73-8.93-.57,8.21,4.45-4.14-.57,8.55-26.91-.09Z"/>
        <path class="cls-63" d="M278.45,465.61s.43-7.06.21-6.38c-.21.68-2.78,4.1-2.78,4.1l-.21-9.57-2.78,8.66-2.35-6.15-.85,5.7-3.63-5.01.64,4.56-3.63-1.82.64,3.19-4.06-.46.64,2.05-7.05-1.37,3.2,3.87,21.99-1.37Z"/>
        <polygon class="cls-63" points="191.12 471.99 189.2 467.2 192.62 469.25 192.62 463.56 194.54 468.8 196.46 462.19 196.68 467.43 200.31 461.74 199.88 467.43 202.87 464.47 202.87 468.34 205.22 464.93 205 468.34 207.99 464.7 207.78 467.89 210.34 464.93 210.34 468.34 213.54 464.93 213.12 467.89 216.75 464.47 216.53 470.17 191.12 471.99"/>
        <polygon class="cls-4" points="284.01 482.47 284.01 474.61 287.21 481.79 284.01 482.47"/>
        <polygon class="cls-4" points="230.2 489.99 230.2 483.16 232.76 488.62 233.4 480.76 235 487.6 237.57 481.1 237.25 489.31 230.2 489.99"/>
        <path class="cls-4" d="M367.92,478.37l2.88-11.96,1.6,10.6s1.92-6.49,1.92-5.47.32,7.18.32,7.18l-6.73-.34Z"/>
        <polygon class="cls-4" points="114.26 491.7 114.9 483.5 117.14 492.04 114.26 491.7"/>
        <polygon class="cls-4" points="52.28 483.02 52.57 479.38 53.56 483.17 52.28 483.02"/>
        <polygon class="cls-4" points="79.51 494.99 79.79 491.34 80.79 495.14 79.51 494.99"/>
        <polygon class="cls-4" points="16.89 493.11 17.18 489.46 18.17 493.26 16.89 493.11"/>
        <path class="cls-4" d="M162.62,494.44l.32-9.23,1.92,8.55,1.6-8.89,1.6,8.2,3.2-9.91.32,10.25,4.48-7.18.64,7.52s2.56-7.86,2.56-6.84.64,6.84.64,6.84l-17.3.68Z"/>
        <path class="cls-4" d="M112.66,505.71l-.64-6.49,3.2,3.42s2.24-9.91,2.24-8.89.64,8.89.64,8.89l3.84-7.86.32,7.52,5.12-10.94v10.25s4.16-6.84,3.84-5.81,0,7.52,0,7.52l3.2-5.81v5.47l5.44-4.1-1.92,9.91-25.3-3.08Z"/>
        <polygon class="cls-63" points="350.3 460.25 349.66 454.1 352.87 457.18 353.83 448.63 355.43 456.49 358.31 448.97 358.95 455.81 362.16 449.66 362.16 456.49 365.68 451.37 365.04 459.91 350.3 460.25"/>
        <polygon class="cls-4" points="663.27 491.78 662.55 485.63 665.81 490.03 667.01 483.86 668.68 489.31 670.54 484.49 671.57 489.95 674.41 486.15 673.84 491.97 663.27 491.78"/>
        <polygon class="cls-4" points="709.66 493.92 707.74 501.27 710.46 501.1 709.66 493.92"/>
        <polygon class="cls-4" points="727.28 488.97 728.56 481.62 729.2 489.14 727.28 488.97"/>
        <polygon class="cls-4" points="627.03 493.92 628.47 486.23 629.27 494.09 627.03 493.92"/>
        <polygon class="cls-63" points="992.47 455.13 994.39 449.66 996.95 453.08 999.2 446.24 999.84 453.42 1003.36 447.95 1003.68 454.44 1007.2 449.66 1006.56 459.23 992.47 455.13"/>
        <polygon class="cls-63" points="1044.04 459.91 1044.68 452.73 1046.92 455.81 1049.48 450.34 1050.12 456.49 1054.93 450.68 1054.93 456.84 1058.77 452.05 1059.09 459.23 1061.65 455.13 1062.61 458.89 1064.85 455.47 1066.14 459.23 1070.94 455.81 1071.26 461.62 1044.04 459.91"/>
        <polygon class="cls-63" points="1105.21 463.67 1105.85 458.54 1109.05 460.94 1110.65 455.13 1110.97 460.6 1113.86 455.13 1113.86 461.62 1118.98 456.84 1118.02 462.3 1123.47 457.52 1123.47 465.38 1105.21 463.67"/>
        <path class="cls-4" d="M1056.78,481.16l-.07-8.55,3.13,5.31,1.55-8.29,1.3,7.46s2.46-9.37,2.51-8.34.71,8.52.71,8.52l3.58-6,.33,7.17,2.36-4.57-.6,7.9-14.78-.6Z"/>
        <polygon class="cls-4" points="1118.66 489.99 1121.22 479.05 1122.18 489.99 1118.66 489.99"/>
        <polygon class="cls-4" points="1132.97 500.59 1135.53 489.65 1136.49 500.59 1132.97 500.59"/>
        <polygon class="cls-4" points="1098.8 474.61 1101.37 463.67 1102.33 474.61 1098.8 474.61"/>
        <polygon class="cls-4" points="1023.22 477.34 1024.5 469.14 1025.46 477.34 1023.22 477.34"/>
        <polygon class="cls-4" points="1087.05 490.24 1088.68 484.06 1090.32 490.35 1087.05 490.24"/>
      </g>
    </g>
  </g>
</svg>