<svg width="18" height="144" viewBox="0 0 18 144" fill="none" xmlns="http://www.w3.org/2000/svg">
<path d="M11.8443 0.120038C11.7253 0.160038 11.6162 0.210032 11.507 0.270032C2.57887 5.05003 0.396423 74.4901 0.396423 83.3801C0.396423 86.59 1.5075 90.89 2.95585 95.09C3.87842 97.79 4.93986 100.46 5.91204 102.78C4.97954 115.86 4.49345 125.52 5.03906 127.7C5.95171 131.35 8.22348 134.92 10.4853 137.78C13.3919 141.46 16.2687 143.97 16.2687 143.97V137.78C16.2687 131.59 21.0701 -3.05997 11.8443 0.110028V0.120038ZM9.46348 58C9.75116 30.63 10.4059 2.60004 11.8443 2.18004C13.8284 1.59004 11.8443 28.76 9.46348 58Z" fill="url(#paint0_linear_8_14564)"/>
<path opacity="0.2" d="M11.8446 1.50003C10.1879 1.50003 7.43007 22.08 6.42813 36.45C5.41627 50.83 4.63258 64.19 4.63258 64.19C4.63258 64.19 4.18618 38.95 5.63453 28.24C6.92415 18.78 7.07298 16.5 7.0829 16.09C6.80513 17.73 1.96408 47.02 3.04538 64.19C4.17628 81.85 2.94614 95.09 2.94614 95.09C1.4978 90.89 0.38678 86.58 0.38678 83.38C0.38678 74.49 2.56917 5.05002 11.4973 0.27002C11.8545 0.80002 11.8346 1.49002 11.8346 1.49002L11.8446 1.50003Z" fill="#385F00"/>
<path opacity="0.2" d="M14.771 18.62L10.4755 137.79L14.1956 142L14.771 18.62Z" fill="#385F00"/>
<defs>
<linearGradient id="paint0_linear_8_14564" x1="8.94762" y1="143.98" x2="8.94762" y2="0.0700284" gradientUnits="userSpaceOnUse">
<stop stop-color="#72810A"/>
<stop offset="0.99" stop-color="#B3BB00"/>
</linearGradient>
</defs>
</svg>
