<svg width="112" height="136" viewBox="0 0 112 136" fill="none" xmlns="http://www.w3.org/2000/svg">
<path d="M94.312 21.36C92.6256 23.06 88.717 24.34 85.3442 25.16C82.1995 25.93 79.5012 26.32 79.5012 26.32L74.2832 26.21H74.2733L72.6563 26.17H72.1206L68.0037 26.07L65.9899 26.03L57.9447 25.84L54.2742 25.75L51.9826 25.71L37.8563 25.39H37.8265L22.8372 25.05H22.8074L21.5872 25.02L9.89134 24.76H9.82189L0.953253 24.56C0.953253 24.56 -0.266929 22.81 0.953253 21.6C2.16351 20.38 7.78827 18.88 7.78827 14.34C7.78827 11 6.24072 9.18003 4.40548 7.44003C3.74083 6.80003 3.02656 6.17004 2.34207 5.48004C-0.247095 2.87004 9.81198 0.420044 23.4721 0.420044C37.1321 0.420044 53.4111 3.17004 53.4111 3.17004C53.4111 3.17004 53.8278 3.26002 54.6313 3.49002C57.4586 4.29002 65.1864 6.77003 77.8049 12.94C94.074 20.89 97.5658 18.08 94.3021 21.38L94.312 21.36Z" fill="url(#paint0_linear_8_14434)"/>
<g style="mix-blend-mode:multiply" opacity="0.26">
<path d="M85.0466 20.2201C85.0466 20.2201 58.9367 7.75006 45.6734 6.22006C32.4101 4.68006 20.8928 3.32007 15.9823 3.32007H11.0718C11.0718 3.32007 21.24 4.34007 32.926 9.98007C44.6119 15.6201 56.6451 16.4401 56.6451 16.4401C56.6451 16.4401 39.3642 13.36 28.8587 13.36C18.3532 13.36 14.286 16.4401 14.286 16.4401C14.286 16.4401 33.0946 13.4801 43.0842 17.4501C53.0838 21.4201 68.0632 20.0801 70.4044 22.4401C72.7555 24.8101 72.1007 26.1401 72.1007 26.1401L79.4912 26.3101L85.0367 20.2201H85.0466Z" fill="#A21800"/>
</g>
<path d="M29.9202 5.37006C29.9202 5.37006 14.1173 1.90007 11.0718 3.32007C8.02635 4.74007 11.4091 8.43005 12.54 13.36C13.6709 18.29 9.83182 24.7501 9.83182 24.7501H11.0718C11.0718 24.7501 15.903 18.35 14.3752 13.86C12.8475 9.38005 10.3973 5.71007 13.1848 4.51007C15.9823 3.31007 29.9202 6.13007 29.9202 6.13007V5.36005V5.37006Z" fill="#776A98"/>
<path d="M37.8364 7.41003C37.8364 7.41003 32.0827 8.13004 27.3309 11.85C22.5792 15.57 21.5673 25.17 21.5673 25.17L22.8371 25.03C22.8371 25.03 22.5693 17.2 28.5114 12.7C34.4635 8.20004 37.8265 8.43002 37.8265 8.43002V7.41003H37.8364Z" fill="#776A98"/>
<path d="M44.9492 10.75C44.9492 10.75 42.1517 14.25 40.2074 18.69C38.263 23.13 37.8365 25.38 37.8365 25.38L39.9495 25.18C39.9495 25.18 41.5565 18.89 43.2529 14.82C44.9492 10.75 45.6238 10.75 45.6238 10.75H44.9492Z" fill="#776A98"/>
<path d="M54.2642 12.4501C54.2642 12.4501 51.9727 21.5901 51.9727 22.9501V25.6901L54.2642 25.7401C54.2642 25.7401 53.0242 24.0901 53.6393 20.7301C54.2643 17.3701 55.0479 13.8501 55.0479 13.8501L54.2543 12.4401L54.2642 12.4501Z" fill="#776A98"/>
<path d="M65.97 19.73V26.01L67.9938 26.05L67.3589 20.05L65.97 19.73Z" fill="#776A98"/>
<path style="mix-blend-mode:multiply" d="M20.6646 1.18C20.6646 1.18 33.0053 7.33001 41.7251 11.94C50.445 16.55 64.6903 19.38 67.3489 20.05C70.0175 20.73 72.9737 19.1 72.9737 19.1C72.9737 19.1 50.2664 12.53 46.2884 8.53001C42.3104 4.52001 24.8311 -0.27 20.6547 1.18H20.6646Z" fill="url(#paint1_linear_8_14434)"/>
<path d="M111.652 59.49C111.652 60.32 110.264 64.04 107.972 68.86C107.744 69.3 107.536 69.76 107.288 70.22C106.831 71.15 106.345 72.11 105.839 73.08L104.629 94.42L103.875 95.19V76.67C102.536 79.02 101.058 81.4 99.5002 83.67V104.32L98.151 104.82V85.6H98.1412C96.673 87.62 95.1254 89.48 93.5679 91.09L92.9033 111.06L91.0383 112.69L91.9807 92.75C91.6831 93.07 91.3855 93.39 91.0879 93.7H91.0779C90.0165 94.87 88.9749 96.06 87.9829 97.27L87.5662 122.25L85.7607 122.77L86.5147 99.07C86.2468 99.39 85.9988 99.67 85.7508 99.99C85.483 100.31 85.2251 100.63 84.9671 100.96C84.6795 101.35 84.3818 101.72 84.0743 102.08L82.3284 125.51L81.5645 126.11L82.13 104.58C82.13 104.58 82.13 104.59 82.1201 104.59C79.3027 108.23 76.9318 111.28 75.1263 112.84V135.15H73.0927V113.95H73.0034C71.8824 113.95 71.0293 107.39 70.3151 98.38C70.2754 97.99 70.2456 97.62 70.2158 97.23C69.9282 93.48 69.6901 89.35 69.452 85.14C69.4222 84.58 69.3925 83.99 69.3528 83.42C69.2139 80.71 69.0651 77.98 68.9361 75.28C68.8469 73.48 68.7675 71.68 68.6782 69.95C68.6683 69.52 68.6385 69.1 68.6187 68.68C68.4203 64.83 68.2517 61.25 68.083 58.17C68.0533 57.48 68.0235 56.82 67.9838 56.19C67.7854 52.62 67.5672 49.93 67.3688 48.6C67.2696 48 67.1604 47.35 66.9719 46.68C66.8727 46.18 66.714 45.66 66.5553 45.12C65.5732 41.81 63.9661 38.03 62.4384 34.69C62.2004 34.17 61.9424 33.66 61.7143 33.17C59.8294 29.22 58.1628 26.19 57.9446 25.84V25.8C57.9446 25.8 57.9347 25.79 57.9545 25.77C58.3414 25.48 61.6746 22.98 65.97 23.44C66.2974 23.48 66.6347 23.54 66.9819 23.61C66.9819 23.61 67.091 23.64 67.3092 23.68C67.3688 23.69 67.4382 23.71 67.5176 23.72C67.587 23.73 67.6565 23.75 67.7457 23.76C68.708 23.95 69.8091 24.12 70.9698 24.25C71.2575 24.29 71.5551 24.34 71.8527 24.36C74.6105 24.68 77.6956 24.89 80.6618 25C82.2688 25.07 83.8462 25.11 85.3045 25.11C85.3045 25.11 85.3143 25.11 85.3342 25.11C85.7905 25.12 86.2468 25.12 86.6734 25.12C92.7247 25.12 96.792 24.58 101.365 24.58C105.938 24.58 110.343 26.97 110.343 26.97C110.343 26.97 110.383 28.36 110.482 30.58C110.512 31.2 110.541 31.85 110.581 32.6C110.72 36.01 110.918 40.53 111.097 44.9C111.107 45.39 111.137 45.86 111.166 46.35C111.295 49.83 111.434 53.11 111.533 55.53C111.543 55.95 111.543 56.36 111.563 56.73C111.623 58.16 111.652 59.14 111.652 59.45V59.49Z" fill="url(#paint2_linear_8_14434)"/>
<path d="M110.591 32.64C107.595 33.6 99.1629 36.03 96.1174 34.72C92.8933 33.3 84.8877 31.55 79.7392 31.61C78.9555 31.62 78.2214 31.67 77.5964 31.77C77.031 31.86 76.3862 31.97 75.6917 32.1C70.5333 33 62.4483 34.72 62.4483 34.72C62.2102 34.2 61.9523 33.69 61.7242 33.2C63.2023 32.64 68.1227 30.99 75.1362 30.61C76.0985 30.55 77.1103 30.52 78.1619 30.52C78.5289 30.52 78.896 30.52 79.2729 30.53C88.8757 30.7 95.9091 33.01 103.062 31.76C107.168 31.04 109.371 30.74 110.512 30.61C110.541 31.23 110.571 31.88 110.611 32.63L110.591 32.64Z" fill="#776A98"/>
<path d="M111.176 46.39C108.934 47.36 105.581 48.62 102.784 48.62C102.119 48.62 101.276 48.53 100.314 48.38C99.5894 48.25 98.7959 48.09 97.9526 47.91C92.2684 46.68 84.5009 44.24 81.5546 44.24C81.3958 44.24 81.2272 44.24 81.0387 44.25C80.1856 44.29 79.0943 44.42 77.8742 44.59C74.0549 45.16 69.0651 46.24 66.9719 46.7C66.8727 46.2 66.714 45.68 66.5553 45.14C67.9342 44.58 71.7237 43.29 77.7948 43.19C78.7769 43.16 79.7987 43.18 80.8899 43.23C82.13 43.27 83.4196 43.37 84.7985 43.55C92.1692 44.44 95.6511 45.87 98.4089 46.66C99.0736 46.85 99.6986 46.99 100.343 47.09C101.435 47.25 102.546 47.23 103.915 46.95C106.752 46.36 109.331 45.56 111.107 44.94C111.117 45.43 111.146 45.9 111.176 46.39Z" fill="#776A98"/>
<path d="M111.573 56.7801C109.053 57.3701 104.45 58.33 99.2422 58.8C97.7641 58.93 96.2265 59.0301 94.6988 59.0701C94.1829 59.0801 93.6572 59.08 93.1512 59.08C89.0641 59.08 85.9889 58.84 83.4592 58.55C80.8304 58.25 78.7868 57.8901 76.8226 57.6901C75.8802 57.5901 74.9577 57.5301 74.0053 57.5301C71.0888 57.5301 69.1742 57.8901 68.083 58.1901C68.0532 57.5001 68.0234 56.8401 67.9838 56.2101C69.8289 56.0801 72.9439 55.9501 77.1798 56.1201C78.9456 56.1901 80.8998 56.3101 83.0525 56.5101C84.6199 56.6501 86.2964 56.8401 88.0523 57.0701C90.5125 57.4001 92.8834 57.5401 95.1253 57.5601C96.6134 57.5701 98.0518 57.5501 99.4208 57.4601C104.817 57.1401 109.143 56.2001 111.553 55.5701C111.563 55.9901 111.563 56.4001 111.583 56.7701L111.573 56.7801Z" fill="#776A98"/>
<path d="M107.972 68.86C107.744 69.3 107.536 69.76 107.288 70.22C106.891 70.33 106.444 70.43 105.978 70.55C105.343 70.71 104.639 70.8501 103.875 71.0101C102.03 71.3501 99.8275 71.6801 97.2284 71.9401C95.5916 72.0801 93.8159 72.21 91.8716 72.3C91.0879 72.34 90.324 72.36 89.5701 72.36C89.0443 72.37 88.5483 72.3701 88.0325 72.3701C80.8404 72.3601 75.1263 71.4401 71.6642 70.7101C70.3051 70.4201 69.2734 70.15 68.6683 69.98C68.6584 69.55 68.6286 69.1301 68.6088 68.7101C68.6088 68.7101 70.0769 68.95 72.3982 69.3C75.9894 69.82 81.624 70.5601 87.0801 70.9601C88.2309 71.0301 89.3816 71.1001 90.4927 71.1501H90.5026C93.0223 71.2401 95.3932 71.24 97.3773 71.04C97.5162 71.04 97.6649 71.0301 97.7939 71.0101C101.187 70.6501 103.915 70.0801 106.018 69.4901H106.028C106.752 69.2801 107.387 69.0701 107.962 68.8701L107.972 68.86Z" fill="#776A98"/>
<path d="M99.5002 83.7001C99.1331 84.2501 98.7562 84.78 98.3792 85.3C95.4924 85.75 90.6018 86.2801 83.7569 86.2801C75.91 86.2801 71.4955 85.6 69.442 85.16C69.4123 84.6 69.3924 84.0301 69.3428 83.4501C72.0709 83.8701 78.5289 84.73 85.3441 84.73C91.0482 84.73 96.3654 84.1301 99.4903 83.6901L99.5002 83.7001Z" fill="#776A98"/>
<path d="M85.7409 99.98C85.4731 100.31 85.2151 100.64 84.9572 100.96C83.0228 100.92 79.7293 100.71 76.5449 100.06C73.4994 99.42 71.436 98.79 70.315 98.39C70.2753 98.01 70.2456 97.63 70.2158 97.24C72.7455 97.92 76.9119 99 79.6896 99.62C81.7629 100.08 84.0148 100.08 85.7508 99.98H85.7409Z" fill="#776A98"/>
<g style="mix-blend-mode:multiply" opacity="0.26">
<path d="M111.662 59.5C111.662 60.32 110.264 64.05 107.972 68.86C107.754 69.31 107.536 69.76 107.297 70.23C105.224 74.45 102.536 79.3 99.5002 83.69C99.1331 84.25 98.7562 84.78 98.3792 85.3C96.782 87.51 95.1154 89.55 93.4092 91.27C92.6255 92.06 91.8517 92.88 91.0878 93.72C91.2366 93.42 93.796 88.49 95.4229 81.52C97.0995 74.33 102.377 41.75 99.5002 44.66C96.6233 47.56 91.8716 76.26 88.0325 72.38C84.1834 68.51 85.7409 41.38 85.7409 34.2C85.7409 27.71 71.2475 23.42 67.3092 23.72C72.4578 23.33 80.751 25.18 86.6733 25.18C92.5957 25.18 96.7821 24.63 101.365 24.63C105.948 24.63 110.333 27.02 110.333 27.02C110.333 27.02 110.383 28.41 110.482 30.63C110.512 31.24 110.531 31.91 110.581 32.65C110.73 36.07 110.918 40.59 111.097 44.96C111.107 45.44 111.136 45.92 111.166 46.39C111.305 49.87 111.434 53.15 111.533 55.57C111.543 55.99 111.563 56.4 111.573 56.77C111.623 58.2 111.652 59.19 111.652 59.5H111.662Z" fill="#A21800"/>
</g>
<path style="mix-blend-mode:color-dodge" opacity="0.46" d="M18.2044 3.32004V3.38004C18.2937 3.71004 18.5913 4.07003 19.1468 4.44003C19.7321 4.83003 20.5853 5.24003 21.7658 5.66003C21.7757 5.66003 21.7955 5.67004 21.8054 5.67004C22.2022 5.81004 22.6288 5.94003 23.0951 6.09003C23.2637 6.15003 23.4224 6.19003 23.6109 6.25003C23.6803 6.26003 23.7498 6.29003 23.8192 6.31003C25.7239 6.85003 28.819 7.87002 32.2415 9.05002C32.7276 9.21002 33.2037 9.38002 33.7096 9.55002C36.9734 10.68 40.4454 11.9 43.3818 12.96C43.5802 13.03 43.7786 13.1 43.977 13.16C46.8638 14.21 49.195 15.05 50.2267 15.42C50.6236 15.58 50.8418 15.65 50.8418 15.65C50.8418 15.65 48.1137 15.61 43.2727 14.78C42.9751 14.72 42.6576 14.67 42.3303 14.61C41.4474 14.45 40.5149 14.27 39.503 14.05C36.775 13.46 33.6204 12.67 30.0987 11.6C30.0987 11.59 30.0888 11.6 30.0888 11.6C29.5531 11.43 29.0075 11.26 28.452 11.07C28.1246 10.97 27.7972 10.87 27.4699 10.75C21.1309 8.66003 15.9029 7.76003 12.0241 7.41003C11.4289 7.37003 10.8734 7.32002 10.3377 7.30002C6.51843 7.09002 4.41536 7.43002 4.41536 7.43002C3.7507 6.79002 3.03647 6.16003 2.35197 5.47003C-0.237192 2.86003 9.82185 0.410034 23.4819 0.410034C37.142 0.410034 53.421 3.16003 53.421 3.16003C53.421 3.16003 53.8377 3.25004 54.6412 3.48004C53.8278 3.69004 51.685 4.00003 46.8241 3.34003C42.9056 2.80003 35.277 2.07002 29.0769 1.74002C25.9918 1.58002 23.2835 1.53004 21.5277 1.63004C20.7737 1.67004 20.2083 1.76003 19.8611 1.87003C18.7401 2.24003 18.1151 2.76004 18.1945 3.35004L18.2044 3.32004Z" fill="url(#paint3_linear_8_14434)"/>
<path style="mix-blend-mode:color-dodge" opacity="0.46" d="M77.9734 48.62C77.9734 51.18 77.6758 53.7 77.16 56.13C77.0508 56.66 76.9318 57.18 76.8029 57.69C75.7216 62.06 74.045 66.04 72.3983 69.29C72.1602 69.78 71.9023 70.25 71.6642 70.71C70.6523 72.59 69.6901 74.15 68.9262 75.31C68.8369 73.51 68.7576 71.71 68.6683 69.98C68.6584 69.55 68.6286 69.13 68.6088 68.71C68.4104 64.86 68.2417 61.28 68.0731 58.2C68.0433 57.51 68.0136 56.85 67.9739 56.22C67.7755 52.65 67.5572 49.96 67.3588 48.63C67.2596 48.03 67.1505 47.38 66.962 46.71C66.8628 46.21 66.7041 45.69 66.5454 45.15C65.5633 41.84 63.9562 38.06 62.4285 34.72C62.1904 34.2 61.9325 33.69 61.7043 33.2C59.8195 29.25 58.1529 26.22 57.9347 25.87V25.83C57.9347 25.83 57.9248 25.82 57.9446 25.8C58.3315 25.51 61.6646 23.01 65.9601 23.47C66.2874 23.51 66.6247 23.57 66.9719 23.64C66.9719 23.64 67.0811 23.67 67.2993 23.71C67.3588 23.72 67.4283 23.74 67.5076 23.75C67.5771 23.76 67.6465 23.78 67.7358 23.79C68.6981 23.98 69.7992 24.15 70.9599 24.28C71.2277 24.52 71.4856 24.78 71.7237 25.07C71.8824 25.23 72.0411 25.4 72.18 25.57C72.3387 25.76 72.4776 25.96 72.6165 26.16H72.6264C73.5689 27.41 74.3922 28.9 75.0966 30.61C75.295 31.08 75.4834 31.58 75.6521 32.1C76.7135 35.15 77.4377 38.85 77.7651 43.2C77.7948 43.66 77.8246 44.13 77.8345 44.6C77.9238 45.89 77.9436 47.22 77.9436 48.62H77.9734Z" fill="url(#paint4_linear_8_14434)"/>
<defs>
<linearGradient id="paint0_linear_8_14434" x1="0.417563" y1="13.36" x2="95.4231" y2="13.36" gradientUnits="userSpaceOnUse">
<stop stop-color="#FFFFE1"/>
<stop offset="1" stop-color="#E2D1C7"/>
</linearGradient>
<linearGradient id="paint1_linear_8_14434" x1="20.6646" y1="10.56" x2="72.9935" y2="10.56" gradientUnits="userSpaceOnUse">
<stop stop-color="#958B9D"/>
<stop offset="1" stop-color="#C2929D"/>
</linearGradient>
<linearGradient id="paint2_linear_8_14434" x1="57.9247" y1="79.28" x2="111.652" y2="79.28" gradientUnits="userSpaceOnUse">
<stop stop-color="#FFFFE1"/>
<stop offset="1" stop-color="#E2D1C7"/>
</linearGradient>
<linearGradient id="paint3_linear_8_14434" x1="28.2932" y1="15.64" x2="28.2932" y2="0.400034" gradientUnits="userSpaceOnUse">
<stop/>
<stop offset="1" stop-color="#FCED00"/>
</linearGradient>
<linearGradient id="paint4_linear_8_14434" x1="67.954" y1="75.3" x2="67.954" y2="23.4" gradientUnits="userSpaceOnUse">
<stop/>
<stop offset="1" stop-color="#FCED00"/>
</linearGradient>
</defs>
</svg>
