<svg width="46" height="175" viewBox="0 0 46 175" fill="none" xmlns="http://www.w3.org/2000/svg">
<path d="M45.1214 126.75C45.1214 133.4 45.0817 139.02 44.9924 143.12L44.9726 143.82C44.9726 144.48 44.9428 145.11 44.913 145.69L44.8833 146.43C44.794 148.96 44.6551 150.41 44.4865 150.57C42.6612 152.28 40.8061 146.12 38.336 146.12C36.4908 146.12 35.4393 154.43 34.4274 161.5C34.2389 162.79 34.0604 164.04 33.8719 165.2C33.7132 166.17 33.5544 167.07 33.3858 167.87C32.6517 171.45 24.1402 173.54 15.9363 174.29C10.4405 174.79 5.06374 174.7 2.2365 174.06C1.18496 173.83 0.490493 173.52 0.262329 173.14C-0.660247 171.58 2.27613 170.14 6.15492 167.8C8.24807 166.53 10.619 165.01 12.7816 163.06C16.2636 159.92 19.2496 155.69 19.815 149.67C19.9737 148.01 20.1126 146.28 20.2416 144.5C20.3805 142.63 20.4995 140.7 20.6086 138.72C20.8169 135.19 20.9757 131.49 21.1046 127.68C21.1542 126.33 21.1939 124.97 21.2336 123.6C21.3824 118.24 21.4717 112.7 21.5312 107.09C21.5312 105.67 21.5511 104.25 21.561 102.83C21.561 102.07 21.561 101.3 21.561 100.54C21.5907 95.35 21.5808 90.13 21.561 85C21.561 83.78 21.561 82.58 21.5411 81.38C21.5014 75.86 21.4617 70.45 21.4022 65.28C21.3824 64.11 21.3725 62.96 21.3526 61.81C21.2832 55.76 21.2237 50.1 21.184 45.01C21.184 43.59 21.1641 42.23 21.1542 40.91C21.1344 35.82 21.1542 31.46 21.2336 28.05C21.2733 26.77 21.303 25.62 21.3626 24.62C21.4518 22.86 21.5808 21.57 21.7594 20.82C23.6343 12.69 26.1639 6.96999 28.5051 3.93999L28.525 3.92C29.5269 2.62 30.4991 1.80999 31.3621 1.52999C34.1398 0.609988 36.8678 4.56998 37.0166 4.79998C36.9273 4.55998 35.5484 1.17999 36.4809 0.309986C37.4432 -0.590014 39.824 2.48998 39.824 2.48998C39.824 2.48998 38.7229 -0.150016 41.2823 0.369984C41.7585 0.469984 42.2346 5.59998 42.6711 13.93C42.7306 15.01 42.7802 16.14 42.8398 17.33C43.058 22.03 43.2762 27.51 43.4845 33.52C43.5341 35.07 43.5838 36.64 43.6334 38.26V38.29C43.8318 44.35 44.0004 50.83 44.1492 57.51L44.179 58.6C44.3476 65.75 44.4964 73.1 44.6254 80.4C44.6551 82.05 44.6849 83.7 44.7048 85.35C44.804 91.64 44.8932 97.83 44.9528 103.74C44.9726 105.53 44.9924 107.28 45.0123 109C45.042 112.74 45.0718 116.34 45.0916 119.75C45.0916 122.19 45.1115 124.54 45.1115 126.77L45.1214 126.75Z" fill="url(#paint0_linear_8_14211)"/>
<g style="mix-blend-mode:soft-light">
<path d="M42.8497 17.32L40.9946 26.38L37.2745 15.74L32.4533 30.75L27.6917 15.74L21.2535 28.04C21.2932 26.76 21.3229 25.61 21.3824 24.61L27.6917 10.45L32.7906 24.69L37.3738 9.19L40.6871 22.14L42.691 13.91C42.7505 14.99 42.8001 16.12 42.8596 17.31L42.8497 17.32Z" fill="white"/>
</g>
<g style="mix-blend-mode:soft-light">
<path d="M43.6433 38.25V43.47L41.7783 48.38L38.9808 38.14L32.4633 47.69L27.6817 35.26L21.2237 45C21.2237 43.58 21.2039 42.23 21.194 40.91L26.8187 30.86L32.3839 44.32L38.9808 32.72L42.1751 41.89L43.6433 38.25Z" fill="white"/>
</g>
<g style="mix-blend-mode:soft-light">
<path d="M45.1214 126.75L42.81 119.46L35.2409 129.01L29.6757 116.58L21.1345 127.68C21.1841 126.33 21.2237 124.97 21.2634 123.6L28.6837 112.19L35.1517 125.65L42.8001 114.05L45.1016 119.74C45.1016 122.18 45.1214 124.53 45.1214 126.76V126.75Z" fill="white"/>
</g>
<g style="mix-blend-mode:soft-light">
<path d="M45.0321 108.99L44.2187 110.92L41.0939 100.67L33.8025 110.22L28.4556 97.79L21.561 107.09C21.561 105.67 21.5808 104.25 21.5908 102.83L27.4933 93.4L33.7132 106.86L41.0839 95.26L44.6552 104.44L44.9726 103.74C44.9925 105.52 45.0123 107.27 45.0321 108.99Z" fill="white"/>
</g>
<g style="mix-blend-mode:soft-light">
<path d="M44.1889 58.59L42.3339 66.45L38.3459 56.86L31.9276 69.46L26.2929 53.46L21.432 65.27C21.4122 64.1 21.4023 62.95 21.3824 61.8L25.787 47.26L32.622 63.04L38.336 52.26L41.7684 61.81L44.1095 55.77L44.1591 57.49L44.1889 58.58V58.59Z" fill="white"/>
</g>
<g style="mix-blend-mode:soft-light">
<path d="M44.9925 143.13L41.0542 134.95L33.3859 145.72L24.2197 129.94L20.6484 138.71C20.5393 140.69 20.4203 142.62 20.2814 144.49L24.8942 136.13L32.4534 152.14L41.0641 139.53L44.9032 146.42L45.0024 143.12L44.9925 143.13Z" fill="white"/>
</g>
<g style="mix-blend-mode:soft-light">
<path d="M44.7246 85.33L41.7784 89.78L38.346 78.39L30.4098 91.58L25.787 78.39L21.5809 84.97C21.5809 83.76 21.5809 82.56 21.561 81.36L25.787 73.32L31.3522 85.64L38.9809 73.32L41.7784 83.36L44.6453 80.38C44.6751 82.03 44.7048 83.68 44.7246 85.33Z" fill="white"/>
</g>
<g style="mix-blend-mode:soft-light">
<path d="M34.4374 161.51C34.2489 162.8 34.0703 164.05 33.8819 165.21L20.8467 167.88L22.6126 158.91C22.6126 158.91 16.0057 164.48 6.18475 167.82C8.27791 166.55 10.6488 165.03 12.8114 163.08C14.7955 161.95 16.8192 160.62 18.2874 159.24C22.2554 155.51 24.9636 152.16 24.9636 152.16L24.1502 162.79L34.4473 161.51H34.4374Z" fill="white"/>
</g>
<g style="mix-blend-mode:multiply" opacity="0.39">
<path d="M38.3459 146.13C35.8857 146.13 34.8243 160.99 33.3958 167.87C32.6617 171.45 24.1501 173.54 15.9462 174.29L2.2464 174.06C2.2464 174.06 24.4875 169.5 29.021 161.29C33.5446 153.07 37.2745 60.44 37.2745 60.44L38.3459 146.13Z" fill="#9F0000"/>
</g>
<g style="mix-blend-mode:multiply" opacity="0.39">
<path d="M43.4945 33.51L43.3259 34.44L41.947 12.19L38.7924 44.17C38.7924 44.17 38.4253 19.06 38.4253 10.49C38.4253 1.91998 31.382 1.51998 31.382 1.51998C34.1596 0.599976 36.8877 4.56 37.0365 4.79C36.9472 4.55 35.5683 1.16998 36.5008 0.299975C37.4631 -0.600025 39.8439 2.48 39.8439 2.48C39.8439 2.48 38.7427 -0.160027 41.3021 0.359973C41.7783 0.459973 42.2545 5.59 42.691 13.92C42.7505 15 42.8001 16.13 42.8596 17.32C43.0779 22.02 43.2961 27.5 43.5044 33.51H43.4945Z" fill="#9F0000"/>
</g>
<path style="mix-blend-mode:color-dodge" d="M29.5666 21.62C26.035 32.98 28.4556 97.79 28.4556 97.79L22.6919 115.59C22.6919 115.59 22.2257 109.55 21.6007 100.53C21.6304 95.34 21.6205 90.12 21.6007 84.99C21.6007 83.77 21.6007 82.57 21.5809 81.37C21.5412 75.85 21.5015 70.44 21.442 65.27C21.4221 64.1 21.4122 62.95 21.3924 61.8C21.323 55.75 21.2634 50.09 21.2237 45C21.2237 43.58 21.2039 42.22 21.194 40.9C21.1741 35.81 21.194 31.45 21.2734 28.04C21.313 26.76 21.3427 25.61 21.4023 24.61C21.4915 22.85 21.6205 21.56 21.7991 20.81C23.674 12.68 26.2036 6.96002 28.5448 3.93002L28.5647 3.91003C28.5647 3.91003 33.0982 10.25 29.5765 21.61L29.5666 21.62Z" fill="url(#paint1_linear_8_14211)"/>
<defs>
<linearGradient id="paint0_linear_8_14211" x1="22.6125" y1="174.61" x2="22.6125" y2="0.129988" gradientUnits="userSpaceOnUse">
<stop stop-color="#EF684F"/>
<stop offset="1" stop-color="#B80032"/>
</linearGradient>
<linearGradient id="paint1_linear_8_14211" x1="26.045" y1="115.58" x2="26.045" y2="3.91003" gradientUnits="userSpaceOnUse">
<stop/>
<stop offset="1" stop-color="#FCED00"/>
</linearGradient>
</defs>
</svg>
