<svg width="105" height="17" viewBox="0 0 105 17" fill="none" xmlns="http://www.w3.org/2000/svg">
<path d="M0.142883 2.01007V16.0601L73.2744 14.7501L75.566 0.320068L0.142883 2.01007Z" fill="url(#paint0_linear_8_14744)"/>
<path d="M104.979 9.42007L75.566 0.320068L74.941 3.63007L104.225 10.9101L104.979 9.42007Z" fill="#273600"/>
<path d="M73.205 12.91H104.979V14.2L81.9249 14.29L73.2745 14.75L73.205 12.91Z" fill="#273600"/>
<path d="M102.896 10.58V12.9101H73.205L74.941 3.63007L102.896 10.58Z" fill="#D6CACA"/>
<path opacity="0.5" d="M102.896 12.0201L78.5917 7.30005L78.0163 9.66006L95.456 12.0201L78.5917 10.9101L78.0163 13.1201L73.205 12.9101L74.941 3.63007L102.896 10.58V12.0201Z" fill="#AE8E95"/>
<path d="M7.95007 1.84006V15.9201L14.6859 15.7001L14.0708 1.70007L7.95007 1.84006Z" fill="#FFF493"/>
<path d="M62.6797 0.610046V14.9401L57.422 15.0401V0.730072L62.6797 0.610046Z" fill="#FFF493"/>
<path style="mix-blend-mode:color-dodge" opacity="0.48" d="M2.07736 3.63004L20.39 3.28003L26.0346 13.12L2.63289 11.61L2.07736 3.63004Z" fill="url(#paint1_linear_8_14744)"/>
<path style="mix-blend-mode:color-dodge" opacity="0.48" d="M21.4614 3.53003H29.5562L34.7147 12.45L27.1159 12.32L21.4614 3.53003Z" fill="url(#paint2_linear_8_14744)"/>
<path opacity="0.5" d="M0.142883 12.4501L55.4974 9.46005L65.7648 0.54007L75.566 0.320068L73.2744 14.7501L0.142883 16.0601V12.4501Z" fill="#273600"/>
<defs>
<linearGradient id="paint0_linear_8_14744" x1="0.142883" y1="8.19006" x2="75.566" y2="8.19006" gradientUnits="userSpaceOnUse">
<stop offset="0.01" stop-color="#7F8900"/>
<stop offset="1" stop-color="#435900"/>
</linearGradient>
<linearGradient id="paint1_linear_8_14744" x1="14.051" y1="13.12" x2="14.051" y2="3.28003" gradientUnits="userSpaceOnUse">
<stop/>
<stop offset="1" stop-color="#FC6B6B"/>
</linearGradient>
<linearGradient id="paint2_linear_8_14744" x1="28.088" y1="12.45" x2="28.088" y2="3.53003" gradientUnits="userSpaceOnUse">
<stop/>
<stop offset="1" stop-color="#FC6B6B"/>
</linearGradient>
</defs>
</svg>
