<svg width="45" height="42" viewBox="0 0 45 42" fill="none" xmlns="http://www.w3.org/2000/svg">
<path d="M0.400085 29.03L11.5206 0.859985L43.6917 11.85C43.6917 11.85 34.3172 29.17 31.6884 41.42L0.410015 29.02L0.400085 29.03Z" fill="white"/>
<path d="M9.44737 3.35999L16.7287 0.309998L16.4708 1.07001L18.0779 0.779999L17.443 1.35001L19.3179 1.60999L9.44737 5.56L9.64572 5L8.66364 4.29001L9.44737 3.35999Z" fill="url(#paint0_linear_8_14166)"/>
<path d="M37.8984 8.51001L42.7097 17.2L42.8387 16.39L43.5132 16.86L44.4854 15.28L40.3388 8.97L39.8825 9.76001L37.8984 8.51001Z" fill="url(#paint1_linear_8_14166)"/>
<g style="mix-blend-mode:multiply" opacity="0.26">
<path d="M10.8262 26.25L18.8318 10.06L30.736 14.23C30.736 14.23 25.5775 24.95 24.6054 31.91L10.8262 26.25Z" fill="#A21800"/>
</g>
<defs>
<linearGradient id="paint0_linear_8_14166" x1="9.53109" y1="1.73107" x2="18.2048" y2="4.75036" gradientUnits="userSpaceOnUse">
<stop stop-color="#8B2C52"/>
<stop offset="1" stop-color="#660045"/>
</linearGradient>
<linearGradient id="paint1_linear_8_14166" x1="36.8427" y1="11.4927" x2="44.8249" y2="14.2633" gradientUnits="userSpaceOnUse">
<stop stop-color="#8B2C52"/>
<stop offset="1" stop-color="#660045"/>
</linearGradient>
</defs>
</svg>
