<svg width="122" height="96" viewBox="0 0 122 96" fill="none" xmlns="http://www.w3.org/2000/svg">
<path d="M13.0507 81.68C12.9714 81.68 12.892 81.63 12.8523 81.55C12.8027 81.44 12.8524 81.31 12.9615 81.27C13.1202 81.2 28.5857 74.57 51.541 61.48C74.4864 48.39 106.4 23.68 106.717 23.44C106.806 23.37 106.945 23.38 107.015 23.48C107.084 23.57 107.064 23.71 106.975 23.78C106.658 24.03 74.7245 48.75 51.7494 61.86C28.7742 74.96 13.2789 81.61 13.1301 81.67C13.1004 81.68 13.0706 81.69 13.0507 81.69V81.68Z" fill="white"/>
<path d="M0.958048 95.09C0.888607 95.09 0.819173 95.06 0.779492 95C0.719971 94.92 0.729911 94.81 0.799352 94.73L87.9381 -1.85997C87.9877 -1.90997 88.0472 -1.93997 88.1167 -1.92997C88.1861 -1.92997 88.2457 -1.87997 88.2754 -1.81997L103.939 25.86C103.939 25.86 103.959 25.91 103.969 25.94L106.806 50.01C116.092 45.99 121.508 43.62 121.677 43.54C121.786 43.5 121.915 43.54 121.954 43.65C122.004 43.76 121.954 43.89 121.845 43.93C121.677 44.01 116.161 46.42 106.737 50.5C106.717 50.5 106.707 50.52 106.687 50.52C85.6764 59.61 45.2715 76.94 1.03743 95.06C1.00767 95.07 0.987808 95.08 0.958048 95.08V95.09ZM88.0572 -1.34997L1.75165 94.32C45.5591 76.36 85.5077 59.23 106.409 50.19L103.562 26.04L88.0572 -1.34997Z" fill="white"/>
<path d="M36.264 80.47C36.264 80.47 36.1846 80.47 36.1548 80.44C36.0556 80.38 36.0259 80.25 36.0854 80.14L45.083 65.2L38.5258 53.17L27.4549 45.59L13.1103 49.97C13.0012 50.01 12.8821 49.94 12.8424 49.83C12.8127 49.72 12.8722 49.6 12.9813 49.56L27.4251 45.15C27.4846 45.13 27.554 45.15 27.6036 45.18L38.8036 52.85C38.8036 52.85 38.8532 52.89 38.873 52.92L45.5096 65.1C45.5493 65.17 45.5394 65.25 45.5096 65.32L36.4425 80.36C36.4029 80.43 36.3334 80.46 36.264 80.46V80.47Z" fill="white"/>
<path d="M42.3847 77.91C42.3847 77.91 42.2954 77.9 42.2557 77.86C42.1664 77.79 42.1466 77.65 42.2161 77.56L57.1063 58.27L46.9479 43.93L30.3317 40.18H16.0466C15.9276 40.18 15.8284 40.09 15.8284 39.97C15.8284 39.85 15.9276 39.76 16.0466 39.76H30.3714L47.1166 43.53C47.1662 43.54 47.2158 43.57 47.2456 43.61L57.5427 58.15C57.5923 58.23 57.5923 58.33 57.5427 58.41L42.5533 77.83C42.5136 77.88 42.4541 77.91 42.3847 77.91Z" fill="white"/>
<path d="M62.2846 69.52C62.2846 69.52 62.2052 69.51 62.1655 69.48C62.0663 69.41 62.0465 69.28 62.106 69.18L79.5953 43.42L65.1217 23.79L41.6804 19.12L18.7449 26.18C18.6358 26.22 18.5168 26.15 18.4771 26.04C18.4474 25.93 18.5068 25.81 18.616 25.77L41.6109 18.7C41.6109 18.7 41.6804 18.69 41.7102 18.7L65.2805 23.4C65.3301 23.4 65.3797 23.44 65.4095 23.48L80.0318 43.29C80.0814 43.36 80.0913 43.46 80.0318 43.54L62.4532 69.43C62.4135 69.49 62.3441 69.52 62.2747 69.52H62.2846Z" fill="white"/>
<path d="M0.958037 95.0901C0.958037 95.0901 0.908419 95.0901 0.878658 95.0701C0.779457 95.0301 0.719931 94.9201 0.749691 94.8101L26.6414 -1.77992C26.6711 -1.88992 26.7902 -1.95992 26.8993 -1.92992C27.0084 -1.89992 27.0778 -1.77992 27.0481 -1.66992L1.6326 93.1301L52.5231 -1.82992C52.5826 -1.93992 52.7116 -1.96992 52.8108 -1.91992C52.91 -1.85992 52.9497 -1.72992 52.9001 -1.62992L1.13659 94.9601C1.09691 95.0301 1.02747 95.0701 0.948107 95.0701L0.958037 95.0901Z" fill="white"/>
<path d="M21.4432 18.69C21.3539 18.69 21.2646 18.63 21.2349 18.54C21.2051 18.43 21.2646 18.31 21.3738 18.27L45.9461 10.61C45.9461 10.61 45.9758 10.61 45.9956 10.61L77.9783 9.28003C78.0874 9.28003 78.1866 9.37003 78.1866 9.49003C78.1866 9.61003 78.0973 9.71003 77.9783 9.71003L46.0254 11.04L21.4829 18.7C21.4829 18.7 21.4432 18.7 21.4234 18.7L21.4432 18.69Z" fill="white"/>
<path d="M22.8123 86.08C22.8123 86.08 22.7825 86.08 22.7626 86.08C22.6436 86.05 22.5742 85.94 22.6039 85.82L24.9749 75.74L26.6116 66.33L18.1597 63.05L8.44781 67.51C8.33869 67.56 8.20974 67.51 8.16014 67.4C8.11054 67.29 8.16013 67.16 8.26925 67.12L18.0704 62.62C18.12 62.6 18.1795 62.6 18.239 62.62L26.939 65.99C27.0382 66.03 27.0878 66.13 27.068 66.23L25.4014 75.83L23.0305 85.93C23.0106 86.03 22.9213 86.09 22.8221 86.09L22.8123 86.08Z" fill="white"/>
<path d="M20.4413 87.1401C20.4413 87.1401 20.4016 87.1401 20.3718 87.1301C20.2627 87.0901 20.2031 86.9701 20.2329 86.8601L23.5859 76.3901L24.9748 67.9101L16.6716 65.8301L7.46565 71.1701C7.35653 71.2301 7.22759 71.1901 7.17799 71.0901C7.11847 70.9901 7.15816 70.8601 7.25736 70.8001L16.5426 65.4201C16.5426 65.4201 16.6418 65.3801 16.7013 65.4001L25.2724 67.5501C25.3815 67.5801 25.4509 67.6801 25.4311 67.7901L24.0026 76.4901L20.6397 86.9901C20.6099 87.0801 20.5305 87.1401 20.4413 87.1401Z" fill="white"/>
</svg>
