<svg width="96" height="166" viewBox="0 0 96 166" fill="none" xmlns="http://www.w3.org/2000/svg">
<path d="M70.7849 18.98L66.9955 16.92C66.9955 16.92 78.0565 -3.77005 88.3238 1.64995C97.1329 6.28995 90.3673 18.93 86.8456 25.53C83.314 32.13 2.31585 165.2 2.31585 165.2L-0.00543213 163.94C-0.00543213 163.94 83.4728 27.91 86.6473 21.96C90.6451 14.47 91.2601 6.15996 87.1234 3.90996C80.7051 0.429964 70.7849 18.98 70.7849 18.98Z" fill="#42012F"/>
<path d="M4.5777 155.37C4.5777 155.37 44.7246 65.4699 47.8296 59.6699C50.9346 53.8599 67.8882 42.0699 67.8882 42.0699L75.9831 21.8099C75.9831 21.8099 75.1795 32.2699 78.4433 31.2799C81.707 30.2999 89.8713 27.2599 89.8713 27.2599L86.3001 35.5599C86.3001 35.5599 86.7068 33.1099 91.0915 31.7899L95.4763 30.4699L77.233 47.8199C77.233 47.8199 74.1082 68.76 71.3207 73.96C68.543 79.16 7.3454 156.94 7.3454 156.94L4.5777 155.38V155.37Z" fill="url(#paint0_linear_8_14558)"/>
<path opacity="0.53" d="M78.4334 31.28L72.6003 43.28C72.6003 43.28 65.1702 58.41 63.7615 65.2C62.3528 71.99 44.7346 95.41 44.7346 95.41C44.7346 95.41 65.071 75.72 66.4697 68.58C67.8684 61.43 71.9654 49.62 71.9654 49.62C71.9654 49.62 70.9337 69.48 68.5132 74.02C66.0828 78.56 14.1606 145.74 14.1606 145.74C14.1606 145.74 70.16 76.93 71.3306 73.94C72.5012 70.95 74.8721 47.22 74.8721 47.22L91.6471 32.06L87.0243 34.09L89.8714 27.24L77.5703 40.45L81.7765 30.16L78.4433 31.26L78.4334 31.28Z" fill="#630018"/>
<path style="mix-blend-mode:color-dodge" d="M50.0319 57.48L61.3608 58.64L10.9167 147.67L8.88306 145.74L50.0319 57.48Z" fill="url(#paint1_linear_8_14558)"/>
<defs>
<linearGradient id="paint0_linear_8_14558" x1="4.5777" y1="89.3699" x2="95.4763" y2="89.3699" gradientUnits="userSpaceOnUse">
<stop stop-color="#958B9D"/>
<stop offset="1" stop-color="#C2929D"/>
</linearGradient>
<linearGradient id="paint1_linear_8_14558" x1="35.1219" y1="147.67" x2="35.1219" y2="57.48" gradientUnits="userSpaceOnUse">
<stop/>
<stop offset="1" stop-color="#505400"/>
</linearGradient>
</defs>
</svg>
