<svg width="81" height="171" viewBox="0 0 81 171" fill="none" xmlns="http://www.w3.org/2000/svg">
<path d="M27.0356 15.54L32.581 3.73999C32.581 3.73999 33.6127 6.53001 34.0095 9.64001C34.4856 13.37 33.8507 15.54 33.8507 15.54H27.0356Z" fill="#431D00"/>
<path d="M66.6766 169.43C64.7719 170.38 63.2839 170.25 62.1034 169.43C57.2723 166.07 57.7683 151.14 57.7683 151.14C57.7683 151.14 58.1948 151.94 58.8496 152.95C60.9427 156.21 65.3175 161.68 65.3175 150.53C65.3175 145.41 65.0695 138.26 64.7421 131.12C64.5636 127.13 64.3652 123.16 64.1668 119.55C63.7203 111.13 63.2938 104.68 63.2938 104.68L69.107 97.96C69.107 97.96 69.9304 105.56 70.6447 115.81C70.853 118.74 71.0514 121.87 71.22 125.11C72.2021 144.15 72.1327 166.68 66.6667 169.42L66.6766 169.43Z" fill="#430E00"/>
<path d="M62.1034 169.42C62.1034 169.42 60.4963 169.08 58.3139 167.05C55.1295 164.09 50.6952 157.53 48.2449 143.17C48.0465 142.02 47.858 140.9 47.6993 139.81C46.5684 132.85 45.9137 127.36 45.5367 123.12C45.497 122.55 45.4474 122.02 45.4077 121.5C44.8026 113.75 45.2093 110.76 45.2093 110.76L52.7685 108.22L57.679 106.57L59.5836 105.93C59.5836 105.93 58.7405 112.62 58.2643 122.14C58.056 126.35 57.927 131.12 57.9568 136.1C57.9865 141.61 58.2543 147.36 58.8595 152.95C59.4944 158.82 60.526 164.49 62.1133 169.42H62.1034Z" fill="url(#paint0_linear_2_495)"/>
<path style="mix-blend-mode:color-dodge" opacity="0.24" d="M58.3139 167.05C55.1295 164.09 50.6952 157.53 48.2449 143.17C48.0465 142.02 47.858 140.9 47.6993 139.81C46.5684 132.85 45.9137 127.36 45.5367 123.12C45.497 122.55 45.4474 122.02 45.4077 121.5L54.4252 122.52C54.4252 122.52 54.4153 122.79 54.4054 123.28C54.3458 125.3 54.2268 131.07 54.4351 138.01C54.7228 147.81 55.6553 159.91 58.3238 167.05H58.3139Z" fill="url(#paint1_linear_2_495)"/>
<path d="M35.6364 152.55C34.9817 158.54 33.6027 162.98 31.0631 163.99C29.1783 164.75 27.6705 164.63 26.4999 163.99C22.7104 161.86 22.1945 153.98 22.1548 150.73C22.1449 149.86 22.1648 149.33 22.1648 149.33C22.1648 149.33 22.5913 149.96 23.246 150.78C23.2857 150.82 23.3155 150.88 23.3552 150.94C25.1706 153.19 28.5434 156.48 29.4461 151.86C29.6049 151.09 29.6843 150.1 29.6843 148.85C29.6843 144.85 29.4561 139.31 29.1585 133.74C29.0593 132.05 28.9601 130.36 28.841 128.7C28.7815 127.71 28.7121 126.72 28.6525 125.78C28.5533 124.2 28.4542 122.7 28.355 121.31C27.9879 115.92 27.6705 112.1 27.6705 112.1L32.8686 107.29H32.8786L33.4737 106.72C33.4737 106.72 33.5035 106.88 33.5333 107.16C33.7416 108.79 34.4856 114.69 35.1205 122.13C35.2296 123.52 35.3487 124.97 35.4479 126.46C35.6463 129.1 35.7852 131.85 35.9141 134.62C36.1522 140.95 36.1522 147.35 35.5967 152.57L35.6364 152.55Z" fill="#430E00"/>
<path d="M26.4999 163.98C26.4999 163.98 24.8928 163.71 22.7104 162.09C22.5517 161.96 22.383 161.85 22.2243 161.7C22.0656 161.6 21.9267 161.46 21.7878 161.34C20.7462 160.44 19.6252 159.25 18.5241 157.67C18.3356 157.41 18.157 157.14 17.9884 156.85C17.8495 156.64 17.7206 156.43 17.5717 156.21C17.1749 155.55 16.7583 154.84 16.3615 154.05C16.2027 153.71 16.0341 153.38 15.8754 153.02C15.6869 152.63 15.5183 152.23 15.3397 151.8C15.181 151.41 15.0123 151 14.8437 150.57C14.685 150.15 14.5262 149.72 14.3774 149.27C14.308 149.04 14.2088 148.81 14.1393 148.57C13.9806 148.08 13.8219 147.58 13.6831 147.07C13.4549 146.31 13.2466 145.51 13.0482 144.66C12.9093 144.1 12.7604 143.53 12.6513 142.94C12.4926 142.24 12.3636 141.57 12.2248 140.91C12.0859 140.19 11.9371 139.51 11.8081 138.83C11.6692 138.06 11.5205 137.31 11.3915 136.6C11.0939 134.98 10.836 133.49 10.6276 132.1C10.5681 131.67 10.4987 131.24 10.4391 130.83C10.3003 129.83 10.1713 128.9 10.0721 128.02C10.0126 127.58 9.97286 127.16 9.91334 126.75C9.87366 126.33 9.82406 125.95 9.78438 125.58C9.45701 122.11 9.4273 119.84 9.46698 118.5C9.50666 117.44 9.57609 116.97 9.57609 116.97L9.89354 116.88L11.6296 116.42L20.022 114.16L23.9703 113.1C23.9703 113.1 23.5139 116.01 23.0774 120.59C22.9485 121.98 22.8195 123.53 22.7104 125.19C22.5517 127.51 22.4227 130.07 22.3731 132.78C22.3632 133.52 22.3434 134.27 22.3434 135.04C22.3037 140.11 22.5417 145.54 23.256 150.78C23.256 150.82 23.256 150.88 23.2659 150.92C23.9008 155.57 24.9325 160.07 26.5098 163.98H26.4999Z" fill="url(#paint2_linear_2_495)"/>
<path style="mix-blend-mode:color-dodge" opacity="0.24" d="M22.7004 162.09C22.5417 161.97 22.383 161.85 22.2144 161.71C22.0755 161.6 21.9168 161.47 21.7779 161.34C20.7462 160.44 19.6252 159.26 18.5142 157.67C18.3356 157.42 18.1471 157.15 17.9784 156.86C17.8396 156.65 17.7007 156.44 17.5717 156.22C17.165 155.55 16.7582 154.83 16.3614 154.05C16.1928 153.72 16.0341 153.39 15.8754 153.03C15.6869 152.64 15.5083 152.23 15.3397 151.81C15.1711 151.42 15.0123 151 14.8437 150.58C14.675 150.16 14.5263 149.73 14.3675 149.27C14.2882 149.04 14.1988 148.8 14.1294 148.56C13.9707 148.07 13.8219 147.57 13.6632 147.06C13.4449 146.3 13.2267 145.5 13.0283 144.66C12.8894 144.11 12.7505 143.53 12.6315 142.93C12.4728 142.23 12.3438 141.56 12.2049 140.9C12.066 140.19 11.9172 139.5 11.7982 138.83C11.3121 136.34 10.9252 134.1 10.6177 132.09C10.5482 131.66 10.4887 131.24 10.4292 130.82C10.2903 129.82 10.1514 128.89 10.0522 128.02C9.9927 127.58 9.95305 127.16 9.89353 126.75C9.85385 126.34 9.80425 125.95 9.77449 125.58L18.7919 126.4C18.7919 126.4 18.6828 128.71 18.6828 132.22C18.6828 136.95 18.8613 143.89 19.7145 150.32C20.3295 154.8 21.2521 159.02 22.6905 162.1L22.7004 162.09Z" fill="url(#paint3_linear_2_495)"/>
<path d="M35.8149 1.52C35.8149 1.52 39.5152 -1.68998 43.5725 2.04002C47.6299 5.77002 48.0068 16.57 48.0068 16.57H41.9555C41.9555 16.57 42.4119 2.57002 35.8149 1.51002V1.52Z" fill="#431D00"/>
<path d="M80.1085 95.23V95.26C80.0787 101.49 79.5431 106.11 78.7197 108.01C77.6086 110.58 74.3945 113.37 70.6546 115.83C68.5614 117.22 66.3095 118.49 64.1668 119.56C61.9744 120.67 59.9011 121.57 58.2544 122.14C57.4211 122.44 56.6869 122.65 56.1017 122.77L52.7586 108.22L46.8759 82.55L36.0927 35.49L35.9736 34.98L34.813 29.89L34.3368 27.82L33.9301 26.06L33.0968 22.41L29.714 25.3H29.7041L29.3569 25.6L22.0655 31.81L18.4744 34.87H18.4645L17.4328 35.77L7.70115 44.05H7.69122L7.66149 44.09L6.10402 45.42C6.10402 45.42 6.11396 45.35 6.12388 45.32C6.14372 45.23 6.16351 45.14 6.19327 45.04C6.20319 44.98 6.22307 44.93 6.23299 44.87C6.44131 43.98 6.95714 42.09 7.83012 39.64C7.83012 39.63 7.84005 39.62 7.84005 39.61C7.90949 39.41 7.96897 39.21 8.04833 39.02C9.81413 34.2 12.939 27.52 17.9388 22.03H17.9487C18.3753 21.55 18.8217 21.1 19.2681 20.64C19.5756 20.34 19.8831 20.04 20.2005 19.75C20.2303 19.72 20.28 19.68 20.3097 19.65C20.3196 19.65 20.3196 19.64 20.3295 19.64C20.8751 19.13 21.4505 18.65 22.0457 18.19H22.0557C22.5715 17.78 23.0873 17.39 23.623 17.03C24.7738 16.24 25.9939 15.52 27.2836 14.9C29.3271 13.91 31.5592 13.16 33.9797 12.72C36.1224 12.32 38.414 12.15 40.8742 12.29C41.152 12.3 41.4099 12.32 41.6877 12.36C43.6618 12.52 45.5565 12.9 47.362 13.5C59.9705 17.61 68.1249 31.46 73.1544 47.39C78.3725 63.97 80.2176 82.8 80.1284 95.21L80.1085 95.23Z" fill="#430E00"/>
<path d="M57.679 106.58C57.3913 115.86 56.7167 122.16 56.1017 122.78C55.8636 123.02 55.2585 123.2 54.3855 123.3C52.5403 123.5 49.3857 123.41 45.5367 123.13C42.4416 122.9 38.8703 122.56 35.1602 122.13C34.1781 122.02 33.1861 121.9 32.1941 121.79C30.9342 121.63 29.6644 121.47 28.3847 121.32C27.3927 121.19 26.3907 121.06 25.4186 120.93C24.6349 120.82 23.8512 120.72 23.0873 120.6C21.5497 120.39 20.0617 120.17 18.6233 119.96C17.3436 119.77 16.1035 119.59 14.9329 119.4C12.939 119.1 11.0938 118.78 9.47683 118.51C8.43521 118.34 7.50277 118.17 6.6794 118.01C5.81634 117.85 5.0624 117.69 4.43743 117.57C4.24894 117.53 4.08028 117.48 3.92156 117.46C3.76283 117.44 3.62395 117.4 3.48507 117.36C3.45531 117.36 3.42558 117.35 3.39582 117.32C3.36606 117.29 3.33626 117.28 3.29658 117.25C2.40377 116.53 1.59031 112.11 1.12406 105.46C0.261006 93.39 0.558628 74.01 3.68348 56.39H3.69341C3.69341 56.39 3.70334 56.33 3.70334 56.3C4.10015 53.99 4.56639 51.72 5.0624 49.5C5.0624 49.5 5.06566 49.48 5.07227 49.44C5.38972 48.09 5.70716 46.78 6.06429 45.46C6.06429 45.43 6.07424 45.4 6.09408 45.36C6.12384 45.27 6.13377 45.19 6.16353 45.09C6.65954 43.24 7.21503 41.44 7.80032 39.69C7.80032 39.68 7.81025 39.68 7.81025 39.66C7.86977 39.46 7.93922 39.26 8.00866 39.07C10.3201 32.37 13.2763 26.64 17.0459 22.61C17.0558 22.61 17.0559 22.6 17.0559 22.6C17.5816 22.04 18.1074 21.5 18.6629 21.01H18.6729C19.1292 20.58 19.6153 20.21 20.0914 19.85C20.0914 19.84 20.1014 19.84 20.1014 19.84C20.1609 19.8 20.2005 19.75 20.27 19.71C20.2799 19.71 20.2799 19.7 20.2998 19.7C21.1827 19.06 22.1052 18.5 23.0675 18.02H23.0774C25.2896 16.95 27.7101 16.37 30.3489 16.37C32.0254 16.37 33.6027 16.66 35.0907 17.19C35.1602 17.22 35.2495 17.23 35.3189 17.28C46.7668 21.61 52.6792 40.98 55.4965 61.98C57.6294 77.88 57.9865 94.69 57.6393 106.61L57.679 106.58Z" fill="url(#paint4_linear_2_495)"/>
<path d="M3.67356 56.36L2.4534 50.72C2.4534 50.72 6.77859 20.59 23.0973 17.99C39.416 15.39 45.1895 31.09 45.1895 31.09C45.1895 31.09 34.942 16.84 23.0973 21.66C11.2526 26.48 3.67356 56.36 3.67356 56.36Z" fill="#430E00"/>
<path style="mix-blend-mode:color-dodge" opacity="0.24" d="M19.0201 33.48L11.8776 43.69C11.8776 43.69 3.68349 54.51 3.68349 72.84L14.8238 71.5C14.8238 71.5 14.4866 43.36 19.0201 33.48Z" fill="url(#paint5_linear_2_495)"/>
<path style="mix-blend-mode:color-dodge" opacity="0.24" d="M23.8214 26.48L29.7041 25.31C29.7041 25.31 23.8214 51.45 23.8214 72.83L16.2226 73.17C16.2226 73.17 18.5935 38.81 23.8214 26.48Z" fill="url(#paint6_linear_2_495)"/>
<path d="M43.0964 114.07H36.4002C36.4002 114.07 32.0453 93.68 36.0729 77.65H41.0231L43.0964 114.07Z" fill="#430E00"/>
<path d="M36.0728 77.65L7.94916 78.7C7.94916 78.7 3.62394 95.94 7.30432 111.19L36.4002 114.07C36.4002 114.07 34.2475 87.03 36.0728 77.65Z" fill="url(#paint7_linear_2_495)"/>
<path d="M10.7566 76.14L40.2691 77.61C39.3366 77.71 37.5608 78.4 35.2693 81.5C33.9102 81.88 32.4619 82.17 30.9838 82.38C30.964 82.39 30.9441 82.39 30.9144 82.39H30.8945C30.8945 82.39 30.8251 82.4 30.7953 82.4C28.2558 82.78 25.5972 82.93 22.9882 82.95C13.7525 83.05 5.18144 81.5 5.18144 81.5C5.18144 81.5 5.32034 81.16 5.62786 80.62H5.63773C6.35198 79.4 7.97893 77.2 10.7566 76.13V76.14Z" fill="#B85B00"/>
<path d="M35.4975 82.97C35.4975 82.97 28.1565 84.59 18.4645 84.1C8.7725 83.62 5.18144 82.16 5.18144 82.16V81.51C5.18144 81.51 25.4979 85.08 35.2792 81.51L35.9736 80.62L35.5074 82.97H35.4975Z" fill="#430E00"/>
<path style="mix-blend-mode:color-dodge" opacity="0.24" d="M8.12773 84.19C8.12773 84.19 5.65762 95.84 8.95112 109.34L17.4725 110.28C17.4725 110.28 14.7742 97.65 16.669 85.55L8.12773 84.19Z" fill="url(#paint8_linear_2_495)"/>
<path style="mix-blend-mode:color-dodge" opacity="0.24" d="M7.58211 80.09L11.4311 76.82L34.3666 77.88C34.3666 77.88 27.3728 81.67 19.774 81.3C12.1652 80.93 7.59204 80.1 7.59204 80.1L7.58211 80.09Z" fill="url(#paint9_linear_2_495)"/>
<path opacity="0.5" d="M29.2379 83.86C29.2379 83.86 26.5197 92.77 27.6407 93.9C28.7616 95.03 31.1227 94.31 31.1227 92.65C31.1227 90.99 30.4779 83.74 30.4779 83.74L29.2379 83.87V83.86Z" fill="#430E00"/>
<path d="M27.3629 83.86C27.3629 83.86 24.6448 92.77 25.7658 93.9C26.8868 95.03 29.2478 94.31 29.2478 92.65C29.2478 90.99 28.603 83.74 28.603 83.74L27.3629 83.87V83.86Z" fill="#430E00"/>
<path style="mix-blend-mode:color-dodge" opacity="0.66" d="M30.1902 82.44L22.9882 82.96C13.7525 83.06 5.18144 81.51 5.18144 81.51C5.18144 81.51 5.32034 81.17 5.62786 80.63H5.63773C5.63773 80.63 13.0184 82.2 21.1033 82.41C26.3015 82.54 28.9502 82.49 30.1803 82.43L30.1902 82.44Z" fill="url(#paint10_linear_2_495)"/>
<path opacity="0.5" d="M37.6402 22.51L41.0131 35.48C41.0131 35.48 35.428 36.36 34.3567 33.3C33.6424 31.26 37.6402 22.51 37.6402 22.51Z" fill="#430E00"/>
<path d="M35.557 20.9501L39.3366 35.4801C39.3366 35.4801 33.7515 36.36 32.6802 33.3C31.9659 31.26 35.557 20.9501 35.557 20.9501Z" fill="#430E00"/>
<path opacity="0.5" d="M3.14782 53.96C3.14782 53.96 13.4549 26.77 25.4979 25.31C37.541 23.85 51.8658 46.77 51.8658 46.77C51.8658 46.77 46.7767 14.63 26.4999 17.75C6.23298 20.87 2.4534 50.72 2.4534 50.72L3.67356 56.36L3.15769 53.96H3.14782Z" fill="#430E00"/>
<path d="M55.5263 61.94L53.8795 61.5L51.8658 60.96C51.8658 60.96 52.0939 20.15 29.2379 19.3C21.5894 19.01 16.0638 22.38 12.0958 26.99C12.0859 27.01 12.076 27.02 12.076 27.03C4.98305 35.31 2.90971 47.5501 2.5625 49.8501C3.02875 46.0601 7.4432 15.34 30.3786 16.34C54.822 17.39 55.5263 61.94 55.5263 61.94Z" fill="#B85B00"/>
<path style="mix-blend-mode:color-dodge" opacity="0.66" d="M53.8795 61.5001L51.8658 60.9601C51.8658 60.9601 52.094 20.1501 29.2379 19.3001C21.5894 19.0101 16.0638 22.3801 12.0958 26.9901C13.2267 25.3401 20.9446 15.0401 35.428 19.3001C51.1515 23.9101 53.8795 61.5001 53.8795 61.5001Z" fill="url(#paint11_linear_2_495)"/>
<g style="mix-blend-mode:multiply" opacity="0.39">
<path d="M80.1085 95.22V95.26C80.0787 101.49 79.5431 106.1 78.7197 108.01C77.6086 110.57 74.4044 113.37 70.6645 115.83C70.8629 118.75 71.0613 121.89 71.2299 125.13C69.1864 127.19 66.994 129.24 64.7322 131.13C64.5636 127.15 64.3652 123.18 64.1668 119.57C61.9744 120.67 59.9011 121.58 58.2544 122.15C58.0461 126.36 57.9171 131.13 57.9369 136.11C56.7564 136.84 55.5759 137.48 54.4153 138.01C54.2268 138.1 54.0482 138.18 53.8795 138.25C52.1634 138.99 50.0603 139.5 47.6894 139.8C46.5485 132.84 45.9137 127.35 45.5268 123.11C42.4317 122.88 38.8604 122.54 35.1503 122.11C34.5154 114.68 33.7714 108.78 33.563 107.16C33.5333 106.86 33.5035 106.7 33.5035 106.7L32.9083 107.27H32.8984L27.7003 112.08C27.7003 112.08 28.0176 115.9 28.3847 121.29C27.3927 121.16 26.3907 121.03 25.4186 120.9C24.6349 120.79 23.8512 120.69 23.0873 120.57C23.5238 115.99 23.9802 113.08 23.9802 113.08L20.0319 114.14L11.6395 116.4L9.90346 116.86L9.58601 116.95C9.58601 116.95 9.51652 117.42 9.47684 118.48C8.43522 118.31 7.50278 118.14 6.6794 117.98C5.81635 117.82 5.0624 117.66 4.43743 117.54C4.24895 117.5 4.08029 117.45 3.92157 117.43C3.76284 117.39 3.62396 117.34 3.48508 117.32C3.45531 117.32 3.42559 117.31 3.39583 117.29C3.36607 117.26 3.33627 117.25 3.29659 117.22C2.40377 116.5 1.59032 112.08 1.12407 105.43C2.6617 104.83 4.33821 104.16 6.08416 103.45C6.63969 103.24 7.20515 103.01 7.7706 102.78C10.4391 101.69 13.2664 100.53 16.1432 99.34C19.8831 97.75 23.6727 96.09 27.2638 94.44H27.2736C27.5018 94.34 27.7102 94.24 27.9383 94.14C28.2558 94 28.5633 93.85 28.8609 93.7H28.8708C29.6347 93.36 30.3786 92.98 31.1127 92.64C32.2536 92.1 33.3448 91.55 34.3964 91.02C34.7138 90.86 35.0213 90.72 35.3189 90.55C37.7097 89.35 39.8227 88.17 41.5388 87.1C43.2253 86.04 44.5546 85.08 45.378 84.22C45.9037 83.7 46.3997 83.15 46.866 82.56C53.3637 74.6 55.5164 61.95 55.5164 61.95L73.1247 47.41C78.3526 63.98 80.1878 82.82 80.0986 95.22H80.1085Z" fill="#A90E00"/>
</g>
<g style="mix-blend-mode:multiply" opacity="0.39">
<path d="M23.9703 113.09C23.9703 113.09 23.5139 116 23.0774 120.58C22.9485 121.97 22.8195 123.52 22.7104 125.18C22.5517 127.5 22.4227 130.06 22.3731 132.77C22.3632 133.51 22.3434 134.26 22.3434 135.03C20.2304 136.76 18.5539 137.89 18.3951 137.89C17.5718 137.75 16.7583 137.6 15.9647 137.46C14.3775 137.17 12.82 136.87 11.3915 136.59C11.0939 134.97 10.836 133.48 10.6276 132.09C10.5681 131.66 10.4987 131.23 10.4391 130.82C10.3003 129.82 10.1713 128.89 10.0721 128.01C10.0126 127.57 9.97286 127.15 9.91334 126.74C9.87366 126.32 9.82406 125.94 9.78438 125.57C9.45701 122.1 9.4273 119.83 9.46698 118.49C9.50666 117.43 9.57609 116.96 9.57609 116.96L9.89354 116.87L11.6296 116.41L20.022 114.15L23.9703 113.09Z" fill="#A90E00"/>
</g>
<g style="mix-blend-mode:multiply" opacity="0.39">
<path d="M35.1602 122.12C34.1781 122.01 33.1861 121.89 32.1941 121.78C32.2833 123.87 30.835 126.35 28.8708 128.7C28.8113 127.71 28.7419 126.72 28.6823 125.78C28.5831 124.2 28.4839 122.7 28.3847 121.31C28.0176 115.92 27.7003 112.1 27.7003 112.1L32.8984 107.29H32.9083L33.5035 106.72C33.5035 106.72 33.5333 106.88 33.5631 107.16C33.7714 108.79 34.5154 114.69 35.1503 122.13L35.1602 122.12Z" fill="#A90E00"/>
</g>
<defs>
<linearGradient id="paint0_linear_2_495" x1="53.5819" y1="169.43" x2="53.5819" y2="105.93" gradientUnits="userSpaceOnUse">
<stop stop-color="#B5662C"/>
<stop offset="0.99" stop-color="#5D0000"/>
</linearGradient>
<linearGradient id="paint1_linear_2_495" x1="45.3879" y1="144.28" x2="58.3139" y2="144.28" gradientUnits="userSpaceOnUse">
<stop/>
<stop offset="1" stop-color="#FCED00"/>
</linearGradient>
<linearGradient id="paint2_linear_2_495" x1="17.9785" y1="164" x2="17.9785" y2="113.09" gradientUnits="userSpaceOnUse">
<stop stop-color="#B5662C"/>
<stop offset="0.99" stop-color="#5D0000"/>
</linearGradient>
<linearGradient id="paint3_linear_2_495" x1="9.78441" y1="143.83" x2="22.7004" y2="143.83" gradientUnits="userSpaceOnUse">
<stop/>
<stop offset="1" stop-color="#FCED00"/>
</linearGradient>
<linearGradient id="paint4_linear_2_495" x1="29.2379" y1="123.4" x2="29.2379" y2="16.34" gradientUnits="userSpaceOnUse">
<stop stop-color="#B5662C"/>
<stop offset="0.99" stop-color="#5D0000"/>
</linearGradient>
<linearGradient id="paint5_linear_2_495" x1="11.3419" y1="72.84" x2="11.3419" y2="33.48" gradientUnits="userSpaceOnUse">
<stop/>
<stop offset="1" stop-color="#FCED00"/>
</linearGradient>
<linearGradient id="paint6_linear_2_495" x1="22.9584" y1="73.17" x2="22.9584" y2="25.31" gradientUnits="userSpaceOnUse">
<stop/>
<stop offset="1" stop-color="#FCED00"/>
</linearGradient>
<linearGradient id="paint7_linear_2_495" x1="21.1033" y1="114.07" x2="21.1033" y2="77.65" gradientUnits="userSpaceOnUse">
<stop stop-color="#DB662C"/>
<stop offset="0.99" stop-color="#993D00"/>
</linearGradient>
<linearGradient id="paint8_linear_2_495" x1="12.3537" y1="110.29" x2="12.3537" y2="84.19" gradientUnits="userSpaceOnUse">
<stop/>
<stop offset="1" stop-color="#FCED00"/>
</linearGradient>
<linearGradient id="paint9_linear_2_495" x1="7.58211" y1="79.06" x2="34.3567" y2="79.06" gradientUnits="userSpaceOnUse">
<stop stop-color="#FCED00"/>
<stop offset="1"/>
</linearGradient>
<linearGradient id="paint10_linear_2_495" x1="5.17152" y1="81.8" x2="30.1902" y2="81.8" gradientUnits="userSpaceOnUse">
<stop stop-color="#FCED00"/>
<stop offset="1"/>
</linearGradient>
<linearGradient id="paint11_linear_2_495" x1="12.1057" y1="39.8901" x2="53.8795" y2="39.8901" gradientUnits="userSpaceOnUse">
<stop stop-color="#FCED00"/>
<stop offset="1"/>
</linearGradient>
</defs>
</svg>
