<svg width="72" height="125" viewBox="0 0 72 125" fill="none" xmlns="http://www.w3.org/2000/svg">
<path d="M33.5387 83.47L40.6514 121.41H46.9805L50.3434 82.9L33.5387 83.47Z" fill="#776A98"/>
<path d="M23.7672 124.14L39.7883 116.82L47.3773 116.98L65.5412 124.89L23.7672 124.14Z" fill="#776A98"/>
<path style="mix-blend-mode:color-dodge" d="M35.6814 86.52L41.9411 88.19L43.072 113.88L39.9173 113.52L35.6814 86.52Z" fill="url(#paint0_linear_2_681)"/>
<path d="M18.1326 3.20996L19.0651 1.56998L54.9365 0.579956L56.5038 2.36996L18.1326 3.20996Z" fill="#776A98"/>
<path d="M14.0555 3.29999L62.1683 2.25L83.1891 81.79L0.226685 84.6L14.0555 3.29999Z" fill="url(#paint1_linear_2_681)"/>
<path d="M2.57774 70.78L79.7865 68.92L76.4534 56.31L4.74039 58.06L2.57774 70.78Z" fill="#776A98"/>
<path d="M6.01021 50.55L74.3899 48.5L73.5964 45.51L6.72443 46.36L6.01021 50.55Z" fill="#776A98"/>
<path style="mix-blend-mode:color-dodge" d="M15.6029 5.95999L27.5568 5.26001L17.1009 80.98L3.85749 81.77L15.6029 5.95999Z" fill="url(#paint2_linear_2_681)"/>
<path style="mix-blend-mode:color-dodge" d="M29.4119 5.95999L37.6555 5.20001L30.9494 75.38H22.0213L29.4119 5.95999Z" fill="url(#paint3_linear_2_681)"/>
<g style="mix-blend-mode:multiply" opacity="0.26">
<path d="M43.4489 2.66L49.2621 78.04L41.1772 83.21L83.1891 81.79L62.1683 2.25L43.4489 2.66Z" fill="#A21800"/>
</g>
<defs>
<linearGradient id="paint0_linear_2_681" x1="39.3816" y1="113.88" x2="39.3816" y2="86.52" gradientUnits="userSpaceOnUse">
<stop/>
<stop offset="1" stop-color="#505400"/>
</linearGradient>
<linearGradient id="paint1_linear_2_681" x1="0.226685" y1="43.42" x2="83.1891" y2="43.42" gradientUnits="userSpaceOnUse">
<stop stop-color="#F4EDCA"/>
<stop offset="1" stop-color="#F4B8B0"/>
</linearGradient>
<linearGradient id="paint2_linear_2_681" x1="15.7022" y1="81.77" x2="15.7022" y2="5.26001" gradientUnits="userSpaceOnUse">
<stop/>
<stop offset="1" stop-color="#505400"/>
</linearGradient>
<linearGradient id="paint3_linear_2_681" x1="29.8384" y1="75.38" x2="29.8384" y2="5.20001" gradientUnits="userSpaceOnUse">
<stop/>
<stop offset="1" stop-color="#505400"/>
</linearGradient>
</defs>
</svg>
