<svg width="106" height="16" viewBox="0 0 106 16" fill="none" xmlns="http://www.w3.org/2000/svg">
<path d="M106.66 1.82999V15.87L32.9399 14.57L30.62 0.140015L106.66 1.82999Z" fill="url(#paint0_linear_2_693)"/>
<path d="M0.97998 9.23001L30.62 0.140015L31.25 3.45001L1.72998 10.73L0.97998 9.23001Z" fill="url(#paint1_linear_2_693)"/>
<path d="M33 12.72H0.97998V14.01L24.21 14.1L32.9399 14.57L33 12.72Z" fill="url(#paint2_linear_2_693)"/>
<path d="M3.07001 10.4V12.72H33L31.25 3.45001L3.07001 10.4Z" fill="#D6CACA"/>
<path opacity="0.5" d="M3.07001 11.84L27.5699 7.12L28.15 9.48001L10.57 11.84L27.5699 10.73L28.15 12.93L33 12.72L31.25 3.45001L3.07001 10.4V11.84Z" fill="#AE8E95"/>
<path d="M98.78 1.64999V15.73L91.99 15.52L92.61 1.51001L98.78 1.64999Z" fill="#FFF493"/>
<path d="M43.61 0.420044V14.76L48.91 14.85V0.540039L43.61 0.420044Z" fill="#FFF493"/>
<path style="mix-blend-mode:color-dodge" opacity="0.48" d="M104.7 3.44998L86.24 3.09998L80.5601 12.93L104.14 11.42L104.7 3.44998Z" fill="url(#paint3_linear_2_693)"/>
<path style="mix-blend-mode:color-dodge" opacity="0.48" d="M85.16 3.34998H77L71.8 12.27L79.46 12.14L85.16 3.34998Z" fill="url(#paint4_linear_2_693)"/>
<path opacity="0.5" d="M106.66 12.27L50.85 9.26999L40.5 0.350006L30.62 0.140015L32.9399 14.57L106.66 15.87V12.27Z" fill="#820000"/>
<defs>
<linearGradient id="paint0_linear_2_693" x1="106.66" y1="8" x2="30.63" y2="8" gradientUnits="userSpaceOnUse">
<stop stop-color="#980020"/>
<stop offset="1" stop-color="#F9003F"/>
</linearGradient>
<linearGradient id="paint1_linear_2_693" x1="0.97998" y1="5.43001" x2="31.25" y2="5.43001" gradientUnits="userSpaceOnUse">
<stop stop-color="#980020"/>
<stop offset="1" stop-color="#F9003F"/>
</linearGradient>
<linearGradient id="paint2_linear_2_693" x1="0.97998" y1="13.65" x2="33" y2="13.65" gradientUnits="userSpaceOnUse">
<stop stop-color="#980020"/>
<stop offset="1" stop-color="#F9003F"/>
</linearGradient>
<linearGradient id="paint3_linear_2_693" x1="92.63" y1="12.93" x2="92.63" y2="3.09998" gradientUnits="userSpaceOnUse">
<stop/>
<stop offset="1" stop-color="#FC6B6B"/>
</linearGradient>
<linearGradient id="paint4_linear_2_693" x1="78.49" y1="12.27" x2="78.49" y2="3.34998" gradientUnits="userSpaceOnUse">
<stop/>
<stop offset="1" stop-color="#FC6B6B"/>
</linearGradient>
</defs>
</svg>
