<svg width="112" height="189" viewBox="0 0 112 189" fill="none" xmlns="http://www.w3.org/2000/svg">
<path d="M84.9278 188.38L52.1417 185.24L57.0125 184.04L84.9278 186.67V188.38Z" fill="#3F0800"/>
<path d="M60.1572 84.9L54.5225 185.02H56.943L64.5121 84.9H60.1572Z" fill="#3F0800"/>
<path d="M104.183 70.57C103.32 71.93 102.377 73.13 101.356 74.15C81.3962 94.1 1.63805 81.77 0.705558 73.08C0.0111459 66.56 16.7564 71.2 42.5091 46.12C46.5169 42.22 49.8501 38.57 52.7369 35.16C68.4207 16.63 70.3551 5.28001 88.3304 1.26001C111.871 -4.00999 117.119 50.27 104.183 70.57Z" fill="url(#paint0_linear_2_478)"/>
<g style="mix-blend-mode:multiply" opacity="0.26">
<path d="M104.183 70.57C103.32 71.93 102.377 73.13 101.356 74.15C81.3962 94.1 1.63805 81.77 0.705558 73.08C0.0111459 66.56 16.7564 71.2 42.5091 46.12C46.5169 42.22 49.8501 38.57 52.7369 35.16C55.703 41.95 60.8317 50.8 69.621 60.08C81.0986 72.23 95.0861 72.33 104.193 70.56L104.183 70.57Z" fill="#A21800"/>
</g>
<path d="M15.3378 72.05L21.409 188.38H84.9278V184.69L95.6119 77.93L84.9278 82.16L80.0471 185.8L23.9783 186.79L26.379 69.24L15.3378 72.05Z" fill="#772A2C"/>
<path style="mix-blend-mode:color-dodge" d="M16.7663 73.15L24.9008 71.18L22.1827 150.15L19.3356 148.72L16.7663 73.15Z" fill="url(#paint1_linear_2_478)"/>
<path d="M26.379 69.24L29.484 69.72L25.6846 186.76L23.9783 186.79L26.379 69.24Z" fill="#3F0800"/>
<path d="M84.9278 82.16L80.9896 83.01L78.0829 185.84L80.0471 185.8L84.9278 82.16Z" fill="#3F0800"/>
<path d="M54.5225 185.02L52.1417 185.24L52.4393 84.81L60.1572 84.9L54.5225 185.02Z" fill="#772A2C"/>
<path style="mix-blend-mode:color-dodge" d="M32.6584 58.51C32.6584 58.51 47.1022 48.05 61.0401 31.94C74.9779 15.83 83.0926 2.80995 92.1597 3.58995C105.859 4.76995 105.135 23.06 105.135 23.06C105.135 23.06 97.0404 7.91996 77.577 27.54C58.1136 47.16 38.8684 55.6 32.6584 58.51Z" fill="url(#paint2_linear_2_478)"/>
<g style="mix-blend-mode:multiply" opacity="0.26">
<path d="M38.3427 80.23C38.3427 80.23 69.0853 81.75 84.9377 73.83C101.316 65.64 109.51 44.55 109.51 44.55C109.51 44.55 107.328 67.19 92.3382 76.12C73.1724 87.53 38.3526 80.24 38.3526 80.24L38.3427 80.23Z" fill="#A21800"/>
</g>
<path style="mix-blend-mode:color-dodge" d="M53.6396 99.88L58.4112 101.24L55.4748 152.56L54.1555 150.15L53.6396 99.88Z" fill="url(#paint3_linear_2_478)"/>
<defs>
<linearGradient id="paint0_linear_2_478" x1="55.8816" y1="84.9" x2="55.8816" y2="0.910013" gradientUnits="userSpaceOnUse">
<stop stop-color="#958B9D"/>
<stop offset="1" stop-color="#C2929D"/>
</linearGradient>
<linearGradient id="paint1_linear_2_478" x1="20.8336" y1="150.15" x2="20.8336" y2="71.18" gradientUnits="userSpaceOnUse">
<stop/>
<stop offset="1" stop-color="#505400"/>
</linearGradient>
<linearGradient id="paint2_linear_2_478" x1="68.8968" y1="58.51" x2="68.8968" y2="3.55995" gradientUnits="userSpaceOnUse">
<stop/>
<stop offset="1" stop-color="#505400"/>
</linearGradient>
<linearGradient id="paint3_linear_2_478" x1="56.0304" y1="152.56" x2="56.0304" y2="99.88" gradientUnits="userSpaceOnUse">
<stop/>
<stop offset="1" stop-color="#505400"/>
</linearGradient>
</defs>
</svg>
