<svg width="82" height="40" viewBox="0 0 82 40" fill="none" xmlns="http://www.w3.org/2000/svg">
<g style="mix-blend-mode:multiply" opacity="0.26">
<path d="M65.6801 2.64001L69.37 2.64999L81.39 26.88L22.23 39.95L18.33 35.62L65.6801 2.64001Z" fill="#A21800"/>
</g>
<path d="M0.0899658 14.39L15.91 38.33L72.64 26.05L59.78 0.709961L0.0899658 14.39Z" fill="url(#paint0_linear_2_211)"/>
<path d="M59.78 0.709961L64.73 0.72998L75.6801 22.82L72.64 26.05L59.78 0.709961Z" fill="#221638"/>
<path d="M19.3199 31.75L6.92004 17.64L55.59 6.14996L61.89 22.87L19.3199 31.75Z" fill="url(#paint1_linear_2_211)"/>
<g style="mix-blend-mode:multiply" opacity="0.26">
<path d="M21.87 28.0499L15.8199 19.1199L50.01 10.1799L53.37 21.89L21.87 28.0499Z" fill="#A21800"/>
</g>
<path style="mix-blend-mode:color-dodge" opacity="0.73" d="M18.33 35.62L4.95996 15.7L14.46 13.38L26.66 33.49L18.33 35.62Z" fill="url(#paint2_linear_2_211)"/>
<path style="mix-blend-mode:color-dodge" opacity="0.73" d="M16.36 13.38L25.42 11.22L33.09 30.61L28.04 32.3L16.36 13.38Z" fill="url(#paint3_linear_2_211)"/>
<defs>
<linearGradient id="paint0_linear_2_211" x1="0.0513385" y1="19.4774" x2="72.6311" y2="19.6928" gradientUnits="userSpaceOnUse">
<stop stop-color="#8B2C52"/>
<stop offset="1" stop-color="#660045"/>
</linearGradient>
<linearGradient id="paint1_linear_2_211" x1="34.3448" y1="31.8692" x2="34.4211" y2="6.15934" gradientUnits="userSpaceOnUse">
<stop stop-color="#FFFFE1"/>
<stop offset="1" stop-color="#E2D1C7"/>
</linearGradient>
<linearGradient id="paint2_linear_2_211" x1="15.7534" y1="35.6741" x2="15.8193" y2="13.4542" gradientUnits="userSpaceOnUse">
<stop/>
<stop offset="1" stop-color="#8B7500"/>
</linearGradient>
<linearGradient id="paint3_linear_2_211" x1="24.6632" y1="32.3605" x2="24.7257" y2="11.2906" gradientUnits="userSpaceOnUse">
<stop/>
<stop offset="1" stop-color="#8B7500"/>
</linearGradient>
</defs>
</svg>
