<svg width="63" height="85" viewBox="0 0 63 85" fill="none" xmlns="http://www.w3.org/2000/svg">
<path d="M29.67 37.68C26.25 34.95 22.25 20.76 21.3 6.33L24.78 0.970016C38.3 -0.699984 58.84 0.88003 61.32 3.14003L29.68 37.68H29.67Z" fill="url(#paint0_linear_2_466)"/>
<path d="M29.3 0.97998H21.3L1.90002 41.8L19.54 82.56H21.3L7.28003 40.43L29.3 0.97998Z" fill="#221638"/>
<path d="M40.16 84.0299L19.67 77.6799H17.43L5.26001 84.0299H40.16Z" fill="#221638"/>
<path d="M9.15002 42.6799C9.15002 45.4399 7.41001 47.6799 5.26001 47.6799C3.11001 47.6799 1.37 45.4399 1.37 42.6799C1.37 39.9199 3.11001 37.6799 5.26001 37.6799C7.41001 37.6799 9.15002 39.9199 9.15002 42.6799Z" fill="url(#paint1_linear_2_466)"/>
<path d="M8.02002 42.6799C8.02002 45.4399 6.28 47.6799 4.13 47.6799C1.98 47.6799 0.23999 45.4399 0.23999 42.6799C0.23999 39.9199 1.98 37.6799 4.13 37.6799C6.28 37.6799 8.02002 39.9199 8.02002 42.6799Z" fill="url(#paint2_linear_2_466)"/>
<path d="M6.20001 42.68C6.20001 44.15 5.27 45.35 4.13 45.35C2.99 45.35 2.04999 44.16 2.04999 42.68C2.04999 41.2 2.98 40.01 4.13 40.01C5.28 40.01 6.20001 41.2 6.20001 42.68Z" fill="#221638"/>
<path d="M51.27 25.71C42.53 35.25 32.87 40.61 29.67 37.68C27.16 35.37 29.41 28.63 34.74 21.21C36.17 19.2 37.85 17.14 39.71 15.11C40.68 14.05 41.67 13.03 42.66 12.07C50.52 4.47999 58.49 0.539985 61.31 3.12998C64.5 6.06998 60.01 16.16 51.27 25.7V25.71Z" fill="#221638"/>
<path d="M50.31 24.72C42.62 33.14 34.09 37.86 31.26 35.28C29.09 33.28 30.98 27.49 35.52 21.08C35.59 20.97 35.65 20.88 35.74 20.77C37 18.99 38.48 17.18 40.13 15.39C40.98 14.45 41.85 13.55 42.73 12.71C42.78 12.66 42.82 12.62 42.88 12.58C49.77 5.95997 56.71 2.55997 59.18 4.82997C61.99 7.40997 58.02 16.32 50.32 24.73L50.31 24.72Z" fill="url(#paint3_linear_2_466)"/>
<path d="M44.22 16.2299C44.22 19.38 41.66 21.9299 38.52 21.9299C37.42 21.9299 36.39 21.6199 35.53 21.0699C35.6 20.9599 35.66 20.8699 35.75 20.7599C37.01 18.9799 38.49 17.1699 40.14 15.3799C40.99 14.4399 41.86 13.54 42.74 12.7C42.79 12.65 42.83 12.6099 42.89 12.5699C43.72 13.5499 44.24 14.8299 44.24 16.2299H44.22Z" fill="white"/>
<path style="mix-blend-mode:color-dodge" opacity="0.73" d="M39.58 9.76997C39.58 9.76997 44.07 6.34999 50.87 3.19999C50.87 3.19999 43.14 1.16998 28.61 2.21998L25 6.48997C25 6.48997 33.66 8.03997 39.58 9.76997Z" fill="url(#paint4_linear_2_466)"/>
<defs>
<linearGradient id="paint0_linear_2_466" x1="21.3" y1="18.98" x2="61.31" y2="18.98" gradientUnits="userSpaceOnUse">
<stop stop-color="#958B9D"/>
<stop offset="1" stop-color="#C2929D"/>
</linearGradient>
<linearGradient id="paint1_linear_2_466" x1="1.37" y1="42.6799" x2="9.15002" y2="42.6799" gradientUnits="userSpaceOnUse">
<stop stop-color="#958B9D"/>
<stop offset="1" stop-color="#654075"/>
</linearGradient>
<linearGradient id="paint2_linear_2_466" x1="0.22999" y1="42.6799" x2="8.02002" y2="42.6799" gradientUnits="userSpaceOnUse">
<stop stop-color="#958B9D"/>
<stop offset="1" stop-color="#C2929D"/>
</linearGradient>
<linearGradient id="paint3_linear_2_466" x1="34.44" y1="37.31" x2="56.01" y2="2.79999" gradientUnits="userSpaceOnUse">
<stop stop-color="#FFFFE1"/>
<stop offset="1" stop-color="#E2D1C7"/>
</linearGradient>
<linearGradient id="paint4_linear_2_466" x1="25" y1="5.83997" x2="50.87" y2="5.83997" gradientUnits="userSpaceOnUse">
<stop/>
<stop offset="1" stop-color="#8B7500"/>
</linearGradient>
</defs>
</svg>
