<svg width="120" height="135" viewBox="0 0 120 135" fill="none" xmlns="http://www.w3.org/2000/svg">
<path d="M109.94 116.45H135.475L155.047 17.61L122.489 17.35L109.94 116.45Z" fill="#591800"/>
<path d="M107.847 111.38L100.437 134.05L93.1949 133.59L92.5302 110.89L107.847 111.38Z" fill="url(#paint0_linear_2_650)"/>
<path d="M105.387 118.91L92.6293 120.15L92.55 111.38H107.847L105.387 118.91Z" fill="#591800"/>
<path d="M110.654 111.3L103.204 133.61L100.437 134.05L107.847 111.38L110.654 111.3Z" fill="#591800"/>
<path d="M131.526 110.55L124.116 133.21L116.864 132.76L116.21 110.06L131.526 110.55Z" fill="#591800"/>
<path d="M54.526 108.37L58.871 132.4H66.0136L69.7634 110.01L54.526 108.37Z" fill="#591800"/>
<path d="M55.9347 116.17L68.0968 119.09L69.684 110.49L54.526 108.37L55.9347 116.17Z" fill="#591800"/>
<path d="M51.7682 107.89L56.3017 132.19L58.871 132.4L54.526 108.37L51.7682 107.89Z" fill="#591800"/>
<path d="M40.37 112.02L42.9293 133.01L46.0443 132.82L46.699 110.12L40.37 112.02Z" fill="#591800"/>
<path d="M28.5848 110.52L36.0349 132.84L42.9293 133.01L42.1655 112.11L28.5848 110.52Z" fill="url(#paint1_linear_2_650)"/>
<path d="M32.0668 120.96L45.2407 120.75L46.6891 110.61L28.8923 111.43L32.0668 120.96Z" fill="#591800"/>
<path d="M135.475 3.38998L0.252747 0.969971L4.20102 14.42L132.638 17.61L135.475 3.38998Z" fill="url(#paint2_linear_2_650)"/>
<path d="M122.489 17.35L109.94 116.45L25.4996 115.76L8.5559 14.53L122.489 17.35Z" fill="url(#paint3_linear_2_650)"/>
<path d="M24.9043 47.9999L24.1306 41.6799L29.8843 43.9099L37.7906 88.27L29.5867 86.1799L24.9043 47.9999Z" fill="#591800"/>
<path d="M22.5335 40.8099L27.0471 42.0799L30.291 75.1299L26.6801 77.7499L22.5335 40.8099Z" fill="url(#paint4_linear_2_650)"/>
<path style="mix-blend-mode:color-dodge" d="M23.2874 42.35L26.0849 43.09L28.9717 71.05L26.5114 72.51L23.2874 42.35Z" fill="url(#paint5_linear_2_650)"/>
<path style="mix-blend-mode:color-dodge" d="M105 3.55997L103.155 15.02L5.61957 12.13L4.4192 2.39996L105 3.55997Z" fill="url(#paint6_linear_2_650)"/>
<path d="M14.8453 17.61L28.9717 112.98L107.143 114.09L118.382 19.47L14.8553 17.61H14.8453ZM17.7817 19.47L116.21 20.75L105.03 112.47L30.291 110.88L17.7817 19.46V19.47Z" fill="#591800"/>
<path style="mix-blend-mode:color-dodge" d="M12.0677 17.61L26.8884 109.58L51.1928 110.12L42.9293 18.46L12.0677 17.61Z" fill="url(#paint7_linear_2_650)"/>
<path style="mix-blend-mode:color-dodge" d="M46.699 19.39L62.1447 19.47L63.0177 109.58L54.526 108.37L46.699 19.39Z" fill="url(#paint8_linear_2_650)"/>
<path opacity="0.5" d="M30.291 102.77H88.0065L101.746 24.6L113.115 24L99.7223 109.58L30.291 102.77Z" fill="#7E1800"/>
<path opacity="0.5" d="M8.5559 14.53L9.94475 20.52L119.374 41.89L122.489 17.35L8.5559 14.53Z" fill="#591800"/>
<defs>
<linearGradient id="paint0_linear_2_650" x1="100.189" y1="134.05" x2="100.189" y2="110.89" gradientUnits="userSpaceOnUse">
<stop stop-color="#BF4A0A"/>
<stop offset="0.99" stop-color="#902F00"/>
</linearGradient>
<linearGradient id="paint1_linear_2_650" x1="35.7571" y1="133.01" x2="35.7571" y2="110.52" gradientUnits="userSpaceOnUse">
<stop stop-color="#BF4A0A"/>
<stop offset="0.99" stop-color="#902F00"/>
</linearGradient>
<linearGradient id="paint2_linear_2_650" x1="135.465" y1="9.28996" x2="0.252747" y2="9.28996" gradientUnits="userSpaceOnUse">
<stop stop-color="#7C2300"/>
<stop offset="1" stop-color="#D1630A"/>
</linearGradient>
<linearGradient id="paint3_linear_2_650" x1="8.54598" y1="65.49" x2="122.479" y2="65.49" gradientUnits="userSpaceOnUse">
<stop stop-color="#D1630A"/>
<stop offset="0.99" stop-color="#7C2300"/>
</linearGradient>
<linearGradient id="paint4_linear_2_650" x1="24.5466" y1="40.5502" x2="29.1442" y2="77.4302" gradientUnits="userSpaceOnUse">
<stop stop-color="#958B9D"/>
<stop offset="1" stop-color="#863763"/>
</linearGradient>
<linearGradient id="paint5_linear_2_650" x1="24.4472" y1="42.1849" x2="28.2013" y2="72.2981" gradientUnits="userSpaceOnUse">
<stop stop-color="#505400"/>
<stop offset="1"/>
</linearGradient>
<linearGradient id="paint6_linear_2_650" x1="105" y1="8.70996" x2="4.40928" y2="8.70996" gradientUnits="userSpaceOnUse">
<stop/>
<stop offset="1" stop-color="#505400"/>
</linearGradient>
<linearGradient id="paint7_linear_2_650" x1="31.6302" y1="110.12" x2="31.6302" y2="17.61" gradientUnits="userSpaceOnUse">
<stop/>
<stop offset="1" stop-color="#505400"/>
</linearGradient>
<linearGradient id="paint8_linear_2_650" x1="54.8633" y1="109.58" x2="54.8633" y2="19.39" gradientUnits="userSpaceOnUse">
<stop/>
<stop offset="1" stop-color="#505400"/>
</linearGradient>
</defs>
</svg>
