<svg width="89" height="73" viewBox="0 0 89 73" fill="none" xmlns="http://www.w3.org/2000/svg">
<path d="M88.58 15.17C88.59 15.49 88.58 15.8 88.58 16.13C88.58 16.39 88.58 16.64 88.56 16.9C88.51 19.12 88.3 21.53 88.02 24.04C87.96 24.61 87.88 25.2 87.81 25.78C87.42 28.89 86.89 32.15 86.31 35.34C86.22 35.84 86.13 36.32 86.04 36.8C85.29 40.86 84.46 44.81 83.71 48.34C83.62 48.84 83.51 49.3 83.41 49.77C82.54 53.93 81.82 57.39 81.52 59.58C81.44 60.2 81.4 60.72 81.38 61.13C81.32 63.5 81.64 65.71 82.01 67.55C82.13 68.12 82.27 68.66 82.4 69.16C82.97 71.32 83.57 72.66 83.57 72.66L78.13 72.39C78.13 72.39 78.07 72.37 78.04 72.37L66.71 71.8L10.28 68.93L0.169983 68.42C0.169983 68.42 7.29002 63.25 7.96002 62.36C7.98002 62.35 7.99001 62.3 8.01001 62.25C8.12001 61.96 8.17997 61.27 8.21997 60.25C8.27997 58.96 8.30999 57.11 8.35999 54.85C8.37999 54.44 8.38001 54.01 8.39001 53.57C8.45001 50.79 8.56 47.5 8.75 43.89C8.77 43.41 8.80003 42.91 8.84003 42.42V42.4C9.02003 39.45 9.28001 36.31 9.64001 33.1C9.72001 32.47 9.78998 31.84 9.84998 31.22C9.93998 30.56 10.03 29.91 10.12 29.25C10.47 26.79 10.9 24.41 11.4 22.17C11.48 21.82 11.55 21.48 11.63 21.13C11.74 20.59 11.87 20.05 12.01 19.52C12.63 16.97 13.3 14.58 13.98 12.44C14.18 11.9 14.34 11.37 14.51 10.86C16.69 4.42999 18.7 0.48999 18.7 0.48999C18.7 0.48999 24.16 3.41001 40.61 6.35001C50.42 8.11001 65.27 8.34999 75.66 8.26999C82.69 8.20999 87.68 8 87.68 8C88.31 9.88 88.6 12.31 88.61 15.14L88.58 15.17Z" fill="url(#paint0_linear_2_582)"/>
<g style="mix-blend-mode:soft-light">
<path d="M13.95 12.47C18.18 13.23 27.76 14.78 45.01 16.69C65.22 18.93 82.81 17.49 88.57 16.89C88.59 16.3 88.59 15.73 88.58 15.17C83.22 15.92 69.51 17.21 47.74 15.37C27.66 13.67 18.31 11.84 14.48 10.88C14.31 11.4 14.14 11.92 13.96 12.47H13.95Z" fill="#FFF9BD"/>
</g>
<g style="mix-blend-mode:soft-light">
<path d="M11.6 21.15C15.59 22.35 25.89 24.86 44.59 26.16C65.97 27.63 83.27 26.22 87.81 25.78C87.89 25.2 87.96 24.62 88.02 24.03C83.64 24.64 66.17 26.7 44.24 24.95C25.84 23.48 15.99 20.87 11.96 19.55C11.82 20.07 11.7 20.6 11.59 21.15H11.6Z" fill="#FFF9BD"/>
</g>
<g style="mix-blend-mode:soft-light">
<path d="M9.62 33.11C13.6 33.98 24.47 36.07 42.92 37.42C66.77 39.16 86.05 36.79 86.05 36.79C86.14 36.31 86.23 35.83 86.31 35.34C81.94 35.73 65.1 37.03 43.58 35.96C24.41 35 13.79 32.4 9.84003 31.23C9.77003 31.86 9.69 32.48 9.63 33.11H9.62Z" fill="#FFF9BD"/>
</g>
<g style="mix-blend-mode:soft-light">
<path d="M8.81 42.43C8.78 42.92 8.74998 43.42 8.72998 43.9C12.13 45.15 21.51 47.93 40.34 49.24C61.6 50.7 78.98 49.99 83.41 49.76C83.52 49.29 83.62 48.83 83.72 48.34C79.51 48.51 60.91 49.11 40.84 47.81C22.96 46.65 12.51 43.67 8.82001 42.44L8.81 42.43Z" fill="#FFF9BD"/>
</g>
<g style="mix-blend-mode:soft-light">
<path d="M8.37 53.58C8.35 54.02 8.35003 54.45 8.34003 54.86C11.75 56.06 21.57 58.99 39.53 60.6C59.12 62.36 76.71 61.44 81.39 61.13C81.39 60.71 81.45 60.2 81.52 59.57C76.5 60.09 60.16 61.39 39.62 59.19C19.84 57.08 11.33 54.64 8.37 53.57V53.58Z" fill="#FFF9BD"/>
</g>
<g style="mix-blend-mode:soft-light">
<path d="M8 62.25C12.53 63.65 22.42 66.04 41.02 67.87C65.06 70.24 78.95 69.43 82.4 69.15C82.27 68.66 82.14 68.12 82.02 67.55C76.69 67.88 59.44 68.63 38.61 66.18C21.64 64.19 12.42 61.68 8.21002 60.26C8.17002 61.28 8.1 61.97 8 62.25Z" fill="#FFF9BD"/>
</g>
<path opacity="0.2" d="M88.58 16.13C88.58 16.39 88.58 16.64 88.56 16.9C88.51 19.12 88.3 21.53 88.02 24.04C87.96 24.61 87.88 25.2 87.81 25.78C87.42 28.89 86.89 32.15 86.31 35.34C86.22 35.84 86.13 36.32 86.04 36.8C85.29 40.86 84.46 44.81 83.71 48.34C83.62 48.84 83.51 49.3 83.41 49.77C82.54 53.93 81.82 57.39 81.52 59.58C81.44 60.2 81.4 60.72 81.38 61.13C81.32 63.5 81.64 65.71 82.01 67.55C82.13 68.12 82.27 68.66 82.4 69.16C82.97 71.32 83.57 72.66 83.57 72.66C83.57 72.66 81.35 72.71 78.13 72.39C78.1 72.37 78.07 72.37 78.04 72.37C69.59 71.53 54.44 68.27 54.44 55.58C54.44 37.98 65.64 24.27 76.64 16.16L87.64 8.03003L88.57 16.13H88.58Z" fill="#385F00"/>
<path style="mix-blend-mode:color-dodge" d="M75.62 8.29999C70.54 11.35 63.28 15.18 53.14 19.54C38.26 25.93 22.38 24.57 11.37 22.19C11.45 21.84 11.52 21.5 11.6 21.15C11.71 20.61 11.84 20.07 11.98 19.54C12.6 16.99 13.27 14.6 13.95 12.46C14.15 11.92 14.31 11.39 14.48 10.88C16.66 4.45001 18.67 0.51001 18.67 0.51001C18.67 0.51001 24.13 3.43 40.58 6.37C50.39 8.13 65.24 8.37001 75.63 8.29001L75.62 8.29999Z" fill="url(#paint1_linear_2_582)"/>
<defs>
<linearGradient id="paint0_linear_2_582" x1="44.38" y1="72.65" x2="44.38" y2="0.509993" gradientUnits="userSpaceOnUse">
<stop stop-color="#72810A"/>
<stop offset="0.99" stop-color="#B3BB00"/>
</linearGradient>
<linearGradient id="paint1_linear_2_582" x1="11.38" y1="12.34" x2="75.62" y2="12.34" gradientUnits="userSpaceOnUse">
<stop/>
<stop offset="1" stop-color="#505400"/>
</linearGradient>
</defs>
</svg>
