<svg width="26" height="78" viewBox="0 0 26 78" fill="none" xmlns="http://www.w3.org/2000/svg">
<path d="M21.9 37.23L24.55 12.88L20.62 24.4L21.05 5.46002L19.01 18.47L19.04 8.03003L13.66 24.47L14.48 12.57L9.15997 28.06L8.23996 4.57004L5.33997 20.63L2.89996 6.33002L1.19998 26.8L-3.02002 0.920044L-3.46002 22.33L-10.63 3.83002L-6.38004 33.53L-14.66 16.06L-10.15 37.73C-10.15 37.73 -2.60004 38.94 5.86996 38.84C14.34 38.74 21.9 37.22 21.9 37.22V37.23Z" fill="#668D12"/>
<path d="M-1.56006 38.6901L1.16995 6.80005L1.17993 38.9801L-1.56006 38.6901Z" fill="#9BAE05"/>
<path d="M4.45996 38.98L14.22 7.12L8.82996 39.05L4.45996 38.98Z" fill="#9BAE05"/>
<path d="M13.63 38.43L23.84 7.78003L19.36 37.78L13.63 38.43Z" fill="#9BAE05"/>
<path d="M20.2999 37.54L24.2499 17.27L22.3299 37.44L20.2999 37.54Z" fill="#9BAE05"/>
<path d="M10 38.74L17.46 6.39001L13.61 38.58L10 38.74Z" fill="#9BAE05"/>
<path d="M-13.04 36.5601L-5.74002 75.4201C-5.74002 75.4201 18.85 75.33 19.8 75.05L25.05 37.3L-4.52002 36.7301H-4.53003L-13.03 36.5701L-13.04 36.5601Z" fill="white"/>
<path d="M-4 75.42L-3.26001 77.63H17.46L18.13 75.21L-4 75.42Z" fill="#42012F"/>
<path opacity="0.07" d="M4.45996 36.5601L15.91 63.7501L1.17996 71.2601L-6.72003 70.2301L-5.74002 75.4201L19.8 75.0401L25.05 37.3L4.45996 36.5601Z" fill="#B3015C"/>
<path d="M-10.96 47.66L-2.45004 42.1L4.45996 47.66L12.62 42.1L18.13 46.3L24.25 43.01L23.84 45.94L17.93 49.55L12.51 44.36L4.45996 50.2L-3.19003 44.59L-10.6 49.55L-10.96 47.66Z" fill="#776A98"/>
<path d="M-7.43005 66.43L-0.850067 61.21L4.84995 66.77L11.5699 61.21L16.1099 65.41L21.64 61.81L21.2299 64.76L15.95 68.66L11.4799 63.48L4.84995 69.31L-1.46005 63.7L-7.09006 68.27L-7.43005 66.43Z" fill="#776A98"/>
<path d="M-9.10999 57.5001L-2.28 52.4601L6 59.2001L11.83 54.0401L17.46 59.2801L22.48 55.7601L22.94 52.4601L17.46 57.5001L11.94 51.4201L6 57.5001L-2.62 50.6901L-9.51001 55.3701L-9.10999 57.5001Z" fill="#776A98"/>
<path style="mix-blend-mode:color-dodge" opacity="0.73" d="M-10.41 37.9501L3.27997 38.4301L2.20996 72.9901H-3.75003L-10.41 37.9501Z" fill="url(#paint0_linear_2_865)"/>
<defs>
<linearGradient id="paint0_linear_2_865" x1="-3.67003" y1="72.9901" x2="-3.56003" y2="37.9701" gradientUnits="userSpaceOnUse">
<stop/>
<stop offset="1" stop-color="#8B7500"/>
</linearGradient>
</defs>
</svg>
