<svg width="18" height="144" viewBox="0 0 18 144" fill="none" xmlns="http://www.w3.org/2000/svg">
<path d="M12.08 0.120038C11.96 0.160038 11.85 0.210032 11.74 0.270032C2.73999 5.05003 0.539978 74.4901 0.539978 83.3801C0.539978 86.5901 1.66 90.89 3.12 95.09C4.05 97.79 5.11998 100.46 6.09998 102.78C5.15998 115.86 4.66997 125.52 5.21997 127.7C6.13997 131.35 8.43002 134.92 10.71 137.78C13.64 141.46 16.54 143.97 16.54 143.97V137.78C16.54 131.59 21.38 -3.05997 12.08 0.110028V0.120038ZM9.67999 58C9.96999 30.63 10.63 2.60004 12.08 2.18004C14.08 1.59004 12.08 28.76 9.67999 58Z" fill="url(#paint0_linear_2_739)"/>
<path opacity="0.2" d="M12.08 1.50003C10.41 1.50003 7.63 22.08 6.62 36.45C5.6 50.83 4.81 64.19 4.81 64.19C4.81 64.19 4.36001 38.95 5.82001 28.24C7.12001 18.78 7.27003 16.5 7.28003 16.09C7.00003 17.73 2.12002 47.02 3.21002 64.19C4.35002 81.85 3.10999 95.09 3.10999 95.09C1.64999 90.89 0.530029 86.58 0.530029 83.38C0.530029 74.49 2.72998 5.05002 11.73 0.27002C12.09 0.80002 12.07 1.49002 12.07 1.49002L12.08 1.50003Z" fill="#385F00"/>
<path opacity="0.2" d="M15.03 18.62L10.7 137.79L14.45 142L15.03 18.62Z" fill="#385F00"/>
<defs>
<linearGradient id="paint0_linear_2_739" x1="9.15999" y1="143.98" x2="9.15999" y2="0.0700284" gradientUnits="userSpaceOnUse">
<stop stop-color="#72810A"/>
<stop offset="0.99" stop-color="#B3BB00"/>
</linearGradient>
</defs>
</svg>
