<svg width="258" height="175" viewBox="0 0 258 175" fill="none" xmlns="http://www.w3.org/2000/svg">
<path d="M176 144.61L170.46 173.58H164.39L161.69 145.11L176 144.61Z" fill="#7E1800"/>
<path d="M164.39 173.58H159.85L155.52 144.51L161.69 145.11L164.39 173.58Z" fill="#7E1800"/>
<path d="M159.96 150.87L173.81 156.07L176 144.61L155.52 144.51L159.96 150.87Z" fill="#7E1800"/>
<path d="M131.7 149.16L140.08 174.59L148.27 174.08L149.02 148.62L131.7 149.16Z" fill="url(#paint0_linear_2_346)"/>
<path d="M134.48 157.61L148.91 158.99L149 149.16H131.7L134.48 157.61Z" fill="#7E1800"/>
<path d="M128.53 149.07L136.95 174.1L140.08 174.59L131.7 149.16L128.53 149.07Z" fill="#7E1800"/>
<path d="M38.61 145.44L46.99 170.86L55.18 170.35L55.93 144.89L38.61 145.44Z" fill="url(#paint1_linear_2_346)"/>
<path d="M41.4 153.89L55.82 155.27L55.91 145.44H38.61L41.4 153.89Z" fill="#7E1800"/>
<path d="M35.44 145.34L43.86 170.37L46.99 170.86L38.61 145.44L35.44 145.34Z" fill="#7E1800"/>
<path d="M174.68 13.51L6.40997 12.14L33.44 147.78H160.3L174.68 13.51Z" fill="url(#paint2_linear_2_346)"/>
<path d="M33.44 147.78H27.18L0.830017 11.55L160.83 9.94L174.68 13.51L6.40997 12.14L33.44 147.78Z" fill="#EC6D63"/>
<path d="M44.18 29.73L50.8 30.83C50.8 30.83 91.96 18.68 146.07 26.45C149.73 26.98 157.9 21.15 160.54 28.31C162.37 33.27 155.17 38.13 155.22 42.54C155.24 44.41 155.73 47.8 156.06 51.78C156.53 57.1 156.73 63.52 155.22 68.82C152.62 78.1 155.56 82.29 153.37 84.51C151.2 86.75 141.96 80.25 141.96 80.25C141.96 80.25 104.36 87.01 80.4601 85.8C62.4801 84.91 58.5901 82.09 58.5901 82.09L58.57 82.11C57.88 82.34 43.37 87.39 40 84.1C36.55 80.73 41.63 71.93 41.63 71.93C41.63 71.93 40.42 56.74 41.37 49.41C42.32 41.98 36.79 38.57 34.1 35.94C31.39 33.31 37.55 28.6 44.19 29.72L44.18 29.73Z" fill="url(#paint3_linear_2_346)"/>
<path d="M141.97 80.25C141.97 80.25 146.59 76.47 148.04 70.36C149.49 64.25 147.62 49.19 150.41 41.37C153.2 33.55 152.53 25.14 152.53 25.14L146.07 26.46C146.07 26.46 146.9 34.3 144.67 44.99C142.44 55.69 144.77 67.01 143.47 70.92C142.16 74.83 138.35 80.87 138.35 80.87L141.97 80.25Z" fill="#FFF493"/>
<path d="M125.42 82.8C125.42 82.8 129.58 70.57 129.43 57.7C129.28 44.83 129.04 24.6 129.04 24.6L124.74 24.31C124.74 24.31 125 46.35 125.09 54.59C125.19 62.83 120.94 83.38 120.94 83.38L125.42 82.79V82.8Z" fill="#FFF493"/>
<path d="M108.76 84.74C108.76 84.74 107.45 75.74 107.26 59.14C107.07 42.54 106.85 23.87 106.85 23.87L98.72 24.08C98.72 24.08 102.2 46.16 102.34 58.52C102.48 70.88 104.1 85.15 104.1 85.15L108.76 84.74Z" fill="#FFF493"/>
<path d="M88.35 85.95C88.35 85.95 84.73 74.14 82.18 58.93C79.63 43.72 78.1 25.74 78.1 25.74L72.98 26.42C72.98 26.42 74.73 44.46 78.31 61.52C81.9 78.59 82.66 85.91 82.66 85.91L88.35 85.95Z" fill="#FFF493"/>
<path d="M71.3 85.09C71.3 85.09 65.85 73.35 62.44 60.51C59.03 47.68 56.03 29.51 56.03 29.51L50.8 30.83C50.8 30.83 54.83 50.78 59.04 63.6C63.25 76.42 68.45 84.72 68.45 84.72L71.3 85.09Z" fill="#FFF493"/>
<path d="M58.59 82.1C58.59 82.1 52.29 80.11 49.99 72.18C47.69 64.25 48.24 52.55 45.78 45.3C43.32 38.05 40.38 32.69 40.36 31.19C40.34 29.69 42.37 29.57 42.37 29.57C42.37 29.57 37.06 30.11 35.99 31.21C35.99 31.21 36.69 35.41 40.41 39.05C44.14 42.69 45.14 56.14 45.21 62.33C45.28 68.51 48.7 82.35 53.19 83.74L58.58 82.11L58.59 82.1Z" fill="#FFF493"/>
<path style="mix-blend-mode:color-dodge" opacity="0.63" d="M156.19 53.46C156.19 53.46 137.19 58.54 107.32 62.99C77.45 67.45 65.29 69.86 65.29 69.86C65.29 69.86 90.07 67.09 101.1 58.73C110.29 51.76 114.07 47.45 114.07 47.45C114.07 47.45 79.69 60.3 62.44 60.5C45.19 60.7 43.18 68.39 43.18 68.39C43.18 68.39 56.31 79.06 86.69 81.45C117.07 83.84 134.71 82.04 141.77 74.81C148.83 67.58 156.2 53.44 156.2 53.44L156.19 53.46Z" fill="url(#paint4_linear_2_346)"/>
<g style="mix-blend-mode:multiply" opacity="0.44">
<path d="M44.18 29.73L50.8 30.83C50.8 30.83 91.96 18.68 146.07 26.45C149.73 26.98 157.9 21.15 160.54 28.31C162.37 33.27 155.17 38.13 155.22 42.54C155.24 44.41 155.73 47.8 156.06 51.78V51.8C156.06 51.8 129.37 53.57 132.67 50.2C135.94 46.85 152.17 40.07 153.93 38.27C155.68 36.48 146.17 33.12 124.83 33.37C103.51 33.62 63.14 37.99 53.8 44.44C44.46 50.89 41.4001 68.75 43.2101 72.59C45.0201 76.43 58.5901 82.11 58.5901 82.11L58.57 82.13C57.88 82.36 43.37 87.41 40 84.12C36.55 80.75 41.63 71.95 41.63 71.95C41.63 71.95 40.42 56.76 41.37 49.43C42.32 42 36.79 38.59 34.1 35.96C31.39 33.33 37.55 28.62 44.19 29.74L44.18 29.73Z" fill="#F67D3B"/>
</g>
<path d="M180.23 76.49L177.21 96.22L174.68 112.81C174.68 112.81 110.08 109.34 118.31 142.97C119.07 146.06 43.17 147.05 43.17 142.97C43.17 138.48 31.71 87.12 37.36 76.49H37.37C37.94 75.39 38.64 74.62 39.49 74.23C39.56 74.19 39.62 74.16 39.69 74.14C43.95 72.5 73.07 72.83 103.71 73.67H103.74C140.89 74.71 180.24 76.5 180.24 76.5L180.23 76.49Z" fill="url(#paint5_linear_2_346)"/>
<path style="mix-blend-mode:color-dodge" opacity="0.77" d="M103.74 73.66L120.95 83.39C120.95 83.39 98.17 80.87 69.47 80.87C46.51 80.87 37.36 76.49 37.36 76.49H37.37L39.49 74.23C39.56 74.19 39.62 74.16 39.69 74.14C43.95 72.5 73.07 72.83 103.71 73.67H103.74V73.66Z" fill="url(#paint6_linear_2_346)"/>
<path opacity="0.54" d="M123.68 142.97L298.8 131.22L322.64 12.32L326.59 11.55L303.91 138.24L125.13 145.1L123.68 142.97Z" fill="#7E1800"/>
<path d="M134.3 64.96V67.62C134.3 67.62 115.83 67.05 111.24 71.63C109.76 73.11 110.24 82.88 111.57 95.64C114.37 122.51 120.95 162.6 120.95 166.25C120.95 171.63 119.47 172.36 112.82 172.36C106.17 172.36 98.9 173.58 90.55 173.58C82.2 173.58 72.98 172.36 72.98 172.36C72.98 172.36 72.92 171.33 72.8 169.49C71.77 153.14 67.05 72.79 72.98 71.17C79.57 69.37 134.3 64.95 134.3 64.95V64.96Z" fill="url(#paint7_linear_2_346)"/>
<path opacity="0.2" d="M120.95 166.25C120.95 171.63 119.47 172.36 112.82 172.36C106.17 172.36 98.9 173.58 90.55 173.58C82.2 173.58 72.98 172.36 72.98 172.36C72.98 172.36 72.92 171.33 72.8 169.49C72.8 169.49 85.88 171 85.88 167.83C85.88 164.66 88.35 114.88 88.35 114.88C88.35 114.88 89.93 163.4 91.83 165.3C93.73 167.2 108.75 164.67 108.75 159.1C108.75 153.53 103.41 82.04 103.41 82.04L111.56 95.65C114.36 122.52 120.94 162.61 120.94 166.26L120.95 166.25Z" fill="#221638"/>
<path style="mix-blend-mode:color-dodge" opacity="0.77" d="M72.99 75.64C72.99 75.64 72.04 123.03 73.79 141.89C73.82 142.26 73.86 142.62 73.9 142.97L82.92 141.57V75.64C82.92 75.64 74.52 77.17 72.99 75.64Z" fill="url(#paint8_linear_2_346)"/>
<path style="mix-blend-mode:color-dodge" opacity="0.77" d="M90.55 75.64C90.55 75.64 88.69 122.42 90.55 136.98L102.18 135.56C102.18 135.56 98.63 88.55 98.63 75.64H90.55Z" fill="url(#paint9_linear_2_346)"/>
<path d="M338.02 3.63L86 6.07999L121.13 149.65L312.95 146.39L338.02 3.63Z" fill="url(#paint10_linear_2_346)"/>
<path d="M121.13 149.65L116.74 148.58L81.93 5.60999L323.21 0.25L338.02 3.63L86 6.07999L121.13 149.65Z" fill="#EC6D63"/>
<path opacity="0.5" d="M129.97 138.65L298.8 131.22L329.02 11.12L307.25 141.43L124.98 142.76L129.97 138.65Z" fill="#7E1800"/>
<defs>
<linearGradient id="paint0_linear_2_346" x1="140.36" y1="174.59" x2="140.36" y2="148.62" gradientUnits="userSpaceOnUse">
<stop stop-color="#BF2A0A"/>
<stop offset="0.99" stop-color="#631900"/>
</linearGradient>
<linearGradient id="paint1_linear_2_346" x1="47.27" y1="170.86" x2="47.27" y2="144.89" gradientUnits="userSpaceOnUse">
<stop stop-color="#BF2A0A"/>
<stop offset="0.99" stop-color="#631900"/>
</linearGradient>
<linearGradient id="paint2_linear_2_346" x1="90.55" y1="147.78" x2="90.55" y2="12.14" gradientUnits="userSpaceOnUse">
<stop stop-color="#BF4A0A"/>
<stop offset="0.99" stop-color="#7C2300"/>
</linearGradient>
<linearGradient id="paint3_linear_2_346" x1="161.184" y1="54.1982" x2="33.733" y2="55.6886" gradientUnits="userSpaceOnUse">
<stop stop-color="#FFE25D"/>
<stop offset="0.99" stop-color="#FFA925"/>
</linearGradient>
<linearGradient id="paint4_linear_2_346" x1="156.374" y1="64.4751" x2="43.1919" y2="65.7987" gradientUnits="userSpaceOnUse">
<stop/>
<stop offset="1" stop-color="#FCED00"/>
</linearGradient>
<linearGradient id="paint5_linear_2_346" x1="108.01" y1="145.68" x2="108.02" y2="72.97" gradientUnits="userSpaceOnUse">
<stop stop-color="#F4B8B0"/>
<stop offset="1" stop-color="#F4EDCA"/>
</linearGradient>
<linearGradient id="paint6_linear_2_346" x1="120.88" y1="77.82" x2="37.38" y2="78.79" gradientUnits="userSpaceOnUse">
<stop/>
<stop offset="1" stop-color="#CC5400"/>
</linearGradient>
<linearGradient id="paint7_linear_2_346" x1="102.18" y1="173.58" x2="102.18" y2="64.96" gradientUnits="userSpaceOnUse">
<stop stop-color="#958B9D"/>
<stop offset="1" stop-color="#C2929D"/>
</linearGradient>
<linearGradient id="paint8_linear_2_346" x1="77.82" y1="142.97" x2="77.82" y2="75.64" gradientUnits="userSpaceOnUse">
<stop/>
<stop offset="1" stop-color="#CC5400"/>
</linearGradient>
<linearGradient id="paint9_linear_2_346" x1="95.95" y1="136.98" x2="95.95" y2="75.64" gradientUnits="userSpaceOnUse">
<stop/>
<stop offset="1" stop-color="#CC5400"/>
</linearGradient>
<linearGradient id="paint10_linear_2_346" x1="212.01" y1="149.65" x2="212.01" y2="3.63" gradientUnits="userSpaceOnUse">
<stop stop-color="#BF2A0A"/>
<stop offset="0.99" stop-color="#631900"/>
</linearGradient>
</defs>
</svg>
