<svg width="20" height="72" viewBox="0 0 20 72" fill="none" xmlns="http://www.w3.org/2000/svg">
<g clip-path="url(#clip0_2_11581)">
<path d="M9.92999 55.99V-1.5" stroke="white" stroke-width="0.5" stroke-linecap="round" stroke-linejoin="round"/>
<path d="M15.33 59.44C15.33 63.03 12.86 67.09 9.82 67.09C6.78 67.09 4.31 63.03 4.31 59.44C4.31 55.85 6.78 52.93 9.82 52.93C12.86 52.93 15.33 55.84 15.33 59.44Z" fill="#0D0013"/>
<path d="M12.8 68.26C12.8 70.27 12.19 71.9 9.82 71.9C7.45 71.9 6.84 70.27 6.84 68.26C6.84 66.25 8.17 64.62 9.82 64.62C11.47 64.62 12.8 66.25 12.8 68.26Z" fill="#0D0013"/>
<path d="M12.06 65.87C15.74 65.87 15.34 70.51 15.34 70.51" stroke="#0D0013" stroke-miterlimit="10" stroke-linecap="round"/>
<path d="M12.8 63.51C16.36 62.59 16.98 67.5 16.98 67.5" stroke="#0D0013" stroke-miterlimit="10" stroke-linecap="round"/>
<path d="M13.71 62.15C17.27 61.23 18.89 65.02 18.89 65.02" stroke="#0D0013" stroke-miterlimit="10" stroke-linecap="round"/>
<path d="M14.4 60.58C17.64 59.11 19.36 61.23 19.36 61.23" stroke="#0D0013" stroke-miterlimit="10" stroke-linecap="round"/>
<path d="M14.5 57.21C18.89 56.74 18.89 52.94 18.89 52.94" stroke="#0D0013" stroke-miterlimit="10" stroke-linecap="round"/>
<path d="M7.07001 63.51C3.51002 62.59 2.89001 67.5 2.89001 67.5" stroke="#0D0013" stroke-miterlimit="10" stroke-linecap="round"/>
<path d="M6.15 62.15C2.59 61.23 0.970001 65.02 0.970001 65.02" stroke="#0D0013" stroke-miterlimit="10" stroke-linecap="round"/>
<path d="M5.46 60.58C2.22 59.11 0.5 61.23 0.5 61.23" stroke="#0D0013" stroke-miterlimit="10" stroke-linecap="round"/>
<path d="M5.36 57.21C0.970002 56.74 0.970001 52.94 0.970001 52.94" stroke="#0D0013" stroke-miterlimit="10" stroke-linecap="round"/>
<path d="M7.60999 65.87C3.92999 65.87 4.32999 70.51 4.32999 70.51" stroke="#0D0013" stroke-miterlimit="10" stroke-linecap="round"/>
</g>
<defs>
<clipPath id="clip0_2_11581">
<rect width="19.87" height="73.9" fill="white" transform="translate(0 -2)"/>
</clipPath>
</defs>
</svg>
