<svg width="97" height="166" viewBox="0 0 97 166" fill="none" xmlns="http://www.w3.org/2000/svg">
<path d="M71.75 18.98L67.9301 16.92C67.9301 16.92 79.0801 -3.77005 89.4301 1.64995C98.3101 6.28995 91.4899 18.93 87.9399 25.53C84.3799 32.13 2.72998 165.2 2.72998 165.2L0.390015 163.94C0.390015 163.94 84.54 27.91 87.74 21.96C91.77 14.47 92.39 6.15996 88.22 3.90996C81.75 0.429964 71.75 18.98 71.75 18.98Z" fill="#42012F"/>
<path d="M5.01001 155.37C5.01001 155.37 45.48 65.4699 48.61 59.6699C51.74 53.8599 68.83 42.0699 68.83 42.0699L76.99 21.8099C76.99 21.8099 76.18 32.2699 79.47 31.2799C82.76 30.2999 90.99 27.2599 90.99 27.2599L87.39 35.5599C87.39 35.5599 87.8 33.1099 92.22 31.7899L96.64 30.4699L78.25 47.8199C78.25 47.8199 75.1 68.76 72.29 73.96C69.49 79.16 7.79999 156.94 7.79999 156.94L5.01001 155.38V155.37Z" fill="url(#paint0_linear_2_734)"/>
<path opacity="0.53" d="M79.46 31.28L73.58 43.28C73.58 43.28 66.09 58.41 64.67 65.2C63.25 71.99 45.49 95.41 45.49 95.41C45.49 95.41 65.99 75.72 67.4 68.58C68.81 61.43 72.9399 49.62 72.9399 49.62C72.9399 49.62 71.9 69.48 69.46 74.02C67.01 78.56 14.67 145.74 14.67 145.74C14.67 145.74 71.12 76.93 72.3 73.94C73.48 70.95 75.87 47.22 75.87 47.22L92.78 32.06L88.12 34.09L90.99 27.24L78.59 40.45L82.83 30.16L79.47 31.26L79.46 31.28Z" fill="#630018"/>
<defs>
<linearGradient id="paint0_linear_2_734" x1="5.01001" y1="89.3699" x2="96.64" y2="89.3699" gradientUnits="userSpaceOnUse">
<stop stop-color="#958B9D"/>
<stop offset="1" stop-color="#C2929D"/>
</linearGradient>
</defs>
</svg>
