<svg width="26" height="50" viewBox="0 0 26 50" fill="none" xmlns="http://www.w3.org/2000/svg">
<path d="M25.91 9.89001L19.4 5.87V3.39001H13.66H13.17H7.42999V5.87L0.919983 9.89001L7.42999 49.85L13.17 49.92V49.93L13.41 49.92L13.66 49.93V49.92L19.4 49.85L22.66 27.96L25.91 9.89001Z" fill="white"/>
<path d="M2.07001 16.95H24.64L22.66 27.96H3.85999L2.07001 16.95Z" fill="#C093C4"/>
<g style="mix-blend-mode:multiply" opacity="0.26">
<path d="M7.42999 3.79004H19.4V5.87003L25.91 9.89005L19.4 49.85H7.42999L6.62 44.89L14.1 44.36L20.51 10.83L16.26 6.01004L7.42999 4.43002V3.79004Z" fill="#A21800"/>
</g>
<path d="M5.84003 0.75L6.90997 3.79001H20.05L20.99 0.75H5.84003Z" fill="#C093C4"/>
</svg>
