<svg width="154" height="54" viewBox="0 0 154 54" fill="none" xmlns="http://www.w3.org/2000/svg">
<g style="mix-blend-mode:multiply" opacity="0.38">
<path d="M11.9581 45.3L71.5287 53.29H153.757L138.867 41.7L62.8386 36.72L11.9581 45.3Z" fill="#A21800"/>
</g>
<path d="M76.0623 26.9399L69.2272 23.0599L48.9802 17.2999L42.0658 7.60992L29.0307 0.199951L20.2216 23.46L70.3582 41.7L76.0623 26.9399Z" fill="url(#paint0_linear_55_564)"/>
<path d="M67.1638 49.9699L11.9581 45.2999L0.63916 35.4199L0.867365 28.9L20.2216 23.46L70.3582 41.7L67.1638 49.9699Z" fill="#630018"/>
<path d="M20.2215 23.46L0.86734 28.9L9.6764 9.35992L29.0307 0.199951L20.2215 23.46Z" fill="url(#paint1_linear_55_564)"/>
<path d="M7.02773 28.58L9.14073 28L15.1028 36.99L4.7461 39.01L4.17072 38.5L13.6643 36.45L7.02773 28.58Z" fill="#A41D18"/>
<path d="M18.1185 15.77L26.1141 7.88995L29.0307 0.199951L14.1405 7.23993L9.39867 11.8199L18.1185 15.77Z" fill="#630018"/>
<path d="M7.25585 17.6199C8.54547 19.2199 11.2735 20.7699 16.2634 17.0499C19.9834 14.2699 19.9339 9.87991 18.6542 8.27991C17.3646 6.67991 14.7555 8.6899 11.6108 11.2699C8.46612 13.8499 5.97615 16.0199 7.26578 17.6199H7.25585Z" fill="#776A98"/>
<path d="M7.2559 17.6199C8.54552 19.2199 12.1367 18.4199 15.2813 15.8399C18.426 13.2599 19.9339 9.87992 18.6443 8.27992C17.3547 6.67992 13.7635 7.47989 10.6189 10.0599C7.47416 12.6399 5.96628 16.0199 7.2559 17.6199Z" fill="#C093C4"/>
<path style="mix-blend-mode:color-dodge" opacity="0.5" d="M14.4579 45.5099L37.076 31.45L70.3582 41.7L67.1638 49.9699L14.4579 45.5099Z" fill="url(#paint2_linear_55_564)"/>
<path opacity="0.43" d="M48.9802 17.2999L31.4016 15.3999L42.0658 7.60986L48.9802 17.2999Z" fill="#630018"/>
<path opacity="0.43" d="M48.9802 17.2999L42.9189 21.28C42.9189 21.28 41.3317 25.7399 44.2681 26.0599C47.2045 26.3799 51.0138 17.8799 51.0138 17.8799L48.9802 17.2999Z" fill="#630018"/>
<defs>
<linearGradient id="paint0_linear_55_564" x1="74.4484" y1="31.1444" x2="24.4479" y2="12.2134" gradientUnits="userSpaceOnUse">
<stop stop-color="#F4BF4F"/>
<stop offset="1" stop-color="#FF5032"/>
</linearGradient>
<linearGradient id="paint1_linear_55_564" x1="0.86734" y1="14.55" x2="29.0307" y2="14.55" gradientUnits="userSpaceOnUse">
<stop stop-color="#F4BF4F"/>
<stop offset="1" stop-color="#FF5032"/>
</linearGradient>
<linearGradient id="paint2_linear_55_564" x1="46.5129" y1="32.6844" x2="38.0296" y2="54.7345" gradientUnits="userSpaceOnUse">
<stop/>
<stop offset="1" stop-color="#FC6B6B"/>
</linearGradient>
</defs>
</svg>
