<svg width="112" height="136" viewBox="0 0 112 136" fill="none" xmlns="http://www.w3.org/2000/svg">
<path d="M94.3121 21.36C92.6256 23.06 88.7171 24.34 85.3442 25.16C82.1995 25.93 79.5012 26.32 79.5012 26.32L74.2833 26.21H74.2733L72.6563 26.17H72.1206L68.0038 26.07L65.99 26.03L57.9447 25.84L54.2742 25.75L51.9827 25.71L37.8564 25.39H37.8266L22.8372 25.05H22.8075L21.5873 25.02L9.8914 24.76H9.82195L0.953314 24.56C0.953314 24.56 -0.266868 22.81 0.953314 21.6C2.16357 20.38 7.78833 18.88 7.78833 14.34C7.78833 11 6.24078 9.18003 4.40554 7.44003C3.74089 6.80003 3.02662 6.17004 2.34213 5.48004C-0.247033 2.87004 9.81204 0.420044 23.4721 0.420044C37.1322 0.420044 53.4112 3.17004 53.4112 3.17004C53.4112 3.17004 53.8279 3.26002 54.6314 3.49002C57.4586 4.29002 65.1865 6.77003 77.8049 12.94C94.074 20.89 97.5659 18.08 94.3021 21.38L94.3121 21.36Z" fill="url(#paint0_linear_55_469)"/>
<g style="mix-blend-mode:multiply" opacity="0.26">
<path d="M85.0466 20.2201C85.0466 20.2201 58.9367 7.75006 45.6735 6.22006C32.4102 4.68006 20.8929 3.32007 15.9824 3.32007H11.0719C11.0719 3.32007 21.2401 4.34007 32.926 9.98007C44.612 15.6201 56.6452 16.4401 56.6452 16.4401C56.6452 16.4401 39.3642 13.36 28.8588 13.36C18.3533 13.36 14.286 16.4401 14.286 16.4401C14.286 16.4401 33.0947 13.4801 43.0843 17.4501C53.0838 21.4201 68.0633 20.0801 70.4045 22.4401C72.7555 24.8101 72.1008 26.1401 72.1008 26.1401L79.4913 26.3101L85.0367 20.2201H85.0466Z" fill="#A21800"/>
</g>
<path d="M29.9202 5.37006C29.9202 5.37006 14.1174 1.90007 11.0719 3.32007C8.02638 4.74007 11.4091 8.43005 12.54 13.36C13.6709 18.29 9.83185 24.7501 9.83185 24.7501H11.0719C11.0719 24.7501 15.903 18.35 14.3753 13.86C12.8476 9.38005 10.3973 5.71007 13.1849 4.51007C15.9824 3.31007 29.9202 6.13007 29.9202 6.13007V5.36005V5.37006Z" fill="#776A98"/>
<path d="M37.8365 7.41003C37.8365 7.41003 32.0828 8.13004 27.331 11.85C22.5792 15.57 21.5674 25.17 21.5674 25.17L22.8372 25.03C22.8372 25.03 22.5693 17.2 28.5115 12.7C34.4636 8.20004 37.8266 8.43002 37.8266 8.43002V7.41003H37.8365Z" fill="#776A98"/>
<path d="M44.9493 10.75C44.9493 10.75 42.1518 14.25 40.2074 18.69C38.2631 23.13 37.8365 25.38 37.8365 25.38L39.9495 25.18C39.9495 25.18 41.5566 18.89 43.2529 14.82C44.9493 10.75 45.6238 10.75 45.6238 10.75H44.9493Z" fill="#776A98"/>
<path d="M54.2643 12.4501C54.2643 12.4501 51.9728 21.5901 51.9728 22.9501V25.6901L54.2643 25.7401C54.2643 25.7401 53.0243 24.0901 53.6394 20.7301C54.2644 17.3701 55.048 13.8501 55.048 13.8501L54.2544 12.4401L54.2643 12.4501Z" fill="#776A98"/>
<path d="M65.9701 19.73V26.01L67.9938 26.05L67.3589 20.05L65.9701 19.73Z" fill="#776A98"/>
<path style="mix-blend-mode:multiply" d="M20.6647 1.18C20.6647 1.18 33.0054 7.33001 41.7252 11.94C50.4451 16.55 64.6904 19.38 67.349 20.05C70.0175 20.73 72.9738 19.1 72.9738 19.1C72.9738 19.1 50.2665 12.53 46.2885 8.53001C42.3105 4.52001 24.8312 -0.27 20.6548 1.18H20.6647Z" fill="url(#paint1_linear_55_469)"/>
<path d="M111.653 59.49C111.653 60.32 110.264 64.04 107.972 68.86C107.744 69.3 107.536 69.76 107.288 70.22C106.831 71.15 106.345 72.11 105.839 73.08L104.629 94.42L103.875 95.19V76.67C102.536 79.02 101.058 81.4 99.5003 83.67V104.32L98.1511 104.82V85.6H98.1413C96.6731 87.62 95.1255 89.48 93.568 91.09L92.9034 111.06L91.0384 112.69L91.9808 92.75C91.6832 93.07 91.3856 93.39 91.088 93.7H91.078C90.0166 94.87 88.975 96.06 87.9829 97.27L87.5663 122.25L85.7608 122.77L86.5148 99.07C86.2469 99.39 85.9989 99.67 85.7509 99.99C85.4831 100.31 85.2252 100.63 84.9672 100.96C84.6795 101.35 84.3819 101.72 84.0744 102.08L82.3285 125.51L81.5646 126.11L82.1301 104.58C82.1301 104.58 82.1301 104.59 82.1201 104.59C79.3028 108.23 76.9319 111.28 75.1264 112.84V135.15H73.0928V113.95H73.0035C71.8825 113.95 71.0294 107.39 70.3151 98.38C70.2755 97.99 70.2457 97.62 70.2159 97.23C69.9283 93.48 69.6902 89.35 69.4521 85.14C69.4223 84.58 69.3926 83.99 69.3529 83.42C69.214 80.71 69.0652 77.98 68.9362 75.28C68.8469 73.48 68.7676 71.68 68.6783 69.95C68.6684 69.52 68.6386 69.1 68.6188 68.68C68.4204 64.83 68.2518 61.25 68.0831 58.17C68.0533 57.48 68.0236 56.82 67.9839 56.19C67.7855 52.62 67.5673 49.93 67.3689 48.6C67.2697 48 67.1605 47.35 66.972 46.68C66.8728 46.18 66.7141 45.66 66.5554 45.12C65.5733 41.81 63.9662 38.03 62.4385 34.69C62.2004 34.17 61.9425 33.66 61.7143 33.17C59.8295 29.22 58.1629 26.19 57.9447 25.84V25.8C57.9447 25.8 57.9347 25.79 57.9546 25.77C58.3415 25.48 61.6747 22.98 65.9701 23.44C66.2975 23.48 66.6347 23.54 66.982 23.61C66.982 23.61 67.0911 23.64 67.3093 23.68C67.3689 23.69 67.4383 23.71 67.5177 23.72C67.5871 23.73 67.6565 23.75 67.7458 23.76C68.7081 23.95 69.8092 24.12 70.9699 24.25C71.2576 24.29 71.5552 24.34 71.8528 24.36C74.6106 24.68 77.6957 24.89 80.6619 25C82.2689 25.07 83.8463 25.11 85.3045 25.11C85.3045 25.11 85.3144 25.11 85.3343 25.11C85.7906 25.12 86.2469 25.12 86.6735 25.12C92.7248 25.12 96.7921 24.58 101.365 24.58C105.939 24.58 110.343 26.97 110.343 26.97C110.343 26.97 110.383 28.36 110.482 30.58C110.512 31.2 110.541 31.85 110.581 32.6C110.72 36.01 110.918 40.53 111.097 44.9C111.107 45.39 111.137 45.86 111.166 46.35C111.295 49.83 111.434 53.11 111.533 55.53C111.543 55.95 111.543 56.36 111.563 56.73C111.623 58.16 111.653 59.14 111.653 59.45V59.49Z" fill="url(#paint2_linear_55_469)"/>
<path d="M110.591 32.64C107.595 33.6 99.163 36.03 96.1175 34.72C92.8934 33.3 84.8878 31.55 79.7393 31.61C78.9556 31.62 78.2215 31.67 77.5965 31.77C77.0311 31.86 76.3862 31.97 75.6918 32.1C70.5333 33 62.4484 34.72 62.4484 34.72C62.2103 34.2 61.9524 33.69 61.7242 33.2C63.2023 32.64 68.1227 30.99 75.1363 30.61C76.0986 30.55 77.1104 30.52 78.162 30.52C78.529 30.52 78.8961 30.52 79.273 30.53C88.8758 30.7 95.9091 33.01 103.062 31.76C107.169 31.04 109.371 30.74 110.512 30.61C110.541 31.23 110.571 31.88 110.611 32.63L110.591 32.64Z" fill="#776A98"/>
<path d="M111.176 46.39C108.934 47.36 105.581 48.62 102.784 48.62C102.119 48.62 101.276 48.53 100.314 48.38C99.5895 48.25 98.796 48.09 97.9527 47.91C92.2685 46.68 84.5009 44.24 81.5547 44.24C81.3959 44.24 81.2273 44.24 81.0388 44.25C80.1857 44.29 79.0944 44.42 77.8743 44.59C74.055 45.16 69.0651 46.24 66.972 46.7C66.8728 46.2 66.7141 45.68 66.5554 45.14C67.9343 44.58 71.7238 43.29 77.7949 43.19C78.777 43.16 79.7988 43.18 80.89 43.23C82.13 43.27 83.4197 43.37 84.7986 43.55C92.1693 44.44 95.6512 45.87 98.409 46.66C99.0737 46.85 99.6987 46.99 100.343 47.09C101.435 47.25 102.546 47.23 103.915 46.95C106.752 46.36 109.331 45.56 111.107 44.94C111.117 45.43 111.147 45.9 111.176 46.39Z" fill="#776A98"/>
<path d="M111.573 56.7801C109.053 57.3701 104.45 58.33 99.2424 58.8C97.7643 58.93 96.2266 59.0301 94.6989 59.0701C94.1831 59.0801 93.6573 59.08 93.1514 59.08C89.0643 59.08 85.989 58.84 83.4593 58.55C80.8305 58.25 78.7869 57.8901 76.8227 57.6901C75.8803 57.5901 74.9578 57.5301 74.0054 57.5301C71.0889 57.5301 69.1743 57.8901 68.0831 58.1901C68.0533 57.5001 68.0236 56.8401 67.9839 56.2101C69.829 56.0801 72.944 55.9501 77.1799 56.1201C78.9457 56.1901 80.9 56.3101 83.0526 56.5101C84.62 56.6501 86.2965 56.8401 88.0524 57.0701C90.5126 57.4001 92.8835 57.5401 95.1255 57.5601C96.6135 57.5701 98.0519 57.5501 99.4209 57.4601C104.817 57.1401 109.143 56.2001 111.553 55.5701C111.563 55.9901 111.563 56.4001 111.583 56.7701L111.573 56.7801Z" fill="#776A98"/>
<path d="M107.972 68.86C107.744 69.3 107.536 69.76 107.288 70.22C106.891 70.33 106.444 70.43 105.978 70.55C105.343 70.71 104.639 70.8501 103.875 71.0101C102.03 71.3501 99.8276 71.6801 97.2285 71.9401C95.5917 72.0801 93.816 72.21 91.8716 72.3C91.088 72.34 90.3241 72.36 89.5702 72.36C89.0444 72.37 88.5484 72.3701 88.0325 72.3701C80.8404 72.3601 75.1264 71.4401 71.6642 70.7101C70.3052 70.4201 69.2735 70.15 68.6683 69.98C68.6584 69.55 68.6287 69.1301 68.6088 68.7101C68.6088 68.7101 70.077 68.95 72.3983 69.3C75.9894 69.82 81.6241 70.5601 87.0802 70.9601C88.2309 71.0301 89.3817 71.1001 90.4927 71.1501H90.5027C93.0224 71.2401 95.3933 71.24 97.3773 71.04C97.5162 71.04 97.665 71.0301 97.794 71.0101C101.187 70.6501 103.915 70.0801 106.018 69.4901H106.028C106.752 69.2801 107.387 69.0701 107.962 68.8701L107.972 68.86Z" fill="#776A98"/>
<path d="M99.5003 83.7001C99.1333 84.2501 98.7563 84.78 98.3793 85.3C95.4926 85.75 90.6019 86.2801 83.757 86.2801C75.9101 86.2801 71.4956 85.6 69.4422 85.16C69.4124 84.6 69.3926 84.0301 69.343 83.4501C72.071 83.8701 78.529 84.73 85.3442 84.73C91.0483 84.73 96.3655 84.1301 99.4904 83.6901L99.5003 83.7001Z" fill="#776A98"/>
<path d="M85.741 99.98C85.4731 100.31 85.2152 100.64 84.9572 100.96C83.0228 100.92 79.7293 100.71 76.545 100.06C73.4995 99.42 71.4361 98.79 70.3151 98.39C70.2754 98.01 70.2456 97.63 70.2159 97.24C72.7455 97.92 76.912 99 79.6896 99.62C81.763 100.08 84.0148 100.08 85.7508 99.98H85.741Z" fill="#776A98"/>
<g style="mix-blend-mode:multiply" opacity="0.26">
<path d="M111.662 59.5C111.662 60.32 110.264 64.05 107.972 68.86C107.754 69.31 107.536 69.76 107.298 70.23C105.224 74.45 102.536 79.3 99.5003 83.69C99.1333 84.25 98.7563 84.78 98.3793 85.3C96.7822 87.51 95.1156 89.55 93.4093 91.27C92.6256 92.06 91.8518 92.88 91.088 93.72C91.2368 93.42 93.7962 88.49 95.4231 81.52C97.0996 74.33 102.377 41.75 99.5003 44.66C96.6235 47.56 91.8717 76.26 88.0326 72.38C84.1836 68.51 85.741 41.38 85.741 34.2C85.741 27.71 71.2476 23.42 67.3093 23.72C72.4579 23.33 80.7511 25.18 86.6735 25.18C92.5958 25.18 96.7822 24.63 101.365 24.63C105.948 24.63 110.333 27.02 110.333 27.02C110.333 27.02 110.383 28.41 110.482 30.63C110.512 31.24 110.532 31.91 110.581 32.65C110.73 36.07 110.918 40.59 111.097 44.96C111.107 45.44 111.137 45.92 111.166 46.39C111.305 49.87 111.434 53.15 111.533 55.57C111.543 55.99 111.563 56.4 111.573 56.77C111.623 58.2 111.653 59.19 111.653 59.5H111.662Z" fill="#A21800"/>
</g>
<path style="mix-blend-mode:color-dodge" opacity="0.46" d="M18.2045 3.32004V3.38004C18.2937 3.71004 18.5913 4.07003 19.1469 4.44003C19.7321 4.83003 20.5853 5.24003 21.7658 5.66003C21.7757 5.66003 21.7955 5.67004 21.8055 5.67004C22.2023 5.81004 22.6288 5.94003 23.0951 6.09003C23.2637 6.15003 23.4224 6.19003 23.6109 6.25003C23.6804 6.26003 23.7498 6.29003 23.8192 6.31003C25.7239 6.85003 28.819 7.87002 32.2415 9.05002C32.7276 9.21002 33.2037 9.38002 33.7097 9.55002C36.9734 10.68 40.4455 11.9 43.3818 12.96C43.5802 13.03 43.7786 13.1 43.977 13.16C46.8638 14.21 49.1951 15.05 50.2268 15.42C50.6236 15.58 50.8418 15.65 50.8418 15.65C50.8418 15.65 48.1138 15.61 43.2727 14.78C42.9751 14.72 42.6577 14.67 42.3303 14.61C41.4474 14.45 40.5149 14.27 39.5031 14.05C36.775 13.46 33.6204 12.67 30.0987 11.6C30.0987 11.59 30.0888 11.6 30.0888 11.6C29.5531 11.43 29.0075 11.26 28.452 11.07C28.1246 10.97 27.7973 10.87 27.4699 10.75C21.1309 8.66003 15.903 7.76003 12.0242 7.41003C11.429 7.37003 10.8734 7.32002 10.3377 7.30002C6.51846 7.09002 4.41539 7.43002 4.41539 7.43002C3.75073 6.79002 3.0365 6.16003 2.352 5.47003C-0.237162 2.86003 9.82188 0.410034 23.482 0.410034C37.142 0.410034 53.4211 3.16003 53.4211 3.16003C53.4211 3.16003 53.8377 3.25004 54.6412 3.48004C53.8278 3.69004 51.685 4.00003 46.8241 3.34003C42.9057 2.80003 35.2771 2.07002 29.077 1.74002C25.9918 1.58002 23.2836 1.53004 21.5277 1.63004C20.7738 1.67004 20.2083 1.76003 19.8611 1.87003C18.7401 2.24003 18.1152 2.76004 18.1945 3.35004L18.2045 3.32004Z" fill="url(#paint3_linear_55_469)"/>
<path style="mix-blend-mode:color-dodge" opacity="0.46" d="M77.9735 48.62C77.9735 51.18 77.6759 53.7 77.16 56.13C77.0509 56.66 76.9319 57.18 76.8029 57.69C75.7216 62.06 74.0451 66.04 72.3983 69.29C72.1602 69.78 71.9023 70.25 71.6642 70.71C70.6524 72.59 69.6901 74.15 68.9263 75.31C68.837 73.51 68.7576 71.71 68.6684 69.98C68.6584 69.55 68.6287 69.13 68.6088 68.71C68.4104 64.86 68.2418 61.28 68.0731 58.2C68.0434 57.51 68.0136 56.85 67.9739 56.22C67.7755 52.65 67.5573 49.96 67.3589 48.63C67.2597 48.03 67.1506 47.38 66.9621 46.71C66.8629 46.21 66.7042 45.69 66.5454 45.15C65.5633 41.84 63.9563 38.06 62.4286 34.72C62.1905 34.2 61.9325 33.69 61.7044 33.2C59.8195 29.25 58.153 26.22 57.9347 25.87V25.83C57.9347 25.83 57.9248 25.82 57.9447 25.8C58.3315 25.51 61.6647 23.01 65.9601 23.47C66.2875 23.51 66.6248 23.57 66.972 23.64C66.972 23.64 67.0811 23.67 67.2994 23.71C67.3589 23.72 67.4283 23.74 67.5077 23.75C67.5771 23.76 67.6466 23.78 67.7359 23.79C68.6981 23.98 69.7993 24.15 70.9599 24.28C71.2278 24.52 71.4857 24.78 71.7238 25.07C71.8825 25.23 72.0412 25.4 72.1801 25.57C72.3388 25.76 72.4777 25.96 72.6166 26.16H72.6265C73.5689 27.41 74.3923 28.9 75.0966 30.61C75.295 31.08 75.4835 31.58 75.6521 32.1C76.7136 35.15 77.4378 38.85 77.7651 43.2C77.7949 43.66 77.8247 44.13 77.8346 44.6C77.9239 45.89 77.9437 47.22 77.9437 48.62H77.9735Z" fill="url(#paint4_linear_55_469)"/>
<defs>
<linearGradient id="paint0_linear_55_469" x1="0.417624" y1="13.36" x2="95.4231" y2="13.36" gradientUnits="userSpaceOnUse">
<stop stop-color="#FFFFE1"/>
<stop offset="1" stop-color="#E2D1C7"/>
</linearGradient>
<linearGradient id="paint1_linear_55_469" x1="20.6647" y1="10.56" x2="72.9936" y2="10.56" gradientUnits="userSpaceOnUse">
<stop stop-color="#958B9D"/>
<stop offset="1" stop-color="#C2929D"/>
</linearGradient>
<linearGradient id="paint2_linear_55_469" x1="57.9248" y1="79.28" x2="111.653" y2="79.28" gradientUnits="userSpaceOnUse">
<stop stop-color="#FFFFE1"/>
<stop offset="1" stop-color="#E2D1C7"/>
</linearGradient>
<linearGradient id="paint3_linear_55_469" x1="28.2933" y1="15.64" x2="28.2933" y2="0.400034" gradientUnits="userSpaceOnUse">
<stop/>
<stop offset="1" stop-color="#FCED00"/>
</linearGradient>
<linearGradient id="paint4_linear_55_469" x1="67.9541" y1="75.3" x2="67.9541" y2="23.4" gradientUnits="userSpaceOnUse">
<stop/>
<stop offset="1" stop-color="#FCED00"/>
</linearGradient>
</defs>
</svg>
