<svg width="112" height="14" viewBox="0 0 112 14" fill="none" xmlns="http://www.w3.org/2000/svg">
<path d="M66.5556 10.91C66.5556 11.52 66.0596 12.0201 65.4544 12.0201C64.8493 12.0201 64.3533 11.52 64.3533 10.91C64.3533 10.3 64.8493 9.80005 65.4544 9.80005C66.0596 9.80005 66.5556 10.3 66.5556 10.91Z" fill="#591800"/>
<path d="M2.58036 10.91C2.58036 11.52 2.08431 12.0201 1.47918 12.0201C0.874046 12.0201 0.378052 11.52 0.378052 10.91C0.378052 10.3 0.874046 9.80005 1.47918 9.80005C2.08431 9.80005 2.58036 10.3 2.58036 10.91Z" fill="#591800"/>
<path d="M49.9393 10.91C49.9393 11.52 49.4433 12.0201 48.8381 12.0201C48.233 12.0201 47.737 11.52 47.737 10.91C47.737 10.3 48.233 9.80005 48.8381 9.80005C49.4433 9.80005 49.9393 10.3 49.9393 10.91Z" fill="#591800"/>
<path d="M111.722 9.80005C111.722 10.41 110.621 10.91 109.262 10.91C107.903 10.91 106.802 10.41 106.802 9.80005C106.802 9.19005 107.903 8.69006 109.262 8.69006C110.621 8.69006 111.722 9.19005 111.722 9.80005Z" fill="#591800"/>
<path d="M45.0883 12.0201C45.0883 12.6301 43.9872 13.1301 42.6281 13.1301C41.269 13.1301 40.1679 12.6301 40.1679 12.0201C40.1679 11.4101 41.269 10.91 42.6281 10.91C43.9872 10.91 45.0883 11.4101 45.0883 12.0201Z" fill="#591800"/>
<path d="M79.9973 1.02005C80.027 1.35005 78.5193 1.75006 76.6444 1.90006C74.7595 2.06006 73.2119 1.92006 73.192 1.59006C73.1623 1.26006 74.6701 0.860055 76.5451 0.710055C78.4299 0.550055 79.9774 0.690053 79.9973 1.02005Z" fill="#591800"/>
</svg>
