<svg width="87" height="11" viewBox="0 0 87 11" fill="none" xmlns="http://www.w3.org/2000/svg">
<path d="M51.4646 8.39001C51.4646 8.87001 51.0777 9.25 50.6114 9.25C50.1452 9.25 49.7583 8.86001 49.7583 8.39001C49.7583 7.92001 50.1452 7.53003 50.6114 7.53003C51.0777 7.53003 51.4646 7.92001 51.4646 8.39001Z" fill="white"/>
<path d="M1.76453 8.39001C1.76453 8.87001 1.37766 9.25 0.911409 9.25C0.445161 9.25 0.0582886 8.86001 0.0582886 8.39001C0.0582886 7.92001 0.445161 7.53003 0.911409 7.53003C1.37766 7.53003 1.76453 7.92001 1.76453 8.39001Z" fill="white"/>
<path d="M38.5585 8.39001C38.5585 8.87001 38.1716 9.25 37.7054 9.25C37.2391 9.25 36.8522 8.86001 36.8522 8.39001C36.8522 7.92001 37.2391 7.53003 37.7054 7.53003C38.1716 7.53003 38.5585 7.92001 38.5585 8.39001Z" fill="white"/>
<path d="M84.6377 8.38995C85.6951 8.38995 86.5523 8.00493 86.5523 7.52997C86.5523 7.055 85.6951 6.66992 84.6377 6.66992C83.5803 6.66992 82.723 7.055 82.723 7.52997C82.723 8.00493 83.5803 8.38995 84.6377 8.38995Z" fill="white"/>
<path d="M34.7888 9.25C34.7888 9.73 33.9356 10.11 32.8742 10.11C31.8127 10.11 30.9596 9.72 30.9596 9.25C30.9596 8.78 31.8127 8.39001 32.8742 8.39001C33.9356 8.39001 34.7888 8.78 34.7888 9.25Z" fill="white"/>
<path d="M61.9105 0.709997C61.9304 0.969997 60.7598 1.27 59.3015 1.4C57.8433 1.53 56.643 1.40995 56.6132 1.15995C56.5934 0.899948 57.7639 0.599946 59.2222 0.469946C60.6805 0.349946 61.8808 0.459997 61.9105 0.709997Z" fill="white"/>
</svg>
