<svg width="42" height="17" viewBox="0 0 42 17" fill="none" xmlns="http://www.w3.org/2000/svg">
<path d="M9.61428 16.02C9.61428 16.02 -0.345622 7.02005 0.517433 6.14005C1.38049 5.26005 5.06089 5.83004 6.18187 4.70004C7.30285 3.57004 8.35441 0.290039 12.2134 0.290039C16.0723 0.290039 22.9668 8.15002 24.4945 8.15002C26.0222 8.15002 30.6351 4.38002 34.9008 5.77002C39.1665 7.17002 30.7144 13.72 30.7144 13.72C30.7144 13.72 37.1031 12.99 38.5415 14.44C39.9799 15.89 41.1207 16.03 41.1207 16.03L9.61428 16.01V16.02Z" fill="white"/>
<g style="mix-blend-mode:multiply" opacity="0.2">
<path d="M2.85864 9.42001C2.85864 9.42001 8.68176 12.86 10.894 12.86C13.1062 12.86 11.8959 7.12 11.8959 7.12C11.8959 7.12 17.7686 10.95 19.1971 12.38C20.6157 13.81 29.5538 6.98 30.7244 8.16C31.895 9.34 27.1531 11.32 27.1531 12.85C27.1531 14.38 35.0595 16.09 35.0595 16.09L9.63408 16.01L2.86851 9.41L2.85864 9.42001Z" fill="#A21800"/>
</g>
</svg>
