<svg width="75" height="75" viewBox="0 0 75 75" fill="none" xmlns="http://www.w3.org/2000/svg">
<g style="mix-blend-mode:multiply" opacity="0.26">
<path d="M3.01917 7.06006L5.24127 74.9401H66.042L64.7326 69.7401L23.1472 35.0901L3.01917 7.06006Z" fill="#A21800"/>
</g>
<path d="M9.32836 72.74L2.87032 5.51001L71.5973 5C71.5973 5 65.0897 44.38 68.1253 69.56L9.32836 72.74Z" fill="white"/>
<path d="M0.578735 12.3699L12.4829 0.949951V2.58994L15.3598 0.949951L14.5265 2.46994L18.2764 1.70993L2.0271 15.8599V14.67L0.578735 14.8799V12.3699Z" fill="url(#paint0_linear_55_719)"/>
<path d="M58.344 2.46997L73.254 15.86L71.5973 13.43L74.5634 14.67L73.6111 11.98L63.3139 1.70996L62.9568 3.52997L58.344 2.46997Z" fill="url(#paint1_linear_55_719)"/>
<g style="mix-blend-mode:multiply" opacity="0.26">
<path d="M23.9904 60.2399L18.2863 19.2899L55.854 17.9099C55.854 17.9099 52.9474 47.7299 54.8421 57.2999L23.9904 60.2399Z" fill="#A21800"/>
</g>
<defs>
<linearGradient id="paint0_linear_55_719" x1="0.588656" y1="8.37994" x2="18.2565" y2="8.43898" gradientUnits="userSpaceOnUse">
<stop stop-color="#8B2C52"/>
<stop offset="1" stop-color="#660045"/>
</linearGradient>
<linearGradient id="paint1_linear_55_719" x1="58.3241" y1="8.75996" x2="74.5734" y2="8.80916" gradientUnits="userSpaceOnUse">
<stop stop-color="#8B2C52"/>
<stop offset="1" stop-color="#660045"/>
</linearGradient>
</defs>
</svg>
