<svg width="105" height="78" viewBox="0 0 105 78" fill="none" xmlns="http://www.w3.org/2000/svg">
<path d="M104.311 71.39L90.3935 72.24L88.3003 72.36H88.2706L78.5686 72.93L74.6005 73.16H74.5906L61.992 73.91L57.3891 74.19L47.8855 74.76L42.6973 75.06L0.546448 77.58L4.91135 70.95C4.91135 70.95 3.87965 60.18 3.54236 46.39C3.45308 41.91 3.4134 37.11 3.5126 32.27C3.64156 26.11 4.2963 20.7 5.15935 16.18C7.06403 6.12999 9.88134 0.380005 9.88134 0.380005C9.88134 0.380005 28.0154 4.73998 44.3738 6.59998L48.1831 7.01001C51.9925 7.34001 55.6133 7.53 58.7779 7.44C59.2143 7.44 59.6608 7.42002 60.0973 7.40002L60.3155 7.38C63.4999 7.19 66.6049 6.84997 69.5115 6.40997C70.9102 6.19997 72.2594 5.95001 73.5887 5.70001C76.0985 5.21001 78.4397 4.68001 80.5229 4.14001L80.9296 4.02002C81.9117 3.77002 82.8343 3.51002 83.6875 3.27002L84.3025 3.10999C88.6773 1.80999 91.3061 0.75 91.3061 0.75C91.3061 0.75 94.6095 29 94.5004 42.88C94.4211 56.76 96.4745 62 96.4745 62L104.311 71.38V71.39Z" fill="url(#paint0_linear_55_458)"/>
<path d="M18.0952 2.21991C18.0952 2.21991 11.1809 15.4699 10.4865 32.8799C9.79207 50.2899 13.284 69.7999 13.284 69.7999L9.73254 77.0399L16.756 76.6199C16.756 76.6199 18.3433 69.9999 18.6111 69.1299C18.879 68.2599 16.1707 45.8999 16.1112 31.8699C16.0517 17.8399 23.0157 3.19995 23.0157 3.19995L18.0952 2.19995V2.21991Z" fill="#776A98"/>
<path d="M31.1205 4.69995C31.1205 4.69995 24.464 17.5499 25.1584 31.3599C25.8528 45.1699 28.2833 65.6099 27.9757 68.5099C27.6682 71.4099 25.5155 76.1099 25.5155 76.1099L31.0907 75.78C31.0907 75.78 33.3822 71.4799 32.9656 68.1299C32.539 64.7799 29.5927 36.9399 29.434 30.3599C29.2753 23.7799 36.3384 5.54993 36.3384 5.54993L31.1403 4.70996L31.1205 4.69995Z" fill="#776A98"/>
<path d="M44.3738 6.63C44.3738 6.63 40.0288 17.7 38.9971 30.63C37.9654 43.56 42.9353 67.13 42.9155 69.02C42.8956 70.91 42.7072 75.08 42.7072 75.08L47.8855 74.77C47.8855 74.77 47.1712 69.73 46.705 63.68C46.2487 57.63 42.6873 37.28 43.5504 28.76C44.4134 20.24 48.193 7.03003 48.193 7.03003L44.3738 6.63Z" fill="#776A98"/>
<path d="M56.2086 7.65997C56.2086 7.65997 53.5202 17.51 54.5817 37C55.5638 55.05 57.409 74.25 57.409 74.25L62.002 73.98C62.002 73.98 59.145 50.72 58.272 36.28C57.6074 25.31 60.3255 7.34998 60.3255 7.34998L56.2086 7.66998V7.65997Z" fill="#776A98"/>
<path d="M81.0983 72.7399L74.6105 73.2399C74.6105 73.2399 74.6105 73.2099 74.6105 73.1699H74.6006C74.3823 71.8499 70.7416 51.1599 69.7595 35.8199C68.827 21.5299 69.3826 8.77992 69.5115 6.41992C70.9202 6.19992 72.2694 5.95996 73.5888 5.70996C73.2812 8.74996 71.9122 23.64 73.549 38.58C75.3644 55.31 81.1082 72.7299 81.1082 72.7299L81.0983 72.7399Z" fill="#776A98"/>
<path d="M98.5478 71.75L92.2981 72.12C92.2981 72.12 88.0325 65.89 85.1755 50.43C82.3284 34.99 80.5229 4.15002 80.5229 4.15002L80.9296 4.03998L83.6874 3.28998L84.2925 3.12C84.2925 3.12 87.6456 43.92 89.6792 53.94C91.0482 60.61 97.288 69.92 98.5478 71.75Z" fill="#776A98"/>
<path style="mix-blend-mode:color-dodge" d="M104.311 71.4L94.5004 71.99C94.5004 71.99 90.6812 33.61 75.7414 22.36C60.8016 11.11 5.25852 17.06 5.25852 17.06L5.14941 16.2C7.04417 6.15001 9.87143 0.400024 9.87143 0.400024C9.87143 0.400024 28.0055 4.75 44.3738 6.63L48.1831 7.03003C51.9925 7.37003 55.6133 7.55002 58.7778 7.46002C59.2243 7.46002 59.6607 7.42997 60.0873 7.40997L60.3056 7.39001C63.4999 7.21001 66.595 6.85998 69.5016 6.41998C70.9103 6.19998 72.2594 5.96002 73.5788 5.71002C76.0886 5.22002 78.4297 4.69002 80.513 4.15002L80.9197 4.03998C81.9117 3.78998 82.8244 3.52998 83.6775 3.28998L84.2826 3.12C88.6674 1.82 91.2962 0.75 91.2962 0.75C91.2962 0.75 94.5897 29.01 94.4905 42.88C94.4012 56.76 96.4547 62 96.4547 62L104.302 71.39L104.311 71.4Z" fill="url(#paint1_linear_55_458)"/>
<g style="mix-blend-mode:multiply" opacity="0.71">
<path d="M88.3003 72.36H88.2706L78.5686 72.93L74.6005 73.16H74.5906L61.992 73.91L57.3891 74.19L47.8855 74.76L42.6973 75.06L0.546448 77.58L4.91135 70.95C4.91135 70.95 3.87965 60.18 3.54236 46.39C10.298 51.58 22.0237 57.58 41.4771 59.81C78.5587 64.06 88.3003 72.35 88.3003 72.35V72.36Z" fill="#776A98"/>
</g>
<defs>
<linearGradient id="paint0_linear_55_458" x1="-2.26883" y1="40.4667" x2="101.362" y2="32.6105" gradientUnits="userSpaceOnUse">
<stop stop-color="#958B9D"/>
<stop offset="1" stop-color="#C2929D"/>
</linearGradient>
<linearGradient id="paint1_linear_55_458" x1="6.94" y1="39.7573" x2="101.371" y2="32.5985" gradientUnits="userSpaceOnUse">
<stop/>
<stop offset="1" stop-color="#505400"/>
</linearGradient>
</defs>
</svg>
