<svg width="66" height="42" viewBox="0 0 66 42" fill="none" xmlns="http://www.w3.org/2000/svg">
<path d="M38.6097 37.47L59.581 36.27L49.2739 34.55L65.3545 32.23L54.0653 32.34L62.9042 30.88L48.2323 28.62L58.4104 27.63L44.5519 25.29L64.303 21.17L50.3056 20.98L62.061 16.87L44.5023 18.32L65.8009 11.05L47.6272 13.71L62.2693 4.96002L37.7367 12.8L51.3472 3.26001L33.6496 10.19C33.6496 10.19 33.6893 16.8 34.969 24.01C36.2487 31.22 38.5998 37.45 38.5998 37.45L38.6097 37.47Z" fill="#668D12"/>
<path d="M33.9671 12.25L63.2316 0.280029L33.7191 15.58L33.9671 12.25Z" fill="#9BAE05"/>
<path d="M34.0662 17.66L61.436 15.47L34.2151 20.05L34.0662 17.66Z" fill="#9BAE05"/>
<path d="M33.5901 11.44L48.5497 2.54004L33.4512 10.01L33.5901 11.44Z" fill="#9BAE05"/>
<path d="M34.6714 22.8401L63.0034 26.6401L35.2269 26.5801L34.6714 22.8401Z" fill="#9BAE05"/>
<path d="M36.4372 30.5801L63.797 34.9401L37.7863 35.3801L36.4372 30.5801Z" fill="#9BAE05"/>
<path d="M38.1236 36.15L55.8311 36.64L38.4907 37.86L38.1236 36.15Z" fill="#9BAE05"/>
<path d="M35.6535 27.53L64.0748 29.3L36.2983 30.59L35.6535 27.53Z" fill="#9BAE05"/>
<path d="M34.2547 7.57007L2.40106 19.3101C2.40106 19.3101 5.94257 40.2701 6.30961 41.0401L38.9867 40.1601L35.3063 14.8601L34.2448 7.57007H34.2547Z" fill="url(#paint0_linear_55_101)"/>
<path d="M2.64906 20.8L0.883301 21.75L3.79977 39.4201L5.94257 39.6401L2.64906 20.8Z" fill="#42012F"/>
<path opacity="0.07" d="M36.7248 22.5L15.3271 36.13L6.89493 24.63L6.6568 17.74L2.411 19.31L6.31955 41.04L38.9966 40.16L36.7248 22.5Z" fill="#B3015C"/>
<path d="M25.1579 10.9301L31.0605 17.3901L27.3305 24.0701L33.1834 30.2501L30.4057 35.5401L34.0464 40.2901L31.5069 40.36L27.6281 35.83L31.2489 30.4701L25.1778 24.4401L28.8482 17.1101L23.6104 11.5001L25.1579 10.9301Z" fill="white"/>
<path d="M9.77174 16.6001L15.1187 21.4701L11.2201 27.1201L16.8647 32.0601L13.9482 36.5301L17.7773 40.7301L15.2278 40.8001L11.1804 36.8501L14.9402 32.3001L9.05752 27.4801L12.9164 21.3001L8.26385 17.1501L9.77174 16.6001Z" fill="white"/>
<path d="M17.0928 13.9L22.3208 19.01L17.7773 27.03L22.9656 31.26L19.3249 36.81L23.0152 40.59L25.8722 40.51L20.8328 36.56L25.2075 30.99L19.2257 26.79L23.7691 18.46L18.8388 13.25L17.0928 13.9Z" fill="white"/>
<path style="mix-blend-mode:color-dodge" opacity="0.73" d="M33.4512 10.01L34.9789 21.76L5.58545 25.75L4.7422 20.67L33.4512 10.01Z" fill="url(#paint1_linear_55_101)"/>
<defs>
<linearGradient id="paint0_linear_55_101" x1="17.8572" y1="10.3579" x2="23.305" y2="42.8268" gradientUnits="userSpaceOnUse">
<stop stop-color="#958B9D"/>
<stop offset="1" stop-color="#863763"/>
</linearGradient>
<linearGradient id="paint1_linear_55_101" x1="4.79167" y1="20.7614" x2="34.4493" y2="15.9543" gradientUnits="userSpaceOnUse">
<stop/>
<stop offset="1" stop-color="#8B7500"/>
</linearGradient>
</defs>
</svg>
