<svg width="99" height="165" viewBox="0 0 99 165" fill="none" xmlns="http://www.w3.org/2000/svg">
<path opacity="0.5" d="M90.2537 17.9253V31.9353L95.4817 29.7053L98.2097 31.9353L91.6426 131.595L80.5517 131.505L74.808 40.9153L90.2537 17.9253Z" fill="#591800"/>
<path opacity="0.5" d="M2.32129 164.455L95.442 149.305L91.6426 131.595L87.7043 131.705L88.1507 147.265L3.56131 161.305L2.32129 164.455Z" fill="#591800"/>
<path d="M70.7903 18.2352L67.0009 16.1752C67.0009 16.1752 78.0619 -4.5148 88.3293 0.905203C97.1384 5.5452 90.3727 18.1852 86.8511 24.7852C83.3195 31.3852 2.32129 164.455 2.32129 164.455L0 163.195C0 163.195 83.4782 27.1652 86.6527 21.2152C90.6505 13.7252 91.2656 5.41521 87.1288 3.16521C80.7105 -0.314787 70.7903 18.2352 70.7903 18.2352Z" fill="#42012F"/>
<path d="M4.58314 154.625C4.58314 154.625 44.7301 64.7252 47.8351 58.9252C50.9401 53.1152 67.8936 41.3252 67.8936 41.3252L75.9885 21.0652C75.9885 21.0652 75.185 31.5252 78.4487 30.5352C81.7125 29.5552 89.8768 26.5152 89.8768 26.5152L86.3055 34.8152C86.3055 34.8152 86.7122 32.3652 91.0969 31.0452L95.4817 29.7252L77.2385 47.0752C77.2385 47.0752 74.1137 68.0152 71.3261 73.2152C68.5485 78.4152 7.35085 156.195 7.35085 156.195L4.58314 154.635V154.625Z" fill="url(#paint0_linear_55_723)"/>
<path opacity="0.53" d="M78.4388 30.5352L72.6057 42.5352C72.6057 42.5352 65.1756 57.6653 63.7669 64.4553C62.3583 71.2453 44.74 94.6652 44.74 94.6652C44.74 94.6652 65.0764 74.9753 66.4751 67.8353C67.8739 60.6853 71.9708 48.8752 71.9708 48.8752C71.9708 48.8752 70.9391 68.7353 68.5186 73.2753C66.0882 77.8153 14.166 144.995 14.166 144.995C14.166 144.995 70.1654 76.1853 71.336 73.1953C72.5066 70.2052 74.8775 46.4753 74.8775 46.4753L91.6525 31.3152L87.0297 33.3452L89.8768 26.4952L77.5757 39.7053L81.7819 29.4153L78.4487 30.5153L78.4388 30.5352Z" fill="#630018"/>
<path style="mix-blend-mode:color-dodge" d="M50.0373 56.7352L61.3662 57.8952L10.9221 146.925L8.88846 144.995L50.0373 56.7352Z" fill="url(#paint1_linear_55_723)"/>
<defs>
<linearGradient id="paint0_linear_55_723" x1="4.58314" y1="88.6252" x2="95.4817" y2="88.6252" gradientUnits="userSpaceOnUse">
<stop stop-color="#958B9D"/>
<stop offset="1" stop-color="#C2929D"/>
</linearGradient>
<linearGradient id="paint1_linear_55_723" x1="35.1273" y1="146.925" x2="35.1273" y2="56.7352" gradientUnits="userSpaceOnUse">
<stop/>
<stop offset="1" stop-color="#505400"/>
</linearGradient>
</defs>
</svg>
