<svg width="99" height="40" viewBox="0 0 99 40" fill="none" xmlns="http://www.w3.org/2000/svg">
<path opacity="0.5" d="M3.45312 31.54L26.6366 38.36L98.5975 39.2601L91.207 29.2801L58.8077 25.0901H13.9388L3.45312 31.54Z" fill="#A21800"/>
<path d="M51.2882 30.1599L54.5024 21.64L57.3793 21.08L56.0995 14.3599L55.9904 13.78L54.7107 7.06995L51.8339 7.61993L45.7032 0.909912L0.784668 17.53L1.985 24.2599H1.97507L2.03459 24.5499L2.08421 24.84H2.09411L3.45317 31.5399L29.5928 30.4199L51.2882 30.1599Z" fill="white"/>
<path d="M37.777 3.84985L42.8164 30.2599L29.5928 30.4199L25.3966 8.41986L37.777 3.84985Z" fill="#776A98"/>
<g style="mix-blend-mode:multiply" opacity="0.26">
<path d="M54.2445 7.15991L56.9229 21.1699L54.5024 21.64L51.2882 30.1599L3.45317 31.5399L0.784668 17.53L6.3598 15.4699L8.64143 24.1099L48.9967 24.0499L53.6394 17.9999L53.5104 7.29993L54.2445 7.15991Z" fill="#A21800"/>
</g>
<path d="M57.419 4.60986L54.1354 6.54987L57.0618 21.9199L60.8017 22.3499L57.419 4.60986Z" fill="#776A98"/>
</svg>
