<svg width="25" height="50" viewBox="0 0 25 50" fill="none" xmlns="http://www.w3.org/2000/svg">
<path d="M24.8493 9.89001L18.3913 5.87V3.39001H12.6971H12.211H6.51682V5.87L0.0587769 9.89001L6.51682 49.85L12.211 49.92V49.93L12.4491 49.92L12.6971 49.93V49.92L18.3913 49.85L21.6252 27.96L24.8493 9.89001Z" fill="white"/>
<path d="M1.19965 16.95H23.5895L21.6253 27.9599H2.97534L1.19965 16.95Z" fill="#C093C4"/>
<g style="mix-blend-mode:multiply" opacity="0.26">
<path d="M6.51682 3.79004H18.3913V5.87003L24.8493 9.89005L18.3913 49.85H6.51682L5.71329 44.89L13.1336 44.36L19.4924 10.83L15.2763 6.01004L6.51682 4.43002V3.79004Z" fill="#A21800"/>
</g>
<path d="M4.93954 0.75L6.00095 3.79001H19.0361L19.9686 0.75H4.93954Z" fill="#C093C4"/>
</svg>
