<svg width="133" height="65" viewBox="0 0 133 65" fill="none" xmlns="http://www.w3.org/2000/svg">
<path d="M131.973 64.8402L13.8631 60.2802C13.7441 60.2802 13.6548 60.1802 13.6548 60.0602C13.6548 59.9402 13.754 59.8302 13.873 59.8502L130.028 64.3402L0.242717 30.2002C0.133595 30.1702 0.06419 30.0502 0.0939505 29.9402C0.123711 29.8302 0.242702 29.7602 0.351824 29.7902L132.032 64.4302C132.141 64.4602 132.201 64.5602 132.191 64.6702C132.171 64.7802 132.082 64.8502 131.983 64.8502L131.973 64.8402Z" fill="white"/>
<path d="M36.3026 60.8601C36.2331 60.8601 36.1636 60.8201 36.124 60.7601L21.5512 36.7001C21.5512 36.7001 21.5314 36.6601 21.5215 36.6301L13.6647 0.350106C13.635 0.230106 13.7143 0.120096 13.8234 0.090096C13.9326 0.060096 14.0516 0.1401 14.0814 0.2501L21.9381 36.5001L36.4911 60.5301C36.5506 60.6301 36.5208 60.7601 36.4216 60.8301C36.3919 60.8501 36.3521 60.8601 36.3125 60.8601H36.3026Z" fill="white"/>
<path d="M96.9842 63.5101C96.9247 63.5101 96.8553 63.4801 96.8156 63.4301L89.7524 54.0701C89.7524 54.0701 89.7028 53.9701 89.7127 53.9101L91.0421 42.7201C91.052 42.6201 91.1412 42.5401 91.2404 42.5301L102.807 41.6601L115.148 41.4601C115.267 41.4601 115.356 41.5501 115.366 41.6701C115.366 41.7901 115.277 41.8901 115.158 41.8901L102.827 42.0901L91.4488 42.9501L90.1492 53.8801L97.1529 63.1801C97.2223 63.2701 97.2025 63.4101 97.1132 63.4801C97.0735 63.5101 97.0338 63.5201 96.9842 63.5201V63.5101Z" fill="white"/>
<path d="M101.855 63.6801C101.796 63.6801 101.746 63.6601 101.706 63.6101L93.4328 55.0101C93.4328 55.0101 93.3733 54.9201 93.3733 54.8601L93.3336 44.1801C93.3336 44.0701 93.4229 43.9701 93.5321 43.9701L103.988 43.0801L117.083 43.9301C117.202 43.9301 117.291 44.0401 117.281 44.1601C117.281 44.2801 117.172 44.3701 117.053 44.3601L103.988 43.5101L93.7503 44.3901L93.7899 54.7901L102.004 63.3301C102.083 63.4201 102.083 63.5501 102.004 63.6301C101.964 63.6701 101.905 63.6901 101.855 63.6901V63.6801Z" fill="white"/>
</svg>
