<?xml version="1.0" encoding="UTF-8"?>
<svg xmlns="http://www.w3.org/2000/svg" viewBox="0 0 159.38 130.87">
  <defs>
    <style>
      .cls-1 {
        fill: #c39368;
      }

      .cls-1, .cls-2, .cls-3, .cls-4, .cls-5, .cls-6, .cls-7, .cls-8, .cls-9, .cls-10, .cls-11, .cls-12, .cls-13, .cls-14, .cls-15, .cls-16, .cls-17, .cls-18 {
        stroke-width: 0px;
      }

      .cls-2 {
        fill: #ffde00;
      }

      .cls-3 {
        fill: #be5427;
      }

      .cls-4 {
        fill: #9e3c21;
        mix-blend-mode: multiply;
        opacity: .5;
      }

      .cls-5 {
        fill: #82cef3;
      }

      .cls-6 {
        fill: #ee8394;
      }

      .cls-7 {
        fill: #697331;
      }

      .cls-8 {
        fill: #efcaa7;
      }

      .cls-9 {
        fill: #f8f297;
        mix-blend-mode: screen;
        opacity: .3;
      }

      .cls-10 {
        fill: #f8cbc1;
      }

      .cls-11 {
        fill: #3c1c10;
      }

      .cls-12 {
        fill: #f4d9bf;
      }

      .cls-13 {
        fill: #fbaa19;
      }

      .cls-14 {
        fill: #e0f3fd;
      }

      .cls-19 {
        isolation: isolate;
      }

      .cls-15 {
        fill: #d27f28;
      }

      .cls-16 {
        fill: #843b1c;
      }

      .cls-17 {
        fill: #fff;
      }

      .cls-18 {
        fill: #941a26;
      }
    </style>
  </defs>
  <g class="cls-19">
    <g id="Layer_1" data-name="Layer 1">
      <g>
        <path class="cls-13" d="M65.31,3.79s.26-3.38,5.07-3.76c4.8-.39,5.45,3.38,5.45,3.38l-10.52.39Z"/>
        <path class="cls-15" d="M130.13,59.34s15.5,5.45,23.73,13.77c8.23,8.31,6.84,19.74-1.3,22.52-8.14,2.77-14.55,1.12-14.55,1.12l-7.88-37.41Z"/>
        <path class="cls-13" d="M158,91.04c2.64-4.84,1.58-12.14-4.15-17.93-8.23-8.32-23.73-13.77-23.73-13.77l.48,2.29c3.85,1.48,15.65,6.41,22.47,13.29,5.05,5.11,6.46,11.38,4.93,16.12Z"/>
        <path class="cls-3" d="M18.34,59.25c0,2.6-2.08,4.85-6.24,8.83-5.53,5.3-13.85,10.05-11.78,24.94,0,0,2.43-4.85,5.71-6.23,0,0-6.75,11.78,3.47,20.44,0,0-.35-4.5,1.38-9.36,0,0-.86,16.97,22.51,18.88l70.14,2.95s24.24,2.42,29.61-18.71c0,0,.34,4.5-.34,7.1,0,0,11.43-7.79,4.85-24.25,0,0,3.12,2.77,3.98,5.19,0,0,2.94-9-2.94-17.14-5.89-8.14-7.27-7.28-8.14-14.72-.87-7.45-13.16-41.74-56.46-37.58C30.81,23.75,18.34,59.25,18.34,59.25Z"/>
        <path class="cls-4" d="M141.65,89.04s2.94-9-2.94-17.14c-5.12-7.07-6.83-7.36-7.76-12.18-.02,3.45.53,6.8,2.66,9.73,3.22,4.44,7.13,8.01,7.31,13.84.02.61-.83.67-1.02.14-1.02-2.87-3.15-6.07-6.2-7.02,5.2,7.34,5.18,17.29,1.87,25.46-.21.52-1.01.49-1.02-.13-.02-2.3-.24-4.5-.86-6.66-1.97,6.43-6.2,11.11-11.24,15.6-.43.39-1.12-.1-.82-.63,2.88-4.98,4.64-10.46,4.74-16.24,0-.52.64-.63.92-.33,4.2-2.12,5.89-8.07,4.94-12.46-.67-3.08-2.82-9.3-7.02-8.01-.33.1-.65-.17-.66-.5-.12-3.77.24-7.52-.31-11.27-.28-1.9-.59-3.79-.61-5.69-2.77-.77-5.45-2.39-8.13-3.27-4.64-1.51-9.38-2.96-14.23-3.63-9.5-1.3-19.45-1.12-29-.55-9.28.55-18.34,2.16-27.46,3.9-6.91,1.32-14,2.81-20.26,6.11-.17,5.5-1.3,10.95-2.24,16.36-.09.48-.73.47-.95.12-2.63-4.03-8.4,1.13-9.31,4.03-1.14,3.65-1.49,9.09.77,12.41,1.64,2.41,4.63,3.18,4.3,6.54-.38,3.89.02,7.62,1.43,11.3.18.48-.4.74-.76.59-5.55-2.36-6.44-9.2-6.78-14.75-1.09,2.3-1.41,4.77-2.07,7.29-.13.5-.87.49-1,0-1.72-6.47-2.26-12.71.44-18.79-2.35,1.49-4.46,3.28-5.99,5.67-.26.41-1,.28-.97-.26.28-5.35,1.98-10.63,5.11-15.01.33-.47.68-.93,1.03-1.39-4.54,4.26-8.77,9.72-7.22,20.82,0,0,2.43-4.85,5.71-6.23,0,0-6.75,11.78,3.47,20.44,0,0-.35-4.5,1.38-9.36,0,0-.86,16.97,22.51,18.88l70.14,2.95s24.24,2.42,29.61-18.71c0,0,.34,4.5-.34,7.1,0,0,11.43-7.79,4.85-24.25,0,0,3.12,2.77,3.98,5.19Z"/>
        <g>
          <path class="cls-8" d="M23.75,80.01s-1.82-3.75-3.81-4.03c-2-.28-6.53,1.88-7.17,7.56-.65,5.68,2.87,9.67,5.85,10.53,2.97.85,4.33-2.89,4.33-2.89l.81-11.17Z"/>
          <path class="cls-1" d="M18.86,82.42c-2.67-1.24-3.52,2.3-3.79,4.6-.02.11.12.12.15.03.33-.89.61-1.83.99-2.69.64-1.48,1.98-1.18,2.83-.32.33.33.59.71.81,1.12-.56.14-1.07.69-1.4,1.2-.46.69-.69,1.51-.84,2.35-.02.12.14.16.19.07.34-.58.63-1.2,1-1.75.41-.62.9-.76,1.46-1,.48,1.25.69,2.67,1.02,3.96.06.25.38.24.4-.04.22-2.69-.35-6.37-2.79-7.51Z"/>
        </g>
        <g>
          <path class="cls-8" d="M120.61,78.69s2.46-3.29,4.65-3.32c2.19-.04,6.77,2.47,6.7,7.83-.07,5.35-4.39,8.67-7.71,9.13-3.32.46-4.27-3.16-4.27-3.16l.63-10.47Z"/>
          <path class="cls-1" d="M125.55,81.48c3.04-.86,3.48,2.54,3.46,4.7,0,.1-.14.1-.16.01-.24-.86-.41-1.77-.7-2.62-.49-1.45-1.97-1.32-3-.61-.4.27-.73.59-1.01.94.58.2,1.06.76,1.34,1.27.41.69.54,1.48.59,2.27,0,.12-.17.13-.22.04-.29-.57-.52-1.18-.83-1.74-.36-.62-.87-.8-1.43-1.09-.68,1.11-1.1,2.4-1.63,3.56-.1.22-.43.17-.42-.08.12-2.52,1.23-5.88,4.02-6.66Z"/>
        </g>
        <path class="cls-12" d="M23.71,59.77s.34,12.81-1.04,22.52c-1.39,9.7-6.93,31.17,20.09,42.95,27.02,11.77,61.89,4.69,74.47-17.67,3.12-5.54,6.58-18.71,4.85-29.09-1.73-10.39-1.39-22.17-1.39-23.21s-30.13-10.05-62.69-2.78c-32.56,7.27-34.29,7.27-34.29,7.27Z"/>
        <path class="cls-3" d="M122.42,51.81c-2.77-8.49-32.04-11.95-48.32-11.08-16.28.87-52.3,6.93-51.43,17.49,0,0,1.04,10.39,2.59,15.59,0,0,5.54-12.12,16.8-13.85,0,0-3.99,3.29-5.72,7.62l29.27-9.53s-3.64,2.59-4.85,5.19c0,0,20.96-2.08,31.87-7.62,0,0-2.42,2.94-3.46,4.15,0,0,7.79-1.38,13.16-4.67,0,0-.69,4.67,10.05,11.6,0,0,.69-3.12-.35-7.79,0,0,5.89,9.35,10.39,11.78,0,0,2.77-10.39,0-18.88Z"/>
        <path class="cls-13" d="M73.15,2.49c-17.15,0-60.96,15.59-56.63,60.44,0,0,59.23-21.65,116.38-2.25,0,0,3.98-58.19-59.75-58.19ZM93.89,47.44c-19.22-1.91-41.96,2.34-41.96,2.34,0,0-1.12-22.17,19.31-23.73,22.97-1.75,22.64,21.39,22.64,21.39Z"/>
        <path class="cls-7" d="M37.58,34.35c1.41-7.82,4.46-15.23,10.09-20.98,3.34-3.41,7.21-6.12,11.29-8.52C39.23,10.65,13.13,27.83,16.52,62.93c0,0,7.54-2.75,19.83-5.42-.32-7.8-.17-15.44,1.23-23.17Z"/>
        <path class="cls-7" d="M82.29,2.93c4.09,1.38,7.98,3.61,11.19,6,6.15,4.56,10.22,11.24,13.18,18.21,3.4,7.99,5.01,16.94,5.85,25.57.09.91.17,1.82.24,2.74,6.68,1.25,13.44,2.96,20.16,5.24,0,0,3.58-52.45-50.61-57.75Z"/>
        <path class="cls-2" d="M68.3,47.04s5.71-2.2,10-.38l.39,5.71s-3.9,2.34-9.87.39l-.52-5.72Z"/>
        <path class="cls-9" d="M29.42,27.2c8.27,1.92,16.62,3.33,25.08,4.08,1.28.11,2.56.21,3.83.31,2.85-2.89,6.96-5.09,12.91-5.55,8.58-.65,13.91,2.17,17.22,5.96,6.3-.38,12.59-1.09,18.87-2.21,5.58-1,11.16-2.15,16.72-3.4-7.93-12.63-22.86-23.9-50.91-23.9-11.24,0-33.95,6.7-47.03,23.95,1.17.26,2.28.52,3.3.75Z"/>
      </g>
      <g>
        <g>
          <path class="cls-11" d="M89.87,85.43c.06,3.26-.88,5.96-2.1,6.03-1.22.06-2.27-2.54-2.32-5.81-.06-3.26.88-5.96,2.1-6.02,1.22-.06,2.26,2.54,2.32,5.8Z"/>
          <path class="cls-17" d="M87.29,83.08c-.05.99-.39,1.78-.76,1.76-.37-.02-.63-.84-.58-1.83.05-.99.39-1.78.76-1.76.37.02.63.84.58,1.82Z"/>
        </g>
        <g>
          <path class="cls-11" d="M53.97,85.33c-.19,3.26-1.34,5.87-2.55,5.84-1.23-.04-2.07-2.71-1.87-5.97.19-3.26,1.34-5.88,2.56-5.84,1.22.03,2.05,2.7,1.86,5.97Z"/>
          <path class="cls-17" d="M51.59,82.78c-.12.98-.53,1.73-.89,1.7-.37-.05-.56-.88-.43-1.86.12-.98.52-1.74.89-1.7.37.04.57.88.43,1.86Z"/>
        </g>
        <path class="cls-10" d="M50.02,99.67c-.33,1.82-4.29,2.56-8.85,1.69-4.57-.89-8-3.07-7.69-4.89.32-1.82,4.29-2.58,8.85-1.69,4.57.89,8,3.08,7.69,4.89Z"/>
        <path class="cls-10" d="M110.54,100.49c.08,1.84-3.62,3.45-8.27,3.59-4.65.14-8.48-1.24-8.57-3.08-.08-1.85,3.62-3.45,8.27-3.59,4.65-.13,8.48,1.25,8.57,3.09Z"/>
        <path class="cls-1" d="M64.4,103.5c-.29-.98.09-2.12,1.09-2.53,1.9-.79,4.06-.28,5.67.93.04-.1.04-.22-.05-.3-.71-.78-1.96-1.47-3.27-1.8.43-1.09-.04-1.93-.63-2.89-.11-.17-.86-.78-.79-.57.23.74.51,2.42-.09,2.99-.09.09-.15.19-.2.28-.87.04-1.68.32-2.27.93-1.81,1.87.37,5.1,2.48,5.51.04,0,.07-.01.1-.04-.94-.61-1.7-1.36-2.05-2.51Z"/>
        <path class="cls-16" d="M63.44,64.66c-.04-.11-.19.02-.2.09-.5,3.46-9.18,3.47-11.63,4.37-3.14,1.16-5.69,3-7.27,6-.32.61.18,1.2.79.73,1.87-1.44,3.66-2.77,5.82-3.77,2.74-1.27,6.13-1.43,9.02-2.34,2.47-.77,4.49-2.39,3.46-5.09Z"/>
        <path class="cls-16" d="M99.12,73.96c-1.79-2.51-4.39-3.88-7.31-4.76-4.03-1.22-14.25-1.06-11.81-7.86.03-.1-.09-.09-.13-.03-1.27,2.11-2.79,6.37.01,7.69,2.8,1.33,6.36,1.39,9.37,2.07,3.35.75,6.29,1.61,9.03,3.63.38.28,1.13-.34.84-.75Z"/>
        <path class="cls-1" d="M91.55,89.88c-1.1.11-2.17.5-3.19.91-1.2.47-2.24,1.4-3.46,1.8-.07.02-.13.17-.02.15.93-.16,1.83-.68,2.71-1,1.26-.46,2.59-.68,3.86-1.08.36-.11.68-.84.1-.78Z"/>
        <path class="cls-1" d="M52.47,91.7c-.63-.57-1.38-.83-2.17-1.13-.45-.17-.92-.3-1.38-.46-.18-.07-.36-.12-.54-.16-.03,0-.09,0-.15.02-.05-.01-.1-.02-.15-.04-.05-.01-.13.07-.06.11,1.33.77,2.55,1.67,3.94,2.33.32.15.8-.42.51-.68Z"/>
        <g>
          <path class="cls-5" d="M99.41,102.39c.73-3.96-2.44-7.93-5.04-11.25,0,2.57.06,5.14.43,7.68.15,1.01.24,2.14.69,3.07.69,1.43,3.44,3.06,3.91.5Z"/>
          <path class="cls-14" d="M97.4,100.92c.33-1.79-1.1-3.57-2.27-5.07,0,1.16.03,2.32.19,3.46.07.45.11.96.31,1.38.31.64,1.55,1.38,1.76.22Z"/>
        </g>
        <g>
          <path class="cls-1" d="M84.51,110.59c-.64-.18-1.27-.35-1.85-.48-6.16-1.43-14.15-.66-20.07,1.47-3.71,1.33-11.5,3.28-13.76,6.96-.14.23-.23.44-.28.64-.1.2-.16.39-.17.59,1.72-1.73,4.26-2.77,6.43-3.61,4.88-1.87,9.89-2.96,15.11-3.24,5.22-.28,10.62-.27,15.61,1.52,1.88.67,4.1,1.58,5.7,2.99-.77-3.73-3.54-5.41-6.71-6.83Z"/>
          <path class="cls-18" d="M91.36,118.14c-.03.35-.08.66-.16.9-.29.86-1,1.39-1.84,1.68-1.78.6-3.84.16-5.6-.28-.9-.22-1.78-.51-2.66-.78-3.86-1.17-8.09-2.22-12.16-1.8-4.02.42-8.06,1.42-11.97,2.46-1.88.5-5.93,2.15-7.36-.02-1.79-2.71,5.2-5.24,6.62-5.89,7.47-3.43,16.38-5.73,24.55-3.8,3.23.76,8.31,1.96,10.21,5.01.34.55.45,1.64.37,2.53Z"/>
          <path class="cls-17" d="M66.14,113.59c2.55-.41,5.09-.85,7.67-.61,2.09.2,10.52,1.61,12.27-.85-1.83-.71-3.77-1.17-5.3-1.53-7.67-1.81-15.98.11-23.15,3.18,2.27,1.12,6.82.08,8.51-.19Z"/>
          <path class="cls-6" d="M73.25,115.25c-5.7-.21-14.19.97-18.34,5.67.79-.22,1.51-.46,2.06-.6,3.9-1.04,7.94-2.04,11.97-2.46,4.06-.42,8.29.63,12.16,1.8.89.27,1.76.56,2.66.78.44.11.89.22,1.36.31-3.3-3.06-7.35-5.34-11.86-5.5Z"/>
        </g>
      </g>
    </g>
  </g>
</svg>