<svg width="750" height="570" viewBox="0 0 750 570" fill="none" xmlns="http://www.w3.org/2000/svg">
<g clip-path="url(#clip0_13_14755)">
<rect width="750" height="570" fill="white"/>
<g clip-path="url(#clip1_13_14755)">
<path d="M834.84 -158H-323.3V538.08H834.84V-158Z" fill="url(#paint0_linear_13_14755)"/>
<path d="M794.91 240.94C794.91 240.94 785.93 248.7 785.19 248.7H659.12C659.12 248.7 646.18 248.38 649.19 239.07C652.2 229.78 664.81 222.71 667.84 224.93C667.67 224.6 664.97 219.25 662.83 213.09C661.07 208.04 659.67 202.46 660.34 198.62C660.53 197.51 661.23 196 662.32 194.22C663.69 192.01 665.65 189.37 668.02 186.53C678.64 173.78 697.26 156.91 704.57 156.23C714.8 155.27 745.79 185.13 747.29 191.87C748.77 198.48 743.02 211.55 742.79 212.09C743.46 211.69 768.23 196.76 781.29 201.5C786.71 203.48 790.72 208.96 793.52 215.1C795.99 220.51 797.52 226.45 798.26 230.99C798.87 234.72 797.61 238.49 794.92 240.94H794.91Z" fill="#F7F4FD"/>
<path d="M794.92 240.93C794.92 240.93 785.93 248.7 785.2 248.7H659.12C659.12 248.7 646.18 248.39 649.19 239.07C652.2 229.77 664.81 222.7 667.84 224.93C667.67 224.59 664.97 219.24 662.82 213.08C667.46 216.22 672.61 218.48 677.99 219.66C670.65 212.99 665.26 204.02 662.32 194.22C663.68 192.02 665.65 189.38 668.02 186.54C681.38 208.32 704.42 223.41 728.84 225.15C723.02 217.45 720.18 207.25 721.13 197.41C728.71 214.51 744.04 227.49 761.38 231.48C754.22 226.82 749.54 218.07 749.44 209.11C756.79 220.27 771.18 225.49 783.38 221.43C787.49 220.06 790.71 217.86 793.51 215.1C795.98 220.51 797.52 226.46 798.25 231C798.85 234.72 797.6 238.49 794.92 240.94V240.93Z" fill="#E7DFF6"/>
<path d="M782.87 248.7H661.34C702.36 238.57 754.5 244.23 782.87 248.7Z" fill="#CFC6E5"/>
<path d="M387.75 199.24H39.67C36.2 199.24 32.94 197.3 31.12 194.13L31.07 194.03C28.96 190.34 29.72 185.54 32.88 182.8L44.38 172.78C48.1 169.54 53.19 168.83 57.56 170.92L68.04 175.92L57.27 150.3C54.2 142.97 55.46 134.37 60.54 128.44C60.64 128.32 60.73 128.21 60.83 128.08C65.28 122.91 71.03 116.35 77.2 109.8C77.92 109.02 78.66 108.27 79.38 107.5C91.77 94.57 105.35 82.27 112.93 81.37C129.32 79.41 176.65 114.39 176.65 125.41C176.65 134.53 173.73 156.12 172.73 163.24C172.53 164.7 172.4 165.55 172.4 165.55C172.4 165.55 174.18 161.68 177.06 156.24C183.58 143.99 195.69 123.77 205.77 121.51C220.32 118.28 271.9 149.36 271.3 158.43C270.88 164.86 266.79 177.12 264.45 183.72C263.54 186.3 262.89 188.01 262.82 188.2C263.5 187.79 286.61 173.99 295.57 175.91L301.64 179.79C301.64 179.79 291.56 169.03 293.3 158.13C293.56 156.49 294.09 154.85 294.97 153.24C301.64 140.93 321.67 119.58 337.45 119.58C353.23 119.58 391.45 145.48 396.3 165.55C396.81 167.68 397.27 169.75 397.67 171.73C398.67 176.42 399.37 180.66 399.87 184.31C400.95 192.19 395.19 199.23 387.74 199.23L387.75 199.24Z" fill="#F7F4FD"/>
<path d="M390.41 198.93C389.55 199.14 388.67 199.24 387.75 199.24H39.67C36.2 199.24 32.94 197.3 31.12 194.13L31.07 194.03C28.96 190.34 29.72 185.54 32.88 182.8L44.38 172.78C48.1 169.54 53.19 168.83 57.56 170.92L68.04 175.92L57.27 150.3C54.2 142.97 55.46 134.37 60.54 128.44C60.64 128.32 60.73 128.21 60.83 128.08C68.61 145.28 82.58 159.35 99.37 166.06C82.95 153.7 74.38 130.89 77.21 109.8C77.93 109.02 78.67 108.27 79.39 107.5C80.07 113.37 82.5 119.08 85.87 123.84C90.84 130.87 97.68 136.1 104.61 140.89C117.56 149.83 131.26 157.54 145.48 163.91C151.4 166.56 157.77 169.04 164.11 168.01C167.33 167.48 170.49 165.73 172.74 163.24C172.54 164.7 172.41 165.55 172.41 165.55C172.41 165.55 174.19 161.68 177.07 156.24C180.16 161.89 183.25 167.52 186.33 173.17C192.61 168.33 196.67 160.39 197.08 152.14C208.75 164.43 223.05 173.91 238.55 179.64C246.83 182.69 255.83 184.64 264.45 183.73C263.54 186.31 262.89 188.02 262.82 188.21C263.5 187.8 286.61 174 295.57 175.92L301.64 179.8C301.64 179.8 291.56 169.04 293.3 158.14C298.25 171.55 310.02 182.11 323.44 184.31C320.69 177.04 317.93 169.76 315.19 162.49C327.86 177.04 343.8 190.16 362.35 191.65C371.1 192.35 380.13 189.53 387.32 184.24C390.92 181.6 394.16 178.33 396.57 174.45C396.97 173.81 397.33 172.85 397.67 171.73C398.67 176.42 399.37 180.66 399.87 184.31C400.82 191.21 396.5 197.48 390.4 198.91L390.41 198.93Z" fill="#E7DFF6"/>
<path d="M390.41 198.93C389.55 199.14 388.67 199.24 387.75 199.24H47.5599C131.37 183.98 316.05 194 390.42 198.93H390.41Z" fill="#CFC6E5"/>
<path d="M834.84 432.99L824.66 433.63V373.92L808.86 373.02L799.46 379.39V429.53L792.63 428.61L791.77 344.76L772.13 342.03L766.15 351.15V424.98H749.66L747.37 334.74L737.12 318.33L726.87 334.74V424.68L699.53 386.7H674.77L659.4 446.86C659.4 446.86 767.87 475.11 770.44 473.29C771.82 472.32 804.7 468.19 834.85 464.56V433L834.84 432.99Z" fill="#B8D6F4"/>
<path d="M-51.63 411.07L-16.4 396.03L4.74 403.55L12.43 412.44L14.35 449.36L-47.05 444.87L-51.63 411.07Z" fill="#B8D6F4"/>
<path d="M-9.09 437.03C-28.72 437.43 -47.89 437.87 -66.56 438.36C-79.5 438.69 -92.21 439.05 -104.65 439.43C-123.19 439.99 -141.15 440.61 -158.49 441.25C-169.19 441.65 -179.66 442.06 -189.86 442.48C-209.32 443.29 -227.85 444.15 -245.33 445.06C-254.89 445.54 -264.12 446.05 -273.03 446.57C-283.25 447.15 -293.03 447.75 -302.37 448.36C-309.7 448.84 -316.71 448.38 -323.31 448.3V562.28H834.84V456.69C558.59 435.06 239.17 432.06 -9.09 437.03Z" fill="url(#paint1_linear_13_14755)"/>
<path d="M54.1599 479.26L37.6299 480.44C-1.34007 458.1 -42.6701 444.85 -66.5601 438.36C-47.8901 437.87 -28.7101 437.43 -9.09006 437.03C48.1599 464.65 54.1599 479.27 54.1599 479.27V479.26Z" fill="#EDE65F"/>
<path d="M-323.3 467.29V469.33L34.25 435.68L36.12 431.4L-323.3 467.29Z" fill="#FFE7E1"/>
<path d="M-323.3 469.43V471.46L35.1 437.73L36.97 433.45L-323.3 469.43Z" fill="#F2C7B6"/>
<path d="M-323.3 478.98V481L37.69 453.91L39.63 449.67L-323.3 478.98Z" fill="#FFE7E1"/>
<path d="M-323.3 481.12V483.13L38.51 455.98L40.45 451.73L-323.3 481.12Z" fill="#F2C7B6"/>
<path d="M12.8299 416.46C15.3899 394.11 19.6199 371.18 13.4899 349.45C19.3599 364.02 25.2199 378.58 31.0899 393.15C37.3899 408.8 43.7199 424.53 47.3499 440.92C49.3299 449.87 50.4199 459.49 46.6299 467.91C43.5799 474.68 36.3499 480.44 28.3199 480.84C19.7499 481.27 17.9799 475.23 15.6099 468.26C9.96994 451.61 10.8699 433.6 12.8299 416.46Z" fill="#89740C"/>
<path d="M79.0499 476.16L20.7299 482.7C20.7299 482.7 19.2799 474.69 18.3399 464.41C16.9599 449.5 16.6299 429.8 23.3399 423.02C28.2099 418.1 32.7399 407.9 35.9299 396.76C37.3799 391.68 38.5499 386.4 39.3399 381.34C40.8499 371.68 40.9699 362.81 39.0099 357.59C33.8499 343.87 40.4399 276.07 40.2399 274.57C40.9599 275.85 48.7199 323.45 58.1599 335.52C60.1399 338.07 62.0499 340.57 63.8299 343.12C70.6199 352.86 75.3899 363.15 74.6899 378.04C73.8299 396.84 67.7299 423.83 71.2199 440.19C74.6899 456.54 79.0499 476.16 79.0499 476.16Z" fill="#9E890D"/>
<path d="M79.05 476.16L20.73 482.7C20.73 482.7 19.28 474.69 18.34 464.41C21.07 460.78 23.76 457.11 26.03 453.2C35.91 436.16 37.08 416.42 35.93 396.76C37.38 391.68 38.55 386.4 39.34 381.34C41.4 384.6 41.95 389.21 42.08 393.19C42.28 399.4 44.12 407.25 50.62 408.31C57.15 409.38 61.8 402.36 63.15 396.27C65.85 384.29 63.75 371.89 63.11 359.65C62.93 356.19 62.91 349.53 63.83 343.14C70.62 352.87 75.39 363.16 74.69 378.05C73.83 396.85 67.73 423.84 71.22 440.2C74.69 456.55 79.05 476.17 79.05 476.17V476.16Z" fill="#89740C"/>
<path d="M133.4 400.13L131.85 477.9L131.58 491.62L91.2 486.31C91.2 486.31 88.96 474.58 86.45 459.82C83.07 439.88 79.18 414.41 79.68 404.92C80.06 397.68 79.29 376.16 78.3 354.26C77.72 341.45 77.07 328.5 76.53 318.21C75.89 305.92 75.41 297.42 75.41 297.42L82.65 248.62L83.28 244.33L84.31 237.4L101.92 224.25L114.87 247.98L121.84 300.83L124.65 322.2L127.61 348.52L133.41 400.13H133.4Z" fill="#8B7C00"/>
<path d="M123.27 444.16C126.17 455.32 129.4 466.53 131.85 477.91L131.58 491.63L91.2 486.32C91.2 486.32 88.96 474.59 86.45 459.83C86.63 459.13 86.82 458.43 87.01 457.75C89.71 448.2 93.46 438.95 93.83 428.53C94.27 416.55 90.24 405.07 87.09 393.74C83.54 380.95 80.99 367.54 78.29 354.26C77.71 341.45 77.06 328.5 76.52 318.21C81.55 322.94 86.35 327.89 88.65 335.53C92.56 348.53 87.36 363.28 89.58 376.97C90.38 381.89 93.25 387.34 96.62 386.23C99.05 385.44 100.26 381.64 100.88 378.19C103.92 361.24 100.63 343.07 97.34 325.85C92.44 300.1 87.53 274.35 82.64 248.61L83.27 244.32C88.79 264.23 94.32 284.15 99.85 304.06C101.19 308.9 102.88 314.26 106.26 316.2C110.73 318.77 115.34 313.83 118.23 308.58C119.6 306.08 120.8 303.49 121.83 300.81L124.64 322.18L127.6 348.5C124.07 358.03 119.88 367.16 117.67 377.53C113.12 398.98 117.66 422.62 123.27 444.14V444.16Z" fill="#776603"/>
<path d="M699.21 422.19C699.21 422.19 695.27 394.52 697.46 383.49C699.65 372.46 699.54 344.19 699.54 344.19C699.54 344.19 709.83 370.24 711.88 380.19C713.93 390.14 711.07 418.99 711.07 418.99L699.21 422.19Z" fill="#89740C"/>
<path d="M749.66 422.97C749.91 430.25 749.28 486.84 749.28 486.84L700.1 473.24C700.1 473.24 693.1 439.86 695.75 423.2C695.95 421.88 696.23 420.65 696.56 419.57C701.18 404.79 718.44 359.44 714.15 334.06C709.94 309.15 735.08 275.2 736.01 273.97C735.5 275.06 726.51 293.9 728.68 308.87C729.25 312.82 730.23 317.46 731.47 322.4C731.9 324.19 732.39 326.02 732.89 327.87C736.37 340.76 741.02 354.74 744.11 363.55C744.15 363.67 744.2 363.79 744.24 363.9C748.97 377.4 749.42 415.69 749.67 422.97H749.66Z" fill="#9E890D"/>
<path d="M749.66 422.97C749.91 430.25 749.28 486.84 749.28 486.84L700.1 473.24C700.1 473.24 693.1 439.86 695.75 423.2C698.66 429.67 702.22 435.82 706.34 441.5C708.57 444.59 711.26 447.71 714.83 448.43C719.71 449.4 724.49 445.3 726.28 440.36C728.06 435.42 727.55 429.91 726.82 424.67C724.16 405.62 718.88 386.92 718.43 367.66C718.05 351.54 721.77 334.33 731.47 322.39C731.9 324.18 732.39 326.01 732.89 327.86C724.82 350.11 722.54 374.74 726.55 398.22C735.35 387.41 740.8 375.83 744.11 363.54C744.15 363.66 744.2 363.78 744.24 363.89C748.97 377.39 749.42 415.68 749.67 422.96L749.66 422.97Z" fill="#89740C"/>
<path d="M689.31 340.67L676.5 474.66L644.91 468.27C644.91 468.27 643.9 464.39 642.36 458.3C637.41 438.73 626.97 396.42 626.97 388.06C626.97 386.82 627.01 384.23 627.06 380.61C627.37 363.74 628.35 324.29 629.9 292.89C630.95 271.44 632.27 253.76 633.79 249.51C638.06 237.67 649.16 204.86 649.16 204.86L680.77 280.51L689.29 340.55V340.67H689.31Z" fill="#8B7C00"/>
<path d="M689.31 340.67L676.5 474.66L644.91 468.27C644.91 468.27 643.9 464.39 642.36 458.3C643.83 452.08 645.78 445.94 646.81 439.61C649.71 421.71 644.84 402.56 633.86 388.68C631.69 385.96 629.27 383.35 627.07 380.61C624.26 377.11 621.82 373.4 620.75 368.99C619.55 364.01 620.29 358.78 621.03 353.7C623.99 333.44 626.95 313.15 629.91 292.88C630.2 290.9 630.49 288.94 630.77 286.99C634.15 313.62 637.55 340.27 640.93 366.91C641.52 371.54 642.2 376.41 644.89 380.1C647.58 383.78 653 385.62 656.42 382.71C658.85 380.65 659.48 377.02 659.76 373.73C663.04 335.09 641.77 296.78 648.63 258.68C652.87 282.78 659.01 306.51 666.96 329.53C668.43 333.8 670.03 338.17 673.02 341.41C676.01 344.66 680.73 346.52 684.65 344.71C686.49 343.85 688.02 342.4 689.3 340.54V340.66L689.31 340.67Z" fill="#776603"/>
<path d="M782.55 479.6L639.9 469.13C639.9 469.13 623.88 448.52 627.12 442.01C627.59 441.07 628.25 440 629.07 438.87C633.97 432.05 644.17 422.76 646.96 425.56C649.17 427.77 652.71 434.3 653.99 439.16C654.12 438.56 654.27 437.93 654.44 437.27C656.44 429.57 661.04 418.43 667.46 417.71C667.96 417.66 668.46 417.62 669 417.59C673.28 417.33 678.72 417.88 683.82 419.61C693.75 422.98 698.84 434.57 695.6 444.96C695.44 445.49 695.25 446.03 695.04 446.55L694.6 447.67C695.56 445.63 699.59 438.09 708.46 434.3C712.53 432.57 717.63 431.63 723.93 432.38C745.81 435.01 731.5 457.27 731.08 457.9C731.25 457.79 732.57 456.85 734.61 455.67C737.81 453.81 742.73 451.37 747.48 450.63C751.87 449.94 756.13 450.73 758.75 454.81C764.19 463.3 760.43 468.52 758.1 470.67C759.21 469.85 760.9 468.65 762.92 467.35C766.64 464.97 771.54 462.28 776.22 461.03C780.27 459.93 784.17 459.93 786.99 462.14C796.31 469.47 782.56 479.59 782.56 479.59L782.55 479.6Z" fill="#B29B0F"/>
<path d="M782.55 479.6L639.9 469.13C639.9 469.13 623.88 448.52 627.12 442.01C627.59 441.07 628.25 440 629.07 438.87C630.1 443.58 632.25 448.36 636.69 449.97C647.31 453.81 652.64 442.63 653.93 439.41C653.97 439.31 653.98 439.27 654 439.22C654.16 438.81 654.24 438.58 654.24 438.58L654.44 437.28C656.44 429.58 661.04 418.44 667.46 417.72C667.96 417.67 668.46 417.63 669 417.6C664.86 423.58 661.11 432.43 667.03 440.32C676.71 453.24 694.13 445.65 695.6 444.97C695.44 445.5 695.25 446.04 695.04 446.56L694.6 447.68C695.56 445.64 699.59 438.1 708.46 434.31C705.05 446.05 702.74 461.51 712.62 464.98C727.51 470.23 731.27 457.73 731.27 457.73L734.61 455.68C737.81 453.82 742.73 451.38 747.48 450.64C743.59 456.55 740.4 463.77 743.64 468.52C747.75 474.51 753.45 473.22 756.98 471.54C757.07 471.5 757.13 471.46 757.18 471.44C759.01 470.54 760.2 469.59 760.2 469.59L762.92 467.36C766.64 464.98 771.54 462.29 776.22 461.04C774.43 466.48 774.47 473.62 782.56 479.6H782.55Z" fill="#9D850E"/>
<path d="M649.82 458.73C649.82 458.73 652.86 448.23 661.07 448.81C669.28 449.39 684.47 460.35 684.85 467.29C684.85 467.29 679.33 462.92 672.89 460.37C666.44 457.82 650.38 456.79 649.82 458.73Z" fill="#B29B0F"/>
<path d="M149.86 466.15L-2.83002 479.88C-2.83002 479.88 -11.52 472.42 -11 465.83C-10.81 463.5 -9.48002 461.26 -6.20002 459.51C5.97998 452.98 14.53 461.45 15.04 461.95C14.67 461.05 3.99998 434.42 20.98 433.66C32.94 433.12 40.77 437.02 43.93 442.45C44.01 442.58 44.08 442.7 44.16 442.84C44.16 442.81 44.17 442.78 44.16 442.76C45.31 436.25 49 428.35 58.28 426.28C61.37 425.58 64.18 425.37 66.68 425.57C76.6 426.35 81.72 433.62 80.75 443.14C80.91 442.93 81.09 442.7 81.28 442.49C84.39 438.81 89.36 435.8 96.86 436.57C100.99 437 104.8 439.14 107.29 442.45C110.43 434.67 118.02 426.95 133.22 429.29C134.46 429.48 135.62 429.72 136.71 429.98C163.07 436.56 149.85 466.17 149.85 466.17L149.86 466.15Z" fill="#B29B0F"/>
<path d="M149.86 466.15L-2.83002 479.88C-2.83002 479.88 -11.52 472.42 -11 465.83C-10.57 466.03 -10.13 466.23 -9.67002 466.44C35.69 487.74 43 449.26 43.94 442.44C44.03 441.79 44.05 441.44 44.05 441.44C44.07 441.89 44.11 442.33 44.18 442.75C44.18 442.8 44.18 442.86 44.2 442.91C44.41 444.26 44.84 445.44 45.39 446.46C47.9 451.14 53.05 452.67 53.05 452.67C70.73 456.39 68.7 435.72 66.7 425.56C76.62 426.34 81.74 433.61 80.77 443.13C80.93 442.92 81.11 442.69 81.3 442.48C81.27 442.58 81.23 442.66 81.2 442.74C80.99 443.31 80.78 443.88 80.6 444.42C79.99 446.28 79.56 447.96 79.28 449.53C77.01 461.91 83.99 466.85 93.59 464.73C100.24 463.27 103.73 457.96 105.56 452.89C107.15 448.48 107.49 444.24 107.56 442.77C107.57 442.43 107.58 442.24 107.58 442.24C128.17 459.72 134.79 439.78 136.74 429.98C163.1 436.56 149.88 466.17 149.88 466.17L149.86 466.15Z" fill="#9D850E"/>
<path d="M173.29 459.95C-42.62 476.58 -226.32 488.41 -323.29 494.37V562.27H834.84V476C674.17 462.07 390.4 443.21 173.28 459.94L173.29 459.95Z" fill="#CCB409"/>
<path d="M730.47 516.58C725.92 516.53 721.47 515.1 717.64 512.46L673.53 482L494.25 480.44L468.66 510.55C462.04 518.34 452.62 522.75 442.77 522.7L328.87 522.08C319.08 522.03 309.78 517.58 303.24 509.82L280.45 482.79L167.31 479.65L150.21 496.45C137.59 508.85 121.05 515.69 103.89 515.63L-323.29 514.18V544.74L834.85 543.98V517.71L730.48 516.58H730.47Z" fill="#B29A0B"/>
<path d="M698.47 490.22L698.33 492.19L428.15 490.88L93.01 489.26L92.64 487.32L128 461.62L669.13 462.21L698.47 490.22Z" fill="#BC9C9C"/>
<path d="M698.47 490.22L698.34 492.18L428.16 490.87L93.01 489.25L92.65 487.31L698.47 490.22Z" fill="#997676"/>
<path d="M297.29 538.07H144.24L153.3 526.51L154.23 525.33L161.96 515.47L162.62 514.65L176.84 496.51L177.75 495.33L191.07 478.33H265.26L274.37 495.33L275 496.51L290.45 525.33L290.53 525.47L291.08 526.51L297.28 538.07H297.29Z" fill="#CEB0AF"/>
<path d="M696.32 538.07H476.42L481.74 525.92L481.87 525.63L482.26 524.74L502.63 478.34L635.7 478.09L671.94 513.95L696.32 538.07Z" fill="#CEB0AF"/>
<path d="M286.7 523.37H157.76V524.69H286.7V523.37Z" fill="#B29A9A"/>
<path d="M677.16 523.37H486.18V524.69H677.16V523.37Z" fill="#B29A9A"/>
<path d="M650.76 495.34H497.57V496.52H650.76V495.34Z" fill="#B29A9A"/>
<path d="M275.01 496.52H176.83L177.75 495.34H274.38L275.01 496.52Z" fill="#B29A9A"/>
<path d="M635.93 478.33L631.56 478.43L689.33 538.07H696.31L635.93 478.33Z" fill="#EFCECE"/>
<path d="M195.23 478.34H191.08L161.97 515.47L144.25 538.06H149.76L195.23 478.33V478.34Z" fill="#EFCECE"/>
<path d="M195.4 122.47C195.66 123.48 195.86 124.49 195.98 125.52C195.74 124.51 195.55 123.5 195.4 122.47Z" fill="#E7DFF6"/>
<path d="M101.05 392.86C101.08 393 101.11 393.14 101.14 393.27C101.12 393.22 101.1 393.19 101.07 393.14C101.03 393.06 101.05 392.95 101.05 392.86Z" fill="#6B5500"/>
<path d="M156.94 538.84H152L-323.3 539.9V602H834.84V537.3L156.94 538.84Z" fill="#CEB0AF"/>
<path d="M506.94 478.38L502.63 478.34L478.1 534.24L295.09 533.96L265.27 478.34H260.84L291.94 539.39L483.29 539.54L506.94 478.38Z" fill="#EFCECE"/>
<path d="M137.73 199.76V222.5L181.82 223.28L176.67 182.51L137.73 199.76Z" fill="url(#paint2_linear_13_14755)"/>
<path d="M142.14 196.62H136.45V224.26H142.14V196.62Z" fill="#DDB99F"/>
<g style="mix-blend-mode:multiply">
<path d="M169.33 199.42H136.45V203.97H169.33V199.42Z" fill="#BC9C9C"/>
</g>
<path d="M212.31 166.83L212.19 178.65L211.94 201.33L134.06 202.12L138.21 178.11L140.31 166.04L212.31 166.83Z" fill="#543141"/>
<path d="M212.86 168.3L212.74 180.12C199.11 180.03 151.78 179.68 138.77 179.58L140.86 167.51L212.86 168.3Z" fill="#63394C"/>
<path d="M210.1 184.18L209.98 196C196.35 195.91 149.02 195.56 136.01 195.46L138.1 183.39L210.1 184.18Z" fill="#7A485A"/>
<path d="M338.18 165.01L337.72 169.14L337.58 170.34L336.5 179.86L335.45 189.17L334.35 198.85L316.97 186.14L314.86 184.58L314.52 182.36L312.73 170.62L312.47 168.87L311.47 162.34L338.18 165.01Z" fill="#A3313C"/>
<path d="M318.73 183.88H328.86V179.34H318.73V183.88Z" fill="#872533"/>
<path d="M322.91 190.02H333.04V185.48H322.91V190.02Z" fill="#872533"/>
<path d="M324.83 178.71H334.96V174.17H324.83V178.71Z" fill="#872533"/>
<g style="mix-blend-mode:multiply" opacity="0.5">
<path d="M337.72 169.14L337.58 170.34L336.5 179.86L335.45 189.17L314.52 182.36L312.73 170.62L337.72 169.14Z" fill="#B24F67"/>
</g>
<path d="M343.89 159.34L341.41 171.58L309.18 170.61L306.48 157.8L343.89 159.34Z" fill="#B73D4F"/>
<path d="M310.14 164.62H320.27V160.08H310.14V164.62Z" fill="#A3313C"/>
<path d="M316.48 169.58H326.61V165.04H316.48V169.58Z" fill="#A3313C"/>
<path d="M330.61 165.39H340.74V160.85H330.61V165.39Z" fill="#A3313C"/>
<path d="M309.18 170.61L306.48 157.8L343.89 159.34L307.82 159.18L309.18 170.61Z" fill="#DD5878"/>
<path d="M327.43 318.79V479.17H133.75L131.5 439.08L127.5 368.28L126.99 359.03L124.72 318.79H327.43Z" fill="url(#paint3_linear_13_14755)"/>
<g style="mix-blend-mode:multiply">
<path d="M190.58 371.02L191.62 372.5L191.28 427.95L169.7 427.85L167.64 426.61L190.58 371.02Z" fill="#BC9C9C"/>
</g>
<path d="M190.09 426.47L167.64 426.61L165.7 370.71L190.58 371.02L190.09 426.47Z" fill="#EFCDAF"/>
<path d="M187.84 372.65L187.63 403.72L187.51 424.02L170.02 424.14L168.47 372.33L187.84 372.65Z" fill="#42112F"/>
<path d="M178.566 371.321L177.466 371.328L177.827 425.837L178.927 425.83L178.566 371.321Z" fill="#EFCDAF"/>
<path d="M189.364 383.11L167.355 383.256L167.363 384.426L189.372 384.28L189.364 383.11Z" fill="#EFCDAF"/>
<g style="mix-blend-mode:lighten" opacity="0.25">
<path d="M187.63 403.72L187.51 424.02L172.41 424.12L173.81 415.15L187.63 403.72Z" fill="white"/>
</g>
<g style="mix-blend-mode:multiply">
<path d="M289.42 371.02L290.46 372.5L290.12 427.95L268.54 427.85L266.49 426.61L289.42 371.02Z" fill="#BC9C9C"/>
</g>
<path d="M288.93 426.47L266.49 426.61L264.55 370.71L289.42 371.02L288.93 426.47Z" fill="#EFCDAF"/>
<path d="M286.69 372.65L286.48 403.72L286.35 424.02L268.86 424.14L267.31 372.33L286.69 372.65Z" fill="#42112F"/>
<path d="M277.404 371.325L276.304 371.333L276.665 425.841L277.765 425.834L277.404 371.325Z" fill="#EFCDAF"/>
<path d="M288.212 383.105L266.203 383.251L266.211 384.421L288.22 384.275L288.212 383.105Z" fill="#EFCDAF"/>
<g style="mix-blend-mode:lighten" opacity="0.25">
<path d="M286.48 403.72L286.35 424.02L271.26 424.12L272.65 415.15L286.48 403.72Z" fill="white"/>
</g>
<path d="M246.77 439.38H208.97L206.59 369.22L249.74 368.9L246.77 439.38Z" fill="#EFCDAF"/>
<path d="M241.38 372.5L240.83 386.13L239.56 417.61H216.42L214.96 372.71L241.38 372.5Z" fill="#42112F"/>
<g style="mix-blend-mode:lighten" opacity="0.25">
<path d="M240.83 386.13L239.56 417.61H220.56L223.03 401.49L240.83 386.13Z" fill="white"/>
</g>
<path d="M228.83 371.56H227.29V422.54H228.83V371.56Z" fill="#EFCDAF"/>
<path d="M244.13 384.6H212.43V386.13H244.13V384.6Z" fill="#EFCDAF"/>
<path d="M244.13 402.34H212.43V403.87H244.13V402.34Z" fill="#EFCDAF"/>
<path d="M604.31 301.24H372.43V320.04H604.31V301.24Z" fill="url(#paint4_linear_13_14755)"/>
<path d="M604.31 301.24H596.24V320.04H604.31V301.24Z" fill="#EFCDAF"/>
<path d="M597.85 301.24H596.24V320.04H597.85V301.24Z" fill="#FFDDBA"/>
<g style="mix-blend-mode:multiply">
<path d="M604.31 301.24H372.43V304.84H604.31V301.24Z" fill="#BC9C9C"/>
</g>
<path d="M622.52 301.87H364.79L363.72 292.69L363.71 292.57L363.37 289.71L361.85 276.67L361.32 272.23L359.8 259.2L359.46 256.33L357.94 243.29L357.7 241.24L356.16 228.2L354.3 212.28L354.22 211.66H579.66L579.97 212.31L586.16 225.33L587.52 228.19L593.71 241.22L594.69 243.31L600.88 256.33L602.24 259.2L608.43 272.23L610.09 275.71L610.55 276.67L616.74 289.71L622.52 301.87Z" fill="#543141"/>
<path d="M586.16 225.33H495.87L491.81 212.31H579.97L586.16 225.33Z" fill="#63394C"/>
<path d="M492.69 225.34H357.11L354.76 212.31H488.67L492.69 225.34Z" fill="#7A485A"/>
<path d="M353.29 225.34H217.71L217.08 212.31H350.98L353.29 225.34Z" fill="#5E5167"/>
<path d="M586.04 241.23H448.43L445 228.2H580.95L586.04 241.23Z" fill="#63394C"/>
<path d="M445.21 241.23H307.6L305.88 228.2H441.83L445.21 241.23Z" fill="#63394C"/>
<path d="M303.72 241.23H166.11V228.2H302.05L303.72 241.23Z" fill="#5E5167"/>
<path d="M593.71 241.22H589.37L584.24 228.19H587.52L593.71 241.22Z" fill="#63394C"/>
<path d="M600.88 256.33H527.12L522.81 243.31H594.69L600.88 256.33Z" fill="#63394C"/>
<path d="M523.85 256.33H384.31L381.7 243.3H519.58L523.85 256.33Z" fill="#7A485A"/>
<path d="M380.37 256.33H240.83L239.94 243.3H377.81L380.37 256.33Z" fill="#5E5167"/>
<path d="M608.43 272.23H478.49L474.8 259.2H602.24L608.43 272.23Z" fill="#63394C"/>
<path d="M475.17 272.22H333.6L331.63 259.19H471.53L475.17 272.22Z" fill="#63394C"/>
<path d="M329.6 272.22H188.03L187.77 259.19H327.68L329.6 272.22Z" fill="#5E5167"/>
<path d="M616.74 289.71H563.91L559.3 276.67H610.55L616.74 289.71Z" fill="#63394C"/>
<path d="M560.53 289.71H416.73L413.82 276.67H555.97L560.53 289.71Z" fill="#7A485A"/>
<path d="M412.67 289.71H268.86L267.67 276.67H409.81L412.67 289.71Z" fill="#5E5167"/>
<path d="M618.01 292.56H510.03L512.86 301.87H621.74L618.01 292.56Z" fill="#63394C"/>
<path d="M364.11 301.87L362.5 292.56H506.65L509.45 301.87H364.11Z" fill="#63394C"/>
<path d="M358.42 292.56L360.01 301.87H286.35L283.67 292.56H358.42Z" fill="#5E5167"/>
<g style="mix-blend-mode:multiply" opacity="0.5">
<path d="M582.6 234.83L540.03 275.71L538.43 211.66H557.22L582.6 234.83Z" fill="#B24F67"/>
</g>
<path d="M540.03 215.88V275.71H479.71V215.88L483.3 211.11L511.04 174.22L536.7 211.11L540.03 215.88Z" fill="url(#paint5_linear_13_14755)"/>
<path d="M479.8 215.88L511.14 174.69L539.92 215.92L546.53 215.88L511.14 167.64L471.9 215.88H479.8Z" fill="#5D4E65"/>
<path d="M484.99 215.88L510.84 181.58L534.66 215.88L540.03 215.92L511.14 174.69L479.8 215.88H484.99Z" fill="#EFCDAF"/>
<path d="M484.99 211.11V275.71H479.71V215.88L483.53 210.98L484.99 211.11Z" fill="#EFCDAF"/>
<path d="M540.03 215.88V275.71H534.6V211.11H536.7L540.03 215.88Z" fill="#EFCDAF"/>
<g style="mix-blend-mode:multiply">
<path d="M526.68 268.74L500.7 269.6L498.13 267.76L497.18 219.11L526.24 215.06L528.88 216.97L526.68 268.74Z" fill="#BC9C9C"/>
</g>
<path d="M524.04 266.87L498.06 267.72L494.54 217.23L526.24 215.09L524.04 266.87Z" fill="#EFCDAF"/>
<path d="M522.54 219.12L521.36 247.18L520.67 263.21L501.32 263.85L499.49 237.65L498.31 220.75L522.54 219.12Z" fill="#561A3C"/>
<g style="mix-blend-mode:multiply">
<path d="M484.99 215.88L510.84 181.58L534.66 215.88L510.28 194.65L484.99 215.88Z" fill="#BC9C9C"/>
</g>
<g style="mix-blend-mode:lighten" opacity="0.25">
<path d="M522.54 219.12L521.36 247.18C513.89 243.89 505.72 240.32 499.49 237.65L498.31 220.75L522.54 219.11V219.12Z" fill="white"/>
</g>
<path d="M501.32 263.85L498.32 220.75L522.54 219.11L500.59 222.38L501.32 263.85Z" fill="#42112F"/>
<path d="M511.31 217.52H509.55V266.31H511.31V217.52Z" fill="#EFCDAF"/>
<g style="mix-blend-mode:multiply">
<path d="M479.71 215.88L511.14 174.69L540.03 215.88L511.05 177.74L479.71 215.88Z" fill="#BC9C9C"/>
</g>
<path d="M375.66 325.99H130.87L122.06 232.01L252.38 145.55L384.47 232.01L375.66 325.99Z" fill="url(#paint6_linear_13_14755)"/>
<path d="M122.25 234.01L129.84 315.18L136.87 315.1L131.75 233.89L122.25 234.01Z" fill="#EFCDAF"/>
<path d="M216.38 416.36L216.42 417.61H239.55L239.61 416.36H216.38Z" fill="#FFDDBA"/>
<path d="M127.21 362.87L131.41 439.31H136.68L133.39 362.87H127.21Z" fill="#EFCDAF"/>
<g style="mix-blend-mode:multiply">
<path d="M131.75 441.11L126.99 359.03L340.44 357.94L339.12 447.22L328.55 448.62L322.39 383.31H160.36L149.04 439.92L131.75 441.11Z" fill="#BC9C9C"/>
</g>
<path d="M663.61 318.79L657 439.08L654.8 479.17H465.78V318.79H663.61Z" fill="url(#paint7_linear_13_14755)"/>
<path d="M661.2 362.64L657 439.08H651.74L655.02 362.64H661.2Z" fill="#F2C7B6"/>
<path d="M655.02 362.64L651.74 439.08H652.47L655.76 362.64H655.02Z" fill="#FFDDBA"/>
<g style="mix-blend-mode:multiply">
<path d="M661.41 359.03L660.9 368.28H447.52V359.03H661.41Z" fill="#BC9C9C"/>
</g>
<path d="M153.76 439.7L149.04 439.92L144.07 440.17L139.18 368.05L138.49 359.59L138.35 357.94L151.12 359.35V359.59L151.15 360.68L151.4 368.05L153.76 439.7Z" fill="#DDBEA6"/>
<path d="M307.42 357.94L307.28 359.59L307.14 361.3L306.59 368.05L303.46 440.32L299.99 440.05L295.23 439.7L294.37 368.05L294.65 359.59V359.35L307.42 357.94Z" fill="#DDBEA6"/>
<path d="M153.76 439.7L149.04 439.92L147.31 370.1L147.1 361.64L147.09 361.4L151.15 360.68L151.4 368.05L153.76 439.7Z" fill="#C9AA95"/>
<path d="M307.14 361.3L306.59 368.05L303.46 440.32L299.99 440.05L301.2 370.64L301.48 362.19V361.92L307.14 361.3Z" fill="#C9AA95"/>
<g style="mix-blend-mode:multiply">
<g style="mix-blend-mode:multiply">
<path d="M151.4 368.05H139.18L138.49 359.59H151.12L151.4 368.05Z" fill="#BC9C9C"/>
</g>
<g style="mix-blend-mode:multiply">
<path d="M307.28 359.59L306.59 368.05H294.37L294.65 359.59H307.28Z" fill="#BC9C9C"/>
</g>
</g>
<path d="M678.57 354.18H109.51V362.64H678.57V354.18Z" fill="#EFCDAF"/>
<g style="mix-blend-mode:multiply">
<path d="M678.57 354.18H109.51V357.47H678.57V354.18Z" fill="#BC9C9C"/>
</g>
<path d="M681.8 355.12L608.45 354.93H606.32L515.32 354.69H512.75L440.53 354.5L440.3 346.12L439.36 313.15L660.53 310.72L664.91 319.33L670.97 332.17L672.29 334.99L677.56 346.12L678.37 347.83L681.8 355.12Z" fill="#543141"/>
<path d="M666.02 324.38H575.72L571.67 312.63H659.82L666.02 324.38Z" fill="#63394C"/>
<path d="M572.54 324.38H436.97L434.62 312.62H568.52L572.54 324.38Z" fill="#7A485A"/>
<path d="M432.31 320.15V324.38H433.14L432.31 320.15Z" fill="#5E5167"/>
<path d="M665.89 338.72H528.28L524.86 326.96H660.8L665.89 338.72Z" fill="#63394C"/>
<path d="M432.31 338.72H525.07L521.68 326.96H432.31V338.72Z" fill="#63394C"/>
<path d="M673.57 338.71H669.22L664.1 326.95H667.37L673.57 338.71Z" fill="#63394C"/>
<path d="M680.74 352.33H606.98L602.67 340.59H674.55L680.74 352.33Z" fill="#63394C"/>
<path d="M603.71 352.34H464.17L461.56 340.58H599.43L603.71 352.34Z" fill="#7A485A"/>
<path d="M432.31 352.34H460.23L457.67 340.58H432.31V352.34Z" fill="#5E5167"/>
<path d="M126.17 315.02L106.5 355.12L347.78 354.49L348.95 313.14L126.17 315.02Z" fill="#543141"/>
<path d="M122.1 326.61H212.4L216.45 315.23L128 315.42L122.1 326.61Z" fill="#63394C"/>
<path d="M215.58 326.62H351.15L353.5 315.22H219.6L215.58 326.62Z" fill="#7A485A"/>
<path d="M355.81 322.52V326.62H354.98L355.81 322.52Z" fill="#5E5167"/>
<path d="M122.23 340.51H259.84L263.26 329.12H127.32L122.23 340.51Z" fill="#63394C"/>
<path d="M355.81 340.51H263.05L266.44 329.12H355.81V340.51Z" fill="#63394C"/>
<path d="M114.55 340.5H118.9L124.02 329.11H120.75L114.55 340.5Z" fill="#63394C"/>
<path d="M107.38 353.71H181.14L185.45 342.32H113.57L107.38 353.71Z" fill="#63394C"/>
<path d="M184.41 353.71H323.95L326.56 342.32H188.69L184.41 353.71Z" fill="#7A485A"/>
<path d="M355.81 353.71H327.89L330.45 342.32H355.81V353.71Z" fill="#5E5167"/>
<g style="mix-blend-mode:multiply" opacity="0.5">
<path d="M377.92 301.87L384.47 232.01L354.3 212.28L354.23 211.66H380.96L408.68 234.36L458.08 301.87L483.97 337.26L376.26 319.56L377.92 301.87Z" fill="#B24F67"/>
</g>
<path d="M663.03 439.08L661.99 457.63L660.77 479.17H127.78L125.48 439.08H663.03Z" fill="#F2C7B6"/>
<path d="M122.65 234.05L252.39 145.56C254.01 145.56 366.81 222.27 384.47 234.25L393.52 234.21L253.27 137.1L113.09 234.21L122.65 234.05Z" fill="#663B4D"/>
<g style="mix-blend-mode:multiply">
<path d="M661.99 457.63L660.77 479.17H639.94L641.3 438.6L643.21 372.03L653.34 439.08H658.32L661.99 457.63Z" fill="#BC9C9C"/>
</g>
<path d="M640.27 479.17H496.74L493.51 372.03L644.46 369.92L640.27 479.17Z" fill="#FFDDBA"/>
<path d="M637.63 377.67L637.16 395.3L637.12 396.69L636.84 407.12L636.8 408.53L636.52 418.95L636.49 420.36L636.2 430.77L636.17 432.18L635.89 442.59L635.85 444L635.59 454.41L635.53 455.82L635.27 466.24L635.22 467.66L634.92 479.17H502.08L501.74 467.66L501.69 466.24L501.39 455.82L501.35 454.41L501.04 444L501 442.59L500.69 432.18L500.65 430.77L500.33 420.36L500.3 418.95L500 408.53L499.95 407.12L499.65 396.69L499.61 395.3L499.08 377.67H637.63Z" fill="#EAC2B0"/>
<path d="M637.16 395.3L637.12 396.69H499.65L499.61 395.3H637.16Z" fill="#C99E8D"/>
<path d="M636.84 407.12L636.8 408.53H500L499.95 407.12H636.84Z" fill="#C99E8D"/>
<path d="M636.52 418.95L636.49 420.36H500.33L500.3 418.95H636.52Z" fill="#C99E8D"/>
<path d="M636.2 430.77L636.17 432.18H500.69L500.65 430.77H636.2Z" fill="#C99E8D"/>
<path d="M635.89 442.59L635.85 444H501.04L501 442.59H635.89Z" fill="#C99E8D"/>
<path d="M635.59 454.41L635.53 455.82H501.39L501.35 454.41H635.59Z" fill="#C99E8D"/>
<path d="M635.27 466.24L635.22 467.66H501.74L501.69 466.24H635.27Z" fill="#C99E8D"/>
<g style="mix-blend-mode:multiply">
<path d="M510.99 479.17H473.85L482.21 335.06L501.14 377.67L510.99 479.17Z" fill="#BC9C9C"/>
</g>
<path d="M493.51 372.03L644.46 369.92L640.27 479.17L643.21 372.03H493.51Z" fill="#FFEBD9"/>
<path d="M631.33 382.05L629.86 393.16L628.68 402.11L514.67 402.41L509.21 402.43L507.17 382.05H631.33Z" fill="#FFDDBA"/>
<path d="M627.28 385.81L626.29 393.33L625.62 398.35L513.54 398.65H512.38L511.08 385.81H627.28Z" fill="#561A3C"/>
<path d="M512.38 398.65L511.08 385.82H627.27L626.75 389.75L512.75 388.32L513.47 398.65H512.38Z" fill="#42112F"/>
<g style="mix-blend-mode:lighten" opacity="0.25">
<path d="M626.29 393.33L625.62 398.35L513.54 398.65L626.29 393.33Z" fill="white"/>
</g>
<path d="M570.2 384.25H567.85V401.79H570.2V384.25Z" fill="#FFDDBA"/>
<path d="M532.7 384.25H530.35V401.79H532.7V384.25Z" fill="#FFDDBA"/>
<path d="M607.69 384.25H605.34V401.79H607.69V384.25Z" fill="#FFDDBA"/>
<g style="mix-blend-mode:multiply">
<path d="M502.08 479.17L499.09 377.67H637.63L637.41 385.07L509.22 387.07L505.99 479.17H502.08Z" fill="#BC9C9C"/>
</g>
<path d="M264.71 439.08L259.22 479.17H196.03L191.48 439.08H264.71Z" fill="#CCA597"/>
<path d="M226.07 439.08L223.48 479.17H196.03L191.48 439.08H226.07Z" fill="#AA8B83"/>
<path d="M251.28 448.47H204.17L203.51 439.08H252.53L251.28 448.47Z" fill="#F2C7B6"/>
<path d="M254.59 457.87H200.87L199.84 448.47H255.47L254.59 457.87Z" fill="#F2C7B6"/>
<path d="M257.67 467.27H197.79L196.25 457.87H259.21L257.67 467.27Z" fill="#F2C7B6"/>
<path d="M259.21 476.67H196.25L195.44 467.27H259.87L259.21 476.67Z" fill="#F2C7B6"/>
<path d="M264.71 476.67H190.52V479.17H264.71V476.67Z" fill="#F2C7B6"/>
<path d="M252.53 439.08H203.51L204.17 448.47H205.57L206.15 441.26L252.26 441.11L252.53 439.08Z" fill="#D6B2A5"/>
<path d="M255.47 448.47H199.84L200.87 457.87H202.41L201.75 449.92L255.29 450.39L256.02 448.47H255.47Z" fill="#D6B2A5"/>
<path d="M259.21 457.87H196.25L197.79 467.27L199.11 467.11V460.22L258.8 460.36L259.21 457.87Z" fill="#D6B2A5"/>
<path d="M259.87 467.27H195.44L196.25 476.67L198.67 476.58L198.45 469.77H259.87V467.27Z" fill="#D6B2A5"/>
<path d="M259.7 476.54L264.29 438.88L322.71 439.08L267.47 443.65L259.7 476.54Z" fill="#FFDDBA"/>
<path d="M122.25 234.04L131.75 233.89L253.26 151.9L374.78 234.2L384.47 234.12L252.38 145.55L122.25 234.04Z" fill="#EFCDAF"/>
<path d="M183.7 439.23H180.4L179.74 417.22H183.92L183.7 439.23Z" fill="#FFDDBA"/>
<path d="M183.19 417.22L182.97 439.23H183.7L183.92 417.22H183.19Z" fill="#DDBEA6"/>
<path d="M170.77 439.23H167.46L166.8 417.22H170.99L170.77 439.23Z" fill="#FFDDBA"/>
<path d="M170.25 417.22L170.03 439.23H170.77L170.99 417.22H170.25Z" fill="#DDBEA6"/>
<path d="M157.83 439.23H154.53L153.87 417.22H158.05L157.83 439.23Z" fill="#FFDDBA"/>
<path d="M157.32 417.22L157.1 439.23H157.83L158.05 417.22H157.32Z" fill="#DDBEA6"/>
<path d="M144.9 439.23H141.6L140.94 417.22H145.12L144.9 439.23Z" fill="#FFDDBA"/>
<path d="M144.39 417.22L144.17 439.23H144.9L145.12 417.22H144.39Z" fill="#DDBEA6"/>
<path d="M131.97 439.23H128.66L128 417.22H132.19L131.97 439.23Z" fill="#FFDDBA"/>
<path d="M131.45 417.22L131.23 439.23H131.97L132.19 417.22H131.45Z" fill="#FCB18B"/>
<path d="M324.37 439.23H321.07L320.41 417.22H324.59L324.37 439.23Z" fill="#FFDDBA"/>
<path d="M323.86 417.22L323.64 439.23H324.37L324.59 417.22H323.86Z" fill="#FCB18B"/>
<path d="M311.44 439.23H308.13L307.47 417.22H311.66L311.44 439.23Z" fill="#FFDDBA"/>
<path d="M310.92 417.22L310.7 439.23H311.44L311.66 417.22H310.92Z" fill="#DDBEA6"/>
<path d="M298.5 439.23H295.2L294.54 417.22H298.72L298.5 439.23Z" fill="#FFDDBA"/>
<path d="M297.99 417.22L297.77 439.23H298.5L298.72 417.22H297.99Z" fill="#DDBEA6"/>
<path d="M285.57 439.23H282.27L281.61 417.22H285.79L285.57 439.23Z" fill="#FFDDBA"/>
<path d="M285.06 417.22L284.84 439.23H285.57L285.79 417.22H285.06Z" fill="#DDBEA6"/>
<path d="M272.64 439.23H269.33L268.67 417.22H272.86L272.64 439.23Z" fill="#FFDDBA"/>
<path d="M272.12 417.22L271.9 439.23H272.64L272.86 417.22H272.12Z" fill="#DDBEA6"/>
<path d="M127.78 479.17L125.48 439.08H191.48L129.1 442.52L127.78 479.17Z" fill="#FFDDBA"/>
<path d="M188.32 416.44H125.36V419.49H188.32V416.44Z" fill="#FFDDBA"/>
<path d="M327.67 416.44H264.71V419.49H327.67V416.44Z" fill="#FFDDBA"/>
<path d="M384.47 234.12L376.69 315.18L369.66 315.1L374.78 234.2L384.47 234.12Z" fill="#EFCDAF"/>
<path d="M482.21 335.06L475.73 446.59L473.41 486.69H325.47L323.15 446.59L316.66 335.06L398.86 264.9L482.21 335.06Z" fill="url(#paint8_linear_13_14755)"/>
<path d="M479.86 446.59L477.41 486.69H321.46L319.01 446.59H479.86Z" fill="#FFDDBA"/>
<path d="M321.46 486.69L319.01 446.59H479.86L479.59 451L329.29 451.6L325.47 486.69H321.46Z" fill="#FFEBD9"/>
<g style="mix-blend-mode:multiply">
<path d="M131.75 233.89L253.26 151.9L374.78 234.2L253.36 161.14L131.75 233.89Z" fill="#BC9C9C"/>
</g>
<g style="mix-blend-mode:multiply">
<path d="M122.25 234.01L252.38 145.55L384.47 234.12L253.26 149.78L122.25 234.01Z" fill="#BC9C9C"/>
</g>
<path d="M398.86 264.9L316.66 335.06L323.15 446.59H330.75L323.48 337.18L398.94 269.6L476.52 336.04L468.42 446.59H475.73L482.21 335.06L398.86 264.9Z" fill="#FFDDBA"/>
<path d="M316.66 335.06H309.57L398.89 258.32L490.29 335.06H482.21L398.86 264.9L316.66 335.06Z" fill="#7A485A"/>
<g style="mix-blend-mode:multiply">
<path d="M323.26 337.24L398.94 269.72L476.3 336.1L399.22 275.77L323.26 337.24Z" fill="#BC9C9C"/>
</g>
<g style="mix-blend-mode:multiply">
<path d="M316.66 335.06L398.86 264.9L482.21 335.06L398.94 267.6L316.66 335.06Z" fill="#BC9C9C"/>
</g>
<path d="M462.85 385.82H448.1V391.62H462.85V385.82Z" fill="#FC9112"/>
<path d="M454.93 392.63H440.18V398.43H454.93V392.63Z" fill="#FC9112"/>
<path d="M470.56 392.63H455.81V398.43H470.56V392.63Z" fill="#FC9112"/>
<path d="M296.42 199.27H281.67V205.07H296.42V199.27Z" fill="#FC9112"/>
<path d="M288.5 206.09H273.75V211.89H288.5V206.09Z" fill="#FC9112"/>
<path d="M304.13 206.09H289.38V211.89H304.13V206.09Z" fill="#FC9112"/>
<path d="M448.76 362.79H434.01V368.59H448.76V362.79Z" fill="#FFC688"/>
<path d="M356.74 336.48H341.99V342.28H356.74V336.48Z" fill="#FC9112"/>
<path d="M258.56 180.01H243.81V185.81H258.56V180.01Z" fill="#FC9112"/>
<path d="M217.78 259.99H203.03V265.79H217.78V259.99Z" fill="#FC9112"/>
<path d="M222.19 267.64H207.44V273.44H222.19V267.64Z" fill="#FC9112"/>
<path d="M229.5 191.76H214.75V197.56H229.5V191.76Z" fill="#FC9112"/>
<path d="M360.14 238.98H345.39V244.78H360.14V238.98Z" fill="#FC9112"/>
<path d="M368.07 246.5H353.32V252.3H368.07V246.5Z" fill="#FC9112"/>
<path d="M202.08 212.2H187.33V218H202.08V212.2Z" fill="#FFC688"/>
<path d="M354.17 269.83H339.42V275.63H354.17V269.83Z" fill="#FFC688"/>
<path d="M154.53 276.81H139.78V282.61H154.53V276.81Z" fill="#FC9112"/>
<path d="M159.77 254.16H145.02V259.96H159.77V254.16Z" fill="#FC9112"/>
<path d="M195.7 205.62H180.95V211.42H195.7V205.62Z" fill="#FFC688"/>
<path d="M349.92 343.06H335.17V348.86H349.92V343.06Z" fill="#FC9112"/>
<path d="M365.33 388.17H350.58V393.97H365.33V388.17Z" fill="#FC9112"/>
<path d="M379.86 317.68H365.11V323.48H379.86V317.68Z" fill="#FFC688"/>
<path d="M349.48 388.17H334.73V393.97H349.48V388.17Z" fill="#FC9112"/>
<path d="M357.18 394.98H342.43V400.78H357.18V394.98Z" fill="#FFC688"/>
<path d="M447.44 431.87H432.69V437.67H447.44V431.87Z" fill="#FC9112"/>
<path d="M439.74 318.62H424.99V324.42H439.74V318.62Z" fill="#FC9112"/>
<path d="M399.2 321.77C407.368 321.77 413.99 315.435 413.99 307.62C413.99 299.805 407.368 293.47 399.2 293.47C391.032 293.47 384.41 299.805 384.41 307.62C384.41 315.435 391.032 321.77 399.2 321.77Z" fill="#FFDDBA"/>
<path d="M410.68 307.62C410.68 310.05 409.85 312.3 408.45 314.12C406.36 316.84 402.99 318.6 399.19 318.6C392.85 318.6 387.72 313.68 387.72 307.61C387.72 307.21 387.74 306.82 387.79 306.43C388.4 300.91 393.27 296.61 399.2 296.61C405.55 296.61 410.68 301.54 410.68 307.61V307.62Z" fill="#561A3C"/>
<g style="mix-blend-mode:lighten" opacity="0.25">
<path d="M410.68 307.62C410.68 310.05 409.85 312.3 408.45 314.12L387.79 306.44C388.4 300.92 393.27 296.62 399.2 296.62C405.55 296.62 410.68 301.55 410.68 307.62Z" fill="white"/>
</g>
<path d="M390.11 307.81C390.11 301.8 395.15 296.93 401.39 296.83C400.68 296.7 399.95 296.62 399.2 296.62C392.86 296.62 387.72 301.54 387.72 307.61C387.72 313.68 392.86 318.6 399.2 318.6C399.27 318.6 399.33 318.6 399.4 318.6C394.11 317.62 390.11 313.17 390.11 307.82V307.81Z" fill="#42112F"/>
<g style="mix-blend-mode:multiply">
<path d="M200.67 231.24L202.25 233.24L201.68 308.31L168.77 308.21L165.63 306.53L200.67 231.24Z" fill="#BC9C9C"/>
</g>
<path d="M199.87 306.31L165.63 306.53L162.73 230.85L200.67 231.24L199.87 306.31Z" fill="#EFCDAF"/>
<path d="M196.5 233.45L196.15 275.52L195.93 303L169.25 303.18L166.94 233.04L196.5 233.45Z" fill="#42112F"/>
<path d="M182.38 231.658L180.7 231.669L181.189 305.458L182.869 305.447L182.38 231.658Z" fill="#EFCDAF"/>
<path d="M198.786 247.611L165.207 247.833L165.217 249.423L198.796 249.201L198.786 247.611Z" fill="#EFCDAF"/>
<g style="mix-blend-mode:lighten" opacity="0.25">
<path d="M196.15 275.52L195.93 303L172.91 303.15L175.04 291L196.15 275.52Z" fill="white"/>
</g>
<g style="mix-blend-mode:multiply">
<path d="M268.45 231.24L270.03 233.24L269.46 308.31L236.55 308.21L233.41 306.53L268.45 231.24Z" fill="#BC9C9C"/>
</g>
<path d="M267.65 306.31L233.41 306.53L230.5 230.85L268.45 231.24L267.65 306.31Z" fill="#EFCDAF"/>
<path d="M264.27 233.45L263.93 275.52L263.71 303L237.03 303.18L234.72 233.04L264.27 233.45Z" fill="#42112F"/>
<path d="M250.158 231.649L248.478 231.66L248.968 305.448L250.648 305.437L250.158 231.649Z" fill="#EFCDAF"/>
<path d="M266.564 247.601L232.985 247.824L232.996 249.414L266.575 249.191L266.564 247.601Z" fill="#EFCDAF"/>
<g style="mix-blend-mode:lighten" opacity="0.25">
<path d="M263.93 275.52L263.71 303L240.69 303.15L242.82 291L263.93 275.52Z" fill="white"/>
</g>
<g style="mix-blend-mode:multiply">
<path d="M420.08 350.86L421.87 353.01L421.19 433.75L383.84 433.66L380.27 431.86L420.08 350.86Z" fill="#BC9C9C"/>
</g>
<path d="M419.14 431.6L380.27 431.86L377.01 350.46L420.08 350.86L419.14 431.6Z" fill="#FFDDBA"/>
<path d="M415.34 353.24L414.93 398.49L414.67 428.04L384.39 428.24L381.79 352.81L415.34 353.24Z" fill="#42112F"/>
<path d="M399.319 351.307L397.409 351.319L397.935 430.678L399.845 430.665L399.319 351.307Z" fill="#FFDDBA"/>
<path d="M417.933 368.455L379.813 368.708L379.825 370.418L417.944 370.165L417.933 368.455Z" fill="#FFDDBA"/>
<g style="mix-blend-mode:lighten" opacity="0.25">
<path d="M414.93 398.49L414.67 428.04L388.54 428.22L390.96 415.15L414.93 398.49Z" fill="white"/>
</g>
<g style="mix-blend-mode:multiply">
<path d="M328.52 231.24L330.1 233.24L329.52 308.31L296.61 308.21L293.47 306.53L328.52 231.24Z" fill="#BC9C9C"/>
</g>
<path d="M327.72 306.31L293.47 306.53L290.57 230.85L328.52 231.24L327.72 306.31Z" fill="#EFCDAF"/>
<path d="M324.34 233.45L323.99 275.52L323.77 303L297.1 303.18L294.79 233.04L324.34 233.45Z" fill="#42112F"/>
<path d="M310.217 231.65L308.537 231.662L309.026 305.45L310.706 305.439L310.217 231.65Z" fill="#EFCDAF"/>
<path d="M326.623 247.603L293.044 247.826L293.054 249.416L326.634 249.193L326.623 247.603Z" fill="#EFCDAF"/>
<g style="mix-blend-mode:lighten" opacity="0.25">
<path d="M323.99 275.52L323.77 303L300.75 303.15L302.88 291L323.99 275.52Z" fill="white"/>
</g>
<path d="M834.84 530.44L684.37 530.81L685.66 534.54H834.84V530.44Z" fill="#EFCECE"/>
<path d="M-256.64 529.77L-260.17 529.76L-323.3 529.49V535.71L-259.18 535.66H-257.8L151.9 535.35L154.32 531.46L-256.64 529.77Z" fill="#EFCECE"/>
<path d="M152 535.22L151.9 535.35L-323.3 535.72V541.03L152.25 542.19L156.94 535.22L194.61 479.11L152 535.22Z" fill="#B29A9A"/>
<path d="M261.28 479.11C261.06 480.81 291.38 545.12 291.38 545.12L484.25 545.41L506.61 479.15L483.28 539.53L291.93 539.38L261.28 479.1V479.11Z" fill="#B29A9A"/>
<path d="M834.84 534.54H685.66L632.48 479.56L684.83 540.13L834.84 540.42V534.54Z" fill="#B29A9A"/>
<path d="M43.13 530.8L42.04 536.37L41.97 536.69L40.93 542.19L40.59 536.69L40.57 536.37L39.6 530.79L43.13 530.8Z" fill="#9B8181"/>
<path d="M43.1299 530.8L41.9699 536.69L40.9299 542.19L41.4899 536.53L43.1299 530.8Z" fill="#F9E1E1"/>
<path d="M386.25 534.07L385.15 539.71L385.09 540.04L384.05 545.61L383.71 540.04L383.69 539.71L382.72 534.06L386.25 534.07Z" fill="#9B8181"/>
<path d="M386.25 534.07L385.09 540.04L384.05 545.61L384.6 539.88L386.25 534.07Z" fill="#F9E1E1"/>
<path d="M-323.3 539.08V541.02L152.25 540.82L-323.3 539.08Z" fill="#9B8181"/>
<path d="M291.39 545.13L484.22 545.42L383.96 546.7L291.48 545.13H291.39Z" fill="#9B8181"/>
<path d="M834.84 540.13H684.83L834.84 542.44V540.13Z" fill="#9B8181"/>
<path d="M297.72 492.49L298.82 486.32L300.75 489.26L302.68 481.03L303.78 488.97L306.54 483.38L306.26 488.97L309.85 486.03L309.29 492.49H297.72Z" fill="#CCB409"/>
<path d="M44.98 519.94L46.08 513.76L48.01 516.7L49.93 508.47L51.04 516.41L53.79 510.82L53.52 516.41L57.1 513.47L56.55 519.94H44.98Z" fill="#B29A0B"/>
<path d="M671.97 493.87L673.08 487.69L675.01 490.63L676.93 482.4L678.04 490.34L680.79 484.75L680.52 490.34L684.1 487.4L683.55 493.87H671.97Z" fill="#B29A0B"/>
<path d="M288.63 491.46L286.7 488.23L291.39 491.17L290.56 478.53L294.69 490.58L296.34 485.88L297.17 492.94L288.63 491.46Z" fill="#CCB409"/>
<path d="M437.96 493.67L438.51 489.26L441.27 491.91L446.5 479.56L445.13 492.79L449.54 488.08L449.81 492.2L457.53 486.91L457.8 493.67H437.96Z" fill="#CCB409"/>
<path d="M105.87 492.89L106.42 488.48L109.17 491.12L114.41 478.77L113.03 492L117.44 487.3L117.71 491.42L125.43 486.12L125.7 492.89H105.87Z" fill="#CCB409"/>
<path d="M369.91 488.97L372.94 491.32L374.04 484.85L376.52 491.02L379.55 482.5V491.91L384.79 484.26L382.86 493.67L370.18 495.14L369.91 488.97Z" fill="#CCB409"/>
<path d="M330.42 523.96L328.95 517.29L331.52 519.64L333.72 513.37L334.46 521.6L338.5 516.51L338.13 522.39L341.81 518.08L342.54 521.21L346.95 514.94L347.68 520.04L351.36 518.47L352.46 520.82L356.5 518.08L356.87 522.78L364.22 516.51L361.64 527.09L330.42 523.96Z" fill="#B29A0B"/>
<path d="M745.17 519.25L742.97 513.37L747.38 516.51L749.22 509.45L751.06 516.12C751.06 516.12 756.57 502.79 756.2 503.97C755.83 505.15 754.73 514.95 754.73 514.95L759.87 510.25V515.35L765.01 512.61L765.38 515.75L769.79 513.01L770.89 516.54L775.67 510.27L776.4 515.76L784.85 507.92L783.75 516.55L788.89 511.45L788.52 516.94L792.56 513.41L791.46 520.47L745.17 519.29V519.25Z" fill="#B29A0B"/>
<path d="M517.04 524.25L513.46 535.42L518.97 523.37L517.04 524.25Z" fill="#B29A9A"/>
<path d="M546.89 523.47L551.11 521.41L551.2 523.47L556.9 523.37L559.65 517.68L561.31 523.96L546.89 523.47Z" fill="#B29A9A"/>
<path d="M583.9 495.73L587.76 503.57L586.47 495.58L583.9 495.73Z" fill="#B29A9A"/>
<path d="M615.13 495.58L614.92 492.79L618.5 496.1L615.13 495.58Z" fill="#B29A9A"/>
<path d="M483.29 539.54L478.1 534.24L482.05 539.54H483.29Z" fill="#B29A9A"/>
<path d="M598.32 523.96L604.1 534.54L601.49 523.96H598.32Z" fill="#B29A9A"/>
<path d="M689.06 530.92L685.66 534.54L684.65 533.66L689.06 530.92Z" fill="#B29A9A"/>
<path d="M295.09 533.96L291.94 539.39L290.83 537.63L295.09 533.96Z" fill="#B29A9A"/>
<path d="M149.42 531.53L152.18 535.72L149.9 535.87L149.42 531.53Z" fill="#B29A9A"/>
<path d="M193.85 496.02L198.4 489.55L196.74 496.17L193.85 496.02Z" fill="#B29A9A"/>
<path d="M192.61 523.96L191.51 528.52L193.58 525.14C193.58 525.14 193.72 527.93 193.72 527.49C193.72 527.05 198.4 524.11 198.4 524.11L192.61 523.96Z" fill="#B29A9A"/>
<path d="M235.59 495.88L236.83 501.32L237.93 495.43L235.59 495.88Z" fill="#B29A9A"/>
<path d="M228.7 523.81L231.05 518.81L231.73 524.1L228.7 523.81Z" fill="#B29A9A"/>
<path d="M203.91 523.96L209.14 514.55L206.66 524.1L203.91 523.96Z" fill="#B29A9A"/>
<path d="M256.58 515.14C256.58 515.9 254.85 516.51 252.72 516.51C250.59 516.51 248.86 515.9 248.86 515.14C248.86 514.38 250.59 513.77 252.72 513.77C254.85 513.77 256.58 514.38 256.58 515.14Z" fill="#B29A9A"/>
<path d="M247.03 511.21C247.03 511.57 246.21 511.86 245.19 511.86C244.17 511.86 243.35 511.57 243.35 511.21C243.35 510.85 244.17 510.56 245.19 510.56C246.21 510.56 247.03 510.85 247.03 511.21Z" fill="#B29A9A"/>
<path d="M204.41 486.58C204.41 486.94 203.59 487.23 202.57 487.23C201.55 487.23 200.73 486.94 200.73 486.58C200.73 486.22 201.55 485.93 202.57 485.93C203.59 485.93 204.41 486.22 204.41 486.58Z" fill="#B29A9A"/>
<path d="M175.57 538.72C175.57 539.08 174.75 539.37 173.73 539.37C172.71 539.37 171.89 539.08 171.89 538.72C171.89 538.36 172.71 538.07 173.73 538.07C174.75 538.07 175.57 538.36 175.57 538.72Z" fill="#B29A9A"/>
<path d="M160.88 551.73C162.907 551.73 164.55 551.143 164.55 550.42C164.55 549.696 162.907 549.11 160.88 549.11C158.853 549.11 157.21 549.696 157.21 550.42C157.21 551.143 158.853 551.73 160.88 551.73Z" fill="#B29A9A"/>
<path d="M108.9 547.61C110.927 547.61 112.57 547.023 112.57 546.3C112.57 545.576 110.927 544.99 108.9 544.99C106.873 544.99 105.23 545.576 105.23 546.3C105.23 547.023 106.873 547.61 108.9 547.61Z" fill="#B29A9A"/>
<path d="M268.52 535.52C270.044 535.52 271.28 535.081 271.28 534.54C271.28 533.999 270.044 533.56 268.52 533.56C266.996 533.56 265.76 533.999 265.76 534.54C265.76 535.081 266.996 535.52 268.52 535.52Z" fill="#B29A9A"/>
<path d="M343.18 554.15C344.704 554.15 345.94 553.711 345.94 553.17C345.94 552.629 344.704 552.19 343.18 552.19C341.656 552.19 340.42 552.629 340.42 553.17C340.42 553.711 341.656 554.15 343.18 554.15Z" fill="#B29A9A"/>
<path d="M333.26 557.18C334.63 557.18 335.74 556.786 335.74 556.3C335.74 555.814 334.63 555.42 333.26 555.42C331.89 555.42 330.78 555.814 330.78 556.3C330.78 556.786 331.89 557.18 333.26 557.18Z" fill="#B29A9A"/>
<path d="M468.82 549.54C468.82 550.41 466.85 551.11 464.41 551.11C461.97 551.11 460 550.41 460 549.54C460 548.67 461.97 547.97 464.41 547.97C466.85 547.97 468.82 548.67 468.82 549.54Z" fill="#B29A9A"/>
<path d="M659.21 530.23C661.646 530.23 663.62 529.527 663.62 528.66C663.62 527.793 661.646 527.09 659.21 527.09C656.775 527.09 654.8 527.793 654.8 528.66C654.8 529.527 656.775 530.23 659.21 530.23Z" fill="#B29A9A"/>
<path d="M731.95 550.81C734.386 550.81 736.36 550.107 736.36 549.24C736.36 548.373 734.386 547.67 731.95 547.67C729.514 547.67 727.54 548.373 727.54 549.24C727.54 550.107 729.514 550.81 731.95 550.81Z" fill="#B29A9A"/>
<path d="M743.52 553.17C745.955 553.17 747.93 552.467 747.93 551.6C747.93 550.733 745.955 550.03 743.52 550.03C741.084 550.03 739.11 550.733 739.11 551.6C739.11 552.467 741.084 553.17 743.52 553.17Z" fill="#B29A9A"/>
<path d="M653.7 533.37C653.7 533.86 652.59 534.25 651.22 534.25C649.85 534.25 648.74 533.86 648.74 533.37C648.74 532.88 649.85 532.49 651.22 532.49C652.59 532.49 653.7 532.88 653.7 533.37Z" fill="#B29A9A"/>
<path d="M572.14 549.24C572.14 549.73 571.03 550.12 569.66 550.12C568.29 550.12 567.18 549.73 567.18 549.24C567.18 548.75 568.29 548.36 569.66 548.36C571.03 548.36 572.14 548.75 572.14 549.24Z" fill="#B29A9A"/>
<path d="M574.62 553.07C575.99 553.07 577.1 552.676 577.1 552.19C577.1 551.704 575.99 551.31 574.62 551.31C573.25 551.31 572.14 551.704 572.14 552.19C572.14 552.676 573.25 553.07 574.62 553.07Z" fill="#B29A9A"/>
<path d="M618.98 490.14C620.35 490.14 621.46 489.746 621.46 489.26C621.46 488.774 620.35 488.38 618.98 488.38C617.61 488.38 616.5 488.774 616.5 489.26C616.5 489.746 617.61 490.14 618.98 490.14Z" fill="#B29A9A"/>
<path d="M599.7 502.2C599.7 502.69 598.59 503.08 597.22 503.08C595.85 503.08 594.74 502.69 594.74 502.2C594.74 501.71 595.85 501.32 597.22 501.32C598.59 501.32 599.7 501.71 599.7 502.2Z" fill="#B29A9A"/>
<path d="M507.67 502.79C509.498 502.79 510.98 502.262 510.98 501.61C510.98 500.958 509.498 500.43 507.67 500.43C505.842 500.43 504.36 500.958 504.36 501.61C504.36 502.262 505.842 502.79 507.67 502.79Z" fill="#B29A9A"/>
<path d="M515.39 503.96C515.39 504.18 514.9 504.35 514.29 504.35C513.68 504.35 513.19 504.17 513.19 503.96C513.19 503.75 513.68 503.57 514.29 503.57C514.9 503.57 515.39 503.75 515.39 503.96Z" fill="#B29A9A"/>
<path d="M527.23 485.34C527.23 485.56 526.74 485.73 526.13 485.73C525.52 485.73 525.03 485.55 525.03 485.34C525.03 485.13 525.52 484.95 526.13 484.95C526.74 484.95 527.23 485.13 527.23 485.34Z" fill="#B29A9A"/>
<path d="M263.01 539.05C263.01 539.37 262.27 539.64 261.36 539.64C260.45 539.64 259.71 539.38 259.71 539.05C259.71 538.72 260.45 538.46 261.36 538.46C262.27 538.46 263.01 538.72 263.01 539.05Z" fill="#B29A9A"/>
<path d="M67.3201 516.67L67.8701 512.26L70.6201 514.91L75.8601 502.56L74.4801 515.79L78.8901 511.09L79.1601 515.2L86.8801 509.91L87.1501 516.67H67.3201Z" fill="#B29A0B"/>
<g style="mix-blend-mode:lighten" opacity="0.85">
<path d="M815.15 91.34L802.12 116.74L754.39 117.25L750.27 117.3L726.14 117.56L705.21 117.34L697.78 117.27L659.8 116.87H658.81L588.54 116.13L562.93 115.87L541.75 115.65L483.2 115.04C480.85 112.25 479.97 108.12 481.6 104.27L483.81 99.03C485.56 94.88 488.99 91.81 493.14 90.7L497.4 89.56C503.18 88.03 509.25 90.59 512.47 95.94L517.88 104.94C520.64 109.51 526.2 111.09 530.72 108.59L534.17 106.67C534.17 106.67 534.28 106.61 534.49 106.52C534.88 106.32 535.63 105.94 536.63 105.46C538.71 104.47 541.85 103.04 545.23 101.75C549.34 100.18 553.78 98.84 556.95 98.84C559.85 98.84 575.54 104.71 581.68 107.06C583.2 107.64 584.14 108 584.14 108L576.75 90.89L574.35 85.34C572.56 81.18 572.71 76.37 574.76 72.35C574.79 72.29 574.82 72.23 574.85 72.17C575.96 70.01 577.26 67.5 578.65 64.92C583.13 56.54 588.35 47.45 589.98 47.46C593.01 47.49 636.99 40.68 643.03 43.16C647.66 45.07 659.22 69.9 664.34 81.34C665.96 84.96 666.1 89.11 664.75 92.85L658.32 110.4C658.32 110.4 660.1 108.36 662.43 105.89C664.96 103.22 668.16 100.06 670.53 98.4C672.03 97.36 675.69 97.99 679.95 99.3C688.72 101.99 699.99 107.6 699.99 107.6C699.99 107.6 700.95 102.75 704.35 97.98C706.23 95.34 708.88 92.74 712.52 91C712.68 90.92 712.84 90.83 713.01 90.76C721.8 86.84 736.66 97.33 741.57 101.1C742.47 101.8 743.05 102.27 743.17 102.36C742.63 101.68 732.8 89.05 735.85 78.07C735.9 77.91 735.94 77.74 736 77.57C736.86 75.08 739.13 72.23 742.27 69.35C743.11 68.58 744 67.8 744.96 67.02C756.64 57.56 776.19 48.47 785.32 50.29C793.71 51.96 805.88 65.04 813.31 73.92C815.58 76.63 816.8 80.05 816.91 83.52C816.99 86.19 816.42 88.89 815.16 91.33L815.15 91.34Z" fill="#F7F4FD"/>
<path d="M562.92 115.85L541.74 115.63L483.19 115.02C480.84 112.23 479.96 108.1 481.59 104.25L483.8 99.0101C485.55 94.8601 488.98 91.79 493.13 90.68L497.39 89.54C503.17 88.01 509.24 90.57 512.46 95.92L517.87 104.92C520.63 109.49 526.19 111.07 530.71 108.57L534.16 106.65C534.16 106.65 534.27 106.59 534.48 106.5C536.82 109.43 539.15 112.35 541.5 115.28C539.55 112.1 537.88 108.81 536.63 105.44C538.71 104.45 541.85 103.02 545.23 101.73C550.43 107.34 556.44 112.1 562.95 115.85H562.92Z" fill="#E7DFF6"/>
<path d="M658.8 116.85L588.53 116.12C586.02 113.28 583.73 110.26 581.65 107.05C583.17 107.63 584.11 107.99 584.11 107.99L576.72 90.88C582.68 97.42 591.17 101.4 599.75 101.19C587.6 96.69 578.56 85.22 574.83 72.15C575.94 69.99 577.24 67.48 578.63 64.9C581.68 72.27 586.67 78.93 592.63 83.93C604.06 93.54 618.48 98.08 632.71 101.29C639.55 102.83 646.67 104.23 652.38 108.52C655.13 110.58 657.45 113.55 658.81 116.85H658.8Z" fill="#E7DFF6"/>
<path d="M697.77 117.26L659.79 116.86C660.32 113.12 661.2 109.43 662.41 105.88C664.94 103.21 668.14 100.05 670.51 98.39C672.01 97.35 675.67 97.98 679.93 99.29C685.27 105.92 691.26 111.96 697.76 117.27L697.77 117.26Z" fill="#E7DFF6"/>
<path d="M750.26 117.29L726.13 117.55L705.2 117.33C704.36 115.44 703.76 113.46 703.39 111.41C702.57 106.94 702.95 102.27 704.34 97.9601C706.22 95.3201 708.87 92.72 712.51 90.98C721.75 104.03 735.36 113.5 750.27 117.29H750.26Z" fill="#E7DFF6"/>
<path d="M815.15 91.34L802.12 116.74L754.39 117.25C749.52 112.45 745.21 107.01 741.56 101.09C742.46 101.79 743.04 102.26 743.16 102.35C742.62 101.67 732.79 89.04 735.84 78.06C735.89 77.9 735.93 77.73 735.99 77.56C747.05 91.23 763.61 99.87 780.58 100.2C763.99 97.86 749.16 85.52 742.26 69.34C743.1 68.57 743.99 67.79 744.95 67.01C753.43 77.27 764.86 84.77 777.33 88.02C784.75 89.96 792.51 90.37 800.08 89.36C806 88.55 811.4 85.38 816.89 83.52C816.97 86.19 816.4 88.89 815.14 91.33L815.15 91.34Z" fill="#E7DFF6"/>
<path d="M746.7 96.45C746.7 96.45 764.12 113.39 783.64 107.82C783.64 107.82 761.99 121.22 746.7 96.45Z" fill="#F7F4FD"/>
</g>
<path d="M57.91 489.01L60.79 477.05L62.39 487.65C62.39 487.65 64.31 481.16 64.31 482.18C64.31 483.2 64.63 489.36 64.63 489.36L57.9 489.02L57.91 489.01Z" fill="#B29A0B"/>
<path d="M40.29 470.89L39.65 464.74L42.86 467.81L43.82 459.27L45.42 467.13L48.3 459.61L48.94 466.45L52.14 460.29V467.13L55.67 462L55.03 470.55L40.29 470.89Z" fill="#CCB409"/>
<path d="M353.26 502.41L352.54 496.27L355.8 500.67L357 494.5L358.67 499.94L360.53 495.13L361.56 500.58L364.4 496.78L363.83 502.6L353.26 502.41Z" fill="#B29A0B"/>
<path d="M399.65 504.56L397.73 511.91L400.45 511.74L399.65 504.56Z" fill="#B29A0B"/>
<path d="M417.26 499.6L418.55 492.25L419.19 499.77L417.26 499.6Z" fill="#B29A0B"/>
<path d="M317.02 504.56L318.46 496.87L319.26 504.73L317.02 504.56Z" fill="#B29A0B"/>
<path d="M682.46 465.76L684.38 460.29L686.94 463.71L689.18 456.88L689.82 464.05L693.35 458.58L693.67 465.08L697.19 460.29L696.55 469.86L682.46 465.76Z" fill="#CCB409"/>
<path d="M734.02 470.55L734.66 463.37L736.91 466.45L739.47 460.98L740.11 467.13L744.91 461.32V467.47L748.76 462.69L749.08 469.86L751.64 465.76L752.6 469.52L754.84 466.1L756.12 469.86L760.93 466.45L761.25 472.26L734.02 470.55Z" fill="#CCB409"/>
<path d="M746.77 491.8L746.7 483.25L749.83 488.56L751.38 480.27L752.68 487.73C752.68 487.73 755.14 478.36 755.19 479.39C755.24 480.42 755.9 487.91 755.9 487.91L759.48 481.91L759.81 489.08L762.17 484.51L761.57 492.41L746.79 491.81L746.77 491.8Z" fill="#B29A0B"/>
<path d="M713.21 487.98L714.49 479.78L715.45 487.98H713.21Z" fill="#B29A0B"/>
</g>
</g>
<defs>
<linearGradient id="paint0_linear_13_14755" x1="255.77" y1="447.23" x2="255.77" y2="-160.51" gradientUnits="userSpaceOnUse">
<stop stop-color="#E1FEFF"/>
<stop offset="0.17" stop-color="#DAF7FE"/>
<stop offset="0.42" stop-color="#C6E5FE"/>
<stop offset="0.71" stop-color="#A7C7FD"/>
<stop offset="0.99" stop-color="#82A4FC"/>
</linearGradient>
<linearGradient id="paint1_linear_13_14755" x1="-324.48" y1="498.61" x2="836.17" y2="498.61" gradientUnits="userSpaceOnUse">
<stop stop-color="#D6D634"/>
<stop offset="0.49" stop-color="#E7EA4C"/>
<stop offset="0.71" stop-color="#E2E445"/>
<stop offset="0.99" stop-color="#D6D634"/>
</linearGradient>
<linearGradient id="paint2_linear_13_14755" x1="137.73" y1="202.9" x2="181.82" y2="202.9" gradientUnits="userSpaceOnUse">
<stop stop-color="#F49D3D"/>
<stop offset="1" stop-color="#EF8126"/>
</linearGradient>
<linearGradient id="paint3_linear_13_14755" x1="124.72" y1="398.98" x2="327.43" y2="398.98" gradientUnits="userSpaceOnUse">
<stop stop-color="#F49D3D"/>
<stop offset="1" stop-color="#EF8126"/>
</linearGradient>
<linearGradient id="paint4_linear_13_14755" x1="372.43" y1="310.64" x2="604.32" y2="310.64" gradientUnits="userSpaceOnUse">
<stop stop-color="#FFAF50"/>
<stop offset="1" stop-color="#FF9F43"/>
</linearGradient>
<linearGradient id="paint5_linear_13_14755" x1="509.87" y1="275.71" x2="509.87" y2="174.22" gradientUnits="userSpaceOnUse">
<stop stop-color="#FFAF50"/>
<stop offset="1" stop-color="#FF9F43"/>
</linearGradient>
<linearGradient id="paint6_linear_13_14755" x1="253.26" y1="325.99" x2="253.26" y2="145.55" gradientUnits="userSpaceOnUse">
<stop stop-color="#FFAF50"/>
<stop offset="1" stop-color="#FF9F43"/>
</linearGradient>
<linearGradient id="paint7_linear_13_14755" x1="465.78" y1="398.98" x2="663.61" y2="398.98" gradientUnits="userSpaceOnUse">
<stop stop-color="#FFAF50"/>
<stop offset="1" stop-color="#FF9F43"/>
</linearGradient>
<linearGradient id="paint8_linear_13_14755" x1="399.44" y1="486.69" x2="399.44" y2="264.9" gradientUnits="userSpaceOnUse">
<stop stop-color="#FFAF50"/>
<stop offset="1" stop-color="#FF9F43"/>
</linearGradient>
<clipPath id="clip0_13_14755">
<rect width="750" height="570" fill="white"/>
</clipPath>
<clipPath id="clip1_13_14755">
<rect width="820" height="760" fill="white" transform="translate(-35 -158)"/>
</clipPath>
</defs>
</svg>
