<?xml version="1.0" encoding="UTF-8"?>
<svg xmlns="http://www.w3.org/2000/svg" xmlns:xlink="http://www.w3.org/1999/xlink" viewBox="0 0 820 570">
  <defs>
    <style>
      .cls-1 {
        fill: #89740c;
      }

      .cls-1, .cls-2, .cls-3, .cls-4, .cls-5, .cls-6, .cls-7, .cls-8, .cls-9, .cls-10, .cls-11, .cls-12, .cls-13, .cls-14, .cls-15, .cls-16, .cls-17, .cls-18, .cls-19, .cls-20, .cls-21, .cls-22, .cls-23, .cls-24, .cls-25, .cls-26, .cls-27, .cls-28, .cls-29, .cls-30, .cls-31, .cls-32, .cls-33, .cls-34, .cls-35, .cls-36, .cls-37, .cls-38, .cls-39, .cls-40, .cls-41, .cls-42, .cls-43, .cls-44, .cls-45, .cls-46, .cls-47, .cls-48, .cls-49, .cls-50, .cls-51, .cls-52, .cls-53, .cls-54, .cls-55, .cls-56, .cls-57, .cls-58, .cls-59, .cls-60, .cls-61, .cls-62 {
        stroke-width: 0px;
      }

      .cls-2 {
        fill: #8b7c00;
      }

      .cls-3 {
        fill: #ffe7e1;
      }

      .cls-4 {
        fill: #b29a0b;
      }

      .cls-5 {
        fill: #ede65f;
      }

      .cls-6 {
        fill: #b29a9a;
      }

      .cls-7 {
        fill: #f2c7b6;
      }

      .cls-8 {
        fill: #b73d4f;
      }

      .cls-9 {
        fill: #63394c;
      }

      .cls-10 {
        fill: #ddbea6;
      }

      .cls-11 {
        fill: #7a485a;
      }

      .cls-12 {
        fill: #561a3c;
      }

      .cls-13 {
        fill: #9b8181;
      }

      .cls-14 {
        fill: url(#linear-gradient);
      }

      .cls-15 {
        fill: #872533;
      }

      .cls-16 {
        fill: #5d4e65;
      }

      .cls-17 {
        fill: #eac2b0;
      }

      .cls-18 {
        fill: #fcb18b;
      }

      .cls-19 {
        fill: #c99e8d;
      }

      .cls-20 {
        fill: #fff;
        opacity: .25;
      }

      .cls-20, .cls-63, .cls-64 {
        mix-blend-mode: lighten;
      }

      .cls-21 {
        fill: #b29b0f;
      }

      .cls-22 {
        fill: #9e890d;
      }

      .cls-23 {
        fill: #fc9112;
      }

      .cls-65, .cls-56, .cls-60 {
        mix-blend-mode: multiply;
      }

      .cls-24 {
        fill: #dd5878;
      }

      .cls-25 {
        fill: #a3313c;
      }

      .cls-26 {
        fill: #cca597;
      }

      .cls-27 {
        fill: #997676;
      }

      .cls-28 {
        fill: #ceb0af;
      }

      .cls-29 {
        fill: #543141;
      }

      .cls-30 {
        fill: #ddb99f;
      }

      .cls-31 {
        fill: #ffebd9;
      }

      .cls-32 {
        fill: #ffddba;
      }

      .cls-33 {
        fill: #ffc688;
      }

      .cls-34 {
        fill: #b8d6f4;
      }

      .cls-35 {
        fill: #efcece;
      }

      .cls-36 {
        fill: #d6b2a5;
      }

      .cls-37 {
        fill: #efcdaf;
      }

      .cls-38, .cls-56 {
        fill: #bc9c9c;
      }

      .cls-39 {
        fill: #f9e1e1;
      }

      .cls-40 {
        fill: #5e5167;
      }

      .cls-64 {
        opacity: .85;
      }

      .cls-41 {
        fill: #aa8b83;
      }

      .cls-42 {
        fill: #663b4d;
      }

      .cls-43 {
        fill: #6b5500;
      }

      .cls-44 {
        fill: #a2c4ed;
      }

      .cls-45 {
        fill: #776603;
      }

      .cls-46 {
        fill: #42112f;
      }

      .cls-47 {
        fill: url(#linear-gradient-4);
      }

      .cls-48 {
        fill: url(#linear-gradient-2);
      }

      .cls-49 {
        fill: url(#linear-gradient-3);
      }

      .cls-50 {
        fill: url(#linear-gradient-8);
      }

      .cls-51 {
        fill: url(#linear-gradient-9);
      }

      .cls-52 {
        fill: url(#linear-gradient-7);
      }

      .cls-53 {
        fill: url(#linear-gradient-5);
      }

      .cls-54 {
        fill: url(#linear-gradient-6);
      }

      .cls-55 {
        fill: #e7dff6;
      }

      .cls-66 {
        isolation: isolate;
      }

      .cls-57 {
        fill: #cfc6e5;
      }

      .cls-58 {
        fill: #c9aa95;
      }

      .cls-59 {
        fill: #f7f4fd;
      }

      .cls-60 {
        fill: #b24f67;
        opacity: .5;
      }

      .cls-61 {
        fill: #9d850e;
      }

      .cls-62 {
        fill: #ccb409;
      }
    </style>
    <linearGradient id="linear-gradient" x1="277.49" y1="433.78" x2="277.49" y2="-173.96" gradientUnits="userSpaceOnUse">
      <stop offset="0" stop-color="#e1feff"/>
      <stop offset=".17" stop-color="#daf7fe"/>
      <stop offset=".42" stop-color="#c6e5fe"/>
      <stop offset=".71" stop-color="#a7c7fd"/>
      <stop offset=".99" stop-color="#82a4fc"/>
    </linearGradient>
    <linearGradient id="linear-gradient-2" x1="-302.76" y1="485.17" x2="857.88" y2="485.17" gradientUnits="userSpaceOnUse">
      <stop offset="0" stop-color="#d6d634"/>
      <stop offset=".49" stop-color="#e7ea4c"/>
      <stop offset=".71" stop-color="#e2e445"/>
      <stop offset=".99" stop-color="#d6d634"/>
    </linearGradient>
    <linearGradient id="linear-gradient-3" x1="159.45" y1="189.45" x2="203.53" y2="189.45" gradientUnits="userSpaceOnUse">
      <stop offset="0" stop-color="#f49d3d"/>
      <stop offset="1" stop-color="#ef8126"/>
    </linearGradient>
    <linearGradient id="linear-gradient-4" x1="146.44" y1="385.53" x2="349.14" y2="385.53" xlink:href="#linear-gradient-3"/>
    <linearGradient id="linear-gradient-5" x1="394.15" y1="297.19" x2="626.03" y2="297.19" gradientUnits="userSpaceOnUse">
      <stop offset="0" stop-color="#ffaf50"/>
      <stop offset="1" stop-color="#ff9f43"/>
    </linearGradient>
    <linearGradient id="linear-gradient-6" x1="531.59" y1="262.26" x2="531.59" y2="160.77" xlink:href="#linear-gradient-5"/>
    <linearGradient id="linear-gradient-7" x1="274.98" y1="312.54" x2="274.98" y2="132.1" xlink:href="#linear-gradient-5"/>
    <linearGradient id="linear-gradient-8" x1="487.5" y1="385.53" x2="685.32" y2="385.53" xlink:href="#linear-gradient-5"/>
    <linearGradient id="linear-gradient-9" x1="421.15" y1="473.24" x2="421.15" y2="251.45" xlink:href="#linear-gradient-5"/>
  </defs>
  <g class="cls-66">
    <g id="Layer_1" data-name="Layer 1">
      <g>
        <rect class="cls-14" x="-301.58" y="-171.45" width="1158.14" height="696.08"/>
        <g>
          <g>
            <path class="cls-59" d="M816.63,227.49s-8.98,7.76-9.72,7.76h-126.07s-12.94-.32-9.93-9.63c3.01-9.29,15.62-16.36,18.65-14.14-.17-.33-2.87-5.68-5.01-11.84-1.76-5.05-3.16-10.63-2.49-14.47.19-1.11.89-2.62,1.98-4.4,1.37-2.21,3.33-4.85,5.7-7.69,10.62-12.75,29.24-29.62,36.55-30.3,10.23-.96,41.22,28.9,42.72,35.64,1.48,6.61-4.27,19.68-4.5,20.22.67-.4,25.44-15.33,38.5-10.59,5.42,1.98,9.43,7.46,12.23,13.6,2.47,5.41,4,11.35,4.74,15.89.61,3.73-.65,7.5-3.34,9.95Z"/>
            <path class="cls-55" d="M816.63,227.48s-8.99,7.77-9.72,7.77h-126.08s-12.94-.31-9.93-9.63c3.01-9.3,15.62-16.37,18.65-14.14-.17-.34-2.87-5.69-5.02-11.85,4.64,3.14,9.79,5.4,15.17,6.58-7.34-6.67-12.73-15.64-15.67-25.44,1.36-2.2,3.33-4.84,5.7-7.68,13.36,21.78,36.4,36.87,60.82,38.61-5.82-7.7-8.66-17.9-7.71-27.74,7.58,17.1,22.91,30.08,40.25,34.07-7.16-4.66-11.84-13.41-11.94-22.37,7.35,11.16,21.74,16.38,33.94,12.32,4.11-1.37,7.33-3.57,10.13-6.33,2.47,5.41,4.01,11.36,4.74,15.9.6,3.72-.65,7.49-3.33,9.94Z"/>
          </g>
          <path class="cls-57" d="M804.59,235.25h-121.53c41.02-10.13,93.16-4.47,121.53,0Z"/>
        </g>
        <g>
          <g>
            <path class="cls-59" d="M409.46,185.8H61.38c-3.47,0-6.73-1.94-8.55-5.11l-.05-.1c-2.11-3.69-1.35-8.49,1.81-11.23l11.5-10.02c3.72-3.24,8.81-3.95,13.18-1.86l10.48,5-10.77-25.62c-3.07-7.33-1.81-15.93,3.27-21.86.1-.12.19-.23.29-.36,4.45-5.17,10.2-11.73,16.37-18.28.72-.78,1.46-1.53,2.18-2.3,12.39-12.93,25.97-25.23,33.55-26.13,16.39-1.96,63.72,33.02,63.72,44.04,0,9.12-2.92,30.71-3.92,37.83-.2,1.46-.33,2.31-.33,2.31,0,0,1.78-3.87,4.66-9.31,6.52-12.25,18.63-32.47,28.71-34.73,14.55-3.23,66.13,27.85,65.53,36.92-.42,6.43-4.51,18.69-6.85,25.29-.91,2.58-1.56,4.29-1.63,4.48.68-.41,23.79-14.21,32.75-12.29l6.07,3.88s-10.08-10.76-8.34-21.66c.26-1.64.79-3.28,1.67-4.89,6.67-12.31,26.7-33.66,42.48-33.66s54,25.9,58.85,45.97c.51,2.13.97,4.2,1.37,6.18,1,4.69,1.7,8.93,2.2,12.58,1.08,7.88-4.68,14.92-12.13,14.92Z"/>
            <path class="cls-55" d="M412.13,185.48c-.86.21-1.74.31-2.66.31H61.38c-3.47,0-6.73-1.94-8.55-5.11l-.05-.1c-2.11-3.69-1.35-8.49,1.81-11.23l11.5-10.02c3.72-3.24,8.81-3.95,13.18-1.86l10.48,5-10.77-25.62c-3.07-7.33-1.81-15.93,3.27-21.86.1-.12.19-.23.29-.36,7.78,17.2,21.75,31.27,38.54,37.98-16.42-12.36-24.99-35.17-22.16-56.26.72-.78,1.46-1.53,2.18-2.3.68,5.87,3.11,11.58,6.48,16.34,4.97,7.03,11.81,12.26,18.74,17.05,12.95,8.94,26.65,16.65,40.87,23.02,5.92,2.65,12.29,5.13,18.63,4.1,3.22-.53,6.38-2.28,8.63-4.77-.2,1.46-.33,2.31-.33,2.31,0,0,1.78-3.87,4.66-9.31,3.09,5.65,6.18,11.28,9.26,16.93,6.28-4.84,10.34-12.78,10.75-21.03,11.67,12.29,25.97,21.77,41.47,27.5,8.28,3.05,17.28,5,25.9,4.09-.91,2.58-1.56,4.29-1.63,4.48.68-.41,23.79-14.21,32.75-12.29l6.07,3.88s-10.08-10.76-8.34-21.66c4.95,13.41,16.72,23.97,30.14,26.17-2.75-7.27-5.51-14.55-8.25-21.82,12.67,14.55,28.61,27.67,47.16,29.16,8.75.7,17.78-2.12,24.97-7.41,3.6-2.64,6.84-5.91,9.25-9.79.4-.64.76-1.6,1.1-2.72,1,4.69,1.7,8.93,2.2,12.58.95,6.9-3.37,13.17-9.47,14.6Z"/>
          </g>
          <path class="cls-57" d="M412.13,185.48c-.86.21-1.74.31-2.66.31H69.27c83.81-15.26,268.49-5.24,342.86-.31Z"/>
        </g>
        <path class="cls-34" d="M856.56,419.54l-10.18.64v-59.71l-15.8-.9-9.4,6.37v50.14l-6.83-.92-.86-83.85-19.64-2.73-5.98,9.12v73.83h-16.49l-2.29-90.24-10.25-16.41-10.25,16.41v89.94l-27.34-37.98h-24.76l-15.37,60.16s108.47,28.25,111.04,26.43c1.38-.97,34.26-5.1,64.41-8.73v-31.56Z"/>
        <polygon class="cls-34" points="-29.91 397.63 5.32 382.59 26.46 390.11 34.14 398.99 36.07 435.91 -25.33 431.42 -29.91 397.63"/>
        <polygon class="cls-34" points="-47.21 428.98 -46.6 341.95 -36.88 341.95 -26.54 354.96 -25.33 431.42 -20.47 429.79 -22.29 325.68 -14.39 322.43 -1.63 332.19 .2 430.61 -35.05 439.55 -47.21 428.98"/>
        <polygon class="cls-44" points="-92.69 405.6 -60.66 411.98 -39.31 398.31 -19.24 410.61 8.95 408.79 21.33 429.3 -98.67 433.86 -92.69 405.6"/>
        <path class="cls-48" d="M12.63,423.58c-19.63.4-38.8.84-57.47,1.33-12.94.33-25.65.69-38.09,1.07-18.54.56-36.5,1.18-53.84,1.82-10.7.4-21.17.81-31.37,1.23-19.46.81-37.99,1.67-55.47,2.58-9.56.48-18.79.99-27.7,1.51-10.22.58-20,1.18-29.34,1.79-7.33.48-14.34.02-20.94-.06v113.98H856.56v-105.59c-276.25-21.63-595.67-24.63-843.93-19.66Z"/>
        <path class="cls-5" d="M75.88,465.81l-16.53,1.18c-38.97-22.34-80.3-35.59-104.19-42.08,18.67-.49,37.85-.93,57.47-1.33,57.25,27.62,63.25,42.24,63.25,42.24Z"/>
        <g>
          <g>
            <polygon class="cls-3" points="-301.58 453.84 -301.58 455.88 55.96 422.24 57.84 417.96 -301.58 453.84"/>
            <polygon class="cls-7" points="-301.58 455.98 -301.58 458.02 56.82 424.29 58.69 420.01 -301.58 455.98"/>
          </g>
          <g>
            <polygon class="cls-3" points="-301.58 465.54 -301.58 467.56 59.4 440.46 61.35 436.22 -301.58 465.54"/>
            <polygon class="cls-7" points="-301.58 467.67 -301.58 469.68 60.22 442.53 62.17 438.29 -301.58 467.67"/>
          </g>
        </g>
        <g>
          <path class="cls-1" d="M34.55,403.01c2.56-22.35,6.79-45.28.66-67.01,5.87,14.57,11.73,29.13,17.6,43.7,6.3,15.65,12.63,31.38,16.26,47.77,1.98,8.95,3.07,18.57-.72,26.99-3.05,6.77-10.28,12.53-18.31,12.93-8.57.43-10.34-5.61-12.71-12.58-5.64-16.65-4.74-34.66-2.78-51.8Z"/>
          <path class="cls-22" d="M100.76,462.72l-58.32,6.54s-1.45-8.01-2.39-18.29c-1.38-14.91-1.71-34.61,5-41.39,4.87-4.92,9.4-15.12,12.59-26.26,1.45-5.08,2.62-10.36,3.41-15.42,1.51-9.66,1.63-18.53-.33-23.75-5.16-13.72,1.43-81.52,1.23-83.02.72,1.28,8.48,48.88,17.92,60.95,1.98,2.55,3.89,5.05,5.67,7.6,6.79,9.74,11.56,20.03,10.86,34.92-.86,18.8-6.96,45.79-3.47,62.15,3.47,16.35,7.83,35.97,7.83,35.97Z"/>
          <path class="cls-1" d="M100.76,462.72l-58.32,6.54s-1.45-8.01-2.39-18.29c2.73-3.63,5.42-7.3,7.69-11.21,9.88-17.04,11.05-36.78,9.9-56.44,1.45-5.08,2.62-10.36,3.41-15.42,2.06,3.26,2.61,7.87,2.74,11.85.2,6.21,2.04,14.06,8.54,15.12,6.53,1.07,11.18-5.95,12.53-12.04,2.7-11.98.6-24.38-.04-36.62-.18-3.46-.2-10.12.72-16.51,6.79,9.73,11.56,20.02,10.86,34.91-.86,18.8-6.96,45.79-3.47,62.15,3.47,16.35,7.83,35.97,7.83,35.97Z"/>
        </g>
        <g>
          <path class="cls-2" d="M155.11,386.69l-1.55,77.77-.27,13.72-40.38-5.31s-2.24-11.73-4.75-26.49c-3.38-19.94-7.27-45.41-6.77-54.9.38-7.24-.39-28.76-1.38-50.66-.58-12.81-1.23-25.76-1.77-36.05-.64-12.29-1.12-20.79-1.12-20.79l7.24-48.8.63-4.29,1.03-6.93,17.61-13.15,12.95,23.73,6.97,52.85,2.81,21.37,2.96,26.32,5.8,51.61Z"/>
          <path class="cls-45" d="M144.98,430.71c2.9,11.16,6.13,22.37,8.58,33.75l-.27,13.72-40.38-5.31s-2.24-11.73-4.75-26.49c.18-.7.37-1.4.56-2.08,2.7-9.55,6.45-18.8,6.82-29.22.44-11.98-3.59-23.46-6.74-34.79-3.55-12.79-6.1-26.2-8.8-39.48-.58-12.81-1.23-25.76-1.77-36.05,5.03,4.73,9.83,9.68,12.13,17.32,3.91,13-1.29,27.75.93,41.44.8,4.92,3.67,10.37,7.04,9.26,2.43-.79,3.64-4.59,4.26-8.04,3.04-16.95-.25-35.12-3.54-52.34-4.9-25.75-9.81-51.5-14.7-77.24l.63-4.29c5.52,19.91,11.05,39.83,16.58,59.74,1.34,4.84,3.03,10.2,6.41,12.14,4.47,2.57,9.08-2.37,11.97-7.62,1.37-2.5,2.57-5.09,3.6-7.77l2.81,21.37,2.96,26.32c-3.53,9.53-7.72,18.66-9.93,29.03-4.55,21.45-.01,45.09,5.6,66.61Z"/>
        </g>
        <g>
          <path class="cls-1" d="M720.93,408.75s-3.94-27.67-1.75-38.7c2.19-11.03,2.08-39.3,2.08-39.3,0,0,10.29,26.05,12.34,36,2.05,9.95-.81,38.8-.81,38.8l-11.86,3.2Z"/>
          <g>
            <path class="cls-22" d="M771.38,409.52c.25,7.28-.38,63.87-.38,63.87l-49.18-13.6s-7-33.38-4.35-50.04c.2-1.32.48-2.55.81-3.63,4.62-14.78,21.88-60.13,17.59-85.51-4.21-24.91,20.93-58.86,21.86-60.09-.51,1.09-9.5,19.93-7.33,34.9.57,3.95,1.55,8.59,2.79,13.53.43,1.79.92,3.62,1.42,5.47,3.48,12.89,8.13,26.87,11.22,35.68.04.12.09.24.13.35,4.73,13.5,5.18,51.79,5.43,59.07Z"/>
            <path class="cls-1" d="M771.38,409.52c.25,7.28-.38,63.87-.38,63.87l-49.18-13.6s-7-33.38-4.35-50.04c2.91,6.47,6.47,12.62,10.59,18.3,2.23,3.09,4.92,6.21,8.49,6.93,4.88.97,9.66-3.13,11.45-8.07,1.78-4.94,1.27-10.45.54-15.69-2.66-19.05-7.94-37.75-8.39-57.01-.38-16.12,3.34-33.33,13.04-45.27.43,1.79.92,3.62,1.42,5.47-8.07,22.25-10.35,46.88-6.34,70.36,8.8-10.81,14.25-22.39,17.56-34.68.04.12.09.24.13.35,4.73,13.5,5.18,51.79,5.43,59.07Z"/>
          </g>
        </g>
        <g>
          <path class="cls-2" d="M711.03,327.22l-12.81,133.99-31.59-6.39s-1.01-3.88-2.55-9.97c-4.95-19.57-15.39-61.88-15.39-70.24,0-1.24.04-3.83.09-7.45.31-16.87,1.29-56.32,2.84-87.72,1.05-21.45,2.37-39.13,3.89-43.38,4.27-11.84,15.37-44.65,15.37-44.65l31.61,75.65,8.52,60.04v.12Z"/>
          <path class="cls-45" d="M711.03,327.22l-12.81,133.99-31.59-6.39s-1.01-3.88-2.55-9.97c1.47-6.22,3.42-12.36,4.45-18.69,2.9-17.9-1.97-37.05-12.95-50.93-2.17-2.72-4.59-5.33-6.79-8.07-2.81-3.5-5.25-7.21-6.32-11.62-1.2-4.98-.46-10.21.28-15.29,2.96-20.26,5.92-40.55,8.88-60.82.29-1.98.58-3.94.86-5.89,3.38,26.63,6.78,53.28,10.16,79.92.59,4.63,1.27,9.5,3.96,13.19,2.69,3.68,8.11,5.52,11.53,2.61,2.43-2.06,3.06-5.69,3.34-8.98,3.28-38.64-17.99-76.95-11.13-115.05,4.24,24.1,10.38,47.83,18.33,70.85,1.47,4.27,3.07,8.64,6.06,11.88,2.99,3.25,7.71,5.11,11.63,3.3,1.84-.86,3.37-2.31,4.65-4.17v.12Z"/>
        </g>
        <g>
          <path class="cls-21" d="M804.26,466.15l-142.65-10.47s-16.02-20.61-12.78-27.12c.47-.94,1.13-2.01,1.95-3.14,4.9-6.82,15.1-16.11,17.89-13.31,2.21,2.21,5.75,8.74,7.03,13.6.13-.6.28-1.23.45-1.89,2-7.7,6.6-18.84,13.02-19.56.5-.05,1-.09,1.54-.12,4.28-.26,9.72.29,14.82,2.02,9.93,3.37,15.02,14.96,11.78,25.35-.16.53-.35,1.07-.56,1.59l-.44,1.12c.96-2.04,4.99-9.58,13.86-13.37,4.07-1.73,9.17-2.67,15.47-1.92,21.88,2.63,7.57,24.89,7.15,25.52.17-.11,1.49-1.05,3.53-2.23,3.2-1.86,8.12-4.3,12.87-5.04,4.39-.69,8.65.1,11.27,4.18,5.44,8.49,1.68,13.71-.65,15.86,1.11-.82,2.8-2.02,4.82-3.32,3.72-2.38,8.62-5.07,13.3-6.32,4.05-1.1,7.95-1.1,10.77,1.11,9.32,7.33-4.43,17.45-4.43,17.45Z"/>
          <path class="cls-61" d="M804.26,466.15l-142.65-10.47s-16.02-20.61-12.78-27.12c.47-.94,1.13-2.01,1.95-3.14,1.03,4.71,3.18,9.49,7.62,11.1,10.62,3.84,15.95-7.34,17.24-10.56.04-.1.05-.14.07-.19.16-.41.24-.64.24-.64l.2-1.3c2-7.7,6.6-18.84,13.02-19.56.5-.05,1-.09,1.54-.12-4.14,5.98-7.89,14.83-1.97,22.72,9.68,12.92,27.1,5.33,28.57,4.65-.16.53-.35,1.07-.56,1.59l-.44,1.12c.96-2.04,4.99-9.58,13.86-13.37-3.41,11.74-5.72,27.2,4.16,30.67,14.89,5.25,18.65-7.25,18.65-7.25l3.34-2.05c3.2-1.86,8.12-4.3,12.87-5.04-3.89,5.91-7.08,13.13-3.84,17.88,4.11,5.99,9.81,4.7,13.34,3.02.09-.04.15-.08.2-.1,1.83-.9,3.02-1.85,3.02-1.85l2.72-2.23c3.72-2.38,8.62-5.07,13.3-6.32-1.79,5.44-1.75,12.58,6.34,18.56Z"/>
          <path class="cls-21" d="M671.53,445.28s3.04-10.5,11.25-9.92c8.21.58,23.4,11.54,23.78,18.48,0,0-5.52-4.37-11.96-6.92-6.45-2.55-22.51-3.58-23.07-1.64Z"/>
        </g>
        <g>
          <path class="cls-21" d="M171.58,452.7l-152.69,13.73s-8.69-7.46-8.17-14.05c.19-2.33,1.52-4.57,4.8-6.32,12.18-6.53,20.73,1.94,21.24,2.44-.37-.9-11.04-27.53,5.94-28.29,11.96-.54,19.79,3.36,22.95,8.79.08.13.15.25.23.39,0-.03.01-.06,0-.08,1.15-6.51,4.84-14.41,14.12-16.48,3.09-.7,5.9-.91,8.4-.71,9.92.78,15.04,8.05,14.07,17.57.16-.21.34-.44.53-.65,3.11-3.68,8.08-6.69,15.58-5.92,4.13.43,7.94,2.57,10.43,5.88,3.14-7.78,10.73-15.5,25.93-13.16,1.24.19,2.4.43,3.49.69,26.36,6.58,13.14,36.19,13.14,36.19Z"/>
          <path class="cls-61" d="M171.58,452.7l-152.69,13.73s-8.69-7.46-8.17-14.05c.43.2.87.4,1.33.61,45.36,21.3,52.67-17.18,53.61-24,.09-.65.11-1,.11-1,.02.45.06.89.13,1.31,0,.05,0,.11.02.16.21,1.35.64,2.53,1.19,3.55,2.51,4.68,7.66,6.21,7.66,6.21,17.68,3.72,15.65-16.95,13.65-27.11,9.92.78,15.04,8.05,14.07,17.57.16-.21.34-.44.53-.65-.03.1-.07.18-.1.26-.21.57-.42,1.14-.6,1.68-.61,1.86-1.04,3.54-1.32,5.11-2.27,12.38,4.71,17.32,14.31,15.2,6.65-1.46,10.14-6.77,11.97-11.84,1.59-4.41,1.93-8.65,2-10.12.01-.34.02-.53.02-.53,20.59,17.48,27.21-2.46,29.16-12.26,26.36,6.58,13.14,36.19,13.14,36.19Z"/>
        </g>
        <g class="cls-63">
          <path class="cls-59" d="M3.74,242.32s-6.95,6.01-7.53,6.01h-97.61s-10.02-.25-7.69-7.46c2.33-7.19,12.09-12.67,14.44-10.95-.13-.26-2.22-4.4-3.88-9.17-1.37-3.91-2.45-8.23-1.93-11.2.15-.86.69-2.03,1.54-3.41,1.06-1.71,2.58-3.75,4.41-5.96,8.23-9.87,22.64-22.93,28.3-23.46,7.92-.75,31.91,22.38,33.07,27.59,1.14,5.12-3.3,15.24-3.48,15.65.52-.31,19.69-11.87,29.81-8.2,4.2,1.53,7.3,5.77,9.47,10.53,1.91,4.19,3.1,8.79,3.67,12.3.47,2.89-.5,5.81-2.59,7.7Z"/>
          <path class="cls-55" d="M3.74,242.32s-6.95,6.01-7.53,6.01h-97.61s-10.02-.25-7.69-7.46c2.33-7.19,12.09-12.67,14.44-10.95-.13-.26-2.22-4.4-3.88-9.17,3.58,2.43,7.58,4.18,11.74,5.09-5.68-5.17-9.86-12.11-12.13-19.7,1.06-1.71,2.58-3.75,4.41-5.96,10.35,16.87,28.19,28.55,47.1,29.9-4.51-5.97-6.71-13.86-5.97-21.48,5.87,13.25,17.73,23.3,31.16,26.38-5.55-3.61-9.16-10.38-9.24-17.31,5.69,8.63,16.84,12.68,26.27,9.54,3.18-1.06,5.67-2.77,7.85-4.9,1.91,4.19,3.1,8.79,3.67,12.3.47,2.89-.5,5.81-2.59,7.7Z"/>
        </g>
        <path class="cls-62" d="M195.01,446.5c-215.91,16.63-399.61,28.46-496.58,34.42v67.9H856.56v-86.27c-160.67-13.93-444.44-32.79-661.56-16.06Z"/>
        <path class="cls-4" d="M752.19,503.13c-4.55-.05-9-1.48-12.83-4.12l-44.11-30.46-179.28-1.56-25.59,30.11c-6.62,7.79-16.04,12.2-25.89,12.15l-113.9-.62c-9.79-.05-19.09-4.5-25.63-12.26l-22.79-27.03-113.14-3.14-17.1,16.8c-12.62,12.4-29.16,19.24-46.32,19.18l-427.18-1.45v30.56l1158.14-.76v-26.27l-104.37-1.13Z"/>
        <polygon class="cls-38" points="720.18 476.78 720.05 478.74 449.87 477.44 114.73 475.81 114.36 473.87 149.72 448.17 690.84 448.76 720.18 476.78"/>
        <path class="cls-27" d="M720.18,476.78l-.13,1.96s-270.18-1.31-270.18-1.31l-335.15-1.62-.36-1.94,605.82,2.91Z"/>
        <path class="cls-28" d="M319.01,524.62h-153.05l9.06-11.56.93-1.18,7.73-9.86s.66-.82.66-.82l14.22-18.14.91-1.18,13.32-17h74.19l9.11,17,.63,1.18,15.45,28.82.08.14.55,1.04,6.2,11.56Z"/>
        <polygon class="cls-28" points="718.03 524.62 498.13 524.62 503.46 512.47 503.59 512.18 503.97 511.3 524.35 464.9 657.42 464.64 693.65 500.5 718.03 524.62"/>
        <g>
          <rect class="cls-6" x="179.47" y="509.92" width="128.94" height="1.32"/>
          <rect class="cls-6" x="507.9" y="509.92" width="190.98" height="1.32"/>
        </g>
        <rect class="cls-6" x="519.29" y="481.89" width="153.19" height="1.18"/>
        <polygon class="cls-6" points="296.72 483.07 198.55 483.07 199.47 481.89 296.1 481.89 296.72 483.07"/>
        <polygon class="cls-35" points="657.64 464.88 653.28 464.98 711.05 524.62 718.03 524.62 657.64 464.88"/>
        <path class="cls-35" d="M216.94,464.9h-4.15l-29.11,37.13s-17.72,22.59-17.72,22.59h5.51l45.47-59.73Z"/>
        <path class="cls-55" d="M217.12,109.02c.26,1.01.46,2.02.58,3.05-.24-1.01-.43-2.02-.58-3.05Z"/>
        <path class="cls-43" d="M122.77,379.41c.03.14.06.28.09.41-.02-.05-.04-.08-.07-.13-.04-.08-.02-.19-.02-.28Z"/>
        <polygon class="cls-28" points="178.66 525.39 173.72 525.39 -301.58 526.46 -301.58 588.55 856.56 588.55 856.56 523.85 178.66 525.39"/>
        <polygon class="cls-35" points="528.65 464.93 524.35 464.9 499.81 520.79 316.81 520.52 286.98 464.9 282.55 464.9 313.65 525.95 505 526.09 528.65 464.93"/>
        <g>
          <polygon class="cls-49" points="159.45 186.31 159.45 209.05 203.53 209.84 198.39 169.06 159.45 186.31"/>
          <rect class="cls-30" x="158.17" y="183.18" width="5.69" height="27.64"/>
          <rect class="cls-56" x="158.17" y="185.98" width="32.88" height="4.55"/>
          <polygon class="cls-29" points="234.02 153.38 233.9 165.2 233.66 187.88 155.78 188.67 159.93 164.66 162.03 152.6 234.02 153.38"/>
          <path class="cls-9" d="M234.58,154.85l-.12,11.82c-13.63-.09-60.96-.44-73.97-.54l2.09-12.07,72,.79Z"/>
          <path class="cls-11" d="M231.82,170.73l-.12,11.82c-13.63-.09-60.96-.44-73.97-.54l2.09-12.07,72,.79Z"/>
          <g>
            <polygon class="cls-25" points="359.9 151.56 359.43 155.69 359.3 156.89 358.22 166.42 357.16 175.72 356.07 185.4 338.69 172.7 336.57 171.13 336.23 168.91 334.45 157.17 334.18 155.42 333.19 148.89 359.9 151.56"/>
            <rect class="cls-15" x="340.45" y="165.89" width="10.13" height="4.54" transform="translate(691.02 336.32) rotate(180)"/>
            <rect class="cls-15" x="344.63" y="172.04" width="10.13" height="4.54" transform="translate(699.39 348.62) rotate(180)"/>
            <rect class="cls-15" x="346.55" y="160.72" width="10.13" height="4.54" transform="translate(703.22 325.99) rotate(180)"/>
            <polygon class="cls-60" points="359.43 155.69 359.3 156.89 358.22 166.42 357.16 175.72 336.23 168.91 334.45 157.17 359.43 155.69"/>
            <polygon class="cls-8" points="365.6 145.89 363.12 158.14 330.9 157.17 328.19 144.35 365.6 145.89"/>
            <rect class="cls-25" x="331.86" y="146.63" width="10.13" height="4.54" transform="translate(673.85 297.79) rotate(180)"/>
            <rect class="cls-25" x="338.19" y="151.6" width="10.13" height="4.54" transform="translate(686.51 307.74) rotate(180)"/>
            <rect class="cls-25" x="352.34" y="147.41" width="10.13" height="4.54" transform="translate(714.8 299.36) rotate(180)"/>
            <polygon class="cls-24" points="330.9 157.17 328.19 144.35 365.6 145.89 329.54 145.73 330.9 157.17"/>
          </g>
          <polygon class="cls-47" points="349.14 305.34 349.14 465.72 155.47 465.72 153.22 425.63 149.22 354.83 148.71 345.58 146.44 305.34 349.14 305.34"/>
          <g>
            <polygon class="cls-56" points="212.3 357.57 213.33 359.05 212.99 414.5 191.42 414.41 189.36 413.17 212.3 357.57"/>
            <g>
              <polygon class="cls-37" points="211.81 413.02 189.36 413.17 187.42 357.26 212.3 357.57 211.81 413.02"/>
              <polygon class="cls-46" points="209.56 359.2 209.35 390.27 209.22 410.57 191.73 410.69 190.19 358.88 209.56 359.2"/>
              <rect class="cls-37" x="199.36" y="357.89" width="1.1" height="54.51" transform="translate(-2.54 1.33) rotate(-.38)"/>
              <rect class="cls-37" x="189.04" y="369.75" width="22.01" height="1.17" transform="translate(-2.42 1.32) rotate(-.38)"/>
              <polygon class="cls-20" points="209.35 390.27 209.22 410.57 194.13 410.67 195.52 401.7 209.35 390.27"/>
            </g>
          </g>
          <g>
            <polygon class="cls-56" points="311.14 357.57 312.18 359.05 311.84 414.5 290.26 414.41 288.2 413.17 311.14 357.57"/>
            <g>
              <polygon class="cls-37" points="310.65 413.02 288.2 413.17 286.26 357.26 311.14 357.57 310.65 413.02"/>
              <polygon class="cls-46" points="308.4 359.2 308.19 390.27 308.07 410.57 290.58 410.69 289.03 358.88 308.4 359.2"/>
              <rect class="cls-37" x="298.2" y="357.89" width="1.1" height="54.51" transform="translate(-2.54 1.99) rotate(-.38)"/>
              <rect class="cls-37" x="287.88" y="369.75" width="22.01" height="1.17" transform="translate(-2.42 1.97) rotate(-.38)"/>
              <polygon class="cls-20" points="308.19 390.27 308.07 410.57 292.97 410.67 294.37 401.7 308.19 390.27"/>
            </g>
          </g>
          <polygon class="cls-37" points="268.48 425.94 230.69 425.94 228.31 355.77 271.46 355.45 268.48 425.94"/>
          <polygon class="cls-46" points="263.09 359.06 262.55 372.68 261.28 404.17 238.14 404.17 236.68 359.26 263.09 359.06"/>
          <polygon class="cls-20" points="262.55 372.68 261.28 404.17 242.28 404.17 244.74 388.04 262.55 372.68"/>
          <g>
            <rect class="cls-37" x="249" y="358.12" width="1.54" height="50.98"/>
            <rect class="cls-37" x="234.14" y="371.16" width="31.7" height="1.53"/>
            <rect class="cls-37" x="234.14" y="388.89" width="31.7" height="1.53"/>
          </g>
          <rect class="cls-53" x="394.15" y="287.79" width="231.88" height="18.8"/>
          <rect class="cls-37" x="617.96" y="287.79" width="8.07" height="18.8"/>
          <rect class="cls-32" x="617.96" y="287.79" width="1.61" height="18.8"/>
          <rect class="cls-56" x="394.15" y="287.79" width="231.88" height="3.6"/>
          <polygon class="cls-29" points="644.24 288.42 386.51 288.42 385.44 279.25 385.43 279.12 385.09 276.26 383.57 263.23 383.04 258.78 381.52 245.75 381.18 242.88 379.66 229.85 379.41 227.79 377.88 214.76 376.02 198.83 375.94 198.21 601.37 198.21 601.68 198.87 607.88 211.89 609.23 214.75 615.43 227.78 616.41 229.86 622.6 242.88 623.96 245.75 630.15 258.78 631.8 262.26 632.27 263.23 638.46 276.26 644.24 288.42"/>
          <g>
            <g>
              <g>
                <polygon class="cls-9" points="607.88 211.89 517.58 211.89 513.53 198.87 601.68 198.87 607.88 211.89"/>
                <polygon class="cls-11" points="514.4 211.89 378.83 211.89 376.48 198.86 510.38 198.86 514.4 211.89"/>
                <polygon class="cls-40" points="375 211.89 239.43 211.89 238.79 198.86 372.7 198.86 375 211.89"/>
              </g>
              <g>
                <g>
                  <polygon class="cls-9" points="607.75 227.78 470.15 227.78 466.72 214.75 602.66 214.75 607.75 227.78"/>
                  <polygon class="cls-9" points="466.93 227.78 329.32 227.78 327.6 214.75 463.54 214.75 466.93 227.78"/>
                  <polygon class="cls-40" points="325.43 227.78 187.82 227.78 187.82 214.75 323.76 214.75 325.43 227.78"/>
                </g>
                <polygon class="cls-9" points="615.43 227.78 611.08 227.78 605.96 214.75 609.23 214.75 615.43 227.78"/>
              </g>
            </g>
            <g>
              <g>
                <polygon class="cls-9" points="622.6 242.88 548.84 242.88 544.53 229.86 616.41 229.86 622.6 242.88"/>
                <polygon class="cls-11" points="545.57 242.88 406.03 242.88 403.42 229.85 541.29 229.85 545.57 242.88"/>
                <polygon class="cls-40" points="402.09 242.88 262.55 242.88 261.65 229.85 399.53 229.85 402.09 242.88"/>
              </g>
              <g>
                <polygon class="cls-9" points="630.15 258.78 500.2 258.78 496.52 245.75 623.96 245.75 630.15 258.78"/>
                <polygon class="cls-9" points="496.89 258.78 355.31 258.78 353.34 245.74 493.25 245.74 496.89 258.78"/>
                <polygon class="cls-40" points="351.32 258.78 209.74 258.78 209.49 245.74 349.39 245.74 351.32 258.78"/>
              </g>
            </g>
            <g>
              <g>
                <polygon class="cls-9" points="638.46 276.26 585.63 276.26 581.02 263.23 632.27 263.23 638.46 276.26"/>
                <polygon class="cls-11" points="582.25 276.26 438.44 276.26 435.54 263.23 577.68 263.23 582.25 276.26"/>
                <polygon class="cls-40" points="434.38 276.26 290.58 276.26 289.39 263.23 431.53 263.23 434.38 276.26"/>
              </g>
              <g>
                <polygon class="cls-9" points="639.73 279.12 531.74 279.12 534.57 288.42 643.45 288.42 639.73 279.12"/>
                <polygon class="cls-9" points="385.83 288.42 384.21 279.12 528.37 279.12 531.17 288.42 385.83 288.42"/>
                <polygon class="cls-40" points="380.14 279.12 381.72 288.42 308.07 288.42 305.38 279.12 380.14 279.12"/>
              </g>
            </g>
          </g>
          <polygon class="cls-60" points="604.31 221.38 561.75 262.26 560.14 198.21 578.93 198.21 604.31 221.38"/>
          <g>
            <g>
              <polygon class="cls-54" points="561.75 202.44 561.75 262.26 501.43 262.26 501.43 202.44 505.02 197.66 532.76 160.77 558.42 197.66 561.75 202.44"/>
              <g>
                <polygon class="cls-16" points="501.51 202.43 532.85 161.24 561.64 202.47 568.25 202.43 532.86 154.19 493.61 202.43 501.51 202.43"/>
                <polygon class="cls-37" points="506.71 202.43 532.56 168.13 556.38 202.43 561.75 202.47 532.85 161.24 501.51 202.43 506.71 202.43"/>
              </g>
            </g>
            <polygon class="cls-37" points="506.71 197.66 506.71 262.26 501.43 262.26 501.43 202.44 505.25 197.54 506.71 197.66"/>
            <polygon class="cls-37" points="561.75 202.44 561.75 262.26 556.32 262.26 556.32 197.66 558.42 197.66 561.75 202.44"/>
          </g>
          <polygon class="cls-56" points="548.4 255.3 522.42 256.15 519.85 254.31 518.9 205.67 547.96 201.61 550.6 203.53 548.4 255.3"/>
          <polygon class="cls-37" points="545.75 253.42 519.78 254.27 516.26 203.79 547.96 201.65 545.75 253.42"/>
          <polygon class="cls-12" points="544.26 205.67 543.08 233.73 542.39 249.76 523.04 250.4 521.2 224.2 520.02 207.3 544.26 205.67"/>
          <polygon class="cls-56" points="506.71 202.43 532.56 168.13 556.38 202.43 532 181.21 506.71 202.43"/>
          <path class="cls-20" d="M544.26,205.67l-1.18,28.06c-7.47-3.29-15.64-6.86-21.87-9.53l-1.18-16.9,24.23-1.64Z"/>
          <polygon class="cls-46" points="523.04 250.41 520.03 207.3 544.26 205.66 522.31 208.93 523.04 250.41"/>
          <rect class="cls-37" x="531.27" y="204.07" width="1.76" height="48.79"/>
          <polygon class="cls-56" points="501.43 202.44 532.85 161.24 561.75 202.44 532.77 164.29 501.43 202.44"/>
          <polygon class="cls-52" points="397.38 312.54 152.58 312.54 143.78 218.56 274.1 132.1 406.19 218.56 397.38 312.54"/>
          <polygon class="cls-37" points="143.97 220.56 151.56 301.73 158.59 301.65 153.46 220.44 143.97 220.56"/>
          <polygon class="cls-32" points="238.09 402.91 238.13 404.17 261.27 404.17 261.32 402.91 238.09 402.91"/>
          <polygon class="cls-37" points="148.93 349.42 153.13 425.86 158.39 425.86 155.11 349.42 148.93 349.42"/>
          <polygon class="cls-56" points="153.46 427.66 148.71 345.58 362.16 344.49 360.84 433.77 350.27 435.18 344.11 369.86 182.08 369.86 170.76 426.48 153.46 427.66"/>
          <polygon class="cls-50" points="685.32 305.34 678.72 425.63 676.52 465.72 487.5 465.72 487.5 305.34 685.32 305.34"/>
          <polygon class="cls-7" points="682.92 349.19 678.72 425.63 673.45 425.63 676.74 349.19 682.92 349.19"/>
          <polygon class="cls-32" points="676.74 349.19 673.45 425.63 674.19 425.63 677.47 349.19 676.74 349.19"/>
          <polygon class="cls-56" points="683.12 345.58 682.61 354.83 469.23 354.83 469.23 345.58 683.12 345.58"/>
          <g>
            <polygon class="cls-10" points="175.48 426.25 170.76 426.48 165.79 426.72 160.9 354.6 160.21 346.14 160.07 344.49 172.84 345.9 172.84 346.14 172.87 347.23 173.12 354.6 175.48 426.25"/>
            <polygon class="cls-10" points="329.14 344.49 328.99 346.14 328.85 347.85 328.31 354.6 325.17 426.87 321.7 426.61 316.95 426.25 316.09 354.6 316.37 346.14 316.37 345.9 329.14 344.49"/>
          </g>
          <polygon class="cls-58" points="175.48 426.25 170.76 426.48 169.03 356.65 168.82 348.19 168.8 347.95 172.87 347.23 173.12 354.6 175.48 426.25"/>
          <polygon class="cls-58" points="328.85 347.85 328.31 354.6 325.17 426.87 321.7 426.61 322.92 357.2 323.2 348.74 323.2 348.48 328.85 347.85"/>
          <g class="cls-65">
            <g>
              <g class="cls-65">
                <polygon class="cls-38" points="173.12 354.6 160.9 354.6 160.21 346.14 172.84 346.14 173.12 354.6"/>
              </g>
              <g class="cls-65">
                <polygon class="cls-38" points="328.99 346.14 328.31 354.6 316.09 354.6 316.37 346.14 328.99 346.14"/>
              </g>
            </g>
          </g>
          <rect class="cls-37" x="131.23" y="340.73" width="569.06" height="8.46"/>
          <rect class="cls-56" x="131.23" y="340.73" width="569.06" height="3.29"/>
          <polygon class="cls-29" points="703.52 341.67 630.17 341.48 628.03 341.48 537.04 341.24 534.47 341.24 462.24 341.05 462.01 332.67 461.08 299.7 682.24 297.28 686.63 305.89 692.69 318.72 694.01 321.54 699.27 332.67 700.08 334.38 703.52 341.67"/>
          <g>
            <g>
              <g>
                <polygon class="cls-9" points="687.73 310.93 597.44 310.93 593.38 299.18 681.54 299.18 687.73 310.93"/>
                <polygon class="cls-11" points="594.26 310.93 458.69 310.93 456.33 299.18 590.24 299.18 594.26 310.93"/>
                <polygon class="cls-40" points="454.03 306.71 454.03 310.93 454.86 310.93 454.03 306.71"/>
              </g>
              <g>
                <g>
                  <polygon class="cls-9" points="687.61 325.27 550 325.27 546.58 313.51 682.52 313.51 687.61 325.27"/>
                  <polygon class="cls-9" points="454.03 325.27 546.78 325.27 543.4 313.51 454.03 313.51 454.03 325.27"/>
                </g>
                <polygon class="cls-9" points="695.28 325.26 690.94 325.26 685.82 313.51 689.09 313.51 695.28 325.26"/>
              </g>
            </g>
            <g>
              <polygon class="cls-9" points="702.46 338.89 628.69 338.89 624.38 327.14 696.26 327.14 702.46 338.89"/>
              <polygon class="cls-11" points="625.42 338.89 485.88 338.89 483.27 327.13 621.15 327.13 625.42 338.89"/>
              <polygon class="cls-40" points="454.03 338.89 481.94 338.89 479.38 327.13 454.03 327.13 454.03 338.89"/>
            </g>
          </g>
          <polygon class="cls-29" points="147.89 301.57 128.22 341.67 369.5 341.04 370.67 299.7 147.89 301.57"/>
          <g>
            <g>
              <g>
                <polygon class="cls-9" points="143.82 313.16 234.12 313.16 238.17 301.78 149.71 301.97 143.82 313.16"/>
                <polygon class="cls-11" points="237.29 313.17 372.87 313.17 375.22 301.77 241.31 301.77 237.29 313.17"/>
                <polygon class="cls-40" points="377.52 309.07 377.52 313.17 376.69 313.17 377.52 309.07"/>
              </g>
              <g>
                <g>
                  <polygon class="cls-9" points="143.94 327.06 281.55 327.06 284.98 315.67 149.03 315.67 143.94 327.06"/>
                  <polygon class="cls-9" points="377.52 327.06 284.77 327.06 288.16 315.67 377.52 315.67 377.52 327.06"/>
                </g>
                <polygon class="cls-9" points="136.27 327.06 140.61 327.06 145.74 315.66 142.46 315.66 136.27 327.06"/>
              </g>
            </g>
            <g>
              <polygon class="cls-9" points="129.1 340.26 202.86 340.26 207.17 328.88 135.29 328.88 129.1 340.26"/>
              <polygon class="cls-11" points="206.13 340.26 345.67 340.26 348.28 328.87 210.4 328.87 206.13 340.26"/>
              <polygon class="cls-40" points="377.52 340.26 349.61 340.26 352.17 328.87 377.52 328.87 377.52 340.26"/>
            </g>
          </g>
          <polygon class="cls-60" points="399.63 288.42 406.19 218.56 376.02 198.83 375.95 198.21 402.68 198.21 430.4 220.91 479.8 288.42 505.69 323.82 397.98 306.11 399.63 288.42"/>
          <polygon class="cls-7" points="684.74 425.63 683.7 444.18 682.49 465.72 149.5 465.72 147.19 425.63 684.74 425.63"/>
          <path class="cls-42" d="M144.36,220.6l129.74-88.49c1.62,0,114.42,76.71,132.08,88.69l9.05-.04-140.25-97.11-140.18,97.11,9.56-.16Z"/>
          <polygon class="cls-56" points="683.7 444.18 682.49 465.72 661.66 465.72 663.02 425.15 664.93 358.59 675.06 425.63 680.04 425.63 683.7 444.18"/>
          <polygon class="cls-32" points="661.99 465.72 518.46 465.72 515.23 358.59 666.17 356.47 661.99 465.72"/>
          <polygon class="cls-17" points="659.35 364.23 658.87 381.86 658.84 383.25 658.55 393.68 658.52 395.09 658.24 405.5 658.2 406.91 657.92 417.32 657.89 418.73 657.6 429.14 657.57 430.55 657.3 440.97 657.25 442.38 656.99 452.79 656.93 454.22 656.64 465.72 523.79 465.72 523.46 454.22 523.41 452.79 523.11 442.38 523.07 440.97 522.75 430.55 522.72 429.14 522.4 418.73 522.37 417.32 522.05 406.91 522.01 405.5 521.72 395.09 521.66 393.68 521.36 383.25 521.33 381.86 520.8 364.23 659.35 364.23"/>
          <g>
            <polygon class="cls-19" points="658.87 381.86 658.84 383.25 521.36 383.25 521.33 381.86 658.87 381.86"/>
            <polygon class="cls-19" points="658.55 393.68 658.52 395.09 521.72 395.09 521.66 393.68 658.55 393.68"/>
            <polygon class="cls-19" points="658.24 405.5 658.2 406.91 522.05 406.91 522.01 405.5 658.24 405.5"/>
            <polygon class="cls-19" points="657.92 417.32 657.89 418.73 522.4 418.73 522.37 417.32 657.92 417.32"/>
            <polygon class="cls-19" points="657.6 429.14 657.57 430.55 522.75 430.55 522.72 429.14 657.6 429.14"/>
            <polygon class="cls-19" points="657.3 440.97 657.25 442.38 523.11 442.38 523.07 440.97 657.3 440.97"/>
            <polygon class="cls-19" points="656.99 452.79 656.93 454.22 523.46 454.22 523.41 452.79 656.99 452.79"/>
          </g>
          <polygon class="cls-56" points="532.7 465.72 495.56 465.72 503.93 321.62 522.86 364.23 532.7 465.72"/>
          <polygon class="cls-31" points="515.23 358.59 666.17 356.47 661.99 465.72 664.93 358.59 515.23 358.59"/>
          <polygon class="cls-32" points="653.04 368.6 651.58 379.71 650.4 388.66 536.39 388.96 530.93 388.98 528.88 368.6 653.04 368.6"/>
          <polygon class="cls-12" points="648.99 372.36 648.01 379.88 647.34 384.9 535.26 385.2 534.1 385.2 532.79 372.36 648.99 372.36"/>
          <polygon class="cls-46" points="534.09 385.2 532.8 372.37 648.99 372.37 648.47 376.3 534.47 374.88 535.19 385.2 534.09 385.2"/>
          <polygon class="cls-20" points="648.01 379.88 647.34 384.9 535.26 385.2 648.01 379.88"/>
          <rect class="cls-32" x="589.56" y="370.8" width="2.35" height="17.54"/>
          <g>
            <rect class="cls-32" x="552.07" y="370.8" width="2.35" height="17.54"/>
            <rect class="cls-32" x="627.06" y="370.8" width="2.35" height="17.54"/>
          </g>
          <polygon class="cls-56" points="523.79 465.72 520.81 364.23 659.35 364.23 659.13 371.63 530.93 373.62 527.7 465.72 523.79 465.72"/>
          <polygon class="cls-26" points="286.43 425.63 280.93 465.72 217.74 465.72 213.2 425.63 286.43 425.63"/>
          <polygon class="cls-41" points="247.79 425.63 245.2 465.72 217.74 465.72 213.2 425.63 247.79 425.63"/>
          <polygon class="cls-7" points="273 435.03 225.89 435.03 225.23 425.63 274.25 425.63 273 435.03"/>
          <polygon class="cls-7" points="276.3 444.42 222.59 444.42 221.56 435.03 277.18 435.03 276.3 444.42"/>
          <polygon class="cls-7" points="279.38 453.82 219.51 453.82 217.96 444.42 280.92 444.42 279.38 453.82"/>
          <polygon class="cls-7" points="280.92 463.22 217.96 463.22 217.16 453.82 281.59 453.82 280.92 463.22"/>
          <rect class="cls-7" x="212.24" y="463.22" width="74.19" height="2.5"/>
          <polygon class="cls-36" points="274.25 425.63 225.23 425.63 225.89 435.03 227.28 435.03 227.87 427.82 273.98 427.66 274.25 425.63"/>
          <polygon class="cls-36" points="277.18 435.03 221.56 435.03 222.59 444.42 224.13 444.42 223.47 436.47 277 436.94 277.73 435.03 277.18 435.03"/>
          <polygon class="cls-36" points="280.92 444.42 217.96 444.42 219.51 453.82 220.83 453.66 220.83 446.77 280.52 446.92 280.92 444.42"/>
          <polygon class="cls-36" points="281.59 453.82 217.16 453.82 217.96 463.22 220.39 463.14 220.17 456.32 281.59 456.32 281.59 453.82"/>
          <polygon class="cls-32" points="281.42 463.09 286.01 425.43 344.43 425.63 289.19 430.2 281.42 463.09"/>
          <polygon class="cls-37" points="143.97 220.59 153.46 220.44 274.98 138.45 396.5 220.76 406.19 220.68 274.1 132.1 143.97 220.59"/>
          <g>
            <g>
              <polygon class="cls-32" points="205.42 425.78 202.11 425.78 201.45 403.77 205.64 403.77 205.42 425.78"/>
              <polygon class="cls-10" points="204.9 403.77 204.68 425.78 205.42 425.78 205.64 403.77 204.9 403.77"/>
            </g>
            <g>
              <polygon class="cls-32" points="192.48 425.78 189.18 425.78 188.52 403.77 192.7 403.77 192.48 425.78"/>
              <polygon class="cls-10" points="191.97 403.77 191.75 425.78 192.48 425.78 192.7 403.77 191.97 403.77"/>
            </g>
            <g>
              <polygon class="cls-32" points="179.55 425.78 176.25 425.78 175.59 403.77 179.77 403.77 179.55 425.78"/>
              <polygon class="cls-10" points="179.04 403.77 178.82 425.78 179.55 425.78 179.77 403.77 179.04 403.77"/>
            </g>
            <g>
              <polygon class="cls-32" points="166.62 425.78 163.31 425.78 162.65 403.77 166.84 403.77 166.62 425.78"/>
              <polygon class="cls-10" points="166.1 403.77 165.88 425.78 166.62 425.78 166.84 403.77 166.1 403.77"/>
            </g>
            <g>
              <polygon class="cls-32" points="153.68 425.78 150.38 425.78 149.72 403.77 153.9 403.77 153.68 425.78"/>
              <polygon class="cls-18" points="153.17 403.77 152.95 425.78 153.68 425.78 153.9 403.77 153.17 403.77"/>
            </g>
          </g>
          <g>
            <g>
              <polygon class="cls-32" points="346.09 425.78 342.78 425.78 342.12 403.77 346.31 403.77 346.09 425.78"/>
              <polygon class="cls-18" points="345.57 403.77 345.35 425.78 346.09 425.78 346.31 403.77 345.57 403.77"/>
            </g>
            <g>
              <polygon class="cls-32" points="333.15 425.78 329.85 425.78 329.19 403.77 333.37 403.77 333.15 425.78"/>
              <polygon class="cls-10" points="332.64 403.77 332.42 425.78 333.15 425.78 333.37 403.77 332.64 403.77"/>
            </g>
            <g>
              <polygon class="cls-32" points="320.22 425.78 316.92 425.78 316.26 403.77 320.44 403.77 320.22 425.78"/>
              <polygon class="cls-10" points="319.71 403.77 319.49 425.78 320.22 425.78 320.44 403.77 319.71 403.77"/>
            </g>
            <g>
              <polygon class="cls-32" points="307.29 425.78 303.98 425.78 303.32 403.77 307.51 403.77 307.29 425.78"/>
              <polygon class="cls-10" points="306.77 403.77 306.55 425.78 307.29 425.78 307.51 403.77 306.77 403.77"/>
            </g>
            <g>
              <polygon class="cls-32" points="294.35 425.78 291.05 425.78 290.39 403.77 294.57 403.77 294.35 425.78"/>
              <polygon class="cls-10" points="293.84 403.77 293.62 425.78 294.35 425.78 294.57 403.77 293.84 403.77"/>
            </g>
          </g>
          <polygon class="cls-32" points="149.5 465.72 147.19 425.63 213.2 425.63 150.82 429.07 149.5 465.72"/>
          <rect class="cls-32" x="147.08" y="402.99" width="62.96" height="3.05"/>
          <rect class="cls-32" x="286.43" y="402.99" width="62.96" height="3.05"/>
          <polygon class="cls-37" points="406.19 220.68 398.41 301.73 391.37 301.65 396.5 220.76 406.19 220.68"/>
          <g>
            <g>
              <polygon class="cls-51" points="503.93 321.62 497.45 433.15 495.12 473.24 347.19 473.24 344.86 433.15 338.38 321.62 420.57 251.45 503.93 321.62"/>
              <polygon class="cls-32" points="501.58 433.15 499.13 473.24 343.18 473.24 340.73 433.15 501.58 433.15"/>
            </g>
            <polygon class="cls-31" points="343.18 473.24 340.73 433.15 501.58 433.15 501.31 437.55 351 438.15 347.19 473.24 343.18 473.24"/>
          </g>
          <polygon class="cls-56" points="153.46 220.44 274.98 138.45 396.5 220.76 275.08 147.69 153.46 220.44"/>
          <polygon class="cls-56" points="143.97 220.56 274.1 132.1 406.19 220.68 274.98 136.33 143.97 220.56"/>
          <polygon class="cls-32" points="420.57 251.45 338.38 321.62 344.86 433.15 352.47 433.15 345.2 323.73 420.66 256.15 498.24 322.59 490.13 433.15 497.45 433.15 503.93 321.62 420.57 251.45"/>
          <polygon class="cls-11" points="338.38 321.62 331.28 321.62 420.6 244.88 512.01 321.62 503.93 321.62 420.57 251.45 338.38 321.62"/>
          <polygon class="cls-56" points="344.98 323.79 420.66 256.27 498.02 322.65 420.93 262.32 344.98 323.79"/>
          <polygon class="cls-56" points="338.38 321.62 420.57 251.45 503.93 321.62 420.66 254.16 338.38 321.62"/>
          <g>
            <rect class="cls-23" x="469.82" y="372.37" width="14.75" height="5.8"/>
            <rect class="cls-23" x="461.89" y="379.18" width="14.75" height="5.8"/>
            <rect class="cls-23" x="477.52" y="379.18" width="14.75" height="5.8"/>
          </g>
          <g>
            <rect class="cls-23" x="303.39" y="185.83" width="14.75" height="5.8"/>
            <rect class="cls-23" x="295.47" y="192.64" width="14.75" height="5.8"/>
            <rect class="cls-23" x="311.1" y="192.64" width="14.75" height="5.8"/>
          </g>
          <rect class="cls-33" x="455.73" y="349.35" width="14.75" height="5.8"/>
          <rect class="cls-23" x="363.71" y="323.03" width="14.75" height="5.8"/>
          <rect class="cls-23" x="265.53" y="166.56" width="14.75" height="5.8"/>
          <rect class="cls-23" x="224.75" y="246.54" width="14.75" height="5.8"/>
          <rect class="cls-23" x="229.16" y="254.19" width="14.75" height="5.8"/>
          <rect class="cls-23" x="236.47" y="178.31" width="14.75" height="5.8"/>
          <rect class="cls-23" x="367.11" y="225.53" width="14.75" height="5.8"/>
          <rect class="cls-23" x="375.04" y="233.05" width="14.75" height="5.8"/>
          <rect class="cls-33" x="209.05" y="198.75" width="14.75" height="5.8"/>
          <rect class="cls-33" x="361.14" y="256.38" width="14.75" height="5.8"/>
          <rect class="cls-23" x="161.5" y="263.36" width="14.75" height="5.8"/>
          <rect class="cls-23" x="166.73" y="240.72" width="14.75" height="5.8"/>
          <rect class="cls-33" x="202.66" y="192.17" width="14.75" height="5.8"/>
          <rect class="cls-23" x="356.89" y="329.61" width="14.75" height="5.8"/>
          <rect class="cls-23" x="372.3" y="374.72" width="14.75" height="5.8"/>
          <rect class="cls-33" x="386.82" y="304.24" width="14.75" height="5.8"/>
          <rect class="cls-23" x="356.45" y="374.72" width="14.75" height="5.8"/>
          <rect class="cls-33" x="364.15" y="381.53" width="14.75" height="5.8"/>
          <rect class="cls-23" x="454.41" y="418.42" width="14.75" height="5.8"/>
          <rect class="cls-23" x="446.7" y="305.18" width="14.75" height="5.8"/>
          <ellipse class="cls-32" cx="420.92" cy="294.17" rx="14.79" ry="14.15"/>
          <path class="cls-12" d="M432.4,294.17c0,2.43-.83,4.68-2.23,6.5-2.09,2.72-5.46,4.48-9.26,4.48-6.34,0-11.47-4.92-11.47-10.99,0-.4.02-.79.07-1.18.61-5.52,5.48-9.82,11.41-9.82,6.35,0,11.48,4.93,11.48,11Z"/>
          <path class="cls-20" d="M432.4,294.17c0,2.43-.83,4.68-2.23,6.5l-20.66-7.68c.61-5.52,5.48-9.82,11.41-9.82,6.35,0,11.48,4.93,11.48,11Z"/>
          <path class="cls-46" d="M411.83,294.36c0-6.01,5.04-10.88,11.28-10.98-.71-.13-1.44-.21-2.19-.21-6.34,0-11.48,4.92-11.48,10.99s5.14,10.99,11.48,10.99c.07,0,.13,0,.2,0-5.29-.98-9.29-5.43-9.29-10.78Z"/>
          <g>
            <polygon class="cls-56" points="222.39 217.79 223.97 219.79 223.39 294.86 190.48 294.76 187.35 293.09 222.39 217.79"/>
            <g>
              <polygon class="cls-37" points="221.59 292.86 187.35 293.09 184.44 217.4 222.39 217.79 221.59 292.86"/>
              <polygon class="cls-46" points="218.21 220 217.86 262.07 217.65 289.55 190.97 289.73 188.66 219.59 218.21 220"/>
              <rect class="cls-37" x="202.63" y="218.23" width="1.68" height="73.79" transform="translate(-1.67 1.34) rotate(-.38)"/>
              <rect class="cls-37" x="186.9" y="234.29" width="33.58" height="1.59" transform="translate(-1.54 1.34) rotate(-.38)"/>
              <polygon class="cls-20" points="217.86 262.07 217.65 289.55 194.62 289.7 196.76 277.55 217.86 262.07"/>
            </g>
          </g>
          <g>
            <polygon class="cls-56" points="290.17 217.79 291.75 219.79 291.17 294.86 258.26 294.76 255.13 293.09 290.17 217.79"/>
            <g>
              <polygon class="cls-37" points="289.37 292.86 255.13 293.09 252.22 217.4 290.17 217.79 289.37 292.86"/>
              <polygon class="cls-46" points="285.99 220 285.64 262.07 285.42 289.55 258.75 289.73 256.44 219.59 285.99 220"/>
              <rect class="cls-37" x="270.4" y="218.23" width="1.68" height="73.79" transform="translate(-1.66 1.78) rotate(-.38)"/>
              <rect class="cls-37" x="254.67" y="234.29" width="33.58" height="1.59" transform="translate(-1.53 1.78) rotate(-.38)"/>
              <polygon class="cls-20" points="285.64 262.07 285.42 289.55 262.4 289.7 264.54 277.55 285.64 262.07"/>
            </g>
          </g>
          <g>
            <polygon class="cls-56" points="441.8 337.41 443.59 339.57 442.91 420.31 405.55 420.21 401.99 418.41 441.8 337.41"/>
            <g>
              <polygon class="cls-32" points="440.86 418.15 401.99 418.41 398.72 337.01 441.8 337.41 440.86 418.15"/>
              <polygon class="cls-46" points="437.05 339.8 436.64 385.04 436.39 414.6 406.11 414.8 403.51 339.36 437.05 339.8"/>
              <rect class="cls-32" x="419.35" y="337.9" width="1.91" height="79.36" transform="translate(-2.47 2.77) rotate(-.38)"/>
              <rect class="cls-32" x="401.5" y="355.17" width="38.12" height="1.71" transform="translate(-2.32 2.76) rotate(-.38)"/>
              <polygon class="cls-20" points="436.64 385.04 436.39 414.6 410.25 414.77 412.68 401.7 436.64 385.04"/>
            </g>
          </g>
          <g>
            <polygon class="cls-56" points="350.23 217.79 351.81 219.79 351.24 294.86 318.33 294.76 315.19 293.09 350.23 217.79"/>
            <g>
              <polygon class="cls-37" points="349.43 292.86 315.19 293.09 312.29 217.4 350.23 217.79 349.43 292.86"/>
              <polygon class="cls-46" points="346.06 220 345.71 262.07 345.49 289.55 318.81 289.73 316.5 219.59 346.06 220"/>
              <rect class="cls-37" x="330.47" y="218.23" width="1.68" height="73.79" transform="translate(-1.66 2.17) rotate(-.38)"/>
              <rect class="cls-37" x="314.74" y="234.29" width="33.58" height="1.59" transform="translate(-1.53 2.18) rotate(-.38)"/>
              <polygon class="cls-20" points="345.71 262.07 345.49 289.55 322.47 289.7 324.6 277.55 345.71 262.07"/>
            </g>
          </g>
        </g>
        <polygon class="cls-35" points="856.56 516.99 706.09 517.37 707.38 521.09 856.56 521.09 856.56 516.99"/>
        <polygon class="cls-35" points="-234.93 516.32 -238.45 516.31 -301.58 516.04 -301.58 522.26 -237.46 522.21 -236.08 522.21 173.62 521.91 176.03 518.01 -234.93 516.32"/>
        <polygon class="cls-6" points="173.72 521.78 173.62 521.91 -301.58 522.27 -301.58 527.58 173.96 528.74 178.66 521.78 216.32 465.67 173.72 521.78"/>
        <path class="cls-6" d="M283,465.67c-.22,1.7,30.1,66.01,30.1,66.01l192.87.29,22.36-66.26-23.33,60.38-191.35-.15-30.65-60.28Z"/>
        <polygon class="cls-6" points="856.56 521.09 707.38 521.09 654.2 466.11 706.55 526.68 856.56 526.97 856.56 521.09"/>
        <g>
          <polygon class="cls-13" points="64.84 517.35 63.75 522.92 63.69 523.25 62.65 528.74 62.31 523.25 62.29 522.92 61.32 517.34 64.84 517.35"/>
          <polygon class="cls-39" points="64.84 517.35 63.69 523.25 62.65 528.74 63.2 523.09 64.84 517.35"/>
        </g>
        <g>
          <polygon class="cls-13" points="407.96 520.62 406.87 526.26 406.81 526.59 405.77 532.16 405.43 526.59 405.41 526.26 404.44 520.61 407.96 520.62"/>
          <polygon class="cls-39" points="407.96 520.62 406.81 526.59 405.77 532.16 406.32 526.43 407.96 520.62"/>
        </g>
        <g>
          <polygon class="cls-13" points="819.5 517.1 818.41 521.78 818.35 522.06 817.31 526.68 816.97 522.06 816.95 521.78 815.98 517.09 819.5 517.1"/>
          <polygon class="cls-39" points="819.5 517.1 818.35 522.06 817.31 526.68 817.86 521.92 819.5 517.1"/>
        </g>
        <polygon class="cls-13" points="-301.58 525.64 -301.58 527.57 173.96 527.37 -301.58 525.64"/>
        <polygon class="cls-13" points="313.1 531.68 505.93 531.97 405.68 533.25 313.19 531.68 313.1 531.68"/>
        <polygon class="cls-13" points="856.56 526.68 706.55 526.68 856.56 528.99 856.56 526.68"/>
        <polygon class="cls-62" points="319.44 479.05 320.54 472.87 322.47 475.81 324.4 467.58 325.5 475.52 328.26 469.93 327.98 475.52 331.56 472.58 331.01 479.05 319.44 479.05"/>
        <polygon class="cls-4" points="66.69 506.49 67.79 500.32 69.72 503.26 71.65 495.02 72.75 502.96 75.51 497.38 75.23 502.96 78.82 500.02 78.26 506.49 66.69 506.49"/>
        <polygon class="cls-4" points="693.69 480.42 694.79 474.24 696.72 477.18 698.65 468.95 699.75 476.89 702.51 471.3 702.23 476.89 705.81 473.95 705.26 480.42 693.69 480.42"/>
        <polygon class="cls-62" points="310.35 478.02 308.42 474.78 313.1 477.72 312.28 465.08 316.41 477.14 318.06 472.43 318.89 479.49 310.35 478.02"/>
        <polygon class="cls-62" points="459.68 480.22 460.23 475.81 462.99 478.46 468.22 466.11 466.84 479.34 471.25 474.64 471.53 478.75 479.24 473.46 479.52 480.22 459.68 480.22"/>
        <polygon class="cls-62" points="127.58 479.44 128.13 475.03 130.89 477.67 136.12 465.32 134.75 478.56 139.15 473.85 139.43 477.97 147.15 472.68 147.42 479.44 127.58 479.44"/>
        <polygon class="cls-62" points="391.63 475.52 394.66 477.87 395.76 471.4 398.24 477.58 401.27 469.05 401.27 478.46 406.5 470.81 404.58 480.22 391.9 481.69 391.63 475.52"/>
        <polygon class="cls-4" points="352.13 510.51 350.66 503.84 353.24 506.2 355.44 499.92 356.18 508.16 360.22 503.06 359.85 508.94 363.52 504.63 364.26 507.76 368.67 501.49 369.4 506.59 373.07 505.02 374.18 507.37 378.22 504.63 378.58 509.33 385.93 503.06 383.36 513.65 352.13 510.51"/>
        <path class="cls-4" d="M766.89,505.8l-2.2-5.88,4.41,3.14,1.84-7.06,1.84,6.67s5.51-13.33,5.14-12.15c-.37,1.18-1.47,10.98-1.47,10.98l5.14-4.7v5.1l5.14-2.74.37,3.14,4.41-2.74,1.1,3.53,4.78-6.27.73,5.49,8.45-7.84-1.1,8.63,5.14-5.1-.37,5.49,4.04-3.53-1.1,7.06-46.29-1.18Z"/>
        <polygon class="cls-6" points="538.76 510.8 535.17 521.98 540.68 509.92 538.76 510.8"/>
        <polygon class="cls-6" points="568.6 510.02 572.83 507.96 572.92 510.02 578.61 509.92 581.37 504.24 583.02 510.51 568.6 510.02"/>
        <polygon class="cls-6" points="605.62 482.28 609.47 490.12 608.19 482.13 605.62 482.28"/>
        <polygon class="cls-6" points="636.84 482.13 636.64 479.34 640.22 482.65 636.84 482.13"/>
        <polygon class="cls-6" points="505 526.09 499.81 520.79 503.76 526.09 505 526.09"/>
        <polygon class="cls-6" points="620.03 510.51 625.82 521.09 623.2 510.51 620.03 510.51"/>
        <polygon class="cls-6" points="710.77 517.47 707.38 521.09 706.37 520.21 710.77 517.47"/>
        <polygon class="cls-6" points="316.81 520.52 313.65 525.95 312.55 524.18 316.81 520.52"/>
        <polygon class="cls-6" points="171.14 518.08 173.89 522.27 171.62 522.42 171.14 518.08"/>
        <polygon class="cls-6" points="215.57 482.58 220.11 476.11 218.46 482.72 215.57 482.58"/>
        <path class="cls-6" d="M214.33,510.51l-1.1,4.56,2.07-3.38s.14,2.79.14,2.35,4.68-3.38,4.68-3.38l-5.79-.15Z"/>
        <polygon class="cls-6" points="257.31 482.43 258.55 487.87 259.65 481.99 257.31 482.43"/>
        <polygon class="cls-6" points="250.42 510.36 252.76 505.36 253.45 510.66 250.42 510.36"/>
        <polygon class="cls-6" points="225.62 510.51 230.86 501.1 228.38 510.66 225.62 510.51"/>
        <path class="cls-6" d="M278.29,501.69c0,.76-1.73,1.37-3.86,1.37s-3.86-.61-3.86-1.37,1.73-1.37,3.86-1.37,3.86.61,3.86,1.37Z"/>
        <path class="cls-6" d="M268.74,497.77c0,.36-.82.65-1.84.65s-1.84-.29-1.84-.65.82-.65,1.84-.65,1.84.29,1.84.65Z"/>
        <path class="cls-6" d="M226.13,473.13c0,.36-.82.65-1.84.65s-1.84-.29-1.84-.65.82-.65,1.84-.65,1.84.29,1.84.65Z"/>
        <path class="cls-6" d="M197.29,525.28c0,.36-.82.65-1.84.65s-1.84-.29-1.84-.65.82-.65,1.84-.65,1.84.29,1.84.65Z"/>
        <ellipse class="cls-6" cx="182.6" cy="536.97" rx="3.67" ry="1.31"/>
        <ellipse class="cls-6" cx="130.61" cy="532.86" rx="3.67" ry="1.31"/>
        <ellipse class="cls-6" cx="16" cy="541.87" rx="3.31" ry="1.18"/>
        <ellipse class="cls-6" cx="290.23" cy="521.09" rx="2.76" ry=".98"/>
        <ellipse class="cls-6" cx="364.9" cy="539.72" rx="2.76" ry=".98"/>
        <ellipse class="cls-6" cx="354.98" cy="542.85" rx="2.48" ry=".88"/>
        <path class="cls-6" d="M490.54,536.09c0,.87-1.97,1.57-4.41,1.57s-4.41-.7-4.41-1.57,1.97-1.57,4.41-1.57,4.41.7,4.41,1.57Z"/>
        <ellipse class="cls-6" cx="680.93" cy="515.21" rx="4.41" ry="1.57"/>
        <ellipse class="cls-6" cx="753.66" cy="535.8" rx="4.41" ry="1.57"/>
        <ellipse class="cls-6" cx="765.24" cy="538.15" rx="4.41" ry="1.57"/>
        <path class="cls-6" d="M675.42,519.92c0,.49-1.11.88-2.48.88s-2.48-.39-2.48-.88,1.11-.88,2.48-.88,2.48.39,2.48.88Z"/>
        <path class="cls-6" d="M593.86,535.8c0,.49-1.11.88-2.48.88s-2.48-.39-2.48-.88,1.11-.88,2.48-.88,2.48.39,2.48.88Z"/>
        <ellipse class="cls-6" cx="596.34" cy="538.74" rx="2.48" ry=".88"/>
        <path class="cls-6" d="M818.41,536.09c0,.49-1.11.88-2.48.88s-2.48-.39-2.48-.88,1.11-.88,2.48-.88,2.48.39,2.48.88Z"/>
        <ellipse class="cls-6" cx="640.7" cy="475.81" rx="2.48" ry=".88"/>
        <path class="cls-6" d="M621.41,488.75c0,.49-1.11.88-2.48.88s-2.48-.39-2.48-.88,1.11-.88,2.48-.88,2.48.39,2.48.88Z"/>
        <ellipse class="cls-6" cx="529.39" cy="488.16" rx="3.31" ry="1.18"/>
        <path class="cls-6" d="M537.1,490.51c0,.22-.49.39-1.1.39s-1.1-.18-1.1-.39.49-.39,1.1-.39,1.1.18,1.1.39Z"/>
        <path class="cls-6" d="M548.95,471.89c0,.22-.49.39-1.1.39s-1.1-.18-1.1-.39.49-.39,1.1-.39,1.1.18,1.1.39Z"/>
        <path class="cls-6" d="M284.72,525.6c0,.32-.74.59-1.65.59s-1.65-.26-1.65-.59.74-.59,1.65-.59,1.65.26,1.65.59Z"/>
        <polygon class="cls-4" points="89.03 503.23 89.58 498.82 92.34 501.46 97.57 489.11 96.2 502.34 100.6 497.64 100.88 501.76 108.59 496.46 108.87 503.23 89.03 503.23"/>
        <g class="cls-64">
          <path class="cls-59" d="M836.87,77.89l-13.03,25.4-47.73.51-4.12.05-24.13.26-20.93-.22-7.43-.07-37.98-.4h-.99s-70.27-.74-70.27-.74l-25.61-.26-21.18-.22s-58.55-.61-58.55-.61c-2.35-2.79-3.23-6.92-1.6-10.77l2.21-5.24c1.75-4.15,5.18-7.22,9.33-8.33l4.26-1.14c5.78-1.53,11.85,1.03,15.07,6.38l5.41,9c2.76,4.57,8.32,6.15,12.84,3.65l3.45-1.92s.11-.06.32-.15c.39-.2,1.14-.58,2.14-1.06,2.08-.99,5.22-2.42,8.6-3.71,4.11-1.57,8.55-2.91,11.72-2.91,2.9,0,18.59,5.87,24.73,8.22,1.52.58,2.46.94,2.46.94l-7.39-17.11-2.4-5.55c-1.79-4.16-1.64-8.97.41-12.99.03-.06.06-.12.09-.18,1.11-2.16,2.41-4.67,3.8-7.25,4.48-8.38,9.7-17.47,11.33-17.46,3.03.03,47.01-6.78,53.05-4.3,4.63,1.91,16.19,26.74,21.31,38.18,1.62,3.62,1.76,7.77.41,11.51l-6.43,17.55s1.78-2.04,4.11-4.51c2.53-2.67,5.73-5.83,8.1-7.49,1.5-1.04,5.16-.41,9.42.9,8.77,2.69,20.04,8.3,20.04,8.3,0,0,.96-4.85,4.36-9.62,1.88-2.64,4.53-5.24,8.17-6.98.16-.08.32-.17.49-.24,8.79-3.92,23.65,6.57,28.56,10.34.9.7,1.48,1.17,1.6,1.26-.54-.68-10.37-13.31-7.32-24.29.05-.16.09-.33.15-.5.86-2.49,3.13-5.34,6.27-8.22.84-.77,1.73-1.55,2.69-2.33,11.68-9.46,31.23-18.55,40.36-16.73,8.39,1.67,20.56,14.75,27.99,23.63,2.27,2.71,3.49,6.13,3.6,9.6.08,2.67-.49,5.37-1.75,7.81Z"/>
          <path class="cls-55" d="M584.64,102.41l-21.18-.22s-58.55-.61-58.55-.61c-2.35-2.79-3.23-6.92-1.6-10.77l2.21-5.24c1.75-4.15,5.18-7.22,9.33-8.33l4.26-1.14c5.78-1.53,11.85,1.03,15.07,6.38l5.41,9c2.76,4.57,8.32,6.15,12.84,3.65l3.45-1.92s.11-.06.32-.15c2.34,2.93,4.67,5.85,7.02,8.78-1.95-3.18-3.62-6.47-4.87-9.84,2.08-.99,5.22-2.42,8.6-3.71,5.2,5.61,11.21,10.37,17.72,14.12Z"/>
          <path class="cls-55" d="M680.52,103.4l-70.27-.73c-2.51-2.84-4.8-5.86-6.88-9.07,1.52.58,2.46.94,2.46.94l-7.39-17.11c5.96,6.54,14.45,10.52,23.03,10.31-12.15-4.5-21.19-15.97-24.92-29.04,1.11-2.16,2.41-4.67,3.8-7.25,3.05,7.37,8.04,14.03,14,19.03,11.43,9.61,25.85,14.15,40.08,17.36,6.84,1.54,13.96,2.94,19.67,7.23,2.75,2.06,5.07,5.03,6.43,8.33Z"/>
          <path class="cls-55" d="M719.49,103.82l-37.98-.4c.53-3.74,1.41-7.43,2.62-10.98,2.53-2.67,5.73-5.83,8.1-7.49,1.5-1.04,5.16-.41,9.42.9,5.34,6.63,11.33,12.67,17.83,17.98Z"/>
          <path class="cls-55" d="M771.98,103.85l-24.13.26-20.93-.22c-.84-1.89-1.44-3.87-1.81-5.92-.82-4.47-.44-9.14.95-13.45,1.88-2.64,4.53-5.24,8.17-6.98,9.24,13.05,22.85,22.52,37.76,26.31Z"/>
          <path class="cls-55" d="M836.87,77.89l-13.03,25.4-47.73.51c-4.87-4.8-9.18-10.24-12.83-16.16.9.7,1.48,1.17,1.6,1.26-.54-.68-10.37-13.31-7.32-24.29.05-.16.09-.33.15-.5,11.06,13.67,27.62,22.31,44.59,22.64-16.59-2.34-31.42-14.68-38.32-30.86.84-.77,1.73-1.55,2.69-2.33,8.48,10.26,19.91,17.76,32.38,21.01,7.42,1.94,15.18,2.35,22.75,1.34,5.92-.81,11.32-3.98,16.81-5.84.08,2.67-.49,5.37-1.75,7.81Z"/>
          <path class="cls-59" d="M768.41,83.01s17.42,16.94,36.94,11.37c0,0-21.65,13.4-36.94-11.37Z"/>
        </g>
        <path class="cls-4" d="M79.63,475.56l2.88-11.96,1.6,10.6s1.92-6.49,1.92-5.47.32,7.18.32,7.18l-6.73-.34Z"/>
        <polygon class="cls-62" points="62.01 457.44 61.37 451.29 64.57 454.37 65.53 445.82 67.13 453.68 70.02 446.16 70.66 453 73.86 446.85 73.86 453.68 77.38 448.56 76.74 457.1 62.01 457.44"/>
        <polygon class="cls-4" points="374.97 488.96 374.26 482.82 377.51 487.22 378.72 481.05 380.39 486.49 382.25 481.68 383.28 487.14 386.11 483.34 385.55 489.16 374.97 488.96"/>
        <polygon class="cls-4" points="421.37 491.11 419.44 498.46 422.17 498.29 421.37 491.11"/>
        <polygon class="cls-4" points="438.98 486.15 440.26 478.81 440.9 486.33 438.98 486.15"/>
        <polygon class="cls-4" points="338.73 491.11 340.17 483.42 340.98 491.28 338.73 491.11"/>
        <polygon class="cls-62" points="704.18 452.32 706.1 446.85 708.66 450.26 710.9 443.43 711.54 450.61 715.06 445.14 715.38 451.63 718.91 446.85 718.27 456.42 704.18 452.32"/>
        <polygon class="cls-62" points="755.74 457.1 756.38 449.92 758.62 453 761.19 447.53 761.83 453.68 766.63 447.87 766.63 454.02 770.47 449.24 770.79 456.42 773.36 452.32 774.32 456.07 776.56 452.66 777.84 456.42 782.64 453 782.96 458.81 755.74 457.1"/>
        <polygon class="cls-62" points="816.91 460.86 817.55 455.73 820.76 458.13 822.36 452.32 822.68 457.78 825.56 452.32 825.56 458.81 830.69 454.02 829.73 459.49 835.17 454.71 835.17 462.57 816.91 460.86"/>
        <path class="cls-4" d="M768.48,478.35l-.07-8.55,3.13,5.31,1.55-8.29,1.3,7.46s2.46-9.37,2.51-8.34.71,8.52.71,8.52l3.58-6,.33,7.17,2.36-4.57-.6,7.9-14.78-.6Z"/>
        <polygon class="cls-4" points="810.51 471.8 813.07 460.86 814.03 471.8 810.51 471.8"/>
        <polygon class="cls-4" points="734.92 474.53 736.2 466.33 737.16 474.53 734.92 474.53"/>
        <polygon class="cls-4" points="798.76 487.43 800.39 481.24 802.02 487.54 798.76 487.43"/>
      </g>
    </g>
  </g>
</svg>