<?xml version="1.0" encoding="UTF-8"?>
<svg xmlns="http://www.w3.org/2000/svg" xmlns:xlink="http://www.w3.org/1999/xlink" viewBox="0 0 820 760">
  <defs>
    <style>
      .cls-1 {
        fill: #89740c;
      }

      .cls-1, .cls-2, .cls-3, .cls-4, .cls-5, .cls-6, .cls-7, .cls-8, .cls-9, .cls-10, .cls-11, .cls-12, .cls-13, .cls-14, .cls-15, .cls-16, .cls-17, .cls-18, .cls-19, .cls-20, .cls-21, .cls-22, .cls-23, .cls-24, .cls-25, .cls-26, .cls-27, .cls-28, .cls-29, .cls-30, .cls-31, .cls-32, .cls-33, .cls-34, .cls-35, .cls-36, .cls-37, .cls-38, .cls-39, .cls-40, .cls-41, .cls-42, .cls-43, .cls-44, .cls-45, .cls-46, .cls-47, .cls-48, .cls-49, .cls-50, .cls-51, .cls-52, .cls-53, .cls-54, .cls-55, .cls-56, .cls-57, .cls-58, .cls-59, .cls-60, .cls-61, .cls-62 {
        stroke-width: 0px;
      }

      .cls-2 {
        fill: #8b7c00;
      }

      .cls-3 {
        fill: #ffe7e1;
      }

      .cls-4 {
        fill: #b29a0b;
      }

      .cls-5 {
        fill: #ede65f;
      }

      .cls-6 {
        fill: #b29a9a;
      }

      .cls-7 {
        fill: #f2c7b6;
      }

      .cls-8 {
        fill: #b73d4f;
      }

      .cls-9 {
        fill: #63394c;
      }

      .cls-10 {
        fill: #ddbea6;
      }

      .cls-11 {
        fill: #7a485a;
      }

      .cls-12 {
        fill: #561a3c;
      }

      .cls-13 {
        fill: #9b8181;
      }

      .cls-14 {
        fill: url(#linear-gradient);
      }

      .cls-15 {
        fill: #872533;
      }

      .cls-16 {
        fill: #5d4e65;
      }

      .cls-17 {
        fill: #eac2b0;
      }

      .cls-18 {
        fill: #fcb18b;
      }

      .cls-19 {
        fill: #c99e8d;
      }

      .cls-20 {
        fill: #fff;
        opacity: .25;
      }

      .cls-20, .cls-63, .cls-64, .cls-65 {
        mix-blend-mode: lighten;
      }

      .cls-21 {
        fill: #b29b0f;
      }

      .cls-22 {
        fill: #9e890d;
      }

      .cls-23 {
        fill: #fc9112;
      }

      .cls-66, .cls-56, .cls-60 {
        mix-blend-mode: multiply;
      }

      .cls-24 {
        fill: #dd5878;
      }

      .cls-25 {
        fill: #a3313c;
      }

      .cls-26 {
        fill: #cca597;
      }

      .cls-27 {
        fill: #997676;
      }

      .cls-28 {
        fill: #ceb0af;
      }

      .cls-29 {
        fill: #543141;
      }

      .cls-30 {
        fill: #ddb99f;
      }

      .cls-31 {
        fill: #ffebd9;
      }

      .cls-32 {
        fill: #ffddba;
      }

      .cls-33 {
        fill: #ffc688;
      }

      .cls-34 {
        fill: #b8d6f4;
      }

      .cls-35 {
        fill: #efcece;
      }

      .cls-36 {
        fill: #d6b2a5;
      }

      .cls-37 {
        fill: #efcdaf;
      }

      .cls-38, .cls-56 {
        fill: #bc9c9c;
      }

      .cls-39 {
        fill: #f9e1e1;
      }

      .cls-40 {
        fill: #5e5167;
      }

      .cls-64 {
        opacity: .85;
      }

      .cls-65 {
        opacity: .75;
      }

      .cls-41 {
        fill: #aa8b83;
      }

      .cls-42 {
        fill: #663b4d;
      }

      .cls-43 {
        fill: #6b5500;
      }

      .cls-44 {
        fill: #a2c4ed;
      }

      .cls-45 {
        fill: #776603;
      }

      .cls-46 {
        fill: #42112f;
      }

      .cls-47 {
        fill: url(#linear-gradient-4);
      }

      .cls-48 {
        fill: url(#linear-gradient-2);
      }

      .cls-49 {
        fill: url(#linear-gradient-3);
      }

      .cls-50 {
        fill: url(#linear-gradient-8);
      }

      .cls-51 {
        fill: url(#linear-gradient-9);
      }

      .cls-52 {
        fill: url(#linear-gradient-7);
      }

      .cls-53 {
        fill: url(#linear-gradient-5);
      }

      .cls-54 {
        fill: url(#linear-gradient-6);
      }

      .cls-55 {
        fill: #e7dff6;
      }

      .cls-67 {
        isolation: isolate;
      }

      .cls-57 {
        fill: #cfc6e5;
      }

      .cls-58 {
        fill: #c9aa95;
      }

      .cls-59 {
        fill: #f7f4fd;
      }

      .cls-60 {
        fill: #b24f67;
        opacity: .5;
      }

      .cls-61 {
        fill: #9d850e;
      }

      .cls-62 {
        fill: #ccb409;
      }
    </style>
    <linearGradient id="linear-gradient" x1="290.77" y1="605.23" x2="290.77" y2="-2.51" gradientUnits="userSpaceOnUse">
      <stop offset="0" stop-color="#e1feff"/>
      <stop offset=".17" stop-color="#daf7fe"/>
      <stop offset=".42" stop-color="#c6e5fe"/>
      <stop offset=".71" stop-color="#a7c7fd"/>
      <stop offset=".99" stop-color="#82a4fc"/>
    </linearGradient>
    <linearGradient id="linear-gradient-2" x1="-289.48" y1="656.61" x2="871.17" y2="656.61" gradientUnits="userSpaceOnUse">
      <stop offset="0" stop-color="#d6d634"/>
      <stop offset=".49" stop-color="#e7ea4c"/>
      <stop offset=".71" stop-color="#e2e445"/>
      <stop offset=".99" stop-color="#d6d634"/>
    </linearGradient>
    <linearGradient id="linear-gradient-3" x1="172.73" y1="360.9" x2="216.82" y2="360.9" gradientUnits="userSpaceOnUse">
      <stop offset="0" stop-color="#f49d3d"/>
      <stop offset="1" stop-color="#ef8126"/>
    </linearGradient>
    <linearGradient id="linear-gradient-4" x1="159.72" y1="556.98" x2="362.43" y2="556.98" xlink:href="#linear-gradient-3"/>
    <linearGradient id="linear-gradient-5" x1="407.43" y1="468.64" x2="639.32" y2="468.64" gradientUnits="userSpaceOnUse">
      <stop offset="0" stop-color="#ffaf50"/>
      <stop offset="1" stop-color="#ff9f43"/>
    </linearGradient>
    <linearGradient id="linear-gradient-6" x1="544.87" y1="433.71" x2="544.87" y2="332.22" xlink:href="#linear-gradient-5"/>
    <linearGradient id="linear-gradient-7" x1="288.26" y1="483.99" x2="288.26" y2="303.55" xlink:href="#linear-gradient-5"/>
    <linearGradient id="linear-gradient-8" x1="500.78" y1="556.98" x2="698.61" y2="556.98" xlink:href="#linear-gradient-5"/>
    <linearGradient id="linear-gradient-9" x1="434.44" y1="644.69" x2="434.44" y2="422.9" xlink:href="#linear-gradient-5"/>
  </defs>
  <g class="cls-67">
    <g id="Layer_1" data-name="Layer 1">
      <g>
        <rect class="cls-14" x="-288.3" width="1158.14" height="696.08"/>
        <g>
          <g>
            <path class="cls-59" d="M829.91,398.94s-8.98,7.76-9.72,7.76h-126.07s-12.94-.32-9.93-9.63c3.01-9.29,15.62-16.36,18.65-14.14-.17-.33-2.87-5.68-5.01-11.84-1.76-5.05-3.16-10.63-2.49-14.47.19-1.11.89-2.62,1.98-4.4,1.37-2.21,3.33-4.85,5.7-7.69,10.62-12.75,29.24-29.62,36.55-30.3,10.23-.96,41.22,28.9,42.72,35.64,1.48,6.61-4.27,19.68-4.5,20.22.67-.4,25.44-15.33,38.5-10.59,5.42,1.98,9.43,7.46,12.23,13.6,2.47,5.41,4,11.35,4.74,15.89.61,3.73-.65,7.5-3.34,9.95Z"/>
            <path class="cls-55" d="M829.92,398.93s-8.99,7.77-9.72,7.77h-126.08s-12.94-.31-9.93-9.63c3.01-9.3,15.62-16.37,18.65-14.14-.17-.34-2.87-5.69-5.02-11.85,4.64,3.14,9.79,5.4,15.17,6.58-7.34-6.67-12.73-15.64-15.67-25.44,1.36-2.2,3.33-4.84,5.7-7.68,13.36,21.78,36.4,36.87,60.82,38.61-5.82-7.7-8.66-17.9-7.71-27.74,7.58,17.1,22.91,30.08,40.25,34.07-7.16-4.66-11.84-13.41-11.94-22.37,7.35,11.16,21.74,16.38,33.94,12.32,4.11-1.37,7.33-3.57,10.13-6.33,2.47,5.41,4.01,11.36,4.74,15.9.6,3.72-.65,7.49-3.33,9.94Z"/>
          </g>
          <path class="cls-57" d="M817.87,406.7h-121.53c41.02-10.13,93.16-4.47,121.53,0Z"/>
        </g>
        <g>
          <g>
            <path class="cls-59" d="M422.75,357.24H74.67c-3.47,0-6.73-1.94-8.55-5.11l-.05-.1c-2.11-3.69-1.35-8.49,1.81-11.23l11.5-10.02c3.72-3.24,8.81-3.95,13.18-1.86l10.48,5-10.77-25.62c-3.07-7.33-1.81-15.93,3.27-21.86.1-.12.19-.23.29-.36,4.45-5.17,10.2-11.73,16.37-18.28.72-.78,1.46-1.53,2.18-2.3,12.39-12.93,25.97-25.23,33.55-26.13,16.39-1.96,63.72,33.02,63.72,44.04,0,9.12-2.92,30.71-3.92,37.83-.2,1.46-.33,2.31-.33,2.31,0,0,1.78-3.87,4.66-9.31,6.52-12.25,18.63-32.47,28.71-34.73,14.55-3.23,66.13,27.85,65.53,36.92-.42,6.43-4.51,18.69-6.85,25.29-.91,2.58-1.56,4.29-1.63,4.48.68-.41,23.79-14.21,32.75-12.29l6.07,3.88s-10.08-10.76-8.34-21.66c.26-1.64.79-3.28,1.67-4.89,6.67-12.31,26.7-33.66,42.48-33.66s54,25.9,58.85,45.97c.51,2.13.97,4.2,1.37,6.18,1,4.69,1.7,8.93,2.2,12.58,1.08,7.88-4.68,14.92-12.13,14.92Z"/>
            <path class="cls-55" d="M425.41,356.93c-.86.21-1.74.31-2.66.31H74.67c-3.47,0-6.73-1.94-8.55-5.11l-.05-.1c-2.11-3.69-1.35-8.49,1.81-11.23l11.5-10.02c3.72-3.24,8.81-3.95,13.18-1.86l10.48,5-10.77-25.62c-3.07-7.33-1.81-15.93,3.27-21.86.1-.12.19-.23.29-.36,7.78,17.2,21.75,31.27,38.54,37.98-16.42-12.36-24.99-35.17-22.16-56.26.72-.78,1.46-1.53,2.18-2.3.68,5.87,3.11,11.58,6.48,16.34,4.97,7.03,11.81,12.26,18.74,17.05,12.95,8.94,26.65,16.65,40.87,23.02,5.92,2.65,12.29,5.13,18.63,4.1,3.22-.53,6.38-2.28,8.63-4.77-.2,1.46-.33,2.31-.33,2.31,0,0,1.78-3.87,4.66-9.31,3.09,5.65,6.18,11.28,9.26,16.93,6.28-4.84,10.34-12.78,10.75-21.03,11.67,12.29,25.97,21.77,41.47,27.5,8.28,3.05,17.28,5,25.9,4.09-.91,2.58-1.56,4.29-1.63,4.48.68-.41,23.79-14.21,32.75-12.29l6.07,3.88s-10.08-10.76-8.34-21.66c4.95,13.41,16.72,23.97,30.14,26.17-2.75-7.27-5.51-14.55-8.25-21.82,12.67,14.55,28.61,27.67,47.16,29.16,8.75.7,17.78-2.12,24.97-7.41,3.6-2.64,6.84-5.91,9.25-9.79.4-.64.76-1.6,1.1-2.72,1,4.69,1.7,8.93,2.2,12.58.95,6.9-3.37,13.17-9.47,14.6Z"/>
          </g>
          <path class="cls-57" d="M425.41,356.93c-.86.21-1.74.31-2.66.31H82.56c83.81-15.26,268.49-5.24,342.86-.31Z"/>
        </g>
        <path class="cls-34" d="M869.84,590.99l-10.18.64v-59.71l-15.8-.9-9.4,6.37v50.14l-6.83-.92-.86-83.85-19.64-2.73-5.98,9.12v73.83h-16.49l-2.29-90.24-10.25-16.41-10.25,16.41v89.94l-27.34-37.98h-24.76l-15.37,60.16s108.47,28.25,111.04,26.43c1.38-.97,34.26-5.1,64.41-8.73v-31.56Z"/>
        <polygon class="cls-34" points="-16.63 569.07 18.6 554.03 39.74 561.55 47.43 570.44 49.35 607.36 -12.05 602.87 -16.63 569.07"/>
        <polygon class="cls-34" points="-33.92 600.43 -33.32 513.4 -23.59 513.4 -13.26 526.41 -12.05 602.87 -7.18 601.24 -9.01 497.13 -1.11 493.87 11.66 503.63 13.48 602.05 -21.77 611 -33.92 600.43"/>
        <polygon class="cls-44" points="-79.4 577.05 -47.38 583.43 -26.02 569.76 -5.95 582.06 22.23 580.24 34.62 600.75 -85.38 605.3 -79.4 577.05"/>
        <path class="cls-48" d="M25.91,595.03c-19.63.4-38.8.84-57.47,1.33-12.94.33-25.65.69-38.09,1.07-18.54.56-36.5,1.18-53.84,1.82-10.7.4-21.17.81-31.37,1.23-19.46.81-37.99,1.67-55.47,2.58-9.56.48-18.79.99-27.7,1.51-10.22.58-20,1.18-29.34,1.79-7.33.48-14.34.02-20.94-.06v113.98H869.84v-105.59c-276.25-21.63-595.67-24.63-843.93-19.66Z"/>
        <path class="cls-5" d="M89.16,637.26l-16.53,1.18c-38.97-22.34-80.3-35.59-104.19-42.08,18.67-.49,37.85-.93,57.47-1.33,57.25,27.62,63.25,42.24,63.25,42.24Z"/>
        <g>
          <g>
            <polygon class="cls-3" points="-288.3 625.29 -288.3 627.33 69.25 593.68 71.12 589.4 -288.3 625.29"/>
            <polygon class="cls-7" points="-288.3 627.43 -288.3 629.46 70.1 595.73 71.97 591.45 -288.3 627.43"/>
          </g>
          <g>
            <polygon class="cls-3" points="-288.3 636.98 -288.3 639 72.69 611.91 74.63 607.67 -288.3 636.98"/>
            <polygon class="cls-7" points="-288.3 639.12 -288.3 641.13 73.51 613.98 75.45 609.73 -288.3 639.12"/>
          </g>
        </g>
        <g>
          <path class="cls-1" d="M47.83,574.46c2.56-22.35,6.79-45.28.66-67.01,5.87,14.57,11.73,29.13,17.6,43.7,6.3,15.65,12.63,31.38,16.26,47.77,1.98,8.95,3.07,18.57-.72,26.99-3.05,6.77-10.28,12.53-18.31,12.93-8.57.43-10.34-5.61-12.71-12.58-5.64-16.65-4.74-34.66-2.78-51.8Z"/>
          <path class="cls-22" d="M114.05,634.16l-58.32,6.54s-1.45-8.01-2.39-18.29c-1.38-14.91-1.71-34.61,5-41.39,4.87-4.92,9.4-15.12,12.59-26.26,1.45-5.08,2.62-10.36,3.41-15.42,1.51-9.66,1.63-18.53-.33-23.75-5.16-13.72,1.43-81.52,1.23-83.02.72,1.28,8.48,48.88,17.92,60.95,1.98,2.55,3.89,5.05,5.67,7.6,6.79,9.74,11.56,20.03,10.86,34.92-.86,18.8-6.96,45.79-3.47,62.15,3.47,16.35,7.83,35.97,7.83,35.97Z"/>
          <path class="cls-1" d="M114.05,634.16l-58.32,6.54s-1.45-8.01-2.39-18.29c2.73-3.63,5.42-7.3,7.69-11.21,9.88-17.04,11.05-36.78,9.9-56.44,1.45-5.08,2.62-10.36,3.41-15.42,2.06,3.26,2.61,7.87,2.74,11.85.2,6.21,2.04,14.06,8.54,15.12,6.53,1.07,11.18-5.95,12.53-12.04,2.7-11.98.6-24.38-.04-36.62-.18-3.46-.2-10.12.72-16.51,6.79,9.73,11.56,20.02,10.86,34.91-.86,18.8-6.96,45.79-3.47,62.15,3.47,16.35,7.83,35.97,7.83,35.97Z"/>
        </g>
        <g>
          <path class="cls-2" d="M168.4,558.13l-1.55,77.77-.27,13.72-40.38-5.31s-2.24-11.73-4.75-26.49c-3.38-19.94-7.27-45.41-6.77-54.9.38-7.24-.39-28.76-1.38-50.66-.58-12.81-1.23-25.76-1.77-36.05-.64-12.29-1.12-20.79-1.12-20.79l7.24-48.8.63-4.29,1.03-6.93,17.61-13.15,12.95,23.73,6.97,52.85,2.81,21.37,2.96,26.32,5.8,51.61Z"/>
          <path class="cls-45" d="M158.27,602.16c2.9,11.16,6.13,22.37,8.58,33.75l-.27,13.72-40.38-5.31s-2.24-11.73-4.75-26.49c.18-.7.37-1.4.56-2.08,2.7-9.55,6.45-18.8,6.82-29.22.44-11.98-3.59-23.46-6.74-34.79-3.55-12.79-6.1-26.2-8.8-39.48-.58-12.81-1.23-25.76-1.77-36.05,5.03,4.73,9.83,9.68,12.13,17.32,3.91,13-1.29,27.75.93,41.44.8,4.92,3.67,10.37,7.04,9.26,2.43-.79,3.64-4.59,4.26-8.04,3.04-16.95-.25-35.12-3.54-52.34-4.9-25.75-9.81-51.5-14.7-77.24l.63-4.29c5.52,19.91,11.05,39.83,16.58,59.74,1.34,4.84,3.03,10.2,6.41,12.14,4.47,2.57,9.08-2.37,11.97-7.62,1.37-2.5,2.57-5.09,3.6-7.77l2.81,21.37,2.96,26.32c-3.53,9.53-7.72,18.66-9.93,29.03-4.55,21.45-.01,45.09,5.6,66.61Z"/>
        </g>
        <g>
          <path class="cls-1" d="M734.21,580.19s-3.94-27.67-1.75-38.7c2.19-11.03,2.08-39.3,2.08-39.3,0,0,10.29,26.05,12.34,36,2.05,9.95-.81,38.8-.81,38.8l-11.86,3.2Z"/>
          <g>
            <path class="cls-22" d="M784.66,580.97c.25,7.28-.38,63.87-.38,63.87l-49.18-13.6s-7-33.38-4.35-50.04c.2-1.32.48-2.55.81-3.63,4.62-14.78,21.88-60.13,17.59-85.51-4.21-24.91,20.93-58.86,21.86-60.09-.51,1.09-9.5,19.93-7.33,34.9.57,3.95,1.55,8.59,2.79,13.53.43,1.79.92,3.62,1.42,5.47,3.48,12.89,8.13,26.87,11.22,35.68.04.12.09.24.13.35,4.73,13.5,5.18,51.79,5.43,59.07Z"/>
            <path class="cls-1" d="M784.66,580.97c.25,7.28-.38,63.87-.38,63.87l-49.18-13.6s-7-33.38-4.35-50.04c2.91,6.47,6.47,12.62,10.59,18.3,2.23,3.09,4.92,6.21,8.49,6.93,4.88.97,9.66-3.13,11.45-8.07,1.78-4.94,1.27-10.45.54-15.69-2.66-19.05-7.94-37.75-8.39-57.01-.38-16.12,3.34-33.33,13.04-45.27.43,1.79.92,3.62,1.42,5.47-8.07,22.25-10.35,46.88-6.34,70.36,8.8-10.81,14.25-22.39,17.56-34.68.04.12.09.24.13.35,4.73,13.5,5.18,51.79,5.43,59.07Z"/>
          </g>
        </g>
        <g>
          <path class="cls-2" d="M724.31,498.67l-12.81,133.99-31.59-6.39s-1.01-3.88-2.55-9.97c-4.95-19.57-15.39-61.88-15.39-70.24,0-1.24.04-3.83.09-7.45.31-16.87,1.29-56.32,2.84-87.72,1.05-21.45,2.37-39.13,3.89-43.38,4.27-11.84,15.37-44.65,15.37-44.65l31.61,75.65,8.52,60.04v.12Z"/>
          <path class="cls-45" d="M724.31,498.67l-12.81,133.99-31.59-6.39s-1.01-3.88-2.55-9.97c1.47-6.22,3.42-12.36,4.45-18.69,2.9-17.9-1.97-37.05-12.95-50.93-2.17-2.72-4.59-5.33-6.79-8.07-2.81-3.5-5.25-7.21-6.32-11.62-1.2-4.98-.46-10.21.28-15.29,2.96-20.26,5.92-40.55,8.88-60.82.29-1.98.58-3.94.86-5.89,3.38,26.63,6.78,53.28,10.16,79.92.59,4.63,1.27,9.5,3.96,13.19,2.69,3.68,8.11,5.52,11.53,2.61,2.43-2.06,3.06-5.69,3.34-8.98,3.28-38.64-17.99-76.95-11.13-115.05,4.24,24.1,10.38,47.83,18.33,70.85,1.47,4.27,3.07,8.64,6.06,11.88,2.99,3.25,7.71,5.11,11.63,3.3,1.84-.86,3.37-2.31,4.65-4.17v.12Z"/>
        </g>
        <g>
          <path class="cls-21" d="M817.55,637.6l-142.65-10.47s-16.02-20.61-12.78-27.12c.47-.94,1.13-2.01,1.95-3.14,4.9-6.82,15.1-16.11,17.89-13.31,2.21,2.21,5.75,8.74,7.03,13.6.13-.6.28-1.23.45-1.89,2-7.7,6.6-18.84,13.02-19.56.5-.05,1-.09,1.54-.12,4.28-.26,9.72.29,14.82,2.02,9.93,3.37,15.02,14.96,11.78,25.35-.16.53-.35,1.07-.56,1.59l-.44,1.12c.96-2.04,4.99-9.58,13.86-13.37,4.07-1.73,9.17-2.67,15.47-1.92,21.88,2.63,7.57,24.89,7.15,25.52.17-.11,1.49-1.05,3.53-2.23,3.2-1.86,8.12-4.3,12.87-5.04,4.39-.69,8.65.1,11.27,4.18,5.44,8.49,1.68,13.71-.65,15.86,1.11-.82,2.8-2.02,4.82-3.32,3.72-2.38,8.62-5.07,13.3-6.32,4.05-1.1,7.95-1.1,10.77,1.11,9.32,7.33-4.43,17.45-4.43,17.45Z"/>
          <path class="cls-61" d="M817.55,637.6l-142.65-10.47s-16.02-20.61-12.78-27.12c.47-.94,1.13-2.01,1.95-3.14,1.03,4.71,3.18,9.49,7.62,11.1,10.62,3.84,15.95-7.34,17.24-10.56.04-.1.05-.14.07-.19.16-.41.24-.64.24-.64l.2-1.3c2-7.7,6.6-18.84,13.02-19.56.5-.05,1-.09,1.54-.12-4.14,5.98-7.89,14.83-1.97,22.72,9.68,12.92,27.1,5.33,28.57,4.65-.16.53-.35,1.07-.56,1.59l-.44,1.12c.96-2.04,4.99-9.58,13.86-13.37-3.41,11.74-5.72,27.2,4.16,30.67,14.89,5.25,18.65-7.25,18.65-7.25l3.34-2.05c3.2-1.86,8.12-4.3,12.87-5.04-3.89,5.91-7.08,13.13-3.84,17.88,4.11,5.99,9.81,4.7,13.34,3.02.09-.04.15-.08.2-.1,1.83-.9,3.02-1.85,3.02-1.85l2.72-2.23c3.72-2.38,8.62-5.07,13.3-6.32-1.79,5.44-1.75,12.58,6.34,18.56Z"/>
          <path class="cls-21" d="M684.82,616.73s3.04-10.5,11.25-9.92c8.21.58,23.4,11.54,23.78,18.48,0,0-5.52-4.37-11.96-6.92-6.45-2.55-22.51-3.58-23.07-1.64Z"/>
        </g>
        <g>
          <path class="cls-21" d="M184.86,624.15l-152.69,13.73s-8.69-7.46-8.17-14.05c.19-2.33,1.52-4.57,4.8-6.32,12.18-6.53,20.73,1.94,21.24,2.44-.37-.9-11.04-27.53,5.94-28.29,11.96-.54,19.79,3.36,22.95,8.79.08.13.15.25.23.39,0-.03.01-.06,0-.08,1.15-6.51,4.84-14.41,14.12-16.48,3.09-.7,5.9-.91,8.4-.71,9.92.78,15.04,8.05,14.07,17.57.16-.21.34-.44.53-.65,3.11-3.68,8.08-6.69,15.58-5.92,4.13.43,7.94,2.57,10.43,5.88,3.14-7.78,10.73-15.5,25.93-13.16,1.24.19,2.4.43,3.49.69,26.36,6.58,13.14,36.19,13.14,36.19Z"/>
          <path class="cls-61" d="M184.86,624.15l-152.69,13.73s-8.69-7.46-8.17-14.05c.43.2.87.4,1.33.61,45.36,21.3,52.67-17.18,53.61-24,.09-.65.11-1,.11-1,.02.45.06.89.13,1.31,0,.05,0,.11.02.16.21,1.35.64,2.53,1.19,3.55,2.51,4.68,7.66,6.21,7.66,6.21,17.68,3.72,15.65-16.95,13.65-27.11,9.92.78,15.04,8.05,14.07,17.57.16-.21.34-.44.53-.65-.03.1-.07.18-.1.26-.21.57-.42,1.14-.6,1.68-.61,1.86-1.04,3.54-1.32,5.11-2.27,12.38,4.71,17.32,14.31,15.2,6.65-1.46,10.14-6.77,11.97-11.84,1.59-4.41,1.93-8.65,2-10.12.01-.34.02-.53.02-.53,20.59,17.48,27.21-2.46,29.16-12.26,26.36,6.58,13.14,36.19,13.14,36.19Z"/>
        </g>
        <g class="cls-63">
          <path class="cls-59" d="M17.03,413.77s-6.95,6.01-7.53,6.01h-97.61s-10.02-.25-7.69-7.46c2.33-7.19,12.09-12.67,14.44-10.95-.13-.26-2.22-4.4-3.88-9.17-1.37-3.91-2.45-8.23-1.93-11.2.15-.86.69-2.03,1.54-3.41,1.06-1.71,2.58-3.75,4.41-5.96,8.23-9.87,22.64-22.93,28.3-23.46,7.92-.75,31.91,22.38,33.07,27.59,1.14,5.12-3.3,15.24-3.48,15.65.52-.31,19.69-11.87,29.81-8.2,4.2,1.53,7.3,5.77,9.47,10.53,1.91,4.19,3.1,8.79,3.67,12.3.47,2.89-.5,5.81-2.59,7.7Z"/>
          <path class="cls-55" d="M17.03,413.77s-6.95,6.01-7.53,6.01h-97.61s-10.02-.25-7.69-7.46c2.33-7.19,12.09-12.67,14.44-10.95-.13-.26-2.22-4.4-3.88-9.17,3.58,2.43,7.58,4.18,11.74,5.09-5.68-5.17-9.86-12.11-12.13-19.7,1.06-1.71,2.58-3.75,4.41-5.96,10.35,16.87,28.19,28.55,47.1,29.9-4.51-5.97-6.71-13.86-5.97-21.48,5.87,13.25,17.73,23.3,31.16,26.38-5.55-3.61-9.16-10.38-9.24-17.31,5.69,8.63,16.84,12.68,26.27,9.54,3.18-1.06,5.67-2.77,7.85-4.9,1.91,4.19,3.1,8.79,3.67,12.3.47,2.89-.5,5.81-2.59,7.7Z"/>
        </g>
        <path class="cls-62" d="M208.29,617.95c-215.91,16.63-399.61,28.46-496.58,34.42v67.9H869.84v-86.27c-160.67-13.93-444.44-32.79-661.56-16.06Z"/>
        <path class="cls-4" d="M765.47,674.58c-4.55-.05-9-1.48-12.83-4.12l-44.11-30.46-179.28-1.56-25.59,30.11c-6.62,7.79-16.04,12.2-25.89,12.15l-113.9-.62c-9.79-.05-19.09-4.5-25.63-12.26l-22.79-27.03-113.14-3.14-17.1,16.8c-12.62,12.4-29.16,19.24-46.32,19.18l-427.18-1.45v30.56l1158.14-.76v-26.27l-104.37-1.13Z"/>
        <polygon class="cls-38" points="733.47 648.22 733.33 650.19 463.15 648.88 128.01 647.26 127.64 645.32 163 619.62 704.13 620.21 733.47 648.22"/>
        <path class="cls-27" d="M733.47,648.22l-.13,1.96s-270.18-1.31-270.18-1.31l-335.15-1.62-.36-1.94,605.82,2.91Z"/>
        <path class="cls-28" d="M332.29,696.07h-153.05l9.06-11.56.93-1.18,7.73-9.86s.66-.82.66-.82l14.22-18.14.91-1.18,13.32-17h74.19l9.11,17,.63,1.18,15.45,28.82.08.14.55,1.04,6.2,11.56Z"/>
        <polygon class="cls-28" points="731.32 696.07 511.42 696.07 516.74 683.92 516.87 683.63 517.26 682.74 537.63 636.34 670.7 636.09 706.94 671.95 731.32 696.07"/>
        <g>
          <rect class="cls-6" x="192.76" y="681.37" width="128.94" height="1.32"/>
          <rect class="cls-6" x="521.18" y="681.37" width="190.98" height="1.32"/>
        </g>
        <rect class="cls-6" x="532.57" y="653.34" width="153.19" height="1.18"/>
        <polygon class="cls-6" points="310.01 654.52 211.83 654.52 212.75 653.34 309.38 653.34 310.01 654.52"/>
        <polygon class="cls-35" points="670.93 636.33 666.56 636.43 724.33 696.07 731.31 696.07 670.93 636.33"/>
        <path class="cls-35" d="M230.23,636.34h-4.15l-29.11,37.13s-17.72,22.59-17.72,22.59h5.51l45.47-59.73Z"/>
        <path class="cls-55" d="M230.4,280.47c.26,1.01.46,2.02.58,3.05-.24-1.01-.43-2.02-.58-3.05Z"/>
        <path class="cls-43" d="M136.05,550.86c.03.14.06.28.09.41-.02-.05-.04-.08-.07-.13-.04-.08-.02-.19-.02-.28Z"/>
        <polygon class="cls-28" points="191.94 696.84 187 696.84 -288.3 697.9 -288.3 760 869.84 760 869.84 695.3 191.94 696.84"/>
        <polygon class="cls-35" points="541.94 636.38 537.63 636.34 513.1 692.24 330.09 691.96 300.27 636.34 295.84 636.34 326.94 697.39 518.29 697.54 541.94 636.38"/>
        <g>
          <polygon class="cls-49" points="172.73 357.76 172.73 380.5 216.82 381.28 211.67 340.51 172.73 357.76"/>
          <rect class="cls-30" x="171.45" y="354.62" width="5.69" height="27.64"/>
          <rect class="cls-56" x="171.45" y="357.42" width="32.88" height="4.55"/>
          <polygon class="cls-29" points="247.31 324.83 247.19 336.65 246.94 359.33 169.06 360.12 173.21 336.11 175.31 324.04 247.31 324.83"/>
          <path class="cls-9" d="M247.86,326.3l-.12,11.82c-13.63-.09-60.96-.44-73.97-.54l2.09-12.07,72,.79Z"/>
          <path class="cls-11" d="M245.1,342.18l-.12,11.82c-13.63-.09-60.96-.44-73.97-.54l2.09-12.07,72,.79Z"/>
          <g>
            <polygon class="cls-25" points="373.18 323.01 372.72 327.14 372.58 328.34 371.5 337.86 370.45 347.17 369.35 356.85 351.97 344.14 349.86 342.58 349.52 340.36 347.73 328.62 347.47 326.87 346.47 320.34 373.18 323.01"/>
            <rect class="cls-15" x="353.73" y="337.34" width="10.13" height="4.54" transform="translate(717.59 679.22) rotate(180)"/>
            <rect class="cls-15" x="357.91" y="343.49" width="10.13" height="4.54" transform="translate(725.95 691.51) rotate(180)"/>
            <rect class="cls-15" x="359.83" y="332.17" width="10.13" height="4.54" transform="translate(729.79 668.88) rotate(180)"/>
            <polygon class="cls-60" points="372.72 327.14 372.58 328.34 371.5 337.86 370.45 347.17 349.52 340.36 347.73 328.62 372.72 327.14"/>
            <polygon class="cls-8" points="378.89 317.34 376.41 329.58 344.18 328.61 341.48 315.8 378.89 317.34"/>
            <rect class="cls-25" x="345.15" y="318.07" width="10.13" height="4.54" transform="translate(700.42 640.69) rotate(180)"/>
            <rect class="cls-25" x="351.47" y="323.05" width="10.13" height="4.54" transform="translate(713.08 650.63) rotate(180)"/>
            <rect class="cls-25" x="365.62" y="318.86" width="10.13" height="4.54" transform="translate(741.36 642.25) rotate(180)"/>
            <polygon class="cls-24" points="344.18 328.61 341.48 315.8 378.89 317.34 342.82 317.18 344.18 328.61"/>
          </g>
          <polygon class="cls-47" points="362.43 476.79 362.43 637.17 168.75 637.17 166.5 597.08 162.5 526.28 161.99 517.03 159.72 476.79 362.43 476.79"/>
          <g>
            <polygon class="cls-56" points="225.58 529.02 226.62 530.5 226.28 585.95 204.7 585.85 202.64 584.61 225.58 529.02"/>
            <g>
              <polygon class="cls-37" points="225.09 584.47 202.64 584.61 200.7 528.71 225.58 529.02 225.09 584.47"/>
              <polygon class="cls-46" points="222.84 530.65 222.63 561.72 222.51 582.02 205.02 582.14 203.47 530.33 222.84 530.65"/>
              <rect class="cls-37" x="212.64" y="529.33" width="1.1" height="54.51" transform="translate(-3.68 1.42) rotate(-.38)"/>
              <rect class="cls-37" x="202.32" y="541.2" width="22.01" height="1.17" transform="translate(-3.55 1.41) rotate(-.38)"/>
              <polygon class="cls-20" points="222.63 561.72 222.51 582.02 207.41 582.12 208.81 573.15 222.63 561.72"/>
            </g>
          </g>
          <g>
            <polygon class="cls-56" points="324.42 529.02 325.46 530.5 325.12 585.95 303.54 585.85 301.49 584.61 324.42 529.02"/>
            <g>
              <polygon class="cls-37" points="323.93 584.47 301.49 584.61 299.55 528.71 324.42 529.02 323.93 584.47"/>
              <polygon class="cls-46" points="321.69 530.65 321.48 561.72 321.35 582.02 303.86 582.14 302.31 530.33 321.69 530.65"/>
              <rect class="cls-37" x="311.48" y="529.33" width="1.1" height="54.51" transform="translate(-3.68 2.08) rotate(-.38)"/>
              <rect class="cls-37" x="301.16" y="541.2" width="22.01" height="1.17" transform="translate(-3.54 2.06) rotate(-.38)"/>
              <polygon class="cls-20" points="321.48 561.72 321.35 582.02 306.26 582.12 307.65 573.15 321.48 561.72"/>
            </g>
          </g>
          <polygon class="cls-37" points="281.77 597.38 243.97 597.38 241.59 527.22 284.74 526.9 281.77 597.38"/>
          <polygon class="cls-46" points="276.38 530.5 275.83 544.13 274.56 575.61 251.42 575.61 249.96 530.71 276.38 530.5"/>
          <polygon class="cls-20" points="275.83 544.13 274.56 575.61 255.56 575.61 258.03 559.49 275.83 544.13"/>
          <g>
            <rect class="cls-37" x="262.29" y="529.56" width="1.54" height="50.98"/>
            <rect class="cls-37" x="247.43" y="542.6" width="31.7" height="1.53"/>
            <rect class="cls-37" x="247.43" y="560.34" width="31.7" height="1.53"/>
          </g>
          <rect class="cls-53" x="407.43" y="459.24" width="231.88" height="18.8"/>
          <rect class="cls-37" x="631.24" y="459.24" width="8.07" height="18.8"/>
          <rect class="cls-32" x="631.24" y="459.24" width="1.61" height="18.8"/>
          <rect class="cls-56" x="407.43" y="459.24" width="231.88" height="3.6"/>
          <polygon class="cls-29" points="657.52 459.87 399.79 459.87 398.72 450.69 398.71 450.57 398.37 447.71 396.85 434.67 396.32 430.23 394.8 417.2 394.46 414.33 392.94 401.29 392.7 399.24 391.16 386.2 389.3 370.28 389.22 369.66 614.66 369.66 614.97 370.31 621.16 383.33 622.52 386.19 628.71 399.22 629.69 401.31 635.88 414.33 637.24 417.2 643.43 430.23 645.09 433.71 645.55 434.67 651.74 447.71 657.52 459.87"/>
          <g>
            <g>
              <g>
                <polygon class="cls-9" points="621.16 383.33 530.87 383.33 526.81 370.31 614.97 370.31 621.16 383.33"/>
                <polygon class="cls-11" points="527.69 383.34 392.11 383.34 389.76 370.31 523.67 370.31 527.69 383.34"/>
                <polygon class="cls-40" points="388.29 383.34 252.71 383.34 252.08 370.31 385.98 370.31 388.29 383.34"/>
              </g>
              <g>
                <g>
                  <polygon class="cls-9" points="621.04 399.23 483.43 399.23 480 386.2 615.95 386.2 621.04 399.23"/>
                  <polygon class="cls-9" points="480.21 399.23 342.6 399.23 340.88 386.2 476.83 386.2 480.21 399.23"/>
                  <polygon class="cls-40" points="338.72 399.23 201.11 399.23 201.11 386.2 337.05 386.2 338.72 399.23"/>
                </g>
                <polygon class="cls-9" points="628.71 399.22 624.37 399.22 619.24 386.19 622.52 386.19 628.71 399.22"/>
              </g>
            </g>
            <g>
              <g>
                <polygon class="cls-9" points="635.88 414.33 562.12 414.33 557.81 401.31 629.69 401.31 635.88 414.33"/>
                <polygon class="cls-11" points="558.85 414.33 419.31 414.33 416.7 401.3 554.58 401.3 558.85 414.33"/>
                <polygon class="cls-40" points="415.37 414.33 275.83 414.33 274.94 401.3 412.81 401.3 415.37 414.33"/>
              </g>
              <g>
                <polygon class="cls-9" points="643.43 430.23 513.49 430.23 509.8 417.2 637.24 417.2 643.43 430.23"/>
                <polygon class="cls-9" points="510.17 430.22 368.6 430.22 366.63 417.19 506.53 417.19 510.17 430.22"/>
                <polygon class="cls-40" points="364.6 430.22 223.03 430.22 222.77 417.19 362.68 417.19 364.6 430.22"/>
              </g>
            </g>
            <g>
              <g>
                <polygon class="cls-9" points="651.74 447.71 598.91 447.71 594.3 434.67 645.55 434.67 651.74 447.71"/>
                <polygon class="cls-11" points="595.53 447.71 451.73 447.71 448.82 434.67 590.97 434.67 595.53 447.71"/>
                <polygon class="cls-40" points="447.67 447.71 303.86 447.71 302.67 434.67 444.81 434.67 447.67 447.71"/>
              </g>
              <g>
                <polygon class="cls-9" points="653.01 450.56 545.03 450.56 547.86 459.87 656.74 459.87 653.01 450.56"/>
                <polygon class="cls-9" points="399.11 459.87 397.5 450.56 541.65 450.56 544.45 459.87 399.11 459.87"/>
                <polygon class="cls-40" points="393.42 450.56 395.01 459.87 321.35 459.87 318.67 450.56 393.42 450.56"/>
              </g>
            </g>
          </g>
          <polygon class="cls-60" points="617.6 392.83 575.03 433.71 573.43 369.66 592.22 369.66 617.6 392.83"/>
          <g>
            <g>
              <polygon class="cls-54" points="575.03 373.88 575.03 433.71 514.71 433.71 514.71 373.88 518.3 369.11 546.04 332.22 571.7 369.11 575.03 373.88"/>
              <g>
                <polygon class="cls-16" points="514.8 373.88 546.14 332.69 574.92 373.92 581.53 373.88 546.14 325.64 506.9 373.88 514.8 373.88"/>
                <polygon class="cls-37" points="519.99 373.88 545.84 339.58 569.66 373.88 575.03 373.92 546.14 332.69 514.8 373.88 519.99 373.88"/>
              </g>
            </g>
            <polygon class="cls-37" points="519.99 369.11 519.99 433.71 514.71 433.71 514.71 373.88 518.53 368.98 519.99 369.11"/>
            <polygon class="cls-37" points="575.03 373.88 575.03 433.71 569.6 433.71 569.6 369.11 571.7 369.11 575.03 373.88"/>
          </g>
          <polygon class="cls-56" points="561.68 426.74 535.7 427.6 533.13 425.76 532.18 377.11 561.24 373.06 563.88 374.97 561.68 426.74"/>
          <polygon class="cls-37" points="559.04 424.87 533.06 425.72 529.54 375.23 561.24 373.09 559.04 424.87"/>
          <polygon class="cls-12" points="557.54 377.12 556.36 405.18 555.67 421.21 536.32 421.85 534.49 395.65 533.31 378.75 557.54 377.12"/>
          <polygon class="cls-56" points="519.99 373.88 545.84 339.58 569.66 373.88 545.28 352.65 519.99 373.88"/>
          <path class="cls-20" d="M557.54,377.12l-1.18,28.06c-7.47-3.29-15.64-6.86-21.87-9.53l-1.18-16.9,24.23-1.64Z"/>
          <polygon class="cls-46" points="536.32 421.85 533.32 378.75 557.54 377.11 535.59 380.38 536.32 421.85"/>
          <rect class="cls-37" x="544.55" y="375.52" width="1.76" height="48.79"/>
          <polygon class="cls-56" points="514.71 373.88 546.14 332.69 575.03 373.88 546.05 335.74 514.71 373.88"/>
          <polygon class="cls-52" points="410.66 483.99 165.87 483.99 157.06 390.01 287.38 303.55 419.47 390.01 410.66 483.99"/>
          <polygon class="cls-37" points="157.25 392.01 164.84 473.18 171.87 473.1 166.75 391.89 157.25 392.01"/>
          <polygon class="cls-32" points="251.38 574.36 251.42 575.61 274.55 575.61 274.61 574.36 251.38 574.36"/>
          <polygon class="cls-37" points="162.21 520.87 166.41 597.31 171.68 597.31 168.39 520.87 162.21 520.87"/>
          <polygon class="cls-56" points="166.75 599.11 161.99 517.03 375.44 515.94 374.12 605.22 363.55 606.62 357.39 541.31 195.36 541.31 184.04 597.92 166.75 599.11"/>
          <polygon class="cls-50" points="698.61 476.79 692 597.08 689.8 637.17 500.78 637.17 500.78 476.79 698.61 476.79"/>
          <polygon class="cls-7" points="696.2 520.64 692 597.08 686.74 597.08 690.02 520.64 696.2 520.64"/>
          <polygon class="cls-32" points="690.02 520.64 686.74 597.08 687.47 597.08 690.76 520.64 690.02 520.64"/>
          <polygon class="cls-56" points="696.41 517.03 695.9 526.28 482.52 526.28 482.52 517.03 696.41 517.03"/>
          <g>
            <polygon class="cls-10" points="188.76 597.7 184.04 597.92 179.07 598.17 174.18 526.05 173.49 517.59 173.35 515.94 186.12 517.35 186.12 517.59 186.15 518.68 186.4 526.05 188.76 597.7"/>
            <polygon class="cls-10" points="342.42 515.94 342.28 517.59 342.14 519.3 341.59 526.05 338.46 598.32 334.99 598.05 330.23 597.7 329.37 526.05 329.65 517.59 329.65 517.35 342.42 515.94"/>
          </g>
          <polygon class="cls-58" points="188.76 597.7 184.04 597.92 182.31 528.1 182.1 519.64 182.09 519.4 186.15 518.68 186.4 526.05 188.76 597.7"/>
          <polygon class="cls-58" points="342.14 519.3 341.59 526.05 338.46 598.32 334.99 598.05 336.2 528.64 336.48 520.19 336.48 519.92 342.14 519.3"/>
          <g class="cls-66">
            <g>
              <g class="cls-66">
                <polygon class="cls-38" points="186.4 526.05 174.18 526.05 173.49 517.59 186.12 517.59 186.4 526.05"/>
              </g>
              <g class="cls-66">
                <polygon class="cls-38" points="342.28 517.59 341.59 526.05 329.37 526.05 329.65 517.59 342.28 517.59"/>
              </g>
            </g>
          </g>
          <rect class="cls-37" x="144.51" y="512.18" width="569.06" height="8.46"/>
          <rect class="cls-56" x="144.51" y="512.18" width="569.06" height="3.29"/>
          <polygon class="cls-29" points="716.8 513.12 643.45 512.93 641.32 512.93 550.32 512.69 547.75 512.69 475.53 512.5 475.3 504.12 474.36 471.15 695.53 468.72 699.91 477.33 705.97 490.17 707.29 492.99 712.56 504.12 713.37 505.83 716.8 513.12"/>
          <g>
            <g>
              <g>
                <polygon class="cls-9" points="701.02 482.38 610.72 482.38 606.67 470.63 694.82 470.63 701.02 482.38"/>
                <polygon class="cls-11" points="607.54 482.38 471.97 482.38 469.62 470.62 603.52 470.62 607.54 482.38"/>
                <polygon class="cls-40" points="467.31 478.15 467.31 482.38 468.14 482.38 467.31 478.15"/>
              </g>
              <g>
                <g>
                  <polygon class="cls-9" points="700.89 496.72 563.28 496.72 559.86 484.96 695.8 484.96 700.89 496.72"/>
                  <polygon class="cls-9" points="467.31 496.72 560.07 496.72 556.68 484.96 467.31 484.96 467.31 496.72"/>
                </g>
                <polygon class="cls-9" points="708.57 496.71 704.22 496.71 699.1 484.95 702.37 484.95 708.57 496.71"/>
              </g>
            </g>
            <g>
              <polygon class="cls-9" points="715.74 510.33 641.98 510.33 637.67 498.59 709.55 498.59 715.74 510.33"/>
              <polygon class="cls-11" points="638.71 510.34 499.17 510.34 496.56 498.58 634.43 498.58 638.71 510.34"/>
              <polygon class="cls-40" points="467.31 510.34 495.23 510.34 492.67 498.58 467.31 498.58 467.31 510.34"/>
            </g>
          </g>
          <polygon class="cls-29" points="161.17 473.02 141.5 513.12 382.78 512.49 383.95 471.14 161.17 473.02"/>
          <g>
            <g>
              <g>
                <polygon class="cls-9" points="157.1 484.61 247.4 484.61 251.45 473.23 163 473.42 157.1 484.61"/>
                <polygon class="cls-11" points="250.58 484.62 386.15 484.62 388.5 473.22 254.6 473.22 250.58 484.62"/>
                <polygon class="cls-40" points="390.81 480.52 390.81 484.62 389.98 484.62 390.81 480.52"/>
              </g>
              <g>
                <g>
                  <polygon class="cls-9" points="157.23 498.51 294.84 498.51 298.26 487.12 162.32 487.12 157.23 498.51"/>
                  <polygon class="cls-9" points="390.81 498.51 298.05 498.51 301.44 487.12 390.81 487.12 390.81 498.51"/>
                </g>
                <polygon class="cls-9" points="149.55 498.5 153.9 498.5 159.02 487.11 155.75 487.11 149.55 498.5"/>
              </g>
            </g>
            <g>
              <polygon class="cls-9" points="142.38 511.71 216.14 511.71 220.45 500.32 148.57 500.32 142.38 511.71"/>
              <polygon class="cls-11" points="219.41 511.71 358.95 511.71 361.56 500.32 223.69 500.32 219.41 511.71"/>
              <polygon class="cls-40" points="390.81 511.71 362.89 511.71 365.45 500.32 390.81 500.32 390.81 511.71"/>
            </g>
          </g>
          <polygon class="cls-60" points="412.92 459.87 419.47 390.01 389.3 370.28 389.23 369.66 415.96 369.66 443.68 392.36 493.08 459.87 518.97 495.26 411.26 477.56 412.92 459.87"/>
          <polygon class="cls-7" points="698.03 597.08 696.99 615.63 695.77 637.17 162.78 637.17 160.48 597.08 698.03 597.08"/>
          <path class="cls-42" d="M157.65,392.05l129.74-88.49c1.62,0,114.42,76.71,132.08,88.69l9.05-.04-140.25-97.11-140.18,97.11,9.56-.16Z"/>
          <polygon class="cls-56" points="696.99 615.63 695.77 637.17 674.94 637.17 676.3 596.6 678.21 530.03 688.34 597.08 693.32 597.08 696.99 615.63"/>
          <polygon class="cls-32" points="675.27 637.17 531.74 637.17 528.51 530.03 679.46 527.92 675.27 637.17"/>
          <polygon class="cls-17" points="672.63 535.67 672.16 553.3 672.12 554.69 671.84 565.12 671.8 566.53 671.52 576.95 671.49 578.36 671.2 588.77 671.17 590.18 670.89 600.59 670.85 602 670.59 612.41 670.53 613.82 670.27 624.24 670.22 625.66 669.92 637.17 537.08 637.17 536.74 625.66 536.69 624.24 536.39 613.82 536.35 612.41 536.04 602 536 600.59 535.69 590.18 535.65 588.77 535.33 578.36 535.3 576.95 535 566.53 534.95 565.12 534.65 554.69 534.61 553.3 534.08 535.67 672.63 535.67"/>
          <g>
            <polygon class="cls-19" points="672.16 553.3 672.12 554.69 534.65 554.69 534.61 553.3 672.16 553.3"/>
            <polygon class="cls-19" points="671.84 565.12 671.8 566.53 535 566.53 534.95 565.12 671.84 565.12"/>
            <polygon class="cls-19" points="671.52 576.95 671.49 578.36 535.33 578.36 535.3 576.95 671.52 576.95"/>
            <polygon class="cls-19" points="671.2 588.77 671.17 590.18 535.69 590.18 535.65 588.77 671.2 588.77"/>
            <polygon class="cls-19" points="670.89 600.59 670.85 602 536.04 602 536 600.59 670.89 600.59"/>
            <polygon class="cls-19" points="670.59 612.41 670.53 613.82 536.39 613.82 536.35 612.41 670.59 612.41"/>
            <polygon class="cls-19" points="670.27 624.24 670.22 625.66 536.74 625.66 536.69 624.24 670.27 624.24"/>
          </g>
          <polygon class="cls-56" points="545.99 637.17 508.85 637.17 517.21 493.06 536.14 535.67 545.99 637.17"/>
          <polygon class="cls-31" points="528.51 530.03 679.46 527.92 675.27 637.17 678.21 530.03 528.51 530.03"/>
          <polygon class="cls-32" points="666.33 540.05 664.86 551.16 663.68 560.11 549.67 560.41 544.21 560.43 542.17 540.05 666.33 540.05"/>
          <polygon class="cls-12" points="662.28 543.81 661.29 551.33 660.62 556.35 548.54 556.65 547.38 556.65 546.08 543.81 662.28 543.81"/>
          <polygon class="cls-46" points="547.38 556.65 546.08 543.82 662.27 543.82 661.75 547.75 547.75 546.32 548.47 556.65 547.38 556.65"/>
          <polygon class="cls-20" points="661.29 551.33 660.62 556.35 548.54 556.65 661.29 551.33"/>
          <rect class="cls-32" x="602.85" y="542.25" width="2.35" height="17.54"/>
          <g>
            <rect class="cls-32" x="565.35" y="542.25" width="2.35" height="17.54"/>
            <rect class="cls-32" x="640.34" y="542.25" width="2.35" height="17.54"/>
          </g>
          <polygon class="cls-56" points="537.08 637.17 534.09 535.67 672.63 535.67 672.41 543.07 544.22 545.07 540.99 637.17 537.08 637.17"/>
          <polygon class="cls-26" points="299.71 597.08 294.22 637.17 231.03 637.17 226.48 597.08 299.71 597.08"/>
          <polygon class="cls-41" points="261.07 597.08 258.48 637.17 231.03 637.17 226.48 597.08 261.07 597.08"/>
          <polygon class="cls-7" points="286.28 606.47 239.17 606.47 238.51 597.08 287.53 597.08 286.28 606.47"/>
          <polygon class="cls-7" points="289.59 615.87 235.87 615.87 234.84 606.47 290.47 606.47 289.59 615.87"/>
          <polygon class="cls-7" points="292.67 625.27 232.79 625.27 231.25 615.87 294.21 615.87 292.67 625.27"/>
          <polygon class="cls-7" points="294.21 634.67 231.25 634.67 230.44 625.27 294.87 625.27 294.21 634.67"/>
          <rect class="cls-7" x="225.52" y="634.67" width="74.19" height="2.5"/>
          <polygon class="cls-36" points="287.53 597.08 238.51 597.08 239.17 606.47 240.57 606.47 241.15 599.26 287.26 599.11 287.53 597.08"/>
          <polygon class="cls-36" points="290.47 606.47 234.84 606.47 235.87 615.87 237.41 615.87 236.75 607.92 290.29 608.39 291.02 606.47 290.47 606.47"/>
          <polygon class="cls-36" points="294.21 615.87 231.25 615.87 232.79 625.27 234.11 625.11 234.11 618.22 293.8 618.36 294.21 615.87"/>
          <polygon class="cls-36" points="294.87 625.27 230.44 625.27 231.25 634.67 233.67 634.58 233.45 627.77 294.87 627.77 294.87 625.27"/>
          <polygon class="cls-32" points="294.7 634.54 299.29 596.88 357.71 597.08 302.47 601.65 294.7 634.54"/>
          <polygon class="cls-37" points="157.25 392.04 166.75 391.89 288.26 309.9 409.78 392.2 419.47 392.12 287.38 303.55 157.25 392.04"/>
          <g>
            <g>
              <polygon class="cls-32" points="218.7 597.23 215.4 597.23 214.74 575.22 218.92 575.22 218.7 597.23"/>
              <polygon class="cls-10" points="218.19 575.22 217.97 597.23 218.7 597.23 218.92 575.22 218.19 575.22"/>
            </g>
            <g>
              <polygon class="cls-32" points="205.77 597.23 202.46 597.23 201.8 575.22 205.99 575.22 205.77 597.23"/>
              <polygon class="cls-10" points="205.25 575.22 205.03 597.23 205.77 597.23 205.99 575.22 205.25 575.22"/>
            </g>
            <g>
              <polygon class="cls-32" points="192.83 597.23 189.53 597.23 188.87 575.22 193.05 575.22 192.83 597.23"/>
              <polygon class="cls-10" points="192.32 575.22 192.1 597.23 192.83 597.23 193.05 575.22 192.32 575.22"/>
            </g>
            <g>
              <polygon class="cls-32" points="179.9 597.23 176.6 597.23 175.94 575.22 180.12 575.22 179.9 597.23"/>
              <polygon class="cls-10" points="179.39 575.22 179.17 597.23 179.9 597.23 180.12 575.22 179.39 575.22"/>
            </g>
            <g>
              <polygon class="cls-32" points="166.97 597.23 163.66 597.23 163 575.22 167.19 575.22 166.97 597.23"/>
              <polygon class="cls-18" points="166.45 575.22 166.23 597.23 166.97 597.23 167.19 575.22 166.45 575.22"/>
            </g>
          </g>
          <g>
            <g>
              <polygon class="cls-32" points="359.37 597.23 356.07 597.23 355.41 575.22 359.59 575.22 359.37 597.23"/>
              <polygon class="cls-18" points="358.86 575.22 358.64 597.23 359.37 597.23 359.59 575.22 358.86 575.22"/>
            </g>
            <g>
              <polygon class="cls-32" points="346.44 597.23 343.13 597.23 342.47 575.22 346.66 575.22 346.44 597.23"/>
              <polygon class="cls-10" points="345.92 575.22 345.7 597.23 346.44 597.23 346.66 575.22 345.92 575.22"/>
            </g>
            <g>
              <polygon class="cls-32" points="333.5 597.23 330.2 597.23 329.54 575.22 333.72 575.22 333.5 597.23"/>
              <polygon class="cls-10" points="332.99 575.22 332.77 597.23 333.5 597.23 333.72 575.22 332.99 575.22"/>
            </g>
            <g>
              <polygon class="cls-32" points="320.57 597.23 317.27 597.23 316.61 575.22 320.79 575.22 320.57 597.23"/>
              <polygon class="cls-10" points="320.06 575.22 319.84 597.23 320.57 597.23 320.79 575.22 320.06 575.22"/>
            </g>
            <g>
              <polygon class="cls-32" points="307.64 597.23 304.33 597.23 303.67 575.22 307.86 575.22 307.64 597.23"/>
              <polygon class="cls-10" points="307.12 575.22 306.9 597.23 307.64 597.23 307.86 575.22 307.12 575.22"/>
            </g>
          </g>
          <polygon class="cls-32" points="162.78 637.17 160.48 597.08 226.48 597.08 164.1 600.52 162.78 637.17"/>
          <rect class="cls-32" x="160.36" y="574.44" width="62.96" height="3.05"/>
          <rect class="cls-32" x="299.71" y="574.44" width="62.96" height="3.05"/>
          <polygon class="cls-37" points="419.47 392.12 411.69 473.18 404.66 473.1 409.78 392.2 419.47 392.12"/>
          <g>
            <g>
              <polygon class="cls-51" points="517.21 493.06 510.73 604.59 508.41 644.69 360.47 644.69 358.15 604.59 351.66 493.06 433.86 422.9 517.21 493.06"/>
              <polygon class="cls-32" points="514.86 604.59 512.41 644.69 356.46 644.69 354.01 604.59 514.86 604.59"/>
            </g>
            <polygon class="cls-31" points="356.46 644.69 354.01 604.59 514.86 604.59 514.59 609 364.29 609.6 360.47 644.69 356.46 644.69"/>
          </g>
          <polygon class="cls-56" points="166.75 391.89 288.26 309.9 409.78 392.2 288.36 319.14 166.75 391.89"/>
          <polygon class="cls-56" points="157.25 392.01 287.38 303.55 419.47 392.12 288.26 307.78 157.25 392.01"/>
          <polygon class="cls-32" points="433.86 422.9 351.66 493.06 358.15 604.59 365.75 604.59 358.48 495.18 433.94 427.6 511.52 494.04 503.42 604.59 510.73 604.59 517.21 493.06 433.86 422.9"/>
          <polygon class="cls-11" points="351.66 493.06 344.57 493.06 433.89 416.32 525.29 493.06 517.21 493.06 433.86 422.9 351.66 493.06"/>
          <polygon class="cls-56" points="358.26 495.24 433.94 427.72 511.3 494.1 434.22 433.77 358.26 495.24"/>
          <polygon class="cls-56" points="351.66 493.06 433.86 422.9 517.21 493.06 433.94 425.6 351.66 493.06"/>
          <g>
            <rect class="cls-23" x="483.1" y="543.82" width="14.75" height="5.8"/>
            <rect class="cls-23" x="475.18" y="550.63" width="14.75" height="5.8"/>
            <rect class="cls-23" x="490.81" y="550.63" width="14.75" height="5.8"/>
          </g>
          <g>
            <rect class="cls-23" x="316.67" y="357.27" width="14.75" height="5.8"/>
            <rect class="cls-23" x="308.75" y="364.09" width="14.75" height="5.8"/>
            <rect class="cls-23" x="324.38" y="364.09" width="14.75" height="5.8"/>
          </g>
          <rect class="cls-33" x="469.01" y="520.79" width="14.75" height="5.8"/>
          <rect class="cls-23" x="376.99" y="494.48" width="14.75" height="5.8"/>
          <rect class="cls-23" x="278.81" y="338.01" width="14.75" height="5.8"/>
          <rect class="cls-23" x="238.03" y="417.99" width="14.75" height="5.8"/>
          <rect class="cls-23" x="242.44" y="425.64" width="14.75" height="5.8"/>
          <rect class="cls-23" x="249.75" y="349.76" width="14.75" height="5.8"/>
          <rect class="cls-23" x="380.39" y="396.98" width="14.75" height="5.8"/>
          <rect class="cls-23" x="388.32" y="404.5" width="14.75" height="5.8"/>
          <rect class="cls-33" x="222.33" y="370.2" width="14.75" height="5.8"/>
          <rect class="cls-33" x="374.42" y="427.83" width="14.75" height="5.8"/>
          <rect class="cls-23" x="174.78" y="434.81" width="14.75" height="5.8"/>
          <rect class="cls-23" x="180.02" y="412.16" width="14.75" height="5.8"/>
          <rect class="cls-33" x="215.95" y="363.62" width="14.75" height="5.8"/>
          <rect class="cls-23" x="370.17" y="501.06" width="14.75" height="5.8"/>
          <rect class="cls-23" x="385.58" y="546.17" width="14.75" height="5.8"/>
          <rect class="cls-33" x="400.11" y="475.68" width="14.75" height="5.8"/>
          <rect class="cls-23" x="369.73" y="546.17" width="14.75" height="5.8"/>
          <rect class="cls-33" x="377.43" y="552.98" width="14.75" height="5.8"/>
          <rect class="cls-23" x="467.69" y="589.87" width="14.75" height="5.8"/>
          <rect class="cls-23" x="459.99" y="476.62" width="14.75" height="5.8"/>
          <ellipse class="cls-32" cx="434.2" cy="465.62" rx="14.79" ry="14.15"/>
          <path class="cls-12" d="M445.68,465.62c0,2.43-.83,4.68-2.23,6.5-2.09,2.72-5.46,4.48-9.26,4.48-6.34,0-11.47-4.92-11.47-10.99,0-.4.02-.79.07-1.18.61-5.52,5.48-9.82,11.41-9.82,6.35,0,11.48,4.93,11.48,11Z"/>
          <path class="cls-20" d="M445.68,465.62c0,2.43-.83,4.68-2.23,6.5l-20.66-7.68c.61-5.52,5.48-9.82,11.41-9.82,6.35,0,11.48,4.93,11.48,11Z"/>
          <path class="cls-46" d="M425.11,465.81c0-6.01,5.04-10.88,11.28-10.98-.71-.13-1.44-.21-2.19-.21-6.34,0-11.48,4.92-11.48,10.99s5.14,10.99,11.48,10.99c.07,0,.13,0,.2,0-5.29-.98-9.29-5.43-9.29-10.78Z"/>
          <g>
            <polygon class="cls-56" points="235.67 389.24 237.25 391.24 236.68 466.31 203.77 466.21 200.63 464.53 235.67 389.24"/>
            <g>
              <polygon class="cls-37" points="234.87 464.31 200.63 464.53 197.73 388.85 235.67 389.24 234.87 464.31"/>
              <polygon class="cls-46" points="231.5 391.45 231.15 433.52 230.93 461 204.25 461.18 201.94 391.04 231.5 391.45"/>
              <rect class="cls-37" x="215.91" y="389.68" width="1.68" height="73.79" transform="translate(-2.79 1.43) rotate(-.38)"/>
              <rect class="cls-37" x="200.18" y="405.74" width="33.58" height="1.59" transform="translate(-2.66 1.43) rotate(-.38)"/>
              <polygon class="cls-20" points="231.15 433.52 230.93 461 207.91 461.15 210.04 449 231.15 433.52"/>
            </g>
          </g>
          <g>
            <polygon class="cls-56" points="303.45 389.24 305.03 391.24 304.46 466.31 271.55 466.21 268.41 464.53 303.45 389.24"/>
            <g>
              <polygon class="cls-37" points="302.65 464.31 268.41 464.53 265.5 388.85 303.45 389.24 302.65 464.31"/>
              <polygon class="cls-46" points="299.27 391.45 298.93 433.52 298.71 461 272.03 461.18 269.72 391.04 299.27 391.45"/>
              <rect class="cls-37" x="283.69" y="389.68" width="1.68" height="73.79" transform="translate(-2.79 1.87) rotate(-.38)"/>
              <rect class="cls-37" x="267.96" y="405.74" width="33.58" height="1.59" transform="translate(-2.66 1.87) rotate(-.38)"/>
              <polygon class="cls-20" points="298.93 433.52 298.71 461 275.69 461.15 277.82 449 298.93 433.52"/>
            </g>
          </g>
          <g>
            <polygon class="cls-56" points="455.08 508.86 456.87 511.01 456.19 591.75 418.84 591.66 415.27 589.86 455.08 508.86"/>
            <g>
              <polygon class="cls-32" points="454.14 589.6 415.27 589.86 412.01 508.46 455.08 508.86 454.14 589.6"/>
              <polygon class="cls-46" points="450.34 511.24 449.93 556.49 449.67 586.04 419.39 586.24 416.79 510.81 450.34 511.24"/>
              <rect class="cls-32" x="432.63" y="509.34" width="1.91" height="79.36" transform="translate(-3.59 2.86) rotate(-.38)"/>
              <rect class="cls-32" x="414.78" y="526.62" width="38.12" height="1.71" transform="translate(-3.45 2.85) rotate(-.38)"/>
              <polygon class="cls-20" points="449.93 556.49 449.67 586.04 423.54 586.22 425.96 573.15 449.93 556.49"/>
            </g>
          </g>
          <g>
            <polygon class="cls-56" points="363.52 389.24 365.1 391.24 364.52 466.31 331.61 466.21 328.47 464.53 363.52 389.24"/>
            <g>
              <polygon class="cls-37" points="362.72 464.31 328.47 464.53 325.57 388.85 363.52 389.24 362.72 464.31"/>
              <polygon class="cls-46" points="359.34 391.45 358.99 433.52 358.77 461 332.1 461.18 329.79 391.04 359.34 391.45"/>
              <rect class="cls-37" x="343.75" y="389.68" width="1.68" height="73.79" transform="translate(-2.79 2.27) rotate(-.38)"/>
              <rect class="cls-37" x="328.02" y="405.74" width="33.58" height="1.59" transform="translate(-2.66 2.27) rotate(-.38)"/>
              <polygon class="cls-20" points="358.99 433.52 358.77 461 335.75 461.15 337.88 449 358.99 433.52"/>
            </g>
          </g>
        </g>
        <polygon class="cls-35" points="869.84 688.44 719.37 688.81 720.66 692.54 869.84 692.54 869.84 688.44"/>
        <polygon class="cls-35" points="-221.64 687.77 -225.17 687.76 -288.3 687.49 -288.3 693.71 -224.18 693.66 -222.8 693.66 186.9 693.35 189.32 689.46 -221.64 687.77"/>
        <polygon class="cls-6" points="187 693.22 186.9 693.35 -288.3 693.72 -288.3 699.03 187.25 700.19 191.94 693.22 229.61 637.11 187 693.22"/>
        <path class="cls-6" d="M296.28,637.11c-.22,1.7,30.1,66.01,30.1,66.01l192.87.29,22.36-66.26-23.33,60.38-191.35-.15-30.65-60.28Z"/>
        <polygon class="cls-6" points="869.84 692.54 720.66 692.54 667.48 637.56 719.83 698.13 869.84 698.42 869.84 692.54"/>
        <g>
          <polygon class="cls-13" points="78.13 688.8 77.04 694.37 76.97 694.69 75.93 700.19 75.59 694.69 75.57 694.37 74.6 688.79 78.13 688.8"/>
          <polygon class="cls-39" points="78.13 688.8 76.97 694.69 75.93 700.19 76.49 694.53 78.13 688.8"/>
        </g>
        <g>
          <polygon class="cls-13" points="421.25 692.07 420.15 697.71 420.09 698.04 419.05 703.61 418.71 698.04 418.69 697.71 417.72 692.06 421.25 692.07"/>
          <polygon class="cls-39" points="421.25 692.07 420.09 698.04 419.05 703.61 419.6 697.88 421.25 692.07"/>
        </g>
        <polygon class="cls-13" points="-288.3 697.08 -288.3 699.02 187.25 698.82 -288.3 697.08"/>
        <polygon class="cls-13" points="326.39 703.13 519.22 703.42 418.96 704.7 326.48 703.13 326.39 703.13"/>
        <polygon class="cls-13" points="869.84 698.13 719.83 698.13 869.84 700.44 869.84 698.13"/>
        <polygon class="cls-62" points="332.72 650.49 333.82 644.32 335.75 647.26 337.68 639.03 338.78 646.97 341.54 641.38 341.26 646.97 344.85 644.03 344.29 650.49 332.72 650.49"/>
        <polygon class="cls-4" points=".53 675.68 1.63 669.51 3.56 672.45 5.49 664.22 6.59 672.16 9.35 666.57 9.07 672.16 12.66 669.21 12.1 675.68 .53 675.68"/>
        <polygon class="cls-4" points="79.98 677.94 81.08 671.76 83.01 674.7 84.93 666.47 86.04 674.41 88.79 668.82 88.52 674.41 92.1 671.47 91.55 677.94 79.98 677.94"/>
        <polygon class="cls-4" points="706.97 651.87 708.08 645.69 710.01 648.63 711.93 640.4 713.04 648.34 715.79 642.75 715.52 648.34 719.1 645.4 718.55 651.87 706.97 651.87"/>
        <polygon class="cls-62" points="323.63 649.46 321.7 646.23 326.39 649.17 325.56 636.53 329.69 648.58 331.34 643.88 332.17 650.94 323.63 649.46"/>
        <polygon class="cls-62" points="472.96 651.67 473.51 647.26 476.27 649.91 481.5 637.56 480.13 650.79 484.54 646.08 484.81 650.2 492.53 644.91 492.8 651.67 472.96 651.67"/>
        <polygon class="cls-62" points="140.87 650.89 141.42 646.48 144.17 649.12 149.41 636.77 148.03 650 152.44 645.3 152.71 649.42 160.43 644.12 160.7 650.89 140.87 650.89"/>
        <polygon class="cls-62" points="404.91 646.97 407.94 649.32 409.04 642.85 411.52 649.02 414.55 640.5 414.55 649.91 419.79 642.26 417.86 651.67 405.18 653.14 404.91 646.97"/>
        <polygon class="cls-4" points="365.42 681.96 363.95 675.29 366.52 677.64 368.72 671.37 369.46 679.6 373.5 674.51 373.13 680.39 376.81 676.08 377.54 679.21 381.95 672.94 382.68 678.04 386.36 676.47 387.46 678.82 391.5 676.08 391.87 680.78 399.22 674.51 396.64 685.09 365.42 681.96"/>
        <path class="cls-4" d="M780.17,677.25l-2.2-5.88,4.41,3.14,1.84-7.06,1.84,6.67s5.51-13.33,5.14-12.15c-.37,1.18-1.47,10.98-1.47,10.98l5.14-4.7v5.1l5.14-2.74.37,3.14,4.41-2.74,1.1,3.53,4.78-6.27.73,5.49,8.45-7.84-1.1,8.63,5.14-5.1-.37,5.49,4.04-3.53-1.1,7.06-46.29-1.18Z"/>
        <polygon class="cls-6" points="552.04 682.25 548.46 693.42 553.97 681.37 552.04 682.25"/>
        <polygon class="cls-6" points="581.89 681.47 586.11 679.41 586.2 681.47 591.9 681.37 594.65 675.68 596.31 681.96 581.89 681.47"/>
        <polygon class="cls-6" points="618.9 653.73 622.76 661.57 621.47 653.58 618.9 653.73"/>
        <polygon class="cls-6" points="650.13 653.58 649.92 650.79 653.5 654.1 650.13 653.58"/>
        <polygon class="cls-6" points="518.29 697.54 513.1 692.24 517.05 697.54 518.29 697.54"/>
        <polygon class="cls-6" points="633.32 681.96 639.1 692.54 636.49 681.96 633.32 681.96"/>
        <polygon class="cls-6" points="724.06 688.92 720.66 692.54 719.65 691.66 724.06 688.92"/>
        <polygon class="cls-6" points="330.09 691.96 326.94 697.39 325.83 695.63 330.09 691.96"/>
        <polygon class="cls-6" points="184.42 689.53 187.18 693.72 184.9 693.87 184.42 689.53"/>
        <polygon class="cls-6" points="228.85 654.02 233.4 647.55 231.74 654.17 228.85 654.02"/>
        <path class="cls-6" d="M227.61,681.96l-1.1,4.56,2.07-3.38s.14,2.79.14,2.35,4.68-3.38,4.68-3.38l-5.79-.15Z"/>
        <polygon class="cls-6" points="270.59 653.88 271.83 659.32 272.93 653.43 270.59 653.88"/>
        <polygon class="cls-6" points="263.7 681.81 266.05 676.81 266.73 682.1 263.7 681.81"/>
        <polygon class="cls-6" points="238.91 681.96 244.14 672.55 241.66 682.1 238.91 681.96"/>
        <path class="cls-6" d="M291.58,673.14c0,.76-1.73,1.37-3.86,1.37s-3.86-.61-3.86-1.37,1.73-1.37,3.86-1.37,3.86.61,3.86,1.37Z"/>
        <path class="cls-6" d="M282.03,669.21c0,.36-.82.65-1.84.65s-1.84-.29-1.84-.65.82-.65,1.84-.65,1.84.29,1.84.65Z"/>
        <path class="cls-6" d="M239.41,644.58c0,.36-.82.65-1.84.65s-1.84-.29-1.84-.65.82-.65,1.84-.65,1.84.29,1.84.65Z"/>
        <path class="cls-6" d="M210.57,696.72c0,.36-.82.65-1.84.65s-1.84-.29-1.84-.65.82-.65,1.84-.65,1.84.29,1.84.65Z"/>
        <ellipse class="cls-6" cx="195.88" cy="708.42" rx="3.67" ry="1.31"/>
        <ellipse class="cls-6" cx="143.9" cy="704.3" rx="3.67" ry="1.31"/>
        <ellipse class="cls-6" cx="29.28" cy="713.32" rx="3.31" ry="1.18"/>
        <path class="cls-6" d="M9.44,706.26c0,.65-1.48,1.18-3.31,1.18s-3.31-.53-3.31-1.18,1.48-1.18,3.31-1.18,3.31.53,3.31,1.18Z"/>
        <ellipse class="cls-6" cx="303.52" cy="692.54" rx="2.76" ry=".98"/>
        <ellipse class="cls-6" cx="378.18" cy="711.17" rx="2.76" ry=".98"/>
        <ellipse class="cls-6" cx="368.26" cy="714.3" rx="2.48" ry=".88"/>
        <path class="cls-6" d="M503.82,707.54c0,.87-1.97,1.57-4.41,1.57s-4.41-.7-4.41-1.57,1.97-1.57,4.41-1.57,4.41.7,4.41,1.57Z"/>
        <ellipse class="cls-6" cx="694.21" cy="686.66" rx="4.41" ry="1.57"/>
        <ellipse class="cls-6" cx="766.95" cy="707.24" rx="4.41" ry="1.57"/>
        <ellipse class="cls-6" cx="778.52" cy="709.6" rx="4.41" ry="1.57"/>
        <path class="cls-6" d="M688.7,691.37c0,.49-1.11.88-2.48.88s-2.48-.39-2.48-.88,1.11-.88,2.48-.88,2.48.39,2.48.88Z"/>
        <path class="cls-6" d="M607.14,707.24c0,.49-1.11.88-2.48.88s-2.48-.39-2.48-.88,1.11-.88,2.48-.88,2.48.39,2.48.88Z"/>
        <ellipse class="cls-6" cx="609.62" cy="710.19" rx="2.48" ry=".88"/>
        <ellipse class="cls-6" cx="653.98" cy="647.26" rx="2.48" ry=".88"/>
        <path class="cls-6" d="M634.7,660.2c0,.49-1.11.88-2.48.88s-2.48-.39-2.48-.88,1.11-.88,2.48-.88,2.48.39,2.48.88Z"/>
        <ellipse class="cls-6" cx="542.67" cy="659.61" rx="3.31" ry="1.18"/>
        <path class="cls-6" d="M550.39,661.96c0,.22-.49.39-1.1.39s-1.1-.18-1.1-.39.49-.39,1.1-.39,1.1.18,1.1.39Z"/>
        <path class="cls-6" d="M562.23,643.34c0,.22-.49.39-1.1.39s-1.1-.18-1.1-.39.49-.39,1.1-.39,1.1.18,1.1.39Z"/>
        <path class="cls-6" d="M298.01,697.05c0,.32-.74.59-1.65.59s-1.65-.26-1.65-.59.74-.59,1.65-.59,1.65.26,1.65.59Z"/>
        <polygon class="cls-4" points="102.32 674.67 102.87 670.26 105.62 672.91 110.86 660.56 109.48 673.79 113.89 669.09 114.16 673.2 121.88 667.91 122.15 674.67 102.32 674.67"/>
        <g class="cls-65">
          <path class="cls-59" d="M-1.29,308.17l-210.15,3.17c-14.27.22-27.41-7.45-33.79-19.71l-11.45-21.98c-6.63-12.74-4.58-27.65,4.3-38.2,2.42-2.87,5.34-5.42,8.73-7.53l18.84-11.67c5.93-3.67,12.88-5.54,19.94-5.35l29.03.78c12.78.34,24.86,6.15,32.4,16.07,5.55,7.3,8.52,16.71,1.91,27.29,0,0,29.37-7.76,38.92-4.94,9.55,2.82,17.62,18.34,17.62,18.34,0,0-.54,10.81-9.85,15.72,11.61-3.77,38.07-11.03,46.57-2.32,0,0,6.61,8.79,5.87,14.18-.01.13-.04.25-.07.37.14-.22.28-.45.43-.69,4.74-7.46,18.14-25.42,33.42-18.08,1.37.66,2.66,1.36,3.87,2.09,15.65,9.55,17.78,25.26,3.47,32.46Z"/>
          <path class="cls-55" d="M-1.29,308.17l-210.15,3.17c-14.27.22-27.41-7.45-33.79-19.71l-11.45-21.98c-6.63-12.74-4.58-27.65,4.3-38.2.65,9.22,3.97,18.43,8.82,26.48,7.07,11.72,17.11,21.44,27.39,30.78-8.04-8.84-10.27-22.14-7.88-33.89,2.15-10.57,7.37-20.23,13.21-29.51-2.01,5.59-1.86,12.05-.08,17.79,2.73,8.79,8.65,16.31,14.45,23.6,6.66,8.38,14.37,17.39,25.21,19.08,8.5,1.33,17.33-2.45,23.11-8.58,5.77-6.14,8.76-14.32,9.78-22.54-1.02,11.02,5.35,22.34,15.51,27.56,8.99,4.62,20.46,4.22,29.21-.74-1.8,2.25-2.22,5.66-.66,8.15,2.27,3.63,7.67,4.8,11.66,3,3.99-1.81,6.44-6.06,6.61-10.3,1.91,7.14,8.32,12.98,15.85,14.43,6.26,1.21,13.03-.68,17.78-4.74.12-.11.25-.21.37-.32.82-.73,1.58-1.53,2.25-2.4,5.55,9.4,20.25,12.29,29.21,5.75,6.96-5.08,5.94-12.57,5.82-19.35,15.65,9.55,17.78,25.26,3.47,32.46Z"/>
        </g>
        <g class="cls-64">
          <path class="cls-59" d="M850.15,249.34l-13.03,25.4-47.73.51-4.12.05-24.13.26-20.93-.22-7.43-.07-37.98-.4h-.99s-70.27-.74-70.27-.74l-25.61-.26-21.18-.22s-58.55-.61-58.55-.61c-2.35-2.79-3.23-6.92-1.6-10.77l2.21-5.24c1.75-4.15,5.18-7.22,9.33-8.33l4.26-1.14c5.78-1.53,11.85,1.03,15.07,6.38l5.41,9c2.76,4.57,8.32,6.15,12.84,3.65l3.45-1.92s.11-.06.32-.15c.39-.2,1.14-.58,2.14-1.06,2.08-.99,5.22-2.42,8.6-3.71,4.11-1.57,8.55-2.91,11.72-2.91,2.9,0,18.59,5.87,24.73,8.22,1.52.58,2.46.94,2.46.94l-7.39-17.11-2.4-5.55c-1.79-4.16-1.64-8.97.41-12.99.03-.06.06-.12.09-.18,1.11-2.16,2.41-4.67,3.8-7.25,4.48-8.38,9.7-17.47,11.33-17.46,3.03.03,47.01-6.78,53.05-4.3,4.63,1.91,16.19,26.74,21.31,38.18,1.62,3.62,1.76,7.77.41,11.51l-6.43,17.55s1.78-2.04,4.11-4.51c2.53-2.67,5.73-5.83,8.1-7.49,1.5-1.04,5.16-.41,9.42.9,8.77,2.69,20.04,8.3,20.04,8.3,0,0,.96-4.85,4.36-9.62,1.88-2.64,4.53-5.24,8.17-6.98.16-.08.32-.17.49-.24,8.79-3.92,23.65,6.57,28.56,10.34.9.7,1.48,1.17,1.6,1.26-.54-.68-10.37-13.31-7.32-24.29.05-.16.09-.33.15-.5.86-2.49,3.13-5.34,6.27-8.22.84-.77,1.73-1.55,2.69-2.33,11.68-9.46,31.23-18.55,40.36-16.73,8.39,1.67,20.56,14.75,27.99,23.63,2.27,2.71,3.49,6.13,3.6,9.6.08,2.67-.49,5.37-1.75,7.81Z"/>
          <path class="cls-55" d="M597.92,273.85l-21.18-.22s-58.55-.61-58.55-.61c-2.35-2.79-3.23-6.92-1.6-10.77l2.21-5.24c1.75-4.15,5.18-7.22,9.33-8.33l4.26-1.14c5.78-1.53,11.85,1.03,15.07,6.38l5.41,9c2.76,4.57,8.32,6.15,12.84,3.65l3.45-1.92s.11-.06.32-.15c2.34,2.93,4.67,5.85,7.02,8.78-1.95-3.18-3.62-6.47-4.87-9.84,2.08-.99,5.22-2.42,8.6-3.71,5.2,5.61,11.21,10.37,17.72,14.12Z"/>
          <path class="cls-55" d="M693.8,274.85l-70.27-.73c-2.51-2.84-4.8-5.86-6.88-9.07,1.52.58,2.46.94,2.46.94l-7.39-17.11c5.96,6.54,14.45,10.52,23.03,10.31-12.15-4.5-21.19-15.97-24.92-29.04,1.11-2.16,2.41-4.67,3.8-7.25,3.05,7.37,8.04,14.03,14,19.03,11.43,9.61,25.85,14.15,40.08,17.36,6.84,1.54,13.96,2.94,19.67,7.23,2.75,2.06,5.07,5.03,6.43,8.33Z"/>
          <path class="cls-55" d="M732.77,275.26l-37.98-.4c.53-3.74,1.41-7.43,2.62-10.98,2.53-2.67,5.73-5.83,8.1-7.49,1.5-1.04,5.16-.41,9.42.9,5.34,6.63,11.33,12.67,17.83,17.98Z"/>
          <path class="cls-55" d="M785.26,275.29l-24.13.26-20.93-.22c-.84-1.89-1.44-3.87-1.81-5.92-.82-4.47-.44-9.14.95-13.45,1.88-2.64,4.53-5.24,8.17-6.98,9.24,13.05,22.85,22.52,37.76,26.31Z"/>
          <path class="cls-55" d="M850.15,249.34l-13.03,25.4-47.73.51c-4.87-4.8-9.18-10.24-12.83-16.16.9.7,1.48,1.17,1.6,1.26-.54-.68-10.37-13.31-7.32-24.29.05-.16.09-.33.15-.5,11.06,13.67,27.62,22.31,44.59,22.64-16.59-2.34-31.42-14.68-38.32-30.86.84-.77,1.73-1.55,2.69-2.33,8.48,10.26,19.91,17.76,32.38,21.01,7.42,1.94,15.18,2.35,22.75,1.34,5.92-.81,11.32-3.98,16.81-5.84.08,2.67-.49,5.37-1.75,7.81Z"/>
          <path class="cls-59" d="M781.7,254.45s17.42,16.94,36.94,11.37c0,0-21.65,13.4-36.94-11.37Z"/>
        </g>
        <path class="cls-62" d="M3.44,634.24s.43-7.06.21-6.38c-.21.68-2.78,4.1-2.78,4.1l-.21-9.57-2.78,8.66-2.35-6.15-.85,5.7-3.63-5.01.64,4.56-3.63-1.82.64,3.19-4.06-.46.64,2.05-7.05-1.37,3.2,3.87,21.99-1.37Z"/>
        <polygon class="cls-4" points="8.99 651.11 8.99 643.25 12.2 650.42 8.99 651.11"/>
        <path class="cls-4" d="M92.91,647.01l2.88-11.96,1.6,10.6s1.92-6.49,1.92-5.47.32,7.18.32,7.18l-6.73-.34Z"/>
        <polygon class="cls-62" points="75.29 628.89 74.65 622.74 77.86 625.81 78.82 617.27 80.42 625.13 83.3 617.61 83.94 624.45 87.14 618.29 87.14 625.13 90.67 620 90.03 628.55 75.29 628.89"/>
        <polygon class="cls-4" points="388.26 660.41 387.54 654.27 390.8 658.67 392 652.5 393.67 657.94 395.53 653.13 396.56 658.58 399.4 654.78 398.83 660.6 388.26 660.41"/>
        <polygon class="cls-4" points="434.65 662.56 432.73 669.91 435.45 669.74 434.65 662.56"/>
        <polygon class="cls-4" points="452.26 657.6 453.55 650.25 454.19 657.77 452.26 657.6"/>
        <polygon class="cls-4" points="352.02 662.56 353.46 654.87 354.26 662.73 352.02 662.56"/>
        <polygon class="cls-62" points="717.46 623.76 719.38 618.29 721.94 621.71 724.18 614.88 724.82 622.05 728.35 616.58 728.67 623.08 732.19 618.29 731.55 627.86 717.46 623.76"/>
        <polygon class="cls-62" points="769.02 628.55 769.66 621.37 771.91 624.45 774.47 618.98 775.11 625.13 779.91 619.32 779.91 625.47 783.76 620.69 784.08 627.86 786.64 623.76 787.6 627.52 789.84 624.1 791.12 627.86 795.93 624.45 796.25 630.26 769.02 628.55"/>
        <path class="cls-4" d="M781.77,649.8l-.07-8.55,3.13,5.31,1.55-8.29,1.3,7.46s2.46-9.37,2.51-8.34.71,8.52.71,8.52l3.58-6,.33,7.17,2.36-4.57-.6,7.9-14.78-.6Z"/>
        <polygon class="cls-4" points="748.21 645.98 749.49 637.78 750.45 645.98 748.21 645.98"/>
        <polygon class="cls-4" points="812.04 658.87 813.67 652.69 815.3 658.99 812.04 658.87"/>
      </g>
    </g>
  </g>
</svg>