<svg width="170" height="40" viewBox="0 0 170 40" fill="none" xmlns="http://www.w3.org/2000/svg">
<g clip-path="url(#clip0_1_3)">
<rect width="170" height="40" fill="white"/>
<path d="M47.5938 25.9375C47.0781 26.0312 46.3828 26.0781 45.5078 26.0781C44.638 26.0781 43.8516 25.9583 43.1484 25.7188C42.4505 25.4792 41.849 25.125 41.3438 24.6562C40.2604 23.651 39.7188 22.25 39.7188 20.4531C39.7188 19.2812 39.9974 18.2656 40.5547 17.4062C41.3099 16.2448 42.4688 15.5052 44.0312 15.1875C44.5104 15.0938 45.0807 15.0469 45.7422 15.0469C46.4089 15.0469 46.9427 15.0833 47.3438 15.1562V16.6484C46.9792 16.5339 46.4141 16.4766 45.6484 16.4766C44.888 16.4766 44.2422 16.5703 43.7109 16.7578C43.1797 16.9453 42.7396 17.2135 42.3906 17.5625C41.6927 18.2448 41.3438 19.2083 41.3438 20.4531C41.3438 21.7083 41.6875 22.7031 42.375 23.4375C43.1198 24.2292 44.1901 24.625 45.5859 24.625C46.4036 24.625 47.0729 24.5625 47.5938 24.4375V25.9375ZM53.3203 26.125C50.3724 26.125 48.8984 24.6849 48.8984 21.8047C48.8984 20.5651 49.3073 19.5729 50.125 18.8281C50.8594 18.151 51.6979 17.8125 52.6406 17.8125C53.6667 17.8125 54.4688 18.1562 55.0469 18.8438C55.5833 19.4844 55.8516 20.3411 55.8516 21.4141V22.0234H50.5234C50.5234 23.4974 51.125 24.3984 52.3281 24.7266C52.6146 24.8047 53.0547 24.8438 53.6484 24.8438C54.2474 24.8438 54.8333 24.763 55.4062 24.6016V25.9219C54.8333 26.0573 54.138 26.125 53.3203 26.125ZM54.2891 20.875C54.2891 20.375 54.151 19.9531 53.875 19.6094C53.5521 19.2135 53.1068 19.0156 52.5391 19.0156C51.9401 19.0156 51.4531 19.2057 51.0781 19.5859C50.7344 19.9401 50.5625 20.3698 50.5625 20.875H54.2891ZM57.9062 14.375H59.4688V22.9453C59.4688 23.9766 59.7031 24.5833 60.1719 24.7656C60.3281 24.8281 60.4948 24.8594 60.6719 24.8594C60.849 24.8594 61.0078 24.8385 61.1484 24.7969V26L60.8594 26.0312C60.7656 26.0417 60.6745 26.0469 60.5859 26.0469C59.5859 26.0469 58.8646 25.7188 58.4219 25.0625C58.0781 24.5469 57.9062 23.8438 57.9062 22.9531V14.375ZM66.6797 26.125C63.7318 26.125 62.2578 24.6849 62.2578 21.8047C62.2578 20.5651 62.6667 19.5729 63.4844 18.8281C64.2188 18.151 65.0573 17.8125 66 17.8125C67.026 17.8125 67.8281 18.1562 68.4062 18.8438C68.9427 19.4844 69.2109 20.3411 69.2109 21.4141V22.0234H63.8828C63.8828 23.4974 64.4844 24.3984 65.6875 24.7266C65.974 24.8047 66.4141 24.8438 67.0078 24.8438C67.6068 24.8438 68.1927 24.763 68.7656 24.6016V25.9219C68.1927 26.0573 67.4974 26.125 66.6797 26.125ZM67.6484 20.875C67.6484 20.375 67.5104 19.9531 67.2344 19.6094C66.9115 19.2135 66.4661 19.0156 65.8984 19.0156C65.2995 19.0156 64.8125 19.2057 64.4375 19.5859C64.0938 19.9401 63.9219 20.3698 63.9219 20.875H67.6484ZM72.9062 26.125C72.2552 26.125 71.5964 26.0781 70.9297 25.9844V24.6016C71.6068 24.763 72.2943 24.8438 72.9922 24.8438C74.388 24.8438 75.0859 24.5495 75.0859 23.9609C75.0859 23.737 75.0312 23.5703 74.9219 23.4609C74.7604 23.2891 74.5052 23.1172 74.1562 22.9453L73.0156 22.4219C72.276 22.0521 71.7969 21.7552 71.5781 21.5312C71.1667 21.1146 70.9609 20.6198 70.9609 20.0469C70.9609 19.401 71.2604 18.875 71.8594 18.4688C72.5052 18.0312 73.4115 17.8125 74.5781 17.8125C75.1667 17.8125 75.7604 17.8542 76.3594 17.9375V19.2734C75.7031 19.1536 75.1302 19.0938 74.6406 19.0938C74.1562 19.0938 73.7786 19.125 73.5078 19.1875C73.2422 19.25 73.0417 19.3281 72.9062 19.4219C72.6927 19.5677 72.5859 19.7578 72.5859 19.9922C72.5859 20.2214 72.6589 20.4089 72.8047 20.5547C72.9557 20.6953 73.1901 20.849 73.5078 21.0156L74.6562 21.5703C75.4062 21.9609 75.888 22.2604 76.1016 22.4688C76.5078 22.8646 76.7109 23.362 76.7109 23.9609C76.7109 24.6016 76.388 25.1172 75.7422 25.5078C75.0651 25.9193 74.1198 26.125 72.9062 26.125ZM81.8281 24.7656C82 24.8281 82.2604 24.8594 82.6094 24.8594C82.9583 24.8594 83.25 24.8177 83.4844 24.7344V25.9844C83.375 26.0104 83.2161 26.026 83.0078 26.0312L82.5156 26.0469C82.4062 26.0469 82.3229 26.0469 82.2656 26.0469C81.2604 26.0469 80.5182 25.7188 80.0391 25.0625C79.6536 24.5312 79.4609 23.8281 79.4609 22.9531V19.1328H78.3047V18.3984L79.4609 17.9375L79.8359 15.9375H81.0234V17.9375H83.5234V19.1328H81.0234V22.9453C81.0234 23.9661 81.2917 24.5729 81.8281 24.7656ZM87.4219 15.5938C87.4219 15.8906 87.3229 16.1198 87.125 16.2812C86.9323 16.4375 86.6901 16.5156 86.3984 16.5156C86.1068 16.5156 85.8646 16.4375 85.6719 16.2812C85.4844 16.1198 85.3906 15.8906 85.3906 15.5938C85.3906 15.2917 85.4844 15.0625 85.6719 14.9062C85.8646 14.75 86.1068 14.6719 86.3984 14.6719C86.6901 14.6719 86.9323 14.75 87.125 14.9062C87.3229 15.0625 87.4219 15.2917 87.4219 15.5938ZM85.5938 17.9375H87.1562V26H85.5938V17.9375ZM89.9766 24.5625C89.8047 24.2656 89.6667 23.9167 89.5625 23.5156C89.4635 23.1146 89.4141 22.5911 89.4141 21.9453C89.4141 21.2995 89.5521 20.7057 89.8281 20.1641C90.1094 19.6172 90.474 19.1693 90.9219 18.8203C91.7917 18.1484 92.8724 17.8125 94.1641 17.8125C94.8359 17.8125 95.3438 17.8281 95.6875 17.8594C95.6875 17.8594 95.9401 17.8854 96.4453 17.9375V26H95.0391L94.9766 25.0703C94.6641 25.487 94.1875 25.7969 93.5469 26C93.3021 26.0781 93.0495 26.1172 92.7891 26.1172C92.5339 26.1172 92.2812 26.0911 92.0312 26.0391C91.7812 25.987 91.5312 25.901 91.2812 25.7812C91.0365 25.6615 90.8021 25.5026 90.5781 25.3047C90.3542 25.1016 90.1536 24.8542 89.9766 24.5625ZM94.8828 19.0859C94.5495 19.0443 94.2161 19.0234 93.8828 19.0234C93.5547 19.0234 93.2031 19.0833 92.8281 19.2031C92.4531 19.3177 92.1328 19.5 91.8672 19.75C91.3151 20.2708 91.0391 21.0651 91.0391 22.1328C91.0391 23.1432 91.276 23.8906 91.75 24.375C92.1094 24.7344 92.5417 24.9141 93.0469 24.9141C93.6979 24.9141 94.2344 24.6771 94.6562 24.2031C94.7604 24.0833 94.8359 23.9766 94.8828 23.8828V19.0859ZM99.2812 14.375H100.844V22.9453C100.844 23.9766 101.078 24.5833 101.547 24.7656C101.703 24.8281 101.87 24.8594 102.047 24.8594C102.224 24.8594 102.383 24.8385 102.523 24.7969V26L102.234 26.0312C102.141 26.0417 102.049 26.0469 101.961 26.0469C100.961 26.0469 100.24 25.7188 99.7969 25.0625C99.4531 24.5469 99.2812 23.8438 99.2812 22.9531V14.375ZM117 25.9375C116.484 26.0312 115.789 26.0781 114.914 26.0781C114.044 26.0781 113.258 25.9583 112.555 25.7188C111.857 25.4792 111.255 25.125 110.75 24.6562C109.667 23.651 109.125 22.25 109.125 20.4531C109.125 19.2812 109.404 18.2656 109.961 17.4062C110.716 16.2448 111.875 15.5052 113.438 15.1875C113.917 15.0938 114.487 15.0469 115.148 15.0469C115.815 15.0469 116.349 15.0833 116.75 15.1562V16.6484C116.385 16.5339 115.82 16.4766 115.055 16.4766C114.294 16.4766 113.648 16.5703 113.117 16.7578C112.586 16.9453 112.146 17.2135 111.797 17.5625C111.099 18.2448 110.75 19.2083 110.75 20.4531C110.75 21.7083 111.094 22.7031 111.781 23.4375C112.526 24.2292 113.596 24.625 114.992 24.625C115.81 24.625 116.479 24.5625 117 24.4375V25.9375ZM119.32 24.5625C119.148 24.2656 119.01 23.9167 118.906 23.5156C118.807 23.1146 118.758 22.5911 118.758 21.9453C118.758 21.2995 118.896 20.7057 119.172 20.1641C119.453 19.6172 119.818 19.1693 120.266 18.8203C121.135 18.1484 122.216 17.8125 123.508 17.8125C124.18 17.8125 124.688 17.8281 125.031 17.8594C125.031 17.8594 125.284 17.8854 125.789 17.9375V26H124.383L124.32 25.0703C124.008 25.487 123.531 25.7969 122.891 26C122.646 26.0781 122.393 26.1172 122.133 26.1172C121.878 26.1172 121.625 26.0911 121.375 26.0391C121.125 25.987 120.875 25.901 120.625 25.7812C120.38 25.6615 120.146 25.5026 119.922 25.3047C119.698 25.1016 119.497 24.8542 119.32 24.5625ZM124.227 19.0859C123.893 19.0443 123.56 19.0234 123.227 19.0234C122.898 19.0234 122.547 19.0833 122.172 19.2031C121.797 19.3177 121.477 19.5 121.211 19.75C120.659 20.2708 120.383 21.0651 120.383 22.1328C120.383 23.1432 120.62 23.8906 121.094 24.375C121.453 24.7344 121.885 24.9141 122.391 24.9141C123.042 24.9141 123.578 24.6771 124 24.2031C124.104 24.0833 124.18 23.9766 124.227 23.8828V19.0859ZM131.922 19.1562C131.146 19.1562 130.456 19.4193 129.852 19.9453V26H128.289V17.9375H129.734L129.844 18.8125C130.693 18.1458 131.57 17.8125 132.477 17.8125C133.435 17.8125 134.138 18.099 134.586 18.6719C135.055 19.276 135.289 20.25 135.289 21.5938V26H133.727V21.5938C133.727 20.3021 133.378 19.5312 132.68 19.2812C132.456 19.1979 132.203 19.1562 131.922 19.1562ZM136.531 17.9375H138.211L140.406 24.4766L142.609 17.9375H144.281L141.195 26H139.625L136.531 17.9375ZM145.977 24.5625C145.805 24.2656 145.667 23.9167 145.562 23.5156C145.464 23.1146 145.414 22.5911 145.414 21.9453C145.414 21.2995 145.552 20.7057 145.828 20.1641C146.109 19.6172 146.474 19.1693 146.922 18.8203C147.792 18.1484 148.872 17.8125 150.164 17.8125C150.836 17.8125 151.344 17.8281 151.688 17.8594C151.688 17.8594 151.94 17.8854 152.445 17.9375V26H151.039L150.977 25.0703C150.664 25.487 150.188 25.7969 149.547 26C149.302 26.0781 149.049 26.1172 148.789 26.1172C148.534 26.1172 148.281 26.0911 148.031 26.0391C147.781 25.987 147.531 25.901 147.281 25.7812C147.036 25.6615 146.802 25.5026 146.578 25.3047C146.354 25.1016 146.154 24.8542 145.977 24.5625ZM150.883 19.0859C150.549 19.0443 150.216 19.0234 149.883 19.0234C149.555 19.0234 149.203 19.0833 148.828 19.2031C148.453 19.3177 148.133 19.5 147.867 19.75C147.315 20.2708 147.039 21.0651 147.039 22.1328C147.039 23.1432 147.276 23.8906 147.75 24.375C148.109 24.7344 148.542 24.9141 149.047 24.9141C149.698 24.9141 150.234 24.6771 150.656 24.2031C150.76 24.0833 150.836 23.9766 150.883 23.8828V19.0859ZM156.922 26.125C156.271 26.125 155.612 26.0781 154.945 25.9844V24.6016C155.622 24.763 156.31 24.8438 157.008 24.8438C158.404 24.8438 159.102 24.5495 159.102 23.9609C159.102 23.737 159.047 23.5703 158.938 23.4609C158.776 23.2891 158.521 23.1172 158.172 22.9453L157.031 22.4219C156.292 22.0521 155.812 21.7552 155.594 21.5312C155.182 21.1146 154.977 20.6198 154.977 20.0469C154.977 19.401 155.276 18.875 155.875 18.4688C156.521 18.0312 157.427 17.8125 158.594 17.8125C159.182 17.8125 159.776 17.8542 160.375 17.9375V19.2734C159.719 19.1536 159.146 19.0938 158.656 19.0938C158.172 19.0938 157.794 19.125 157.523 19.1875C157.258 19.25 157.057 19.3281 156.922 19.4219C156.708 19.5677 156.602 19.7578 156.602 19.9922C156.602 20.2214 156.674 20.4089 156.82 20.5547C156.971 20.6953 157.206 20.849 157.523 21.0156L158.672 21.5703C159.422 21.9609 159.904 22.2604 160.117 22.4688C160.523 22.8646 160.727 23.362 160.727 23.9609C160.727 24.6016 160.404 25.1172 159.758 25.5078C159.081 25.9193 158.135 26.125 156.922 26.125Z" fill="#3F22A8"/>
</g>
<defs>
<clipPath id="clip0_1_3">
<rect width="170" height="40" fill="white"/>
</clipPath>
</defs>
</svg>
